<?xml version="1.0" standalone="no"?>
<!DOCTYPE svg PUBLIC "-//W3C//DTD SVG 1.1//EN" "http://www.w3.org/Graphics/SVG/1.1/DTD/svg11.dtd" >
<svg>
<metadata>
Created by FontForge 20110222 at Thu Feb 13 05:28:51 2014
 By Orthosie Webhosting
(c) 2011 Microsoft Corporation. All Rights Reserved.
</metadata>
<defs>
<font id="web" horiz-adv-x="0" >
  <font-face 
    font-family="GeorgiaPro-Bold"
    font-weight="700"
    font-stretch="normal"
    units-per-em="2048"
    panose-1="2 4 8 2 5 4 5 2 2 3"
    ascent="1638"
    descent="-410"
    x-height="991"
    cap-height="1419"
    bbox="-389 -444 2589 1868"
    underline-thickness="122"
    underline-position="-119"
    unicode-range="U+0020-FB04"
  />
<missing-glyph horiz-adv-x="2048" 
d="M256 0v1536h1536v-1536h-1536zM385 129h1280v1280h-1280v-1280z" />
    <glyph glyph-name="uniFB01" unicode="fi" horiz-adv-x="1423" 
d="M780 0v74q93 3 111 32t18 76v594q0 84 -53 107h-319v-693q0 -60 29 -82.5t104 -33.5v-74h-611v74q96 4 123 29.5t27 78.5v699h-203v106h203v17q0 241 161.5 392.5t420.5 151.5q187 0 289 -59.5t102 -163.5q0 -57 -47 -105.5t-121 -48.5q-196 0 -223 291
q-256 -14 -256 -401v-74h440l248 17l14 -15v-794q0 -52 31 -80t121 -41v-74h-609z" />
    <glyph glyph-name="uniFB02" unicode="fl" horiz-adv-x="1444" 
d="M782 0v74q92 4 121 22t29 86v1084l-28 18q-40 23 -40 168q-31 8 -57 8q-272 0 -272 -403v-70h266v-106h-264v-691q0 -58 27.5 -81.5t109.5 -34.5v-74h-615v74q96 4 123 29.5t27 78.5v699h-203v106h203v17q0 243 161.5 393.5t430.5 150.5q148 0 311 -43l131 43l14 -16
v-1337q0 -106 150 -121v-74h-625z" />
    <glyph glyph-name="uniFB00" unicode="ff" horiz-adv-x="1505" 
d="M1325 1460q-47 -24 -68.5 -99.5t-21.5 -293.5v-80h276v-106h-274v-691q0 -53 40 -79t159 -37v-74h-664v74q82 4 109.5 29t27.5 79v699h-372v-691q0 -49 23 -76t110 -40v-74h-611v74q96 4 123 29.5t27 78.5v699h-203v106h203q0 250 139 395.5t402 145.5q113 0 192.5 -44
t91.5 -112q148 176 410 176q124 0 192 -46.5t68 -123.5q0 -71 -41 -113t-117 -42q-71 0 -115.5 44.5t-105.5 192.5zM909 987q0 119 37 227q-30 -12 -67 -12q-193 0 -224 238q-120 -79 -120 -377v-76h374z" />
    <glyph glyph-name="uniFB03" unicode="ffi" horiz-adv-x="2124" 
d="M1481 0v74q95 3 112 35t17 73v594q0 84 -54 107h-319v-693q0 -60 29.5 -82.5t103.5 -33.5v-74h-596v74q79 4 107 28.5t28 79.5v699h-372v-691q0 -49 23 -76t110 -40v-74h-611v74q96 4 123 29.5t27 78.5v699h-203v106h203q0 250 139 395.5t402 145.5q119 0 201 -49
t85 -121q161 190 455 190q189 0 290 -60t101 -163q0 -59 -47 -106.5t-121 -47.5q-196 0 -223 291q-256 -14 -256 -401v-74h440l248 17l14 -15v-794q0 -102 152 -121v-74h-608zM909 1004q0 115 37 210q-30 -12 -67 -12q-193 0 -224 238q-120 -79 -120 -377v-76h374v17z" />
    <glyph glyph-name="uniFB04" unicode="ffl" horiz-adv-x="2124" 
d="M1481 0v74q94 3 111.5 32t17.5 76v1084q-74 30 -74 184q-18 6 -45 6q-256 0 -256 -399v-70h266v-106h-264v-691q0 -61 28.5 -84t104.5 -32v-74h-598v74q82 4 109.5 29t27.5 79v699h-372v-691q0 -49 23 -76t110 -40v-74h-611v74q96 4 123 29.5t27 78.5v699h-203v106h203
q0 250 139 395.5t402 145.5q117 0 198.5 -47t87.5 -121q156 188 459 188q119 0 266 -49l162 49l14 -16v-1331q0 -59 33 -87t119 -40v-74h-608zM535 987h374v17q0 112 37 210q-30 -12 -67 -12q-193 0 -224 238q-120 -79 -120 -377v-76z" />
    <glyph glyph-name="f_j.liga" unicode="fj" horiz-adv-x="1399" 
d="M1241 119q0 -240 -146.5 -401.5t-392.5 -161.5q-123 0 -187 47.5t-64 124.5q0 66 41.5 110.5t117.5 44.5q72 0 117 -46.5t102 -190.5q47 29 63.5 109.5t16.5 314.5v706q0 84 -53 107h-319v-693q0 -60 29 -82.5t104 -33.5v-74h-611v74q96 4 123 29.5t27 78.5v699h-203v106
h203v17q0 239 161.5 391.5t420.5 152.5q187 0 289 -59.5t102 -163.5q0 -57 -47 -105.5t-121 -48.5q-196 0 -223 291q-256 -14 -256 -401v-74h440l252 17l14 -15v-870z" />
    <glyph glyph-name=".notdef" horiz-adv-x="2048" 
d="M256 0v1536h1536v-1536h-1536zM385 129h1280v1280h-1280v-1280z" />
    <glyph glyph-name="glyph1" 
 />
    <glyph glyph-name="glyph2" horiz-adv-x="1358" 
 />
    <glyph glyph-name="space" unicode=" " horiz-adv-x="520" 
 />
    <glyph glyph-name="space" unicode="&#xa0;" horiz-adv-x="520" 
 />
    <glyph glyph-name="exclam" unicode="!" horiz-adv-x="770" 
d="M424 463h-78q-34 229 -105 531q-51 212 -51 268q0 77 57.5 131.5t137.5 54.5t137.5 -54.5t57.5 -131.5q0 -49 -51 -267q-68 -289 -105 -532zM385 -29q-78 0 -135 54.5t-57 130.5q0 74 56 130t136 56q79 0 136 -55.5t57 -130.5q0 -77 -57.5 -131t-135.5 -54z" />
    <glyph glyph-name="quotedbl" unicode="&#x22;" horiz-adv-x="1044" 
d="M793 823h-68q-20 109 -84 338q-47 167 -47 207q0 68 45 115t121 47q74 0 119 -47t45 -115q0 -40 -47 -207q-64 -229 -84 -338zM319 823h-67q-20 109 -84 338q-47 167 -47 207q0 68 45 115t121 47q74 0 119 -47t45 -115q0 -40 -47 -207q-63 -224 -85 -338z" />
    <glyph glyph-name="numbersign" unicode="#" horiz-adv-x="1440" 
d="M1024 748l-80 -256h281v-160h-328l-100 -332h-150l101 332h-230l-100 -332h-150l101 332h-213v160h262l78 256h-281v159h330l102 342h150l-105 -342h232l102 342h150l-105 -342h213v-159h-260zM643 750l-78 -261h232l80 261h-234z" />
    <glyph glyph-name="dollar" unicode="$" horiz-adv-x="1313" 
d="M715 -18v-281h-101v281q-215 6 -361.5 98.5t-146.5 212.5q0 74 45 122t117 48q81 0 126.5 -42t45.5 -114q0 -58 -45 -182q112 -57 219 -57v448q-252 21 -361.5 123.5t-109.5 255.5q0 157 122 277t349 135v217h101v-217q213 -11 336 -88.5t123 -190.5q0 -69 -43 -115.5
t-113 -46.5q-78 0 -121 40t-43 108q0 58 43 174q-71 29 -182 33v-410q491 -47 491 -399q0 -180 -134 -297t-357 -133zM614 1221q-233 -28 -233 -199q0 -94 55.5 -140.5t177.5 -60.5v400zM715 508v-440q258 24 258 225q0 180 -231 211z" />
    <glyph glyph-name="percent" unicode="%" horiz-adv-x="1800" 
d="M481 712q-168 0 -279.5 104.5t-111.5 268.5q0 166 111.5 270.5t277.5 104.5q169 0 280 -104t111 -271q0 -166 -111.5 -269.5t-277.5 -103.5zM479 1386q-123 0 -123 -292q0 -310 127 -310q121 0 121 299q0 303 -125 303zM391 0h-164l1182 1427h166zM1321 -35
q-167 0 -278 105t-111 270q0 164 111.5 268.5t277.5 104.5q167 0 278 -104t111 -269q0 -166 -110.5 -270.5t-278.5 -104.5zM1319 641q-123 0 -123 -295q0 -307 127 -307q123 0 123 299q0 303 -127 303z" />
    <glyph glyph-name="ampersand" unicode="&#x26;" horiz-adv-x="1636" 
d="M1614 823q-139 -15 -186 -49.5t-129 -180.5q-83 -149 -142 -224q148 -177 236 -228t254 -61v-80h-588q-111 125 -127 147q-197 -182 -436 -182q-191 0 -308.5 101.5t-117.5 263.5q0 282 356 438q-160 200 -160 358q0 142 117.5 236t290.5 94q158 0 254 -74t96 -194
q0 -206 -252 -354q137 -178 328 -396q125 181 125 301q0 52 -170 84v76h559v-76zM725 901q145 102 145 270q0 90 -41.5 140.5t-109.5 50.5q-65 0 -105.5 -42t-40.5 -110q0 -103 152 -309zM879 213l-404 489q-100 -96 -100 -260q0 -131 85 -216t216 -85q116 0 203 72z" />
    <glyph glyph-name="quotesingle" unicode="'" horiz-adv-x="551" 
d="M309 823h-67q-20 109 -84 338q-47 167 -47 207q0 68 44.5 115t120.5 47q74 0 119 -47t45 -115q0 -40 -47 -207q-64 -229 -84 -338z" />
    <glyph glyph-name="parenleft" unicode="(" horiz-adv-x="915" 
d="M848 -328q-339 48 -536 295.5t-197 634.5t197.5 634.5t535.5 295.5v-90q-391 -74 -391 -840q0 -765 391 -840v-90z" />
    <glyph glyph-name="parenright" unicode=")" horiz-adv-x="915" 
d="M68 -328v90q391 75 391 840q0 766 -391 840v90q335 -48 534 -294.5t199 -635.5q0 -383 -200 -632.5t-533 -297.5z" />
    <glyph glyph-name="asterisk" unicode="*" horiz-adv-x="987" 
d="M547 1053q43 -56 80 -93q83 -86 100.5 -113.5t17.5 -51.5q0 -32 -29 -57t-61 -25q-38 0 -59 28.5t-47 117.5q-26 92 -55 163q-26 -57 -72 -223q-24 -86 -88 -86q-33 0 -61.5 24.5t-28.5 57.5q0 30 23 59.5t95 105.5q36 37 78 93q-61 -6 -230 -49q-26 -7 -40 -7
q-88 0 -88 86t88 86q14 0 40 -6q178 -42 230 -47q-42 55 -78 93q-74 76 -96 105.5t-22 57.5q0 33 28.5 57.5t61.5 24.5q66 0 88 -83q42 -155 72 -224q29 71 55 163q26 90 45 117t61 27q32 0 61 -25t29 -57q0 -28 -18 -53t-100 -110q-36 -38 -78 -93q47 4 229 47q25 6 39 6
q90 0 90 -86t-90 -86q-14 0 -39 7q-170 43 -231 49z" />
    <glyph glyph-name="plus" unicode="+" horiz-adv-x="1440" 
d="M803 494v-474h-166v474h-473v161h473v473h166v-473h473v-161h-473z" />
    <glyph glyph-name="comma" unicode="," horiz-adv-x="672" 
d="M193 -389l-46 72q236 116 252 317h-57q-205 0 -205 172q0 66 49.5 117t122.5 51q112 0 171 -76.5t59 -210.5q0 -119 -97 -244t-249 -198z" />
    <glyph glyph-name="hyphen" unicode="-" horiz-adv-x="776" 
d="M86 434v221h604v-221h-604z" />
    <glyph glyph-name="hyphen" unicode="&#xad;" horiz-adv-x="776" 
d="M86 434v221h604v-221h-604z" />
    <glyph glyph-name="period" unicode="." horiz-adv-x="672" 
d="M338 -29q-82 0 -140.5 57.5t-58.5 137.5q0 79 58 137.5t141 58.5q80 0 138.5 -59t58.5 -137q0 -79 -59 -137t-138 -58z" />
    <glyph glyph-name="slash" unicode="/" horiz-adv-x="967" 
d="M207 -424h-180l690 1948h180z" />
    <glyph glyph-name="zero.oldstyle" horiz-adv-x="1436" 
d="M717 -35q-283 0 -449 162t-166 410q0 252 167 412.5t450 160.5q287 0 450.5 -161.5t163.5 -411.5q0 -256 -171 -414t-445 -158zM719 1022q-240 0 -240 -485q0 -484 238 -484q239 0 239 484q0 485 -237 485z" />
    <glyph glyph-name="one.oldstyle" horiz-adv-x="1004" 
d="M121 0v76q168 12 209 38.5t41 88.5v633h-254v96h55q244 0 371 176h176q-10 -187 -10 -309v-586q0 -56 36 -88t201 -49v-76h-825z" />
    <glyph glyph-name="two.oldstyle" horiz-adv-x="1282" 
d="M111 0v180q132 143 405 281q244 118 244 319q0 238 -219 238q-62 0 -117 -23q43 -118 43 -198q0 -69 -49 -112.5t-131 -43.5q-74 0 -119 47t-45 121q0 119 139 210t348 91q250 0 388.5 -89t138.5 -253q0 -132 -89.5 -211.5t-340.5 -140.5q-270 -67 -349 -131v-11h836
v-274h-1083z" />
    <glyph glyph-name="three.oldstyle" horiz-adv-x="1280" 
d="M354 -256q46 -20 140 -20q137 0 218 91t81 255q0 278 -248 278h-127v121h90q126 0 181.5 74.5t55.5 228.5q0 246 -210 246q-76 0 -127 -23q43 -129 43 -198q0 -72 -49 -113t-130 -41q-73 0 -118 48t-45 120q0 121 141.5 210t361.5 89q246 0 375 -97.5t129 -234.5
q0 -128 -93 -217.5t-261 -124.5v-16q199 -16 306.5 -108.5t107.5 -245.5q0 -191 -182 -313t-457 -122q-210 0 -348 88.5t-138 210.5q0 74 48 121t120 47q82 0 131 -42.5t49 -112.5t-45 -199z" />
    <glyph glyph-name="four.oldstyle" horiz-adv-x="1329" 
d="M1047 10v-379h-336v379h-662v185l719 909h279v-883h215v-211h-215zM711 864l-508 -643h508v643z" />
    <glyph glyph-name="five.oldstyle" horiz-adv-x="1227" 
d="M358 -258q45 -18 115 -18q130 0 213.5 110t83.5 295q0 142 -75.5 232t-194.5 90q-155 0 -269 -136l-77 27l96 735h846v-276h-774l-41 -330q159 96 340 96q222 0 371 -112.5t149 -323.5q0 -220 -170.5 -360t-435.5 -140q-204 0 -342 86.5t-138 210.5q0 72 48.5 120
t119.5 48q80 0 130 -43t50 -112q0 -66 -45 -199z" />
    <glyph glyph-name="six.oldstyle" horiz-adv-x="1327" 
d="M1022 1458l22 -98l-106 -19q-126 -23 -269 -144.5t-192 -414.5q144 131 357 131q175 0 292 -127t117 -323q0 -211 -160 -354.5t-407 -143.5q-262 0 -418 162.5t-156 435.5q0 365 244 604.5t676 290.5zM469 672q0 -103 3 -218t32.5 -216t75.5 -143t96 -42q88 0 142 102
t54 281q0 155 -54.5 249.5t-147.5 94.5q-130 0 -201 -108z" />
    <glyph glyph-name="seven.oldstyle" horiz-adv-x="1135" 
d="M416 -369h-150l674 1178h-459q-150 0 -193 -10.5t-74.5 -54.5t-51.5 -160h-74v493h1057v-119z" />
    <glyph glyph-name="eight.oldstyle" horiz-adv-x="1384" 
d="M451 682q-291 131 -291 385q0 166 158 279.5t397 113.5q225 0 367.5 -98.5t142.5 -249.5q0 -226 -307 -315q362 -132 362 -400q0 -189 -168.5 -311.5t-441.5 -122.5q-254 0 -410 106.5t-156 274.5q0 260 347 338zM846 834q45 97 45 280q0 118 -51.5 188t-143.5 70
q-88 0 -144 -61.5t-56 -155.5q0 -91 50.5 -146t156.5 -104q64 -31 143 -71zM522 645q-84 -109 -84 -280q0 -144 71 -229t187 -85q114 0 181 67t67 179q0 95 -59.5 152.5t-189.5 114.5q-78 34 -173 81z" />
    <glyph glyph-name="nine.oldstyle" horiz-adv-x="1327" 
d="M305 -375l-22 99l106 18q121 21 267 140t194 411q-138 -127 -356 -127q-174 0 -292 129t-118 326q0 207 160 348t407 141q263 0 418.5 -163.5t155.5 -438.5q0 -359 -240 -591.5t-680 -291.5zM856 403q4 26 4 123q0 235 -56 365.5t-151 130.5q-90 0 -144 -101t-54 -276
q0 -158 55 -254t149 -96q128 0 197 108z" />
    <glyph glyph-name="colon" unicode=":" horiz-adv-x="752" 
d="M377 604q-81 0 -140 58t-59 137q0 78 58.5 137t140.5 59q81 0 138.5 -58.5t57.5 -137.5q0 -80 -58 -137.5t-138 -57.5zM377 -29q-81 0 -140 58t-59 137q0 78 58.5 137t140.5 59q81 0 138.5 -58.5t57.5 -137.5q0 -80 -58 -137.5t-138 -57.5z" />
    <glyph glyph-name="semicolon" unicode=";" horiz-adv-x="752" 
d="M377 604q-81 0 -140 58t-59 137q0 78 58.5 137t140.5 59q81 0 138.5 -58.5t57.5 -137.5q0 -80 -58 -137.5t-138 -57.5zM231 -389l-43 72q235 118 250 317h-55q-207 0 -207 172q0 65 50.5 116.5t123.5 51.5q110 0 170 -75.5t60 -211.5q0 -120 -98 -244.5t-251 -197.5z" />
    <glyph glyph-name="semicolon" unicode="&#x37e;" horiz-adv-x="752" 
d="M377 604q-81 0 -140 58t-59 137q0 78 58.5 137t140.5 59q81 0 138.5 -58.5t57.5 -137.5q0 -80 -58 -137.5t-138 -57.5zM231 -389l-43 72q235 118 250 317h-55q-207 0 -207 172q0 65 50.5 116.5t123.5 51.5q110 0 170 -75.5t60 -211.5q0 -120 -98 -244.5t-251 -197.5z" />
    <glyph glyph-name="less" unicode="&#x3c;" horiz-adv-x="1440" 
d="M209 506v139l999 500v-189l-784 -381l784 -380v-189z" />
    <glyph glyph-name="equal" unicode="=" horiz-adv-x="1440" 
d="M184 700v162h1071v-162h-1071zM184 287v162h1071v-162h-1071z" />
    <glyph glyph-name="greater" unicode="&#x3e;" horiz-adv-x="1440" 
d="M231 6v189l787 380l-787 381v189l1000 -500v-139z" />
    <glyph glyph-name="question" unicode="?" horiz-adv-x="1122" 
d="M510 567l-6 -135h-88v389q309 34 309 307q0 111 -59 175.5t-154 64.5q-77 0 -135 -35q37 -113 37 -176q0 -145 -172 -145q-75 0 -118.5 47t-43.5 119q0 113 129 193.5t317 80.5q216 0 353 -113.5t137 -302.5q0 -195 -134.5 -321t-371.5 -148zM465 -29q-80 0 -137.5 54
t-57.5 131q0 75 57 130.5t138 55.5q78 0 134 -56t56 -130q0 -76 -57 -130.5t-133 -54.5z" />
    <glyph glyph-name="at" unicode="@" horiz-adv-x="1980" 
d="M1614 -121q-255 -203 -586 -203q-363 0 -616.5 219t-253.5 582q0 369 273 634t685 265q336 0 525.5 -187.5t189.5 -471.5q0 -249 -143 -425.5t-355 -176.5q-221 0 -272 133h-4q-111 -127 -240 -127q-121 0 -190.5 76t-69.5 204q0 208 156.5 389t357.5 181q126 0 158 -99
h2l33 86h256l-201 -555q-21 -58 -21 -110q0 -88 74 -88q156 0 252 142t96 380q0 245 -163.5 397t-448.5 152q-305 0 -531.5 -223.5t-226.5 -563.5q0 -336 187 -527t497 -191q319 0 541 170zM1190 760q-12 125 -107 125q-97 0 -178.5 -161t-81.5 -347q0 -141 82 -141
q70 0 131 83z" />
    <glyph glyph-name="A" unicode="A" horiz-adv-x="1552" 
d="M836 0v78q200 18 200 57q0 20 -10 45l-121 295h-489q-101 -242 -101 -309t211 -88v-78h-581v78q88 6 144.5 38t79.5 73.5t189 444.5l332 806h201l417 -1036q84 -210 105.5 -238.5t66 -54t130.5 -33.5v-78h-774zM657 1087l-202 -514h409z" />
    <glyph glyph-name="B" unicode="B" horiz-adv-x="1550" 
d="M70 0v78q133 10 169.5 36.5t36.5 90.5v999q0 61 -33 87t-173 50v78h770q549 0 549 -315q0 -244 -375 -332v-18q213 -25 332.5 -122t119.5 -247q0 -196 -155 -290.5t-504 -94.5h-737zM633 1323v-524h51q315 0 315 278q0 250 -266 250q-64 0 -100 -4zM633 698v-518
q0 -25 45 -56.5t125 -31.5q121 0 193.5 82t72.5 223q0 305 -340 305q-72 0 -96 -4z" />
    <glyph glyph-name="C" unicode="C" horiz-adv-x="1464" 
d="M1438 356q-192 -395 -625 -395q-323 0 -532 202.5t-209 532.5q0 336 218 548t552 212q207 0 379 -92l61 55h86l10 -518h-88q-74 236 -179 347.5t-257 111.5q-185 0 -285 -160.5t-100 -470.5q0 -308 113.5 -467.5t320.5 -159.5q267 0 449 306z" />
    <glyph glyph-name="D" unicode="D" horiz-adv-x="1708" 
d="M70 0v78q147 5 176.5 39t29.5 82v1005q0 60 -36.5 91.5t-171.5 45.5v78h753q345 0 580 -186t235 -533q0 -326 -236.5 -513t-615.5 -187h-714zM633 1323v-1075q0 -158 184 -158q420 0 420 610q0 293 -122 460t-337 167q-93 0 -145 -4z" />
    <glyph glyph-name="E" unicode="E" horiz-adv-x="1477" 
d="M1401 0h-1331v78q125 10 165.5 33.5t40.5 91.5v1001q0 63 -41 91t-165 46v78h1257v-362h-76q-30 84 -95 158.5t-116.5 94t-201.5 19.5h-205v-549h145q119 0 175 56t83 190h76v-592h-76q-33 158 -87 207t-171 49h-145v-409q0 -110 32 -150.5t199 -40.5q143 0 207 12.5
t94.5 36.5t99 136t89.5 167h73z" />
    <glyph glyph-name="F" unicode="F" horiz-adv-x="1374" 
d="M1268 1040q-36 95 -107 181t-130.5 97t-176.5 11h-221v-557h139q132 0 184.5 65t75.5 181h76v-596h-76q-3 40 -36 121t-85 109t-139 28h-139v-471q0 -47 29 -81t172 -50v-78h-764v78q132 10 169 35.5t37 89.5v1001q0 65 -41.5 91.5t-164.5 45.5v78h1273v-379h-75z" />
    <glyph glyph-name="G" unicode="G" horiz-adv-x="1653" 
d="M1649 578q-133 -18 -158 -50t-25 -79v-166q0 -77 4 -156q-109 -65 -305.5 -115.5t-349.5 -50.5q-327 0 -535 199.5t-208 535.5q0 341 215 550.5t571 209.5q207 0 393 -92l64 55h86l8 -518h-86q-75 230 -182.5 344.5t-268.5 114.5q-190 0 -295.5 -166.5t-105.5 -464.5
q0 -317 103.5 -492.5t289.5 -175.5q158 0 262 89v288q0 54 -35 85.5t-180 54.5v77h738v-77z" />
    <glyph glyph-name="H" unicode="H" horiz-adv-x="1870" 
d="M1034 0v78q145 7 174 37.5t29 83.5v487h-604v-477q0 -55 35 -86t168 -45v-78h-766v78q151 9 178.5 40.5t27.5 82.5v1003q0 65 -46 92t-160 45v78h766v-78l-32 -4q-114 -12 -142.5 -39.5t-28.5 -83.5v-423h604v413q0 58 -40 87.5t-163 49.5v78h766v-78q-14 -2 -33 -4
q-120 -13 -147 -41.5t-27 -81.5v-1005q0 -56 35.5 -86.5t171.5 -44.5v-78h-766z" />
    <glyph glyph-name="I" unicode="I" horiz-adv-x="913" 
d="M63 0v78q157 6 186.5 38t29.5 83v1005q0 50 -30 82t-186 55v78h787v-78q-14 -2 -34 -4q-116 -12 -148.5 -35.5t-32.5 -87.5v-1005q0 -54 34 -85.5t181 -45.5v-78h-787z" />
    <glyph glyph-name="J" unicode="J" horiz-adv-x="1219" 
d="M1165 1341q-131 -17 -162.5 -38t-31.5 -89v-782q0 -212 -154.5 -341.5t-384.5 -129.5q-187 0 -301.5 92t-114.5 246q0 93 53.5 154t143.5 61q91 0 140.5 -50.5t49.5 -125.5q0 -89 -98 -175q-26 -23 -47 -44v-15q25 -47 100 -47q122 0 189 90.5t67 255.5v801
q0 65 -41 91.5t-165 45.5v78h757v-78z" />
    <glyph glyph-name="K" unicode="K" horiz-adv-x="1673" 
d="M1174 0q-148 234 -490 655h-51v-446q0 -50 29.5 -82t158.5 -49v-78h-753v78q150 6 179 38t29 83v1005q0 70 -50.5 96t-125.5 37l-32 4v78h778v-78q-14 -2 -33 -4q-115 -12 -147.5 -36.5t-32.5 -86.5v-479h41q497 455 497 568q0 27 -145 38v78h616v-78
q-149 -15 -246.5 -68.5t-447.5 -414.5l515 -632q115 -140 274 -148v-78h-563z" />
    <glyph glyph-name="L" unicode="L" horiz-adv-x="1405" 
d="M1376 0h-1306v78q128 9 167 34.5t39 90.5v1001q0 59 -36.5 87.5t-169.5 49.5v78h778v-78q-14 -2 -34 -4q-115 -11 -148 -34.5t-33 -88.5v-933q0 -128 41 -159.5t203 -31.5q133 0 205 19.5t144.5 144t104.5 201.5h74z" />
    <glyph glyph-name="M" unicode="M" horiz-adv-x="2095" 
d="M1249 0v78q136 8 178.5 38t42.5 95v1059l-489 -1247h-125q-7 25 -102 288l-359 975v-862q0 -128 21 -207t106.5 -106.5t122.5 -32.5v-78h-610v78q147 11 194 69.5t47 264.5v702q0 120 -57 169.5t-174 57.5v78h653l351 -938l294 762q28 72 46 176h628v-78
q-145 -15 -171.5 -45t-26.5 -82v-1005q0 -51 31.5 -83t168.5 -48v-78h-770z" />
    <glyph glyph-name="N" unicode="N" horiz-adv-x="1718" 
d="M1700 1341q-12 -2 -34 -4q-110 -13 -160 -66t-50 -265v-1014h-176l-885 1098v-666q0 -196 45.5 -257.5t204.5 -88.5v-78h-610v78q156 18 198.5 74.5t42.5 259.5v671q0 211 -247 256v80h534l776 -960v536q0 195 -46 257.5t-203 88.5v78h610v-78z" />
    <glyph glyph-name="O" unicode="O" horiz-adv-x="1679" 
d="M834 -39q-322 0 -542 206.5t-220 526.5q0 340 218 552t550 212q327 0 547.5 -206t220.5 -533q0 -331 -211.5 -544.5t-562.5 -213.5zM840 1360q-179 0 -274 -169t-95 -486q0 -309 95 -477.5t274 -168.5q181 0 274.5 169.5t93.5 484.5q0 309 -94 478t-274 169z" />
    <glyph glyph-name="P" unicode="P" horiz-adv-x="1436" 
d="M633 610v-397q0 -63 41 -94t164 -41v-78h-768v78q132 10 169 35t37 90v1001q0 73 -49.5 96.5t-156.5 40.5v78h782q547 0 547 -354q0 -220 -169 -337.5t-482 -117.5h-115zM633 1327v-622h41q336 0 336 309q0 168 -70.5 240.5t-224.5 72.5h-82z" />
    <glyph glyph-name="Q" unicode="Q" horiz-adv-x="1679" 
d="M1135 16q6 -125 75.5 -208.5t159.5 -83.5q95 0 180 22v-88q-189 -74 -403 -74q-171 0 -278 103t-121 278q-305 33 -490.5 235.5t-185.5 493.5q0 340 218 552t550 212q327 0 547.5 -206t220.5 -533q0 -248 -124 -434.5t-349 -268.5zM840 1360q-179 0 -274 -169t-95 -486
q0 -309 95 -477.5t274 -168.5q181 0 274.5 169.5t93.5 484.5q0 309 -94 478t-274 169z" />
    <glyph glyph-name="R" unicode="R" horiz-adv-x="1632" 
d="M1153 0q-223 346 -467 641h-53v-432q0 -59 36.5 -88t155.5 -43v-78h-755v78q132 10 169 36t37 89v1001q0 62 -36.5 88.5t-169.5 48.5v78h794q545 0 545 -336q0 -279 -346 -381l284 -364q127 -162 170.5 -198t69.5 -44.5t111 -17.5v-78h-545zM633 1327v-594h76
q309 0 309 322q0 272 -307 272h-78z" />
    <glyph glyph-name="S" unicode="S" horiz-adv-x="1329" 
d="M231 70l-69 -70h-84l-15 512h87q184 -449 491 -449q131 0 206 64.5t75 169.5q0 157 -252 238q-255 78 -349 124.5t-157.5 144t-63.5 226.5q0 178 148 302t387 124q200 0 383 -96l61 59h86l9 -483h-87q-86 231 -184 326.5t-233 95.5q-107 0 -176.5 -61t-69.5 -152
q0 -71 50.5 -129.5t268.5 -128.5q213 -70 304 -118t148.5 -138.5t57.5 -216.5q0 -196 -162.5 -324.5t-426.5 -128.5q-223 0 -433 109z" />
    <glyph glyph-name="T" unicode="T" horiz-adv-x="1401" 
d="M1311 1014q-43 117 -104 202t-104 99t-177 14h-47v-1112q0 -68 41 -94.5t176 -44.5v-78h-791v78q135 10 176 33.5t41 95.5v1122h-45q-139 0 -181.5 -14.5t-103.5 -103.5t-102 -197h-78v405h1377v-405h-78z" />
    <glyph glyph-name="U" unicode="U" horiz-adv-x="1706" 
d="M1704 1341q-178 -22 -212 -87.5t-34 -247.5v-529q0 -235 -159.5 -375.5t-415.5 -140.5q-302 0 -468.5 135.5t-166.5 382.5v727q0 109 -162 133l-29 4v76h744v-76q-127 -14 -162 -38.5t-35 -87.5v-717q0 -404 365 -404q175 0 272.5 109t97.5 309v481q0 200 -47 261.5
t-205 84.5v78h617v-78z" />
    <glyph glyph-name="V" unicode="V" horiz-adv-x="1561" 
d="M1602 1339q-157 -20 -219 -135t-515 -1220h-200l-331 808q-155 377 -180 422t-80 80.5t-140 46.5v78h768v-76q-185 -23 -185 -63q0 -34 66.5 -191t312.5 -763q344 836 344 927q0 71 -217 86v80h576v-80z" />
    <glyph glyph-name="W" unicode="W" horiz-adv-x="2306" 
d="M2345 1339q-170 -26 -209 -131t-424 -1224h-201l-374 1054l-338 -1054h-201l-401 1181q-49 151 -238 176v78h758v-76q-178 -23 -178 -63q0 -27 79 -268l207 -627l324 1034h213l375 -1067q260 812 260 901q0 69 -223 86v80h571v-80z" />
    <glyph glyph-name="X" unicode="X" horiz-adv-x="1657" 
d="M795 0v78q194 9 194 59q0 56 -264 438q-322 -375 -322 -430t156 -67v-78h-551v78q109 7 175.5 56t124.5 116l360 412l-318 461q-97 133 -167 172.5t-171 45.5v78h869v-78q-199 -9 -199 -61q0 -37 236 -393q286 337 286 387q0 29 -29 43.5t-131 23.5v78h553v-78
q-119 -6 -199 -74.5t-421 -465.5q333 -498 423.5 -606.5t258.5 -116.5v-78h-864z" />
    <glyph glyph-name="Y" unicode="Y" horiz-adv-x="1499" 
d="M1567 1341q-77 -11 -132.5 -43.5t-122.5 -125.5t-205 -309.5t-157.5 -266.5t-19.5 -178v-201q0 -88 78 -110t141 -29v-78h-793v78q141 10 180 35t39 94v250q0 87 -20 128.5t-186 321t-204.5 328.5t-91.5 74.5t-134 31.5v78h813v-78q-27 -2 -60 -3q-131 -6 -131 -48
q0 -49 324 -592q332 524 332 568q0 65 -177 75v78h527v-78z" />
    <glyph glyph-name="Z" unicode="Z" horiz-adv-x="1411" 
d="M1350 0h-1334v61l918 1266h-311q-179 0 -248.5 -48t-202.5 -294h-80l43 434h1235v-61l-917 -1266h358q162 0 216 11.5t81 32t93 120.5t122 223h74z" />
    <glyph glyph-name="bracketleft" unicode="[" horiz-adv-x="915" 
d="M184 -309v1829h664v-101h-348v-1630h348v-98h-664z" />
    <glyph glyph-name="backslash" unicode="\" horiz-adv-x="967" 
d="M760 -424l-692 1948h182l688 -1948h-178z" />
    <glyph glyph-name="bracketright" unicode="]" horiz-adv-x="915" 
d="M70 -309v98h346v1630h-346v101h661v-1829h-661z" />
    <glyph glyph-name="asciicircum" unicode="^" horiz-adv-x="1440" 
d="M1036 760l-315 514l-318 -514h-194l442 696h140l442 -696h-197z" />
    <glyph glyph-name="underscore" unicode="_" horiz-adv-x="1440" 
d="M-4 -301v121h1450v-121h-1450z" />
    <glyph glyph-name="grave" unicode="`" horiz-adv-x="1024" 
d="M698 1102q-107 64 -247 143q-152 85 -193 120.5t-41 94.5q0 35 38 61.5t87 26.5q75 0 112 -29t108 -133q50 -74 179 -247z" />
    <glyph glyph-name="a" unicode="a" horiz-adv-x="1221" 
d="M1200 20q-124 -51 -229 -51q-221 0 -260 142h-6q-139 -142 -347 -142q-118 0 -198 69.5t-80 180.5q0 94 42.5 158.5t115 97.5t283.5 97q138 42 184 63v94q0 211 -146 211q-67 0 -121 -37q2 -12 7 -26q24 -70 24 -113q0 -125 -172 -125q-170 0 -170 145q0 99 142 168.5
t306 69.5q259 0 359 -83t100 -253l-8 -471q0 -55 19.5 -80.5t42.5 -33t112 -7.5v-74zM705 543q-181 -64 -231 -123t-50 -148q0 -147 123 -147q87 0 153 78z" />
    <glyph glyph-name="b" unicode="b" horiz-adv-x="1323" 
d="M350 80l-143 -131l-60 22q13 177 13 389v936q0 142 -180 154v72l493 26l16 -16v-649h7q141 137 303 137q209 0 330.5 -143.5t121.5 -387.5q0 -227 -149 -374.5t-377 -147.5q-236 0 -375 113zM489 788v-581q0 -25 46.5 -91.5t136.5 -66.5q104 0 162.5 114t58.5 314
q0 389 -231 389q-116 0 -173 -78z" />
    <glyph glyph-name="c" unicode="c" horiz-adv-x="1087" 
d="M1085 252q-70 -136 -191 -210.5t-265 -74.5q-263 0 -410 142.5t-147 388.5q0 215 160.5 369.5t412.5 154.5q187 0 293 -70.5t106 -187.5q0 -160 -170 -160q-71 0 -123.5 35t-52.5 94q0 51 27 136q6 19 8 34q-17 37 -80 37q-101 0 -160 -110t-59 -320q0 -175 81 -285
t202 -110q190 0 293 188z" />
    <glyph glyph-name="d" unicode="d" horiz-adv-x="1358" 
d="M858 -8l-14 14v92l-8 2q-138 -133 -301 -133q-202 0 -332.5 149.5t-130.5 389.5q0 218 148.5 366t350.5 148q158 0 271 -64v328q0 155 -228 166v72l541 26l14 -16v-1311q0 -61 33.5 -92t149.5 -35v-74zM842 764q0 26 -46 92t-139 66q-100 0 -163.5 -116t-63.5 -317
q0 -176 60.5 -276t175.5 -100q102 0 176 86v565z" />
    <glyph glyph-name="e" unicode="e" horiz-adv-x="1171" 
d="M1133 240q-174 -273 -490 -273q-272 0 -421.5 144t-149.5 389q0 218 151.5 370t394.5 152q238 0 363 -114t125 -312v-66h-676q0 -417 330 -417q171 0 297 182zM752 618q0 322 -150 322q-166 0 -172 -326z" />
    <glyph glyph-name="f" unicode="f" horiz-adv-x="805" 
d="M625 1460q-47 -24 -68.5 -99.5t-21.5 -293.5v-80h276v-106h-274v-691q0 -53 39.5 -79t158.5 -37v-74h-676v74q96 4 123 29.5t27 78.5v699h-203v106h203v8q0 235 140 394t394 159q125 0 193 -46t68 -124q0 -71 -41 -113t-117 -42q-70 0 -114.5 43t-106.5 194z" />
    <glyph glyph-name="g" unicode="g" horiz-adv-x="1182" 
d="M332 -2v12q-195 65 -195 203q0 122 207 174v12q-260 97 -260 297q0 147 134.5 235.5t342.5 88.5q116 0 230 -33h387v-106h-220q78 -88 78 -197q0 -136 -128.5 -222.5t-325.5 -86.5h-164q-41 -38 -41 -68q0 -47 41 -63t180 -19q43 -2 193 -9t225.5 -45t117.5 -103.5
t42 -145.5q0 -167 -160 -266.5t-451 -99.5q-536 0 -536 256q0 83 79.5 132.5t223.5 53.5zM557 942q-143 0 -143 -246q0 -113 39.5 -180t105.5 -67q150 0 150 239q0 254 -152 254zM428 -18q-82 -71 -82 -170q0 -68 69 -121t197 -53q265 0 265 210q0 49 -34.5 85t-121 42.5
t-293.5 6.5z" />
    <glyph glyph-name="h" unicode="h" horiz-adv-x="1393" 
d="M756 0v74q91 4 108 32t17 76v467q0 205 -148 205q-127 0 -219 -125v-536q0 -53 25 -80t106 -39v-74h-608v74q95 4 122 29.5t27 78.5v1114q0 145 -184 154v72l498 26l14 -16v-688h4q34 30 68 61q124 115 301 115q154 0 239.5 -89t85.5 -249v-492q0 -61 35.5 -84.5
t110.5 -31.5v-74h-602z" />
    <glyph glyph-name="i" unicode="i" horiz-adv-x="725" 
d="M346 1182q-82 0 -139 53.5t-57 128.5t57.5 129.5t138.5 54.5q82 0 140.5 -55t58.5 -129t-58 -128t-141 -54zM57 0v74q97 4 125.5 31.5t28.5 76.5v582q0 117 -178 141v74l489 25l17 -15v-794q0 -52 30.5 -80t120.5 -41v-74h-633z" />
    <glyph glyph-name="j" unicode="j" horiz-adv-x="709" 
d="M358 1182q-82 0 -140 53t-58 129t58.5 130t139.5 54q82 0 139.5 -54.5t57.5 -129.5t-57 -128.5t-140 -53.5zM551 119q0 -240 -146.5 -401.5t-392.5 -161.5q-122 0 -187 47t-65 125q0 67 41.5 111t118.5 44q72 0 117 -46.5t102 -190.5q47 29 63.5 109.5t16.5 314.5v690
q0 122 -188 145v74l506 25l14 -15v-870z" />
    <glyph glyph-name="k" unicode="k" horiz-adv-x="1294" 
d="M870 0q-96 175 -223 354q-36 50 -72 103l-61 -51v-218q0 -58 29.5 -81.5t111.5 -32.5v-74h-618v74q109 7 129 35t20 73v1114q0 146 -184 154v72l498 26l14 -16v-1032q124 109 227 209.5t116 121t13 39.5q0 32 -127 52v69h508v-67q-219 -57 -434 -248l354 -520
q49 -74 170 -82v-74h-471z" />
    <glyph glyph-name="l" unicode="l" horiz-adv-x="705" 
d="M41 0v74q92 4 119.5 29t27.5 79v1108q0 139 -188 160v72l504 26l14 -16v-1337q0 -107 150 -121v-74h-627z" />
    <glyph glyph-name="m" unicode="m" horiz-adv-x="2081" 
d="M1450 0v74q94 5 106.5 29.5t12.5 78.5v467q0 205 -142 205q-127 0 -208 -125v-536q0 -60 24 -84t94 -35v-74h-569v74q92 5 105.5 28t13.5 80v467q0 205 -142 205q-127 0 -208 -125v-536q0 -65 30.5 -87.5t89.5 -31.5v-74h-600v74q97 4 124.5 30.5t27.5 77.5v582
q0 124 -166 141v74l477 25l17 -15v-141h4q33 30 65 61q117 111 295 111q221 0 299 -182h8q36 32 71 65q127 117 306 117q152 0 234 -89.5t82 -252.5v-488q0 -68 41.5 -89.5t103.5 -26.5v-74h-596z" />
    <glyph glyph-name="n" unicode="n" horiz-adv-x="1413" 
d="M776 0v74q89 3 107 30.5t18 77.5v467q0 205 -147 205q-131 0 -217 -125v-536q0 -53 23.5 -79.5t105.5 -39.5v-74h-609v74q106 6 129 33.5t23 74.5v582q0 124 -166 141v74l477 25l17 -15v-145h4q122 118 199.5 147t166.5 29q155 0 240.5 -88t85.5 -250v-492q0 -65 38 -87
t107 -29v-74h-602z" />
    <glyph glyph-name="o" unicode="o" horiz-adv-x="1303" 
d="M641 -33q-252 0 -410.5 145.5t-158.5 381.5q0 239 157.5 383.5t419.5 144.5q266 0 424 -142.5t158 -377.5t-159 -385t-431 -150zM651 940q-215 0 -215 -432q0 -247 53 -353t162 -106q215 0 215 455q0 436 -215 436z" />
    <glyph glyph-name="p" unicode="p" horiz-adv-x="1348" 
d="M522 41h-8v-281q0 -37 21 -70t103 -46.5t95 -14.5v-73h-723v73q132 12 154 41t22 76v1024q0 117 -174 135v74l488 25l14 -13v-110l8 -2q147 141 307 141q204 0 325.5 -145t121.5 -388q0 -220 -146 -367t-352 -147q-161 0 -256 68zM514 786v-567q56 -156 184 -156
q100 0 160 107t60 313q0 179 -59.5 281t-172.5 102q-109 0 -172 -80z" />
    <glyph glyph-name="q" unicode="q" horiz-adv-x="1327" 
d="M655 -444v73q133 10 160 38.5t27 78.5v350l-8 2q-135 -125 -299 -125q-211 0 -337 146t-126 387q0 224 153.5 369t384.5 145q213 0 391 -96l129 127l56 -13q-17 -272 -17 -333v-941q0 -56 33.5 -87.5t153.5 -47.5v-73h-701zM842 764q0 28 -46.5 98t-142.5 70
q-100 0 -161.5 -118.5t-61.5 -321.5q0 -176 60.5 -274.5t175.5 -98.5q107 0 176 80v565z" />
    <glyph glyph-name="r" unicode="r" horiz-adv-x="1065" 
d="M723 854q-106 -5 -186 -111v-548q0 -51 25.5 -80t164.5 -41v-74h-670v74q106 6 129 33.5t23 74.5v582q0 124 -166 141v74l477 25l17 -15v-145h4q149 172 307 172q94 0 150.5 -58t56.5 -149q0 -80 -49 -135.5t-123 -55.5q-78 0 -126 39t-48 107q0 48 14 90z" />
    <glyph glyph-name="s" unicode="s" horiz-adv-x="1051" 
d="M188 55l-30 -67h-78l-12 372h71q45 -128 148.5 -219.5t220.5 -91.5q178 0 178 146q0 62 -51.5 96.5t-222.5 83.5q-316 91 -316 330q0 138 118 226.5t310 88.5q154 0 297 -59l21 59h76l16 -342h-72q-38 113 -124 184.5t-179 71.5q-75 0 -119.5 -33t-44.5 -90
q0 -67 50 -100t217 -78q173 -51 248 -128t75 -196q0 -159 -129 -251.5t-336 -92.5q-169 0 -332 90z" />
    <glyph glyph-name="t" unicode="t" horiz-adv-x="813" 
d="M803 45q-171 -72 -316 -72q-307 0 -307 293v615h-180v106h184v303h326v-303h278v-106h-276v-529q0 -148 35 -191.5t112 -43.5t144 12v-84z" />
    <glyph glyph-name="u" unicode="u" horiz-adv-x="1386" 
d="M887 -8l-17 14v131h-6q-109 -107 -190 -137.5t-182 -30.5q-150 0 -231 91.5t-81 256.5v451q0 126 -166 137v74l486 25l12 -15v-665q0 -201 147 -201q129 0 209 117v538q0 127 -170 127v74l486 25l14 -15v-772q0 -122 166 -123v-74z" />
    <glyph glyph-name="v" unicode="v" horiz-adv-x="1161" 
d="M1198 920q-52 -10 -87.5 -34t-53 -52.5t-114.5 -239.5l-153 -331q-55 -119 -108 -271h-184q-353 806 -393 859t-132 69v71h617v-71q-127 -8 -127 -52q0 -26 248 -565q219 479 219 539q0 53 -146 78v71h414v-71z" />
    <glyph glyph-name="w" unicode="w" horiz-adv-x="1767" 
d="M1782 920q-56 -11 -90.5 -37.5t-51 -57.5t-111.5 -276l-125 -320q-30 -75 -77 -237h-194l-252 680l-238 -680h-192q-283 761 -323 836t-142 92v71h614v-71q-129 -20 -129 -52q0 -28 197 -534l221 657h198l252 -680q192 500 179 531q0 55 -150 78v71h414v-71z" />
    <glyph glyph-name="x" unicode="x" horiz-adv-x="1204" 
d="M573 0v74q115 5 115 30q0 26 -182 285q-207 -240 -207 -268q0 -47 111 -47v-74h-408v74q91 16 140 58t315 327q-26 35 -62 87q-212 298 -245.5 328t-133.5 46v71h613v-71q-99 0 -99 -19q0 -25 166 -268q183 205 183 239q0 43 -107 48v71h397v-71q-100 -22 -162 -83.5
t-259 -271.5q16 -20 191 -270q108 -154 143 -183t116 -38v-74h-625z" />
    <glyph glyph-name="y" unicode="y" horiz-adv-x="1151" 
d="M1188 920q-37 -7 -70 -24.5t-53.5 -40.5t-65.5 -119.5t-119 -263.5l-229 -503q-192 -413 -420 -413q-90 0 -150.5 51t-60.5 121q0 67 41.5 111t116.5 44q95 0 213 -147q115 118 154 233q-393 814 -431.5 871.5t-142.5 79.5v71h613v-71q-123 -8 -123 -52q0 -22 44 -108
l212 -422l183 423q20 45 20 81q0 54 -146 78v71h414v-71z" />
    <glyph glyph-name="z" unicode="z" horiz-adv-x="1075" 
d="M43 0v70l575 831h-81q-211 0 -270 -19.5t-113 -215.5h-70v325h930v-61l-578 -840q122 0 243 2.5t154.5 19t66 86t56.5 175.5h72v-373h-985z" />
    <glyph glyph-name="braceleft" unicode="{" horiz-adv-x="1024" 
d="M956 -334q-363 0 -477 92t-114 289q0 63 7 124t7 120q0 118 -61.5 171.5t-245.5 63.5v152q180 8 243.5 61.5t63.5 173.5q0 59 -7 120t-7 124q0 193 111 286t480 93v-86q-148 -7 -203 -63t-55 -166v-191q0 -161 -76 -254.5t-288 -134.5v-78q214 -41 289 -135.5t75 -255.5
v-188q0 -110 54.5 -166.5t203.5 -63.5v-88z" />
    <glyph glyph-name="bar" unicode="|" horiz-adv-x="795" 
d="M311 -424v1948h172v-1948h-172z" />
    <glyph glyph-name="braceright" unicode="}" horiz-adv-x="1024" 
d="M952 526q-181 -10 -243 -62.5t-62 -172.5q0 -59 6 -120t6 -124q0 -197 -114 -289t-475 -92v88q149 7 203.5 64t54.5 166v188q0 161 75 255.5t287 135.5v78q-210 41 -286 134.5t-76 254.5v191q0 110 -55 166t-203 63v86q367 0 478 -92.5t111 -286.5q0 -63 -6 -124t-6 -120
q0 -122 63.5 -174.5t241.5 -60.5v-152z" />
    <glyph glyph-name="asciitilde" unicode="~" horiz-adv-x="1440" 
d="M1294 735q-57 -151 -155 -245.5t-209 -94.5q-119 0 -258 88q-140 88 -213 88q-121 0 -209 -198l-105 41q52 146 151.5 243t213.5 97q123 0 261 -88t210 -88q118 0 211 198z" />
    <glyph glyph-name="Adieresis" unicode="&#xc4;" horiz-adv-x="1552" 
d="M836 0v78q200 18 200 57q0 20 -10 45l-121 295h-489q-101 -242 -101 -309t211 -88v-78h-581v78q88 6 144.5 38t79.5 73.5t189 444.5l332 806h201l417 -1036q84 -210 105.5 -238.5t66 -54t130.5 -33.5v-78h-774zM657 1087l-202 -514h409zM1061 1523q-65 0 -112 50t-47 118
q0 67 47 117.5t112 50.5q64 0 111 -50.5t47 -117.5q0 -68 -47 -118t-111 -50zM525 1523q-66 0 -113 50t-47 118q0 67 46 117.5t114 50.5q63 0 111 -50.5t48 -117.5q0 -68 -48 -118t-111 -50z" />
    <glyph glyph-name="Aring" unicode="&#xc5;" horiz-adv-x="1552" 
d="M836 0v78q200 18 200 57q0 20 -10 45l-121 295h-489q-101 -242 -101 -309t211 -88v-78h-581v78q88 6 144.5 38t79.5 73.5t189 444.5l332 806h201l417 -1036q84 -210 105.5 -238.5t66 -54t130.5 -33.5v-78h-774zM657 1087l-202 -514h409zM788 1405q-128 0 -203.5 62
t-75.5 169q0 104 78 168t201 64q127 0 203 -64t76 -168q0 -103 -76 -167t-203 -64zM788 1798q-131 0 -131 -162q0 -161 131 -161t131 161q0 71 -33.5 116.5t-97.5 45.5z" />
    <glyph glyph-name="Ccedilla" unicode="&#xc7;" horiz-adv-x="1464" 
d="M1438 356q-192 -395 -625 -395q-323 0 -532 202.5t-209 532.5q0 336 218 548t552 212q207 0 379 -92l61 55h86l10 -518h-88q-74 236 -179 347.5t-257 111.5q-185 0 -285 -160.5t-100 -470.5q0 -308 113.5 -467.5t320.5 -159.5q267 0 449 306zM613 -444v77
q156 0 202.5 15.5t46.5 64.5q0 66 -139 66v237h86v-112q248 0 248 -156q0 -105 -94.5 -148.5t-349.5 -43.5z" />
    <glyph glyph-name="Eacute" unicode="&#xc9;" horiz-adv-x="1477" 
d="M1401 0h-1331v78q125 10 165.5 33.5t40.5 91.5v1001q0 63 -41 91t-165 46v78h1257v-362h-76q-30 84 -95 158.5t-116.5 94t-201.5 19.5h-205v-549h145q119 0 175 56t83 190h76v-592h-76q-33 158 -87 207t-171 49h-145v-409q0 -110 32 -150.5t199 -40.5q143 0 207 12.5
t94.5 36.5t99 136t89.5 167h73zM535 1485l-35 41q128 118 266 266q69 76 148 76q63 0 106 -28t43 -73q0 -52 -41 -82t-228 -98q-112 -41 -259 -102z" />
    <glyph glyph-name="Ntilde" unicode="&#xd1;" horiz-adv-x="1718" 
d="M1700 1341q-12 -2 -34 -4q-110 -13 -160 -66t-50 -265v-1014h-176l-885 1098v-666q0 -196 45.5 -257.5t204.5 -88.5v-78h-610v78q156 18 198.5 74.5t42.5 259.5v671q0 211 -247 256v80h534l776 -960v536q0 195 -46 257.5t-203 88.5v78h610v-78zM1331 1844
q-33 -119 -120.5 -210t-182.5 -91q-113 0 -216 55q-104 55 -154 55q-38 0 -65 -22t-83 -125l-71 30q43 124 123.5 210.5t170.5 86.5q64 0 113.5 -14t177.5 -77q34 -17 72 -17q55 0 87.5 18t72.5 125z" />
    <glyph glyph-name="Odieresis" unicode="&#xd6;" horiz-adv-x="1679" 
d="M834 -39q-322 0 -542 206.5t-220 526.5q0 340 218 552t550 212q327 0 547.5 -206t220.5 -533q0 -331 -211.5 -544.5t-562.5 -213.5zM840 1360q-179 0 -274 -169t-95 -486q0 -309 95 -477.5t274 -168.5q181 0 274.5 169.5t93.5 484.5q0 309 -94 478t-274 169zM1108 1532
q-65 0 -112 50t-47 118q0 67 47 117.5t112 50.5q64 0 111 -50.5t47 -117.5q0 -68 -47 -118t-111 -50zM572 1532q-66 0 -113 50t-47 118q0 67 46 117.5t114 50.5q63 0 111 -50.5t48 -117.5q0 -68 -48 -118t-111 -50z" />
    <glyph glyph-name="Udieresis" unicode="&#xdc;" horiz-adv-x="1706" 
d="M1704 1341q-178 -22 -212 -87.5t-34 -247.5v-529q0 -235 -159.5 -375.5t-415.5 -140.5q-302 0 -468.5 135.5t-166.5 382.5v727q0 109 -162 133l-29 4v76h744v-76q-127 -14 -162 -38.5t-35 -87.5v-717q0 -404 365 -404q175 0 272.5 109t97.5 309v481q0 200 -47 261.5
t-205 84.5v78h617v-78zM1177 1532q-65 0 -112 50t-47 118q0 67 47 117.5t112 50.5q64 0 111 -50.5t47 -117.5q0 -68 -47 -118t-111 -50zM641 1532q-66 0 -113 50t-47 118q0 67 46 117.5t114 50.5q63 0 111 -50.5t48 -117.5q0 -68 -48 -118t-111 -50z" />
    <glyph glyph-name="aacute" unicode="&#xe1;" horiz-adv-x="1221" 
d="M1200 20q-124 -51 -229 -51q-221 0 -260 142h-6q-139 -142 -347 -142q-118 0 -198 69.5t-80 180.5q0 94 42.5 158.5t115 97.5t283.5 97q138 42 184 63v94q0 211 -146 211q-67 0 -121 -37q2 -12 7 -26q24 -70 24 -113q0 -125 -172 -125q-170 0 -170 145q0 99 142 168.5
t306 69.5q259 0 359 -83t100 -253l-8 -471q0 -55 19.5 -80.5t42.5 -33t112 -7.5v-74zM705 543q-181 -64 -231 -123t-50 -148q0 -147 123 -147q87 0 153 78zM404 1102l-43 37q93 123 177 247q71 104 111.5 133t110.5 29q49 0 87 -26.5t38 -61.5q0 -59 -39 -94.5t-194 -118.5
q-108 -59 -248 -145z" />
    <glyph glyph-name="agrave" unicode="&#xe0;" horiz-adv-x="1221" 
d="M1200 20q-124 -51 -229 -51q-221 0 -260 142h-6q-139 -142 -347 -142q-118 0 -198 69.5t-80 180.5q0 94 42.5 158.5t115 97.5t283.5 97q138 42 184 63v94q0 211 -146 211q-67 0 -121 -37q2 -12 7 -26q24 -70 24 -113q0 -125 -172 -125q-170 0 -170 145q0 99 142 168.5
t306 69.5q259 0 359 -83t100 -253l-8 -471q0 -55 19.5 -80.5t42.5 -33t112 -7.5v-74zM705 543q-181 -64 -231 -123t-50 -148q0 -147 123 -147q87 0 153 78zM778 1102q-107 64 -247 143q-152 85 -193 120.5t-41 94.5q0 35 38 61.5t87 26.5q75 0 112 -29t108 -133
q50 -74 179 -247z" />
    <glyph glyph-name="acircumflex" unicode="&#xe2;" horiz-adv-x="1221" 
d="M1200 20q-124 -51 -229 -51q-221 0 -260 142h-6q-139 -142 -347 -142q-118 0 -198 69.5t-80 180.5q0 94 42.5 158.5t115 97.5t283.5 97q138 42 184 63v94q0 211 -146 211q-67 0 -121 -37q2 -12 7 -26q24 -70 24 -113q0 -125 -172 -125q-170 0 -170 145q0 99 142 168.5
t306 69.5q259 0 359 -83t100 -253l-8 -471q0 -55 19.5 -80.5t42.5 -33t112 -7.5v-74zM705 543q-181 -64 -231 -123t-50 -148q0 -147 123 -147q87 0 153 78zM909 1104l-319 254l-317 -254l-52 29q216 352 257 383.5t114 31.5q77 0 126 -48.5t245 -366.5z" />
    <glyph glyph-name="adieresis" unicode="&#xe4;" horiz-adv-x="1221" 
d="M1200 20q-124 -51 -229 -51q-221 0 -260 142h-6q-139 -142 -347 -142q-118 0 -198 69.5t-80 180.5q0 94 42.5 158.5t115 97.5t283.5 97q138 42 184 63v94q0 211 -146 211q-67 0 -121 -37q2 -12 7 -26q24 -70 24 -113q0 -125 -172 -125q-170 0 -170 145q0 99 142 168.5
t306 69.5q259 0 359 -83t100 -253l-8 -471q0 -55 19.5 -80.5t42.5 -33t112 -7.5v-74zM705 543q-181 -64 -231 -123t-50 -148q0 -147 123 -147q87 0 153 78zM840 1182q-65 0 -112.5 49.5t-47.5 118.5t47.5 118.5t112.5 49.5q64 0 112 -50.5t48 -117.5t-48 -117.5t-112 -50.5z
M344 1182q-65 0 -112.5 49.5t-47.5 118.5t47.5 118.5t112.5 49.5q64 0 112 -50.5t48 -117.5t-48 -117.5t-112 -50.5z" />
    <glyph glyph-name="atilde" unicode="&#xe3;" horiz-adv-x="1221" 
d="M1200 20q-124 -51 -229 -51q-221 0 -260 142h-6q-139 -142 -347 -142q-118 0 -198 69.5t-80 180.5q0 94 42.5 158.5t115 97.5t283.5 97q138 42 184 63v94q0 211 -146 211q-67 0 -121 -37q2 -12 7 -26q24 -70 24 -113q0 -125 -172 -125q-170 0 -170 145q0 99 142 168.5
t306 69.5q259 0 359 -83t100 -253l-8 -471q0 -55 19.5 -80.5t42.5 -33t112 -7.5v-74zM705 543q-181 -64 -231 -123t-50 -148q0 -147 123 -147q87 0 153 78zM1038 1479q-33 -119 -120.5 -210t-182.5 -91q-113 0 -216 55q-104 55 -154 55q-38 0 -65 -22t-83 -125l-71 30
q43 124 123.5 210.5t170.5 86.5q64 0 113.5 -14t177.5 -77q34 -17 72 -17q55 0 87.5 18t72.5 125z" />
    <glyph glyph-name="aring" unicode="&#xe5;" horiz-adv-x="1221" 
d="M1200 20q-124 -51 -229 -51q-221 0 -260 142h-6q-139 -142 -347 -142q-118 0 -198 69.5t-80 180.5q0 94 42.5 158.5t115 97.5t283.5 97q138 42 184 63v94q0 211 -146 211q-67 0 -121 -37q2 -12 7 -26q24 -70 24 -113q0 -125 -172 -125q-170 0 -170 145q0 99 142 168.5
t306 69.5q259 0 359 -83t100 -253l-8 -471q0 -55 19.5 -80.5t42.5 -33t112 -7.5v-74zM705 543q-181 -64 -231 -123t-50 -148q0 -147 123 -147q87 0 153 78zM592 1097q-128 0 -203.5 62t-75.5 169q0 104 78 168t201 64q127 0 203 -64t76 -168q0 -103 -76 -167t-203 -64z
M592 1490q-131 0 -131 -162q0 -161 131 -161t131 161q0 71 -33.5 116.5t-97.5 45.5z" />
    <glyph glyph-name="ccedilla" unicode="&#xe7;" horiz-adv-x="1087" 
d="M1085 252q-70 -136 -191 -210.5t-265 -74.5q-263 0 -410 142.5t-147 388.5q0 215 160.5 369.5t412.5 154.5q187 0 293 -70.5t106 -187.5q0 -160 -170 -160q-71 0 -123.5 35t-52.5 94q0 51 27 136q6 19 8 34q-17 37 -80 37q-101 0 -160 -110t-59 -320q0 -175 81 -285
t202 -110q190 0 293 188zM435 -444v77q156 0 202.5 15.5t46.5 64.5q0 66 -139 66v237h86v-112q248 0 248 -156q0 -105 -94.5 -148.5t-349.5 -43.5z" />
    <glyph glyph-name="eacute" unicode="&#xe9;" horiz-adv-x="1171" 
d="M1133 240q-174 -273 -490 -273q-272 0 -421.5 144t-149.5 389q0 218 151.5 370t394.5 152q238 0 363 -114t125 -312v-66h-676q0 -417 330 -417q171 0 297 182zM752 618q0 322 -150 322q-166 0 -172 -326zM404 1102l-43 37q93 123 177 247q71 104 111.5 133t110.5 29
q49 0 87 -26.5t38 -61.5q0 -59 -39 -94.5t-194 -118.5q-108 -59 -248 -145z" />
    <glyph glyph-name="egrave" unicode="&#xe8;" horiz-adv-x="1171" 
d="M1133 240q-174 -273 -490 -273q-272 0 -421.5 144t-149.5 389q0 218 151.5 370t394.5 152q238 0 363 -114t125 -312v-66h-676q0 -417 330 -417q171 0 297 182zM752 618q0 322 -150 322q-166 0 -172 -326zM782 1102q-107 64 -247 143q-152 85 -193 120.5t-41 94.5
q0 35 38 61.5t87 26.5q75 0 112 -29t108 -133q50 -74 179 -247z" />
    <glyph glyph-name="ecircumflex" unicode="&#xea;" horiz-adv-x="1171" 
d="M1133 240q-174 -273 -490 -273q-272 0 -421.5 144t-149.5 389q0 218 151.5 370t394.5 152q238 0 363 -114t125 -312v-66h-676q0 -417 330 -417q171 0 297 182zM752 618q0 322 -150 322q-166 0 -172 -326zM913 1104l-319 254l-317 -254l-52 29q216 352 257 383.5t114 31.5
q77 0 126 -48.5t245 -366.5z" />
    <glyph glyph-name="edieresis" unicode="&#xeb;" horiz-adv-x="1171" 
d="M1133 240q-174 -273 -490 -273q-272 0 -421.5 144t-149.5 389q0 218 151.5 370t394.5 152q238 0 363 -114t125 -312v-66h-676q0 -417 330 -417q171 0 297 182zM752 618q0 322 -150 322q-166 0 -172 -326zM844 1182q-65 0 -112.5 49.5t-47.5 118.5t47.5 118.5t112.5 49.5
q64 0 112 -50.5t48 -117.5t-48 -117.5t-112 -50.5zM348 1182q-65 0 -112.5 49.5t-47.5 118.5t47.5 118.5t112.5 49.5q64 0 112 -50.5t48 -117.5t-48 -117.5t-112 -50.5z" />
    <glyph glyph-name="iacute" unicode="&#xed;" horiz-adv-x="725" 
d="M57 0v74q97 4 125.5 31.5t28.5 76.5v582q0 117 -178 141v74l489 25l17 -15v-794q0 -52 30.5 -80t120.5 -41v-74h-633zM155 1102l-43 37q93 123 177 247q71 104 111.5 133t110.5 29q49 0 87 -26.5t38 -61.5q0 -59 -39 -94.5t-194 -118.5q-108 -59 -248 -145z" />
    <glyph glyph-name="igrave" unicode="&#xec;" horiz-adv-x="725" 
d="M57 0v74q97 4 125.5 31.5t28.5 76.5v582q0 117 -178 141v74l489 25l17 -15v-794q0 -52 30.5 -80t120.5 -41v-74h-633zM539 1102q-107 64 -247 143q-152 85 -193 120.5t-41 94.5q0 35 38 61.5t87 26.5q75 0 112 -29t108 -133q50 -74 179 -247z" />
    <glyph glyph-name="icircumflex" unicode="&#xee;" horiz-adv-x="725" 
d="M57 0v74q97 4 125.5 31.5t28.5 76.5v582q0 117 -178 141v74l489 25l17 -15v-794q0 -52 30.5 -80t120.5 -41v-74h-633zM646 1104l-319 254l-317 -254l-52 29q216 352 257 383.5t114 31.5q77 0 126 -48.5t245 -366.5z" />
    <glyph glyph-name="idieresis" unicode="&#xef;" horiz-adv-x="725" 
d="M57 0v74q97 4 125.5 31.5t28.5 76.5v582q0 117 -178 141v74l489 25l17 -15v-794q0 -52 30.5 -80t120.5 -41v-74h-633zM583 1182q-65 0 -112.5 49.5t-47.5 118.5t47.5 118.5t112.5 49.5q64 0 112 -50.5t48 -117.5t-48 -117.5t-112 -50.5zM87 1182q-65 0 -112.5 49.5
t-47.5 118.5t47.5 118.5t112.5 49.5q64 0 112 -50.5t48 -117.5t-48 -117.5t-112 -50.5z" />
    <glyph glyph-name="ntilde" unicode="&#xf1;" horiz-adv-x="1413" 
d="M776 0v74q89 3 107 30.5t18 77.5v467q0 205 -147 205q-131 0 -217 -125v-536q0 -53 23.5 -79.5t105.5 -39.5v-74h-609v74q106 6 129 33.5t23 74.5v582q0 124 -166 141v74l477 25l17 -15v-145h4q122 118 199.5 147t166.5 29q155 0 240.5 -88t85.5 -250v-492q0 -65 38 -87
t107 -29v-74h-602zM1151 1479q-33 -119 -120.5 -210t-182.5 -91q-113 0 -216 55q-104 55 -154 55q-38 0 -65 -22t-83 -125l-71 30q43 124 123.5 210.5t170.5 86.5q64 0 113.5 -14t177.5 -77q34 -17 72 -17q55 0 87.5 18t72.5 125z" />
    <glyph glyph-name="oacute" unicode="&#xf3;" horiz-adv-x="1303" 
d="M641 -33q-252 0 -410.5 145.5t-158.5 381.5q0 239 157.5 383.5t419.5 144.5q266 0 424 -142.5t158 -377.5t-159 -385t-431 -150zM651 940q-215 0 -215 -432q0 -247 53 -353t162 -106q215 0 215 455q0 436 -215 436zM463 1102l-43 37q93 123 177 247q71 104 111.5 133
t110.5 29q49 0 87 -26.5t38 -61.5q0 -59 -39 -94.5t-194 -118.5q-108 -59 -248 -145z" />
    <glyph glyph-name="ograve" unicode="&#xf2;" horiz-adv-x="1303" 
d="M641 -33q-252 0 -410.5 145.5t-158.5 381.5q0 239 157.5 383.5t419.5 144.5q266 0 424 -142.5t158 -377.5t-159 -385t-431 -150zM651 940q-215 0 -215 -432q0 -247 53 -353t162 -106q215 0 215 455q0 436 -215 436zM837 1102q-107 64 -247 143q-152 85 -193 120.5
t-41 94.5q0 35 38 61.5t87 26.5q75 0 112 -29t108 -133q50 -74 179 -247z" />
    <glyph glyph-name="ocircumflex" unicode="&#xf4;" horiz-adv-x="1303" 
d="M641 -33q-252 0 -410.5 145.5t-158.5 381.5q0 239 157.5 383.5t419.5 144.5q266 0 424 -142.5t158 -377.5t-159 -385t-431 -150zM651 940q-215 0 -215 -432q0 -247 53 -353t162 -106q215 0 215 455q0 436 -215 436zM968 1104l-319 254l-317 -254l-52 29
q216 352 257 383.5t114 31.5q77 0 126 -48.5t245 -366.5z" />
    <glyph glyph-name="odieresis" unicode="&#xf6;" horiz-adv-x="1303" 
d="M641 -33q-252 0 -410.5 145.5t-158.5 381.5q0 239 157.5 383.5t419.5 144.5q266 0 424 -142.5t158 -377.5t-159 -385t-431 -150zM651 940q-215 0 -215 -432q0 -247 53 -353t162 -106q215 0 215 455q0 436 -215 436zM899 1182q-65 0 -112.5 49.5t-47.5 118.5t47.5 118.5
t112.5 49.5q64 0 112 -50.5t48 -117.5t-48 -117.5t-112 -50.5zM403 1182q-65 0 -112.5 49.5t-47.5 118.5t47.5 118.5t112.5 49.5q64 0 112 -50.5t48 -117.5t-48 -117.5t-112 -50.5z" />
    <glyph glyph-name="otilde" unicode="&#xf5;" horiz-adv-x="1303" 
d="M641 -33q-252 0 -410.5 145.5t-158.5 381.5q0 239 157.5 383.5t419.5 144.5q266 0 424 -142.5t158 -377.5t-159 -385t-431 -150zM651 940q-215 0 -215 -432q0 -247 53 -353t162 -106q215 0 215 455q0 436 -215 436zM1097 1479q-33 -119 -120.5 -210t-182.5 -91
q-113 0 -216 55q-104 55 -154 55q-38 0 -65 -22t-83 -125l-71 30q43 124 123.5 210.5t170.5 86.5q64 0 113.5 -14t177.5 -77q34 -17 72 -17q55 0 87.5 18t72.5 125z" />
    <glyph glyph-name="uacute" unicode="&#xfa;" horiz-adv-x="1386" 
d="M887 -8l-17 14v131h-6q-109 -107 -190 -137.5t-182 -30.5q-150 0 -231 91.5t-81 256.5v451q0 126 -166 137v74l486 25l12 -15v-665q0 -201 147 -201q129 0 209 117v538q0 127 -170 127v74l486 25l14 -15v-772q0 -122 166 -123v-74zM494 1102l-43 37q93 123 177 247
q71 104 111.5 133t110.5 29q49 0 87 -26.5t38 -61.5q0 -59 -39 -94.5t-194 -118.5q-108 -59 -248 -145z" />
    <glyph glyph-name="ugrave" unicode="&#xf9;" horiz-adv-x="1386" 
d="M887 -8l-17 14v131h-6q-109 -107 -190 -137.5t-182 -30.5q-150 0 -231 91.5t-81 256.5v451q0 126 -166 137v74l486 25l12 -15v-665q0 -201 147 -201q129 0 209 117v538q0 127 -170 127v74l486 25l14 -15v-772q0 -122 166 -123v-74zM864 1102q-107 64 -247 143
q-152 85 -193 120.5t-41 94.5q0 35 38 61.5t87 26.5q75 0 112 -29t108 -133q50 -74 179 -247z" />
    <glyph glyph-name="ucircumflex" unicode="&#xfb;" horiz-adv-x="1386" 
d="M887 -8l-17 14v131h-6q-109 -107 -190 -137.5t-182 -30.5q-150 0 -231 91.5t-81 256.5v451q0 126 -166 137v74l486 25l12 -15v-665q0 -201 147 -201q129 0 209 117v538q0 127 -170 127v74l486 25l14 -15v-772q0 -122 166 -123v-74zM995 1104l-319 254l-317 -254l-52 29
q216 352 257 383.5t114 31.5q77 0 126 -48.5t245 -366.5z" />
    <glyph glyph-name="udieresis" unicode="&#xfc;" horiz-adv-x="1386" 
d="M887 -8l-17 14v131h-6q-109 -107 -190 -137.5t-182 -30.5q-150 0 -231 91.5t-81 256.5v451q0 126 -166 137v74l486 25l12 -15v-665q0 -201 147 -201q129 0 209 117v538q0 127 -170 127v74l486 25l14 -15v-772q0 -122 166 -123v-74zM926 1182q-65 0 -112.5 49.5
t-47.5 118.5t47.5 118.5t112.5 49.5q64 0 112 -50.5t48 -117.5t-48 -117.5t-112 -50.5zM430 1182q-65 0 -112.5 49.5t-47.5 118.5t47.5 118.5t112.5 49.5q64 0 112 -50.5t48 -117.5t-48 -117.5t-112 -50.5z" />
    <glyph glyph-name="dagger" unicode="&#x2020;" horiz-adv-x="987" 
d="M530 1018l54 -739q0 -91 -88 -91q-90 0 -90 91q0 31 18 251q20 259 33 488q-59 -5 -232 -47q-25 -6 -39 -6q-90 0 -90 88q0 90 90 90q14 0 39 -7q163 -47 230 -53q-8 73 -32 179q-20 83 -20 104q0 38 25.5 63t67.5 25q90 0 90 -88q0 -15 -22 -104q-26 -107 -34 -179
q67 6 231 53q24 7 38 7q90 0 90 -90q0 -88 -90 -88q-14 0 -38 6q-169 41 -231 47z" />
    <glyph glyph-name="degree" unicode="&#xb0;" horiz-adv-x="860" 
d="M428 799q-151 0 -246.5 93.5t-95.5 235.5q0 143 96 237.5t246 94.5q151 0 247.5 -93.5t96.5 -238.5q0 -142 -95.5 -235.5t-248.5 -93.5zM428 1368q-73 0 -117.5 -63t-44.5 -172q0 -244 166 -244q67 0 114.5 62t47.5 169q0 248 -166 248z" />
    <glyph glyph-name="cent" unicode="&#xa2;" horiz-adv-x="1239" 
d="M1176 262q-126 -238 -379 -280v-281h-101v279q-274 2 -420.5 140t-146.5 378q0 209 156 361t411 163v254h101v-256q153 -17 235 -82t82 -135q0 -152 -164 -152q-51 0 -95 34.5t-58 92.5v-657q193 0 303 192zM696 938q-209 -42 -209 -428q0 -282 209 -373v801z" />
    <glyph glyph-name="sterling" unicode="&#xa3;" horiz-adv-x="1413" 
d="M1294 270v-270h-1169v188q149 49 188 127.5t39 311.5h-192v114h192l-9 116q-7 82 -7 126q0 206 144.5 341.5t383.5 135.5q172 0 297 -83t125 -201q0 -72 -44.5 -119t-119.5 -47q-82 0 -132 41.5t-50 111.5q0 60 34 149l15 42q-49 14 -119 14q-77 0 -130.5 -69.5
t-53.5 -211.5q0 -43 5 -164q5 -122 5 -182h389v-114h-389q-30 -240 -235 -346v-11h833z" />
    <glyph glyph-name="section" unicode="&#xa7;" horiz-adv-x="1153" 
d="M774 348q207 -85 207 -264q0 -137 -126.5 -226t-342.5 -89q-174 0 -268 57.5t-94 142.5q0 55 33.5 90t92.5 35q57 0 101.5 -43t95.5 -198q77 -14 161.5 22t84.5 127q0 78 -53.5 121.5t-251.5 124.5q-157 63 -225 141.5t-68 188.5q0 205 260 294q-215 90 -215 277
q0 129 128 217t339 88q176 0 268 -59t92 -142q0 -127 -127 -127q-108 0 -165 163q-15 42 -29 79q-12 4 -29 4q-215 0 -215 -151q0 -77 53 -119.5t260 -126.5q155 -63 223 -141.5t68 -190.5q0 -200 -258 -295zM461 840q-84 -79 -84 -195q0 -69 48 -120t267 -142q86 70 86 195
q0 66 -42 115t-275 147z" />
    <glyph glyph-name="bullet" unicode="&#x2022;" horiz-adv-x="897" 
d="M449 291q-133 0 -226.5 92.5t-93.5 224.5t93 226t227 94q131 0 225 -93.5t94 -226.5t-94.5 -225t-224.5 -92z" />
    <glyph glyph-name="paragraph" unicode="&#xb6;" horiz-adv-x="1124" 
d="M1075 1335h-110v-1550h-123v1550h-166v-1550h-123v844q-199 0 -333 98t-134 295q0 164 112.5 280.5t309.5 116.5h567v-84z" />
    <glyph glyph-name="germandbls" unicode="&#xdf;" horiz-adv-x="1348" 
d="M598 6v86q30 -6 64 -6q122 0 189 112t67 306q0 180 -65.5 279.5t-186.5 99.5h-27v92h37q83 0 143 68.5t60 195.5q0 227 -160 227q-111 0 -157 -90t-46 -278v-1098h-479v74q97 4 123 31.5t26 76.5v836q0 182 57 290.5t187.5 175t302.5 66.5q198 0 328.5 -83.5
t130.5 -229.5q0 -113 -79.5 -193t-205.5 -106v-10q168 -36 268.5 -149.5t100.5 -280.5q0 -228 -135 -368t-344 -140q-118 0 -199 16z" />
    <glyph glyph-name="registered" unicode="&#xae;" horiz-adv-x="1929" 
d="M967 -281q-365 0 -626 261t-261 624q0 360 261.5 620.5t625.5 260.5q361 0 621.5 -261t260.5 -620q0 -362 -260 -623.5t-622 -261.5zM967 1397q-328 0 -558.5 -232t-230.5 -561q0 -334 230 -566.5t559 -232.5q327 0 555.5 233t228.5 566q0 329 -229 561t-555 232z
M1212 145q-145 226 -305 416h-33v-268q0 -76 119 -90v-58h-481v58q82 9 105.5 26.5t23.5 59.5v635q0 43 -22.5 58.5t-106.5 35.5v57h514q356 0 356 -221q0 -183 -225 -250l102 -130q115 -151 154.5 -192.5t65 -54t96.5 -24.5v-58h-363zM874 1006v-377h48q202 0 202 207
q0 170 -200 170h-50z" />
    <glyph glyph-name="copyright" unicode="&#xa9;" horiz-adv-x="1929" 
d="M967 -281q-365 0 -626 261t-261 624q0 360 261.5 620.5t625.5 260.5q361 0 621.5 -261t260.5 -620q0 -362 -260 -623.5t-622 -261.5zM967 1397q-328 0 -558.5 -232t-230.5 -561q0 -334 230 -566.5t559 -232.5q327 0 555.5 233t228.5 566q0 329 -229 561t-555 232z
M1393 381q-117 -266 -416 -266q-217 0 -358.5 131.5t-141.5 345.5q0 221 146 362.5t376 141.5q125 0 246 -62l35 51h66l4 -370h-70q-53 164 -116 233.5t-156 69.5q-116 0 -180 -107t-64 -295q0 -391 266 -391q185 0 297 193z" />
    <glyph glyph-name="trademark" unicode="&#x2122;" horiz-adv-x="1939" 
d="M1499 733v55q105 6 105 58v440h-23l-217 -530h-61l-211 540h-23v-358q0 -105 32 -122t95 -28v-55h-324v55q19 4 48 9q48 8 61.5 33.5t13.5 105.5v334q0 87 -116 94v55h338l172 -450l139 364q12 31 24 86h324v-55q-78 -6 -91 -20t-13 -35v-463q0 -29 15.5 -39.5
t88.5 -18.5v-55h-377zM727 1217q-17 52 -44.5 91t-47.5 44.5t-76 5.5h-39v-508q0 -32 21 -42.5t82 -19.5v-55h-373v55q44 4 73 12t29 44v514h-46q-44 0 -65.5 -5.5t-50 -45t-45.5 -90.5h-49v202h680v-202h-49z" />
    <glyph glyph-name="acute" unicode="&#xb4;" horiz-adv-x="1024" 
d="M324 1102l-43 37q93 123 177 247q71 104 111.5 133t110.5 29q49 0 87 -26.5t38 -61.5q0 -59 -39 -94.5t-194 -118.5q-108 -59 -248 -145z" />
    <glyph glyph-name="dieresis" unicode="&#xa8;" horiz-adv-x="1024" 
d="M760 1182q-65 0 -112.5 49.5t-47.5 118.5t47.5 118.5t112.5 49.5q64 0 112 -50.5t48 -117.5t-48 -117.5t-112 -50.5zM264 1182q-65 0 -112.5 49.5t-47.5 118.5t47.5 118.5t112.5 49.5q64 0 112 -50.5t48 -117.5t-48 -117.5t-112 -50.5z" />
    <glyph glyph-name="glyph143" 
 />
    <glyph glyph-name="AE" unicode="&#xc6;" horiz-adv-x="2191" 
d="M2114 0h-1309v78q124 9 165.5 34t41.5 91v389h-496q-109 -188 -165 -293t-56 -141q0 -59 192 -80v-78h-581v78q83 6 142.5 39.5t90 75t252.5 420.5l412 704q-40 11 -185 24v78h1424v-362h-78q-30 83 -95.5 159t-116.5 94.5t-200 18.5h-186v-549h127q223 0 258 246h76
v-592h-76q-20 108 -69.5 182t-188.5 74h-127v-409q0 -120 34 -155.5t187 -35.5q140 0 201 12.5t93.5 39.5t98 134t88.5 166h72zM1012 1329h-76l-365 -641h441v641z" />
    <glyph glyph-name="Oslash" unicode="&#xd8;" horiz-adv-x="1679" 
d="M350 117l-196 -211l-74 67l196 207q-204 210 -204 514q0 340 218 552t550 212q288 0 489 -158l197 209l73 -67l-194 -205q203 -211 203 -518q0 -331 -211.5 -544.5t-562.5 -213.5q-283 0 -484 156zM1155 1122q-91 242 -315 242q-182 0 -279.5 -170.5t-97.5 -488.5
q0 -184 29 -304zM1190 1014l-666 -719q92 -238 316 -238q184 0 280.5 170t96.5 486q0 170 -27 301z" />
    <glyph glyph-name="glyph146" 
 />
    <glyph glyph-name="plusminus" unicode="&#xb1;" horiz-adv-x="1440" 
d="M164 0v164h473v393h-473v164h473v473h166v-473h473v-164h-473v-393h473v-164h-1112z" />
    <glyph glyph-name="glyph148" 
 />
    <glyph glyph-name="glyph149" 
 />
    <glyph glyph-name="yen" unicode="&#xa5;" horiz-adv-x="1499" 
d="M1522 1341q-119 -18 -194.5 -104t-407.5 -623v-30h432v-117h-430v-250q0 -89 82 -111.5t135 -27.5v-78h-779v78q138 11 178 35t40 94v260h-431v117h433v18q-306 533 -378 629.5t-218 109.5v78h784v-78q-28 -2 -59 -3q-121 -6 -121 -48q0 -50 293 -540q301 477 301 516
q0 66 -166 75v78h506v-78z" />
    <glyph glyph-name="uni00B5" unicode="&#xb5;" horiz-adv-x="1368" 
d="M1346 20q-131 -51 -232 -51q-219 0 -254 166h-6q-100 -166 -266 -166q-138 0 -203 62h-10v-29q0 -39 32 -149q31 -110 31 -146q0 -65 -50.5 -108t-123.5 -43q-67 0 -112.5 45t-45.5 114q0 63 32 187q32 127 32 243v846h328v-659q0 -203 157 -203q120 0 197 111v751h328
v-776q0 -69 35.5 -95t130.5 -26v-74z" />
    <glyph glyph-name="glyph152" 
 />
    <glyph glyph-name="glyph153" 
 />
    <glyph glyph-name="glyph154" 
 />
    <glyph glyph-name="glyph155" 
 />
    <glyph glyph-name="glyph156" 
 />
    <glyph glyph-name="ordfeminine" unicode="&#xaa;" horiz-adv-x="1130" 
d="M1055 649q-101 -43 -191 -43q-181 0 -215 115h-6q-109 -115 -283 -115q-100 0 -165.5 57t-65.5 146q0 105 59.5 157.5t213.5 98.5q197 57 241 80v69q0 170 -117 170q-65 0 -96 -22q3 -20 14 -48q11 -29 11 -67q0 -42 -36.5 -71t-109.5 -29q-68 0 -104.5 33.5t-36.5 85.5
q0 79 117.5 134.5t255.5 55.5q213 0 295 -66.5t82 -201.5q0 -95 -7 -312q-3 -81 4.5 -107.5t31 -40t108.5 -13.5v-66zM643 1063q-151 -52 -188 -96.5t-37 -114.5q0 -113 98 -113q73 0 125 64z" />
    <glyph glyph-name="ordmasculine" unicode="&#xba;" horiz-adv-x="1130" 
d="M557 606q-208 0 -338.5 117.5t-130.5 308.5q0 193 128.5 308.5t346.5 115.5q219 0 348 -115.5t129 -304.5q0 -191 -130 -310.5t-353 -119.5zM565 1380q-172 0 -172 -338q0 -188 41 -274t131 -86q170 0 170 356q0 342 -170 342z" />
    <glyph glyph-name="glyph159" 
 />
    <glyph glyph-name="ae" unicode="&#xe6;" horiz-adv-x="1755" 
d="M1718 240q-169 -273 -479 -273q-316 0 -459 193h-6q-160 -191 -405 -191q-125 0 -207 69.5t-82 180.5q0 94 43 159.5t137 106.5t442 136v108q0 211 -143 211q-67 0 -121 -37q2 -12 7 -26q24 -70 24 -113q0 -125 -172 -125q-170 0 -170 145q0 99 142 168.5t306 69.5
q229 0 349 -100q141 100 290 100q234 0 356 -113t122 -313v-66h-660q0 -417 324 -417q161 0 286 182zM1341 618q0 181 -34 251.5t-107 70.5q-159 0 -168 -326zM702 532q-160 -41 -219 -100t-59 -156q0 -151 123 -151q94 0 155 78v329z" />
    <glyph glyph-name="oslash" unicode="&#xf8;" horiz-adv-x="1303" 
d="M287 72l-187 -189l-65 62l184 184q-147 145 -147 365q0 239 157.5 383.5t419.5 144.5q214 0 365 -100l180 180l66 -62l-181 -176q152 -144 152 -362q0 -235 -159 -385t-431 -150q-200 0 -354 105zM850 762q-52 182 -199 182q-225 0 -225 -436q0 -99 6 -176zM868 664
l-415 -433q50 -188 198 -188q223 0 223 461q0 122 -6 160z" />
    <glyph glyph-name="questiondown" unicode="&#xbf;" horiz-adv-x="1122" 
d="M659 1079q-77 0 -133.5 56.5t-56.5 132.5q0 72 56 128t134 56q81 0 138 -55.5t57 -128.5q0 -76 -57.5 -132.5t-137.5 -56.5zM614 854l7 137h88v-389q-310 -34 -310 -307q0 -113 60 -177.5t153 -64.5q71 0 136 35q-37 111 -37 176q0 148 172 148q73 0 117 -46.5t44 -119.5
q0 -114 -129.5 -194.5t-316.5 -80.5q-215 0 -352 113.5t-137 300.5q0 196 133.5 322.5t371.5 146.5z" />
    <glyph glyph-name="exclamdown" unicode="&#xa1;" horiz-adv-x="770" 
d="M385 1075q-79 0 -135.5 55.5t-56.5 131.5q0 74 56 130t136 56q79 0 136 -55.5t57 -130.5q0 -76 -57 -131.5t-136 -55.5zM346 956h78q37 -249 105 -533q51 -217 51 -265q0 -78 -57.5 -132.5t-137.5 -54.5t-137.5 54.5t-57.5 132.5q0 56 51 267q70 295 105 531z" />
    <glyph glyph-name="logicalnot" unicode="&#xac;" horiz-adv-x="1440" 
d="M1096 49v473h-932v164h1102v-637h-170z" />
    <glyph glyph-name="glyph165" 
 />
    <glyph glyph-name="florin" unicode="&#x192;" horiz-adv-x="1186" 
d="M807 1217q-78 -41 -111 -390l-8 -73h279v-117h-293q-39 -408 -91.5 -590.5t-191 -299t-348.5 -116.5q-119 0 -186.5 50t-67.5 129q0 64 40.5 105.5t113.5 41.5q67 0 112.5 -40.5t112.5 -192.5q63 29 94 268q8 62 17 121q21 157 48 423l11 101h-203v117h219
q37 257 194 407t386 150q116 0 184 -49.5t68 -124.5q0 -154 -156 -154q-68 0 -113.5 43t-109.5 191z" />
    <glyph glyph-name="glyph167" 
 />
    <glyph glyph-name="glyph168" 
 />
    <glyph glyph-name="guillemotleft" unicode="&#xab;" horiz-adv-x="1249" 
d="M1077 96q-404 286 -446.5 330.5t-42.5 120.5q0 74 42 118t447 330l53 -43l-309 -409l309 -404zM639 96q-393 277 -442.5 325.5t-49.5 125.5q0 70 42 115t450 333l51 -43l-307 -409l307 -404z" />
    <glyph glyph-name="guillemotright" unicode="&#xbb;" horiz-adv-x="1249" 
d="M610 96l-51 43l307 404l-307 409l51 43q391 -274 441.5 -325.5t50.5 -122.5t-46 -121t-446 -330zM172 96l-51 43l307 404l-307 409l51 43q409 -289 450.5 -333.5t41.5 -114.5q0 -73 -42 -118t-450 -333z" />
    <glyph glyph-name="ellipsis" unicode="&#x2026;" horiz-adv-x="1929" 
d="M1622 -29q-78 0 -134 55t-56 132t56.5 132.5t133.5 55.5q78 0 135.5 -55t57.5 -133t-56.5 -132.5t-136.5 -54.5zM981 -29q-80 0 -136.5 54.5t-56.5 132.5t57.5 133t135.5 55q77 0 133.5 -55.5t56.5 -132.5t-56 -132t-134 -55zM338 -29q-80 0 -136.5 54.5t-56.5 132.5
t57.5 133t135.5 55q77 0 133.5 -55.5t56.5 -132.5t-56 -132t-134 -55z" />
    <glyph glyph-name="Agrave" unicode="&#xc0;" horiz-adv-x="1552" 
d="M836 0v78q200 18 200 57q0 20 -10 45l-121 295h-489q-101 -242 -101 -309t211 -88v-78h-581v78q88 6 144.5 38t79.5 73.5t189 444.5l332 806h201l417 -1036q84 -210 105.5 -238.5t66 -54t130.5 -33.5v-78h-774zM657 1087l-202 -514h409zM956 1485q-162 69 -269 107
q-181 64 -220 94t-39 81q0 43 42 72t107 29q58 0 89 -23.5t162 -159.5q56 -59 163 -159z" />
    <glyph glyph-name="Atilde" unicode="&#xc3;" horiz-adv-x="1552" 
d="M836 0v78q200 18 200 57q0 20 -10 45l-121 295h-489q-101 -242 -101 -309t211 -88v-78h-581v78q88 6 144.5 38t79.5 73.5t189 444.5l332 806h201l417 -1036q84 -210 105.5 -238.5t66 -54t130.5 -33.5v-78h-774zM657 1087l-202 -514h409zM1230 1844q-33 -119 -120.5 -210
t-182.5 -91q-113 0 -216 55q-104 55 -154 55q-38 0 -65 -22t-83 -125l-71 30q43 124 123.5 210.5t170.5 86.5q64 0 113.5 -14t177.5 -77q34 -17 72 -17q55 0 87.5 18t72.5 125z" />
    <glyph glyph-name="Otilde" unicode="&#xd5;" horiz-adv-x="1679" 
d="M834 -39q-322 0 -542 206.5t-220 526.5q0 340 218 552t550 212q327 0 547.5 -206t220.5 -533q0 -331 -211.5 -544.5t-562.5 -213.5zM840 1360q-179 0 -274 -169t-95 -486q0 -309 95 -477.5t274 -168.5q181 0 274.5 169.5t93.5 484.5q0 309 -94 478t-274 169zM1286 1844
q-33 -119 -120.5 -210t-182.5 -91q-113 0 -216 55q-104 55 -154 55q-38 0 -65 -22t-83 -125l-71 30q43 124 123.5 210.5t170.5 86.5q64 0 113.5 -14t177.5 -77q34 -17 72 -17q55 0 87.5 18t72.5 125z" />
    <glyph glyph-name="OE" unicode="&#x152;" horiz-adv-x="2255" 
d="M2177 0h-1298q-330 0 -568.5 186t-238.5 523q0 338 238.5 524t568.5 186h1224v-362h-75q-29 80 -94.5 157t-116.5 96t-201 19h-186v-549h124q111 0 169 50t92 196h75v-592h-75q-22 111 -71.5 183.5t-189.5 72.5h-124v-409q0 -127 36.5 -159t184.5 -32q135 0 197 12
t92 35.5t100 135.5t92 169h72zM1075 1325q-24 2 -111 2h-34q-212 0 -335.5 -165t-123.5 -453q0 -285 122.5 -452t336.5 -167q89 0 145 4v1231z" />
    <glyph glyph-name="oe" unicode="&#x153;" horiz-adv-x="1921" 
d="M1882 240q-168 -273 -477 -273q-237 0 -385 133q-161 -133 -389 -133q-248 0 -403.5 145.5t-155.5 381.5q0 238 154.5 383t412.5 145q237 0 393 -139q162 139 346 139q231 0 354 -111.5t123 -314.5v-66h-659q0 -417 324 -417q161 0 286 182zM1505 618q0 188 -34.5 255
t-106.5 67q-162 0 -168 -326zM641 940q-207 0 -207 -432q0 -248 51.5 -353.5t155.5 -105.5q203 0 203 455q0 436 -203 436z" />
    <glyph glyph-name="endash" unicode="&#x2013;" horiz-adv-x="1440" 
d="M104 494v161h1231v-161h-1231z" />
    <glyph glyph-name="emdash" unicode="&#x2014;" horiz-adv-x="1901" 
d="M104 494v161h1690v-161h-1690z" />
    <glyph glyph-name="quotedblleft" unicode="&#x201c;" horiz-adv-x="1063" 
d="M954 1454q-232 -112 -249 -303h55q207 0 207 -168q0 -63 -51.5 -111.5t-122.5 -48.5q-108 0 -168 72.5t-60 204.5q0 116 97.5 237t248.5 189zM463 1454q-236 -111 -252 -303h55q207 0 207 -168q0 -64 -50.5 -112t-123.5 -48q-107 0 -167 71t-60 206q0 117 96.5 237
t249.5 189z" />
    <glyph glyph-name="quotedblright" unicode="&#x201d;" horiz-adv-x="1063" 
d="M645 827l-45 72q236 116 252 305h-55q-207 0 -207 166q0 63 50 111.5t124 48.5q109 0 168 -73t59 -202q0 -117 -95.5 -238t-250.5 -190zM152 827l-43 72q233 117 249 305h-55q-207 0 -207 166q0 62 51 111t123 49q108 0 168 -72.5t60 -202.5q0 -116 -96.5 -238
t-249.5 -190z" />
    <glyph glyph-name="quoteleft" unicode="&#x2018;" horiz-adv-x="551" 
d="M453 1454q-235 -110 -252 -303h55q207 0 207 -168q0 -62 -50.5 -111t-121.5 -49q-110 0 -170 72.5t-60 204.5q0 116 97 236.5t250 189.5z" />
    <glyph glyph-name="quoteright" unicode="&#x2019;" horiz-adv-x="551" 
d="M141 827l-43 72q235 117 250 305h-55q-207 0 -207 166q0 62 51 111t123 49q109 0 168 -73t59 -202q0 -117 -95.5 -238t-250.5 -190z" />
    <glyph glyph-name="divide" unicode="&#xf7;" horiz-adv-x="1440" 
d="M721 815q-65 0 -114.5 49t-49.5 117q0 69 49 118.5t115 49.5q65 0 113.5 -49.5t48.5 -118.5q0 -67 -48.5 -116.5t-113.5 -49.5zM164 494v161h1112v-161h-1112zM721 0q-67 0 -115.5 48.5t-48.5 117.5t49 118.5t115 49.5q65 0 113.5 -49.5t48.5 -118.5q0 -68 -48 -117
t-114 -49z" />
    <glyph glyph-name="glyph184" 
 />
    <glyph glyph-name="ydieresis" unicode="&#xff;" horiz-adv-x="1151" 
d="M1188 920q-37 -7 -70 -24.5t-53.5 -40.5t-65.5 -119.5t-119 -263.5l-229 -503q-192 -413 -420 -413q-90 0 -150.5 51t-60.5 121q0 67 41.5 111t116.5 44q95 0 213 -147q115 118 154 233q-393 814 -431.5 871.5t-142.5 79.5v71h613v-71q-123 -8 -123 -52q0 -22 44 -108
l212 -422l183 423q20 45 20 81q0 54 -146 78v71h414v-71zM881 1182q-65 0 -112.5 49.5t-47.5 118.5t47.5 118.5t112.5 49.5q64 0 112 -50.5t48 -117.5t-48 -117.5t-112 -50.5zM385 1182q-65 0 -112.5 49.5t-47.5 118.5t47.5 118.5t112.5 49.5q64 0 112 -50.5t48 -117.5
t-48 -117.5t-112 -50.5z" />
    <glyph glyph-name="Ydieresis" unicode="&#x178;" horiz-adv-x="1499" 
d="M1567 1341q-77 -11 -132.5 -43.5t-122.5 -125.5t-205 -309.5t-157.5 -266.5t-19.5 -178v-201q0 -88 78 -110t141 -29v-78h-793v78q141 10 180 35t39 94v250q0 87 -20 128.5t-186 321t-204.5 328.5t-91.5 74.5t-134 31.5v78h813v-78q-27 -2 -60 -3q-131 -6 -131 -48
q0 -49 324 -592q332 524 332 568q0 65 -177 75v78h527v-78zM1087 1532q-65 0 -112 50t-47 118q0 67 47 117.5t112 50.5q64 0 111 -50.5t47 -117.5q0 -68 -47 -118t-111 -50zM551 1532q-66 0 -113 50t-47 118q0 67 46 117.5t114 50.5q63 0 111 -50.5t48 -117.5
q0 -68 -48 -118t-111 -50z" />
    <glyph glyph-name="fraction" unicode="&#x2044;" horiz-adv-x="195" 
d="M584 1430l-817 -1430h-156l815 1430h158z" />
    <glyph glyph-name="fraction" unicode="&#x2215;" horiz-adv-x="195" 
d="M584 1430l-817 -1430h-156l815 1430h158z" />
    <glyph glyph-name="Euro" unicode="&#x20ac;" horiz-adv-x="1464" 
d="M1438 356q-197 -395 -613 -395q-269 0 -454 152t-234 407h-137l43 117h80q0 130 2 154h-125l43 114h100q65 256 250 403.5t461 147.5q191 0 367 -92l61 55h86l10 -518h-88q-142 459 -424 459q-148 0 -230.5 -104.5t-109.5 -350.5h351l-43 -114h-314v-110q0 -24 2 -44h252
l-43 -117h-199q59 -418 383 -418q259 0 437 306z" />
    <glyph glyph-name="guilsinglleft" unicode="&#x2039;" horiz-adv-x="811" 
d="M649 96q-430 294 -466 338t-36 113q0 74 45 119.5t457 328.5l51 -43l-297 -409l297 -404z" />
    <glyph glyph-name="guilsinglright" unicode="&#x203a;" horiz-adv-x="811" 
d="M162 96l-53 43l299 404l-299 409l53 43q411 -283 455.5 -327.5t44.5 -120.5q0 -72 -36 -115t-464 -336z" />
    <glyph glyph-name="daggerdbl" unicode="&#x2021;" horiz-adv-x="987" 
d="M530 545q8 -72 34 -177q22 -90 22 -104q0 -90 -90 -90q-42 0 -67.5 26t-25.5 64q0 20 20 104q24 104 32 177q-70 -8 -171 -35q-82 -23 -98 -23q-90 0 -90 88q0 42 26 66.5t64 24.5q14 0 99 -22q99 -26 170 -34q-2 29 -17 94q-15 57 -16 93v37q0 36 16 92q12 44 17 92
q-56 -5 -230 -47q-25 -6 -39 -6q-90 0 -90 88q0 90 90 90q14 0 39 -7q163 -47 230 -53q-8 73 -32 179q-20 83 -20 104q0 38 25.5 63t67.5 25q90 0 90 -88q0 -15 -22 -104q-26 -107 -34 -179q67 6 231 53q24 7 38 7q90 0 90 -90q0 -88 -90 -88q-14 0 -38 6q-169 41 -231 47
q5 -48 18 -92q12 -44 15 -92v-37q0 -30 -15 -93q-13 -52 -18 -94q70 7 231 50q24 6 38 6q90 0 90 -91q0 -88 -90 -88q-16 0 -97 23q-102 27 -172 35z" />
    <glyph glyph-name="uni2219" unicode="&#x2219;" horiz-adv-x="692" 
d="M348 352q-82 0 -140.5 57.5t-58.5 137.5q0 79 58 137.5t141 58.5q80 0 138.5 -59t58.5 -137q0 -79 -59 -137t-138 -58z" />
    <glyph glyph-name="quotesinglbase" unicode="&#x201a;" horiz-adv-x="551" 
d="M119 -376l-43 72q235 117 250 305h-55q-207 0 -207 166q0 62 51 111t123 49q109 0 168 -73t59 -202q0 -117 -95.5 -238t-250.5 -190z" />
    <glyph glyph-name="quotedblbase" unicode="&#x201e;" horiz-adv-x="1063" 
d="M623 -376l-45 72q236 116 252 305h-55q-207 0 -207 166q0 63 50 111.5t124 48.5q109 0 168 -73t59 -202q0 -117 -95.5 -238t-250.5 -190zM130 -376l-43 72q233 117 249 305h-55q-207 0 -207 166q0 62 51 111t123 49q108 0 168 -72.5t60 -202.5q0 -116 -96.5 -238
t-249.5 -190z" />
    <glyph glyph-name="perthousand" unicode="&#x2030;" horiz-adv-x="2681" 
d="M481 713q-168 0 -279.5 104t-111.5 268q0 166 111.5 270.5t277.5 104.5q169 0 280 -104t111 -271q0 -166 -111.5 -269t-277.5 -103zM479 1386q-123 0 -123 -292q0 -310 127 -310q121 0 121 299q0 303 -125 303zM391 0h-164l1182 1427h166zM2200 -35q-170 0 -281 105
t-111 270q0 163 111 268t279 105q169 0 280 -104t111 -269q0 -166 -110.5 -270.5t-278.5 -104.5zM2198 641q-123 0 -123 -295q0 -168 30 -237.5t97 -69.5q120 0 120 299q0 303 -124 303zM1321 -35q-167 0 -278 105t-111 270q0 164 111.5 268.5t277.5 104.5q167 0 278 -104
t111 -269q0 -166 -110.5 -270.5t-278.5 -104.5zM1319 641q-123 0 -123 -295q0 -307 127 -307q123 0 123 299q0 303 -127 303z" />
    <glyph glyph-name="Acircumflex" unicode="&#xc2;" horiz-adv-x="1552" 
d="M836 0v78q200 18 200 57q0 20 -10 45l-121 295h-489q-101 -242 -101 -309t211 -88v-78h-581v78q88 6 144.5 38t79.5 73.5t189 444.5l332 806h201l417 -1036q84 -210 105.5 -238.5t66 -54t130.5 -33.5v-78h-774zM657 1087l-202 -514h409zM1139 1485l-350 203l-344 -203
l-35 28l157 189q52 61 85 104q44 62 141 62q66 0 99.5 -26.5t279.5 -328.5z" />
    <glyph glyph-name="Ecircumflex" unicode="&#xca;" horiz-adv-x="1477" 
d="M1401 0h-1331v78q125 10 165.5 33.5t40.5 91.5v1001q0 63 -41 91t-165 46v78h1257v-362h-76q-30 84 -95 158.5t-116.5 94t-201.5 19.5h-205v-549h145q119 0 175 56t83 190h76v-592h-76q-33 158 -87 207t-171 49h-145v-409q0 -110 32 -150.5t199 -40.5q143 0 207 12.5
t94.5 36.5t99 136t89.5 167h73zM1116 1485l-350 203l-344 -203l-35 28l157 189q52 61 85 104q44 62 141 62q66 0 99.5 -26.5t279.5 -328.5z" />
    <glyph glyph-name="Aacute" unicode="&#xc1;" horiz-adv-x="1552" 
d="M836 0v78q200 18 200 57q0 20 -10 45l-121 295h-489q-101 -242 -101 -309t211 -88v-78h-581v78q88 6 144.5 38t79.5 73.5t189 444.5l332 806h201l417 -1036q84 -210 105.5 -238.5t66 -54t130.5 -33.5v-78h-774zM657 1087l-202 -514h409zM600 1485l-35 41q128 118 266 266
q69 76 148 76q63 0 106 -28t43 -73q0 -52 -41 -82t-228 -98q-112 -41 -259 -102z" />
    <glyph glyph-name="Edieresis" unicode="&#xcb;" horiz-adv-x="1477" 
d="M1401 0h-1331v78q125 10 165.5 33.5t40.5 91.5v1001q0 63 -41 91t-165 46v78h1257v-362h-76q-30 84 -95 158.5t-116.5 94t-201.5 19.5h-205v-549h145q119 0 175 56t83 190h76v-592h-76q-33 158 -87 207t-171 49h-145v-409q0 -110 32 -150.5t199 -40.5q143 0 207 12.5
t94.5 36.5t99 136t89.5 167h73zM1048 1532q-65 0 -112 50t-47 118q0 67 47 117.5t112 50.5q64 0 111 -50.5t47 -117.5q0 -68 -47 -118t-111 -50zM512 1532q-66 0 -113 50t-47 118q0 67 46 117.5t114 50.5q63 0 111 -50.5t48 -117.5q0 -68 -48 -118t-111 -50z" />
    <glyph glyph-name="Egrave" unicode="&#xc8;" horiz-adv-x="1477" 
d="M1401 0h-1331v78q125 10 165.5 33.5t40.5 91.5v1001q0 63 -41 91t-165 46v78h1257v-362h-76q-30 84 -95 158.5t-116.5 94t-201.5 19.5h-205v-549h145q119 0 175 56t83 190h76v-592h-76q-33 158 -87 207t-171 49h-145v-409q0 -110 32 -150.5t199 -40.5q143 0 207 12.5
t94.5 36.5t99 136t89.5 167h73zM946 1485q-162 69 -269 107q-181 64 -220 94t-39 81q0 43 42 72t107 29q58 0 89 -23.5t162 -159.5q56 -59 163 -159z" />
    <glyph glyph-name="Iacute" unicode="&#xcd;" horiz-adv-x="913" 
d="M63 0v78q157 6 186.5 38t29.5 83v1005q0 50 -30 82t-186 55v78h787v-78q-14 -2 -34 -4q-116 -12 -148.5 -35.5t-32.5 -87.5v-1005q0 -54 34 -85.5t181 -45.5v-78h-787zM202 1485l-35 41q128 118 266 266q69 76 148 76q63 0 106 -28t43 -73q0 -52 -41 -82t-228 -98
q-112 -41 -259 -102z" />
    <glyph glyph-name="Icircumflex" unicode="&#xce;" horiz-adv-x="913" 
d="M63 0v78q157 6 186.5 38t29.5 83v1005q0 50 -30 82t-186 55v78h787v-78q-14 -2 -34 -4q-116 -12 -148.5 -35.5t-32.5 -87.5v-1005q0 -54 34 -85.5t181 -45.5v-78h-787zM806 1485l-350 203l-344 -203l-35 28l157 189q52 61 85 104q44 62 141 62q66 0 99.5 -26.5
t279.5 -328.5z" />
    <glyph glyph-name="Idieresis" unicode="&#xcf;" horiz-adv-x="913" 
d="M63 0v78q157 6 186.5 38t29.5 83v1005q0 50 -30 82t-186 55v78h787v-78q-14 -2 -34 -4q-116 -12 -148.5 -35.5t-32.5 -87.5v-1005q0 -54 34 -85.5t181 -45.5v-78h-787zM706 1532q-65 0 -112.5 49.5t-47.5 118.5t47.5 118.5t112.5 49.5q64 0 112 -50.5t48 -117.5
t-48 -117.5t-112 -50.5zM210 1532q-65 0 -112.5 49.5t-47.5 118.5t47.5 118.5t112.5 49.5q64 0 112 -50.5t48 -117.5t-48 -117.5t-112 -50.5z" />
    <glyph glyph-name="Igrave" unicode="&#xcc;" horiz-adv-x="913" 
d="M63 0v78q157 6 186.5 38t29.5 83v1005q0 50 -30 82t-186 55v78h787v-78q-14 -2 -34 -4q-116 -12 -148.5 -35.5t-32.5 -87.5v-1005q0 -54 34 -85.5t181 -45.5v-78h-787zM728 1485q-162 69 -269 107q-181 64 -220 94t-39 81q0 43 42 72t107 29q58 0 89 -23.5t162 -159.5
q56 -59 163 -159z" />
    <glyph glyph-name="Oacute" unicode="&#xd3;" horiz-adv-x="1679" 
d="M834 -39q-322 0 -542 206.5t-220 526.5q0 340 218 552t550 212q327 0 547.5 -206t220.5 -533q0 -331 -211.5 -544.5t-562.5 -213.5zM840 1360q-179 0 -274 -169t-95 -486q0 -309 95 -477.5t274 -168.5q181 0 274.5 169.5t93.5 484.5q0 309 -94 478t-274 169zM569 1485
l-35 41q128 118 266 266q69 76 148 76q63 0 106 -28t43 -73q0 -52 -41 -82t-228 -98q-112 -41 -259 -102z" />
    <glyph glyph-name="Ocircumflex" unicode="&#xd4;" horiz-adv-x="1679" 
d="M834 -39q-322 0 -542 206.5t-220 526.5q0 340 218 552t550 212q327 0 547.5 -206t220.5 -533q0 -331 -211.5 -544.5t-562.5 -213.5zM840 1360q-179 0 -274 -169t-95 -486q0 -309 95 -477.5t274 -168.5q181 0 274.5 169.5t93.5 484.5q0 309 -94 478t-274 169zM1188 1485
l-350 203l-344 -203l-35 28l157 189q52 61 85 104q44 62 141 62q66 0 99.5 -26.5t279.5 -328.5z" />
    <glyph glyph-name="Ograve" unicode="&#xd2;" horiz-adv-x="1679" 
d="M834 -39q-322 0 -542 206.5t-220 526.5q0 340 218 552t550 212q327 0 547.5 -206t220.5 -533q0 -331 -211.5 -544.5t-562.5 -213.5zM840 1360q-179 0 -274 -169t-95 -486q0 -309 95 -477.5t274 -168.5q181 0 274.5 169.5t93.5 484.5q0 309 -94 478t-274 169zM1073 1485
q-162 69 -269 107q-181 64 -220 94t-39 81q0 43 42 72t107 29q58 0 89 -23.5t162 -159.5q56 -59 163 -159z" />
    <glyph glyph-name="Uacute" unicode="&#xda;" horiz-adv-x="1706" 
d="M1704 1341q-178 -22 -212 -87.5t-34 -247.5v-529q0 -235 -159.5 -375.5t-415.5 -140.5q-302 0 -468.5 135.5t-166.5 382.5v727q0 109 -162 133l-29 4v76h744v-76q-127 -14 -162 -38.5t-35 -87.5v-717q0 -404 365 -404q175 0 272.5 109t97.5 309v481q0 200 -47 261.5
t-205 84.5v78h617v-78zM670 1485l-35 41q128 118 266 266q69 76 148 76q63 0 106 -28t43 -73q0 -52 -41 -82t-228 -98q-112 -41 -259 -102z" />
    <glyph glyph-name="Ucircumflex" unicode="&#xdb;" horiz-adv-x="1706" 
d="M1704 1341q-178 -22 -212 -87.5t-34 -247.5v-529q0 -235 -159.5 -375.5t-415.5 -140.5q-302 0 -468.5 135.5t-166.5 382.5v727q0 109 -162 133l-29 4v76h744v-76q-127 -14 -162 -38.5t-35 -87.5v-717q0 -404 365 -404q175 0 272.5 109t97.5 309v481q0 200 -47 261.5
t-205 84.5v78h617v-78zM1278 1485l-350 203l-344 -203l-35 28l157 189q52 61 85 104q44 62 141 62q66 0 99.5 -26.5t279.5 -328.5z" />
    <glyph glyph-name="Ugrave" unicode="&#xd9;" horiz-adv-x="1706" 
d="M1704 1341q-178 -22 -212 -87.5t-34 -247.5v-529q0 -235 -159.5 -375.5t-415.5 -140.5q-302 0 -468.5 135.5t-166.5 382.5v727q0 109 -162 133l-29 4v76h744v-76q-127 -14 -162 -38.5t-35 -87.5v-717q0 -404 365 -404q175 0 272.5 109t97.5 309v481q0 200 -47 261.5
t-205 84.5v78h617v-78zM1085 1485q-162 69 -269 107q-181 64 -220 94t-39 81q0 43 42 72t107 29q58 0 89 -23.5t162 -159.5q56 -59 163 -159z" />
    <glyph glyph-name="dotlessi" unicode="&#x131;" horiz-adv-x="725" 
d="M57 0v74q97 4 125.5 31.5t28.5 76.5v582q0 117 -178 141v74l489 25l17 -15v-794q0 -52 30.5 -80t120.5 -41v-74h-633z" />
    <glyph glyph-name="circumflex" unicode="&#x2c6;" horiz-adv-x="1024" 
d="M829 1104l-319 254l-317 -254l-52 29q216 352 257 383.5t114 31.5q77 0 126 -48.5t245 -366.5z" />
    <glyph glyph-name="tilde" unicode="&#x2dc;" horiz-adv-x="1024" 
d="M958 1479q-33 -119 -120.5 -210t-182.5 -91q-113 0 -216 55q-104 55 -154 55q-38 0 -65 -22t-83 -125l-71 30q43 124 123.5 210.5t170.5 86.5q64 0 113.5 -14t177.5 -77q34 -17 72 -17q55 0 87.5 18t72.5 125z" />
    <glyph glyph-name="glyph216" 
 />
    <glyph glyph-name="glyph217" 
 />
    <glyph glyph-name="dotaccent" unicode="&#x2d9;" horiz-adv-x="1024" 
d="M514 1182q-71 0 -120.5 48t-49.5 120q0 70 50 119t120 49q69 0 118.5 -49t49.5 -119q0 -71 -49 -119.5t-119 -48.5z" />
    <glyph glyph-name="ring" unicode="&#x2da;" horiz-adv-x="1024" 
d="M512 1104q-128 0 -203.5 62t-75.5 169q0 104 78 168t201 64q127 0 203 -64t76 -168q0 -103 -76 -167t-203 -64zM512 1497q-131 0 -131 -162q0 -161 131 -161t131 161q0 71 -33.5 116.5t-97.5 45.5z" />
    <glyph glyph-name="cedilla" unicode="&#xb8;" horiz-adv-x="1024" 
d="M283 -444v77q156 0 202.5 15.5t46.5 64.5q0 66 -139 66v237h86v-112q248 0 248 -156q0 -105 -94.5 -148.5t-349.5 -43.5z" />
    <glyph glyph-name="glyph221" 
 />
    <glyph glyph-name="glyph222" 
 />
    <glyph glyph-name="caron" unicode="&#x2c7;" horiz-adv-x="1024" 
d="M883 1520q-200 -325 -246 -370.5t-125 -45.5q-73 0 -114 30.5t-257 385.5l52 28l317 -254l319 254z" />
    <glyph glyph-name="glyph224" 
 />
    <glyph glyph-name="glyph225" 
 />
    <glyph glyph-name="Scaron" unicode="&#x160;" horiz-adv-x="1329" 
d="M231 70l-69 -70h-84l-15 512h87q184 -449 491 -449q131 0 206 64.5t75 169.5q0 157 -252 238q-255 78 -349 124.5t-157.5 144t-63.5 226.5q0 178 148 302t387 124q200 0 383 -96l61 59h86l9 -483h-87q-86 231 -184 326.5t-233 95.5q-107 0 -176.5 -61t-69.5 -152
q0 -71 50.5 -129.5t268.5 -128.5q213 -70 304 -118t148.5 -138.5t57.5 -216.5q0 -196 -162.5 -324.5t-426.5 -128.5q-223 0 -433 109zM1026 1839l-150 -184q-96 -124 -125 -143t-94 -19q-91 0 -139 61q-28 37 -230 285l33 29l334 -193l338 193z" />
    <glyph glyph-name="scaron" unicode="&#x161;" horiz-adv-x="1051" 
d="M188 55l-30 -67h-78l-12 372h71q45 -128 148.5 -219.5t220.5 -91.5q178 0 178 146q0 62 -51.5 96.5t-222.5 83.5q-316 91 -316 330q0 138 118 226.5t310 88.5q154 0 297 -59l21 59h76l16 -342h-72q-38 113 -124 184.5t-179 71.5q-75 0 -119.5 -33t-44.5 -90
q0 -67 50 -100t217 -78q173 -51 248 -128t75 -196q0 -159 -129 -251.5t-336 -92.5q-169 0 -332 90zM903 1520q-200 -325 -246 -370.5t-125 -45.5q-73 0 -114 30.5t-257 385.5l52 28l317 -254l319 254z" />
    <glyph glyph-name="Zcaron" unicode="&#x17d;" horiz-adv-x="1411" 
d="M1350 0h-1334v61l918 1266h-311q-179 0 -248.5 -48t-202.5 -294h-80l43 434h1235v-61l-917 -1266h358q162 0 216 11.5t81 32t93 120.5t122 223h74zM1080 1839l-150 -184q-96 -124 -125 -143t-94 -19q-91 0 -139 61q-28 37 -230 285l33 29l334 -193l338 193z" />
    <glyph glyph-name="zcaron" unicode="&#x17e;" horiz-adv-x="1075" 
d="M43 0v70l575 831h-81q-211 0 -270 -19.5t-113 -215.5h-70v325h930v-61l-578 -840q122 0 243 2.5t154.5 19t66 86t56.5 175.5h72v-373h-985zM922 1520q-200 -325 -246 -370.5t-125 -45.5q-73 0 -114 30.5t-257 385.5l52 28l317 -254l319 254z" />
    <glyph glyph-name="brokenbar" unicode="&#xa6;" horiz-adv-x="795" 
d="M311 723v801h172v-801h-172zM311 -424v809h172v-809h-172z" />
    <glyph glyph-name="Eth" unicode="&#xd0;" horiz-adv-x="1708" 
d="M70 0v78q147 5 176.5 39t29.5 82v487h-194v105h194v413q0 60 -36.5 91.5t-171.5 45.5v78h753q345 0 580 -186t235 -533q0 -326 -236.5 -513t-615.5 -187h-714zM631 1323v-532h305v-105h-305v-438q0 -158 186 -158q420 0 420 610q0 293 -122 460t-337 167q-91 0 -147 -4z
" />
    <glyph glyph-name="eth" unicode="&#xf0;" horiz-adv-x="1307" 
d="M866 903l11 2q-31 218 -142 359l-211 -134l-59 82l205 129q-59 61 -170 134l49 73q155 -66 246 -125l196 125l60 -84l-166 -104q346 -267 346 -729q0 -314 -156 -489t-432 -175q-254 0 -412.5 145.5t-158.5 387.5q0 230 143 375t371 145q186 0 280 -117zM653 922
q-217 0 -217 -416q0 -457 217 -457q215 0 215 453q0 420 -215 420z" />
    <glyph glyph-name="Yacute" unicode="&#xdd;" horiz-adv-x="1499" 
d="M1567 1341q-77 -11 -132.5 -43.5t-122.5 -125.5t-205 -309.5t-157.5 -266.5t-19.5 -178v-201q0 -88 78 -110t141 -29v-78h-793v78q141 10 180 35t39 94v250q0 87 -20 128.5t-186 321t-204.5 328.5t-91.5 74.5t-134 31.5v78h813v-78q-27 -2 -60 -3q-131 -6 -131 -48
q0 -49 324 -592q332 524 332 568q0 65 -177 75v78h527v-78zM596 1485l-35 41q128 118 266 266q69 76 148 76q63 0 106 -28t43 -73q0 -52 -41 -82t-228 -98q-112 -41 -259 -102z" />
    <glyph glyph-name="yacute" unicode="&#xfd;" horiz-adv-x="1151" 
d="M1188 920q-37 -7 -70 -24.5t-53.5 -40.5t-65.5 -119.5t-119 -263.5l-229 -503q-192 -413 -420 -413q-90 0 -150.5 51t-60.5 121q0 67 41.5 111t116.5 44q95 0 213 -147q115 118 154 233q-393 814 -431.5 871.5t-142.5 79.5v71h613v-71q-123 -8 -123 -52q0 -22 44 -108
l212 -422l183 423q20 45 20 81q0 54 -146 78v71h414v-71zM445 1102l-43 37q93 123 177 247q71 104 111.5 133t110.5 29q49 0 87 -26.5t38 -61.5q0 -59 -39 -94.5t-194 -118.5q-108 -59 -248 -145z" />
    <glyph glyph-name="Thorn" unicode="&#xde;" horiz-adv-x="1450" 
d="M633 326v-117q0 -58 37 -87.5t161 -43.5v-78h-761v78q143 10 174.5 40.5t31.5 84.5v1001q0 70 -56 100t-150 37v78h761v-78q-126 -14 -162 -44.5t-36 -86.5v-65h219q275 0 411 -94.5t136 -298.5q0 -192 -166.5 -309t-407.5 -117h-192zM633 1051v-631h51q324 0 324 315
q0 166 -71 241t-226 75h-78z" />
    <glyph glyph-name="thorn" unicode="&#xfe;" horiz-adv-x="1321" 
d="M498 41h-9v-281q0 -38 21 -70t100 -46t97 -15v-73h-721v73q130 12 152 42t22 75v1550q0 142 -180 154v72l493 26l16 -16v-651l9 -2q142 141 305 141q203 0 324.5 -144.5t121.5 -388.5q0 -220 -146 -367t-351 -147q-163 0 -254 68zM489 786v-567q56 -156 185 -156
q101 0 159 110t58 310q0 183 -59.5 283t-169.5 100t-173 -80z" />
    <glyph glyph-name="glyph237" 
 />
    <glyph glyph-name="multiply" unicode="&#xd7;" horiz-adv-x="1440" 
d="M1102 78l-383 383l-383 -383l-115 115l385 382l-385 381l115 117l383 -385l383 385l115 -117l-386 -381l386 -382z" />
    <glyph glyph-name="uni00B9" unicode="&#xb9;" horiz-adv-x="1130" 
d="M279 489v72q126 13 158 28t32 64v584h-195v84h41q187 0 283 129h133q-6 -151 -6 -227v-561q0 -43 29 -65t151 -36v-72h-626z" />
    <glyph glyph-name="uni00B2" unicode="&#xb2;" horiz-adv-x="1130" 
d="M147 489v154q47 48 149 116q206 138 275.5 221t69.5 206q0 89 -45 140.5t-121 51.5q-55 0 -88 -14q9 -29 21 -64q12 -36 12 -81q0 -53 -38.5 -84t-98.5 -31q-55 0 -90 37.5t-35 95.5q0 86 106.5 152.5t263.5 66.5q187 0 293.5 -73.5t106.5 -202.5q0 -135 -94 -228
t-366 -184q-82 -28 -132 -51v-12h637v-216h-826z" />
    <glyph glyph-name="uni00B3" unicode="&#xb3;" horiz-adv-x="1130" 
d="M373 549q50 -19 100 -19q223 0 223 220q0 182 -178 182h-88v92h62q172 0 172 203q0 72 -41.5 111.5t-104.5 39.5q-61 0 -96 -14q33 -86 33 -145q0 -111 -131 -111q-56 0 -90.5 36.5t-34.5 92.5q0 87 105.5 153t266.5 66q176 0 268.5 -65t92.5 -160q0 -183 -244 -232v-12
q135 -7 213 -69.5t78 -169.5q0 -128 -131 -211.5t-322 -83.5q-164 0 -272.5 66t-108.5 155q0 57 35.5 94t89.5 37q60 0 98 -31t38 -84q0 -56 -33 -141z" />
    <glyph glyph-name="onehalf" unicode="&#xbd;" horiz-adv-x="2193" 
d="M151 489v72q126 13 158 28t32 64v584h-195v84h41q187 0 283 129h133q-6 -151 -6 -227v-561q0 -43 29 -65t151 -36v-72h-626zM1261 1v154q47 48 149 116q206 138 275.5 221t69.5 206q0 89 -45 140.5t-121 51.5q-55 0 -88 -14q9 -29 21 -64q12 -36 12 -81q0 -53 -38.5 -84
t-98.5 -31q-55 0 -90 37.5t-35 95.5q0 86 106.5 152.5t263.5 66.5q187 0 293.5 -73.5t106.5 -202.5q0 -135 -94 -228t-366 -184q-82 -28 -132 -51v-12h637v-216h-826zM1540 1430l-817 -1430h-156l815 1430h158z" />
    <glyph glyph-name="onequarter" unicode="&#xbc;" horiz-adv-x="2193" 
d="M151 489v72q126 13 158 28t32 64v584h-195v84h41q187 0 283 129h133q-6 -151 -6 -227v-561q0 -43 29 -65t151 -36v-72h-626zM2068 219h-155v-238h-234v238h-475v147l502 600h207v-592h155v-155zM1679 374v422l-352 -422h352zM1579 1430l-817 -1430h-156l815 1430h158z
" />
    <glyph glyph-name="threequarters" unicode="&#xbe;" horiz-adv-x="2193" 
d="M343 549q50 -19 100 -19q223 0 223 220q0 182 -178 182h-88v92h62q172 0 172 203q0 72 -41.5 111.5t-104.5 39.5q-61 0 -96 -14q33 -86 33 -145q0 -111 -131 -111q-56 0 -90.5 36.5t-34.5 92.5q0 87 105.5 153t266.5 66q176 0 268.5 -65t92.5 -160q0 -183 -244 -232v-12
q135 -7 213 -69.5t78 -169.5q0 -128 -131 -211.5t-322 -83.5q-164 0 -272.5 66t-108.5 155q0 57 35.5 94t89.5 37q60 0 98 -31t38 -84q0 -56 -33 -141zM2113 219h-155v-238h-234v238h-475v147l502 600h207v-592h155v-155zM1724 374v422l-352 -422h352zM1678 1430l-817 -1430
h-156l815 1430h158z" />
    <glyph glyph-name="glyph245" 
 />
    <glyph glyph-name="glyph246" 
 />
    <glyph glyph-name="glyph247" 
 />
    <glyph glyph-name="glyph248" 
 />
    <glyph glyph-name="glyph249" 
 />
    <glyph glyph-name="glyph250" 
 />
    <glyph glyph-name="glyph251" 
 />
    <glyph glyph-name="glyph252" 
 />
    <glyph glyph-name="glyph253" 
 />
    <glyph glyph-name="glyph254" 
 />
    <glyph glyph-name="glyph255" 
 />
    <glyph glyph-name="macron" unicode="&#xaf;" horiz-adv-x="1440" 
d="M1446 1604h-1450v120h1450v-120z" />
    <glyph glyph-name="periodcentered" unicode="&#xb7;" horiz-adv-x="692" 
d="M348 352q-82 0 -140.5 57.5t-58.5 137.5q0 79 58 137.5t141 58.5q80 0 138.5 -59t58.5 -137q0 -79 -59 -137t-138 -58z" />
    <glyph glyph-name="glyph258" 
 />
    <glyph glyph-name="glyph259" 
 />
    <glyph glyph-name="glyph260" 
 />
    <glyph glyph-name="glyph261" 
 />
    <glyph glyph-name="glyph262" 
 />
    <glyph glyph-name="glyph263" 
 />
    <glyph glyph-name="glyph264" 
 />
    <glyph glyph-name="glyph265" 
 />
    <glyph glyph-name="glyph266" 
 />
    <glyph glyph-name="glyph267" 
 />
    <glyph glyph-name="glyph268" 
 />
    <glyph glyph-name="glyph269" 
 />
    <glyph glyph-name="glyph270" 
 />
    <glyph glyph-name="glyph271" 
 />
    <glyph glyph-name="glyph272" 
 />
    <glyph glyph-name="glyph273" 
 />
    <glyph glyph-name="glyph274" 
 />
    <glyph glyph-name="glyph275" 
 />
    <glyph glyph-name="glyph276" 
 />
    <glyph glyph-name="glyph277" 
 />
    <glyph glyph-name="glyph278" 
 />
    <glyph glyph-name="glyph279" 
 />
    <glyph glyph-name="glyph280" 
 />
    <glyph glyph-name="glyph281" 
 />
    <glyph glyph-name="glyph282" 
 />
    <glyph glyph-name="glyph283" 
 />
    <glyph glyph-name="glyph284" 
 />
    <glyph glyph-name="glyph285" 
 />
    <glyph glyph-name="glyph286" 
 />
    <glyph glyph-name="glyph287" 
 />
    <glyph glyph-name="glyph288" 
 />
    <glyph glyph-name="glyph289" 
 />
    <glyph glyph-name="glyph290" 
 />
    <glyph glyph-name="glyph291" 
 />
    <glyph glyph-name="glyph292" 
 />
    <glyph glyph-name="glyph293" 
 />
    <glyph glyph-name="glyph294" 
 />
    <glyph glyph-name="glyph295" 
 />
    <glyph glyph-name="glyph296" 
 />
    <glyph glyph-name="glyph297" 
 />
    <glyph glyph-name="glyph298" 
 />
    <glyph glyph-name="glyph299" 
 />
    <glyph glyph-name="glyph300" 
 />
    <glyph glyph-name="glyph301" 
 />
    <glyph glyph-name="glyph302" 
 />
    <glyph glyph-name="glyph303" 
 />
    <glyph glyph-name="glyph304" 
 />
    <glyph glyph-name="glyph305" 
 />
    <glyph glyph-name="glyph306" 
 />
    <glyph glyph-name="glyph307" 
 />
    <glyph glyph-name="glyph308" 
 />
    <glyph glyph-name="glyph309" 
 />
    <glyph glyph-name="glyph310" 
 />
    <glyph glyph-name="glyph311" 
 />
    <glyph glyph-name="glyph312" 
 />
    <glyph glyph-name="glyph313" 
 />
    <glyph glyph-name="glyph314" 
 />
    <glyph glyph-name="glyph315" 
 />
    <glyph glyph-name="glyph316" 
 />
    <glyph glyph-name="glyph317" 
 />
    <glyph glyph-name="glyph318" 
 />
    <glyph glyph-name="glyph319" 
 />
    <glyph glyph-name="glyph320" 
 />
    <glyph glyph-name="glyph321" 
 />
    <glyph glyph-name="glyph322" 
 />
    <glyph glyph-name="glyph323" 
 />
    <glyph glyph-name="glyph324" 
 />
    <glyph glyph-name="glyph325" 
 />
    <glyph glyph-name="glyph326" 
 />
    <glyph glyph-name="glyph327" 
 />
    <glyph glyph-name="glyph328" 
 />
    <glyph glyph-name="glyph329" 
 />
    <glyph glyph-name="glyph330" 
 />
    <glyph glyph-name="glyph331" 
 />
    <glyph glyph-name="glyph332" 
 />
    <glyph glyph-name="glyph333" 
 />
    <glyph glyph-name="glyph334" 
 />
    <glyph glyph-name="glyph335" 
 />
    <glyph glyph-name="glyph336" 
 />
    <glyph glyph-name="glyph337" 
 />
    <glyph glyph-name="glyph338" 
 />
    <glyph glyph-name="glyph339" 
 />
    <glyph glyph-name="glyph340" 
 />
    <glyph glyph-name="glyph341" 
 />
    <glyph glyph-name="glyph342" 
 />
    <glyph glyph-name="glyph343" 
 />
    <glyph glyph-name="glyph344" 
 />
    <glyph glyph-name="glyph345" 
 />
    <glyph glyph-name="glyph346" 
 />
    <glyph glyph-name="glyph347" 
 />
    <glyph glyph-name="glyph348" 
 />
    <glyph glyph-name="glyph349" 
 />
    <glyph glyph-name="glyph350" 
 />
    <glyph glyph-name="glyph351" 
 />
    <glyph glyph-name="glyph352" 
 />
    <glyph glyph-name="glyph353" 
 />
    <glyph glyph-name="glyph354" 
 />
    <glyph glyph-name="glyph355" 
 />
    <glyph glyph-name="glyph356" 
 />
    <glyph glyph-name="glyph357" 
 />
    <glyph glyph-name="glyph358" 
 />
    <glyph glyph-name="glyph359" 
 />
    <glyph glyph-name="glyph360" 
 />
    <glyph glyph-name="glyph361" 
 />
    <glyph glyph-name="glyph362" 
 />
    <glyph glyph-name="glyph363" 
 />
    <glyph glyph-name="glyph364" 
 />
    <glyph glyph-name="glyph365" 
 />
    <glyph glyph-name="glyph366" 
 />
    <glyph glyph-name="glyph367" 
 />
    <glyph glyph-name="glyph368" 
 />
    <glyph glyph-name="glyph369" 
 />
    <glyph glyph-name="glyph370" 
 />
    <glyph glyph-name="glyph371" 
 />
    <glyph glyph-name="glyph372" 
 />
    <glyph glyph-name="glyph373" 
 />
    <glyph glyph-name="glyph374" 
 />
    <glyph glyph-name="glyph375" 
 />
    <glyph glyph-name="glyph376" 
 />
    <glyph glyph-name="glyph377" 
 />
    <glyph glyph-name="glyph378" 
 />
    <glyph glyph-name="glyph379" 
 />
    <glyph glyph-name="glyph380" 
 />
    <glyph glyph-name="glyph381" 
 />
    <glyph glyph-name="glyph382" 
 />
    <glyph glyph-name="glyph383" 
 />
    <glyph glyph-name="glyph384" 
 />
    <glyph glyph-name="glyph385" 
 />
    <glyph glyph-name="glyph386" 
 />
    <glyph glyph-name="glyph387" 
 />
    <glyph glyph-name="glyph388" 
 />
    <glyph glyph-name="glyph389" 
 />
    <glyph glyph-name="glyph390" 
 />
    <glyph glyph-name="glyph391" 
 />
    <glyph glyph-name="glyph392" 
 />
    <glyph glyph-name="glyph393" 
 />
    <glyph glyph-name="glyph394" 
 />
    <glyph glyph-name="glyph395" 
 />
    <glyph glyph-name="glyph396" 
 />
    <glyph glyph-name="glyph397" 
 />
    <glyph glyph-name="glyph398" 
 />
    <glyph glyph-name="glyph399" 
 />
    <glyph glyph-name="glyph400" 
 />
    <glyph glyph-name="glyph401" 
 />
    <glyph glyph-name="glyph402" 
 />
    <glyph glyph-name="glyph403" 
 />
    <glyph glyph-name="glyph404" 
 />
    <glyph glyph-name="glyph405" 
 />
    <glyph glyph-name="glyph406" 
 />
    <glyph glyph-name="glyph407" 
 />
    <glyph glyph-name="glyph408" 
 />
    <glyph glyph-name="glyph409" 
 />
    <glyph glyph-name="glyph410" 
 />
    <glyph glyph-name="glyph411" 
 />
    <glyph glyph-name="glyph412" 
 />
    <glyph glyph-name="glyph413" 
 />
    <glyph glyph-name="glyph414" 
 />
    <glyph glyph-name="glyph415" 
 />
    <glyph glyph-name="glyph416" 
 />
    <glyph glyph-name="glyph417" 
 />
    <glyph glyph-name="glyph418" 
 />
    <glyph glyph-name="glyph419" 
 />
    <glyph glyph-name="glyph420" 
 />
    <glyph glyph-name="glyph421" 
 />
    <glyph glyph-name="glyph422" 
 />
    <glyph glyph-name="glyph423" 
 />
    <glyph glyph-name="glyph424" 
 />
    <glyph glyph-name="glyph425" 
 />
    <glyph glyph-name="glyph426" 
 />
    <glyph glyph-name="glyph427" 
 />
    <glyph glyph-name="glyph428" 
 />
    <glyph glyph-name="glyph429" 
 />
    <glyph glyph-name="glyph430" 
 />
    <glyph glyph-name="glyph431" 
 />
    <glyph glyph-name="glyph432" 
 />
    <glyph glyph-name="glyph433" 
 />
    <glyph glyph-name="glyph434" 
 />
    <glyph glyph-name="glyph435" 
 />
    <glyph glyph-name="glyph436" 
 />
    <glyph glyph-name="glyph437" 
 />
    <glyph glyph-name="glyph438" 
 />
    <glyph glyph-name="glyph439" 
 />
    <glyph glyph-name="glyph440" 
 />
    <glyph glyph-name="glyph441" 
 />
    <glyph glyph-name="glyph442" 
 />
    <glyph glyph-name="glyph443" 
 />
    <glyph glyph-name="glyph444" 
 />
    <glyph glyph-name="glyph445" 
 />
    <glyph glyph-name="glyph446" 
 />
    <glyph glyph-name="glyph447" 
 />
    <glyph glyph-name="glyph448" 
 />
    <glyph glyph-name="glyph449" 
 />
    <glyph glyph-name="glyph450" 
 />
    <glyph glyph-name="glyph451" 
 />
    <glyph glyph-name="glyph452" 
 />
    <glyph glyph-name="glyph453" 
 />
    <glyph glyph-name="glyph454" 
 />
    <glyph glyph-name="glyph455" 
 />
    <glyph glyph-name="glyph456" 
 />
    <glyph glyph-name="glyph457" 
 />
    <glyph glyph-name="glyph458" 
 />
    <glyph glyph-name="glyph459" 
 />
    <glyph glyph-name="glyph460" 
 />
    <glyph glyph-name="glyph461" 
 />
    <glyph glyph-name="glyph462" 
 />
    <glyph glyph-name="glyph463" 
 />
    <glyph glyph-name="glyph464" 
 />
    <glyph glyph-name="glyph465" 
 />
    <glyph glyph-name="glyph466" 
 />
    <glyph glyph-name="glyph467" 
 />
    <glyph glyph-name="glyph468" 
 />
    <glyph glyph-name="glyph469" 
 />
    <glyph glyph-name="glyph470" 
 />
    <glyph glyph-name="glyph471" 
 />
    <glyph glyph-name="glyph472" 
 />
    <glyph glyph-name="glyph473" 
 />
    <glyph glyph-name="glyph474" 
 />
    <glyph glyph-name="glyph475" 
 />
    <glyph glyph-name="glyph476" 
 />
    <glyph glyph-name="glyph477" 
 />
    <glyph glyph-name="glyph478" 
 />
    <glyph glyph-name="glyph479" 
 />
    <glyph glyph-name="glyph480" 
 />
    <glyph glyph-name="glyph481" 
 />
    <glyph glyph-name="glyph482" 
 />
    <glyph glyph-name="glyph483" 
 />
    <glyph glyph-name="glyph484" 
 />
    <glyph glyph-name="glyph485" 
 />
    <glyph glyph-name="glyph486" 
 />
    <glyph glyph-name="glyph487" 
 />
    <glyph glyph-name="glyph488" 
 />
    <glyph glyph-name="glyph489" 
 />
    <glyph glyph-name="glyph490" 
 />
    <glyph glyph-name="glyph491" 
 />
    <glyph glyph-name="glyph492" 
 />
    <glyph glyph-name="glyph493" 
 />
    <glyph glyph-name="glyph494" 
 />
    <glyph glyph-name="glyph495" 
 />
    <glyph glyph-name="glyph496" 
 />
    <glyph glyph-name="glyph497" 
 />
    <glyph glyph-name="glyph498" 
 />
    <glyph glyph-name="glyph499" 
 />
    <glyph glyph-name="glyph500" 
 />
    <glyph glyph-name="glyph501" 
 />
    <glyph glyph-name="glyph502" 
 />
    <glyph glyph-name="glyph503" 
 />
    <glyph glyph-name="glyph504" 
 />
    <glyph glyph-name="glyph505" 
 />
    <glyph glyph-name="glyph506" 
 />
    <glyph glyph-name="glyph507" 
 />
    <glyph glyph-name="glyph508" 
 />
    <glyph glyph-name="glyph509" 
 />
    <glyph glyph-name="glyph510" 
 />
    <glyph glyph-name="glyph511" 
 />
    <glyph glyph-name="glyph512" 
 />
    <glyph glyph-name="glyph513" 
 />
    <glyph glyph-name="glyph514" 
 />
    <glyph glyph-name="glyph515" 
 />
    <glyph glyph-name="glyph516" 
 />
    <glyph glyph-name="glyph517" 
 />
    <glyph glyph-name="glyph518" 
 />
    <glyph glyph-name="glyph519" 
 />
    <glyph glyph-name="glyph520" 
 />
    <glyph glyph-name="glyph521" 
 />
    <glyph glyph-name="glyph522" 
 />
    <glyph glyph-name="glyph523" 
 />
    <glyph glyph-name="glyph524" 
 />
    <glyph glyph-name="glyph525" 
 />
    <glyph glyph-name="glyph526" 
 />
    <glyph glyph-name="glyph527" 
 />
    <glyph glyph-name="glyph528" 
 />
    <glyph glyph-name="glyph529" 
 />
    <glyph glyph-name="glyph530" 
 />
    <glyph glyph-name="glyph531" 
 />
    <glyph glyph-name="glyph532" 
 />
    <glyph glyph-name="glyph533" 
 />
    <glyph glyph-name="glyph534" 
 />
    <glyph glyph-name="glyph535" 
 />
    <glyph glyph-name="glyph536" 
 />
    <glyph glyph-name="glyph537" 
 />
    <glyph glyph-name="glyph538" 
 />
    <glyph glyph-name="glyph539" 
 />
    <glyph glyph-name="glyph540" 
 />
    <glyph glyph-name="glyph541" 
 />
    <glyph glyph-name="glyph542" 
 />
    <glyph glyph-name="glyph543" 
 />
    <glyph glyph-name="glyph544" 
 />
    <glyph glyph-name="glyph545" 
 />
    <glyph glyph-name="glyph546" 
 />
    <glyph glyph-name="glyph547" 
 />
    <glyph glyph-name="glyph548" 
 />
    <glyph glyph-name="glyph549" 
 />
    <glyph glyph-name="glyph550" 
 />
    <glyph glyph-name="glyph551" 
 />
    <glyph glyph-name="glyph552" 
 />
    <glyph glyph-name="glyph553" 
 />
    <glyph glyph-name="glyph554" 
 />
    <glyph glyph-name="glyph555" 
 />
    <glyph glyph-name="glyph556" 
 />
    <glyph glyph-name="glyph557" 
 />
    <glyph glyph-name="glyph558" 
 />
    <glyph glyph-name="glyph559" 
 />
    <glyph glyph-name="glyph560" 
 />
    <glyph glyph-name="glyph561" 
 />
    <glyph glyph-name="glyph562" 
 />
    <glyph glyph-name="glyph563" 
 />
    <glyph glyph-name="glyph564" 
 />
    <glyph glyph-name="glyph565" 
 />
    <glyph glyph-name="glyph566" 
 />
    <glyph glyph-name="glyph567" 
 />
    <glyph glyph-name="glyph568" 
 />
    <glyph glyph-name="afii61352" unicode="&#x2116;" horiz-adv-x="2619" 
d="M1597 1341q-12 -2 -33 -4q-129 -15 -168.5 -77t-39.5 -254v-1014h-174l-787 1098v-666q0 -196 45.5 -257.5t204.5 -88.5v-78h-610v78q156 18 198.5 74.5t42.5 259.5v671q0 211 -247 256v80h530l678 -960v536q0 195 -46.5 257.5t-203.5 88.5v78h610v-78zM2021 459
q-206 0 -335.5 116.5t-129.5 309.5t128.5 309.5t345.5 116.5q219 0 346 -115.5t127 -304.5q0 -194 -129 -313t-353 -119zM2030 1233q-83 0 -123.5 -76.5t-40.5 -261.5q0 -197 39.5 -277.5t124.5 -80.5q84 0 123.5 82.5t39.5 273.5q0 186 -40.5 263t-122.5 77zM1622 143v113
h815v-113h-815z" />
    <glyph glyph-name="glyph570" 
 />
    <glyph glyph-name="uni2074" unicode="&#x2074;" horiz-adv-x="1130" 
d="M989 707h-155v-238h-234v238h-475v147l502 600h207v-592h155v-155zM600 862v422l-352 -422h352z" />
    <glyph glyph-name="uni2075" unicode="&#x2075;" horiz-adv-x="1130" 
d="M295 1419h623v-194h-556l-30 -211q111 69 246 69q165 0 272.5 -76t107.5 -219q0 -145 -127 -240t-321 -95q-158 0 -257 55.5t-99 140.5q0 48 34.5 85.5t87.5 37.5q60 0 98 -27.5t38 -76.5q0 -38 -33 -125q40 -13 86 -13q103 0 162 65t59 189q0 94 -53.5 151.5
t-143.5 57.5q-86 0 -186 -98l-84 29z" />
    <glyph glyph-name="uni2077" unicode="&#x2077;" horiz-adv-x="1130" 
d="M1006 1419v-108l-529 -856h-145l510 770h-381q-131 0 -165 -30t-54 -136h-66v360h830z" />
    <glyph glyph-name="uni2078" unicode="&#x2078;" horiz-adv-x="1130" 
d="M381 934q-215 87 -215 254q0 117 119 192.5t295 75.5q171 0 278 -67t107 -166q0 -152 -228 -209q267 -86 267 -271q0 -124 -121 -207t-334 -83q-191 0 -306.5 72t-115.5 184q0 168 254 225zM676 1040q33 70 33 181q0 165 -142 165q-66 0 -104.5 -37.5t-38.5 -99.5
q0 -63 35.5 -95.5t165.5 -89.5zM440 905q-59 -70 -59 -180q0 -97 51 -150t135 -53q87 0 135 43.5t48 112.5q0 54 -42 97t-268 130z" />
    <glyph glyph-name="uni0308" unicode="&#x308;" horiz-adv-x="1024" 
d="M780 1532q-65 0 -112 50t-47 118q0 67 47 117.5t112 50.5q64 0 111 -50.5t47 -117.5q0 -68 -47 -118t-111 -50zM244 1532q-66 0 -113 50t-47 118q0 67 46 117.5t114 50.5q63 0 111 -50.5t48 -117.5q0 -68 -48 -118t-111 -50z" />
    <glyph glyph-name="acutecomb" unicode="&#x301;" horiz-adv-x="1024" 
d="M254 1485l-35 41q128 118 266 266q69 76 148 76q63 0 106 -28t43 -73q0 -52 -41 -82t-228 -98q-112 -41 -259 -102z" />
    <glyph glyph-name="gravecomb" unicode="&#x300;" horiz-adv-x="1024" 
d="M770 1485q-162 69 -269 107q-181 64 -220 94t-39 81q0 43 42 72t107 29q58 0 89 -23.5t162 -159.5q56 -59 163 -159z" />
    <glyph glyph-name="uni0302" unicode="&#x302;" horiz-adv-x="1024" 
d="M858 1485l-350 203l-344 -203l-35 28l157 189q52 61 85 104q44 62 141 62q66 0 99.5 -26.5t279.5 -328.5z" />
    <glyph glyph-name="uni030C" unicode="&#x30c;" horiz-adv-x="1024" 
d="M881 1839l-150 -184q-96 -124 -125 -143t-94 -19q-91 0 -139 61q-28 37 -230 285l33 29l334 -193l338 193z" />
    <glyph glyph-name="glyph580" 
 />
    <glyph glyph-name="glyph581" 
 />
    <glyph glyph-name="glyph582" 
 />
    <glyph glyph-name="glyph583" 
 />
    <glyph glyph-name="currency" unicode="&#xa4;" horiz-adv-x="1440" 
d="M1139 45l-236 231q-99 -53 -184 -53q-88 0 -182 53l-238 -233l-106 115l231 233q-53 82 -53 180q0 95 53 183l-231 237l110 109l234 -234q88 54 182 54q92 0 180 -52l234 232l112 -109l-231 -237q53 -96 53 -183q0 -90 -53 -180l231 -235zM719 778q-84 0 -144.5 -59
t-60.5 -148q0 -84 60 -145t145 -61q83 0 143 60t60 146q0 85 -59 146t-144 61z" />
    <glyph glyph-name="glyph585" 
 />
    <glyph glyph-name="glyph586" 
 />
    <glyph glyph-name="glyph587" 
 />
    <glyph glyph-name="glyph588" 
 />
    <glyph glyph-name="glyph589" 
 />
    <glyph glyph-name="glyph590" 
 />
    <glyph glyph-name="glyph591" 
 />
    <glyph glyph-name="glyph592" 
 />
    <glyph glyph-name="glyph593" 
 />
    <glyph glyph-name="glyph594" 
 />
    <glyph glyph-name="iacute.locl" horiz-adv-x="725" 
d="M57 0v74q97 4 125.5 31.5t28.5 76.5v582q0 117 -178 141v74l489 25l17 -15v-794q0 -52 30.5 -80t120.5 -41v-74h-633zM87 1485l-35 41q128 118 266 266q69 76 148 76q63 0 106 -28t43 -73q0 -52 -41 -82t-228 -98q-112 -41 -259 -102zM351 1132q-71 0 -120.5 48
t-49.5 120q0 70 50 119t120 49q69 0 118.5 -49t49.5 -119q0 -71 -49 -119.5t-119 -48.5z" />
    <glyph glyph-name="glyph596" 
 />
    <glyph glyph-name="glyph597" 
 />
    <glyph glyph-name="uni2070" unicode="&#x2070;" horiz-adv-x="1130" 
d="M565 453q-218 0 -336 132t-118 369q0 229 119 365.5t335 136.5t335.5 -135.5t119.5 -366.5q0 -237 -120.5 -369t-334.5 -132zM565 1378q-172 0 -172 -426q0 -422 172 -422t172 422q0 426 -172 426z" />
    <glyph glyph-name="uni2076" unicode="&#x2076;" horiz-adv-x="1130" 
d="M838 1456l10 -78l-76 -12q-104 -16 -213.5 -96t-144.5 -271q119 99 276 99q135 0 227.5 -88.5t92.5 -221.5q0 -150 -118 -242.5t-323 -92.5q-212 0 -329 106.5t-117 292.5q0 243 186 405t529 199zM408 905l-2 -33q-8 -131 32 -236.5t131 -105.5q152 0 152 236
q0 213 -158 213q-83 0 -155 -74z" />
    <glyph glyph-name="uni2079" unicode="&#x2079;" horiz-adv-x="1130" 
d="M291 453l-17 77l76 13q304 52 365 366q-119 -98 -287 -98q-138 0 -223.5 81t-85.5 216q0 154 120 251t324 97q209 0 326 -108.5t117 -296.5q0 -247 -185 -404.5t-530 -193.5zM721 1004l2 33q8 135 -33 238t-131 103q-151 0 -151 -235q0 -213 157 -213q86 0 156 74z" />
    <glyph glyph-name="uni2080" unicode="&#x2080;" horiz-adv-x="1130" 
d="M565 -33q-218 0 -336 132t-118 369q0 229 119 365.5t335 136.5t335.5 -135.5t119.5 -366.5q0 -237 -120.5 -369t-334.5 -132zM565 892q-172 0 -172 -426q0 -422 172 -422t172 422q0 426 -172 426z" />
    <glyph glyph-name="uni2081" unicode="&#x2081;" horiz-adv-x="1130" 
d="M279 3v72q126 13 158 28t32 64v584h-195v84h41q187 0 283 129h133q-6 -151 -6 -227v-561q0 -43 29 -65t151 -36v-72h-626z" />
    <glyph glyph-name="uni2082" unicode="&#x2082;" horiz-adv-x="1130" 
d="M147 3v154q47 48 149 116q206 138 275.5 221t69.5 206q0 89 -45 140.5t-121 51.5q-55 0 -88 -14q9 -29 21 -64q12 -36 12 -81q0 -53 -38.5 -84t-98.5 -31q-55 0 -90 37.5t-35 95.5q0 86 106.5 152.5t263.5 66.5q187 0 293.5 -73.5t106.5 -202.5q0 -135 -94 -228
t-366 -184q-82 -28 -132 -51v-12h637v-216h-826z" />
    <glyph glyph-name="uni2083" unicode="&#x2083;" horiz-adv-x="1130" 
d="M373 63q50 -19 100 -19q223 0 223 220q0 182 -178 182h-88v92h62q172 0 172 203q0 72 -41.5 111.5t-104.5 39.5q-61 0 -96 -14q33 -86 33 -145q0 -111 -131 -111q-56 0 -90.5 36.5t-34.5 92.5q0 87 105.5 153t266.5 66q176 0 268.5 -65t92.5 -160q0 -183 -244 -232v-12
q135 -7 213 -69.5t78 -169.5q0 -128 -131 -211.5t-322 -83.5q-164 0 -272.5 66t-108.5 155q0 57 35.5 94t89.5 37q60 0 98 -31t38 -84q0 -56 -33 -141z" />
    <glyph glyph-name="uni2084" unicode="&#x2084;" horiz-adv-x="1130" 
d="M989 221h-155v-238h-234v238h-475v147l502 600h207v-592h155v-155zM600 376v422l-352 -422h352z" />
    <glyph glyph-name="uni2085" unicode="&#x2085;" horiz-adv-x="1130" 
d="M295 933h623v-194h-556l-30 -211q111 69 246 69q165 0 272.5 -76t107.5 -219q0 -145 -127 -240t-321 -95q-158 0 -257 55.5t-99 140.5q0 48 34.5 85.5t87.5 37.5q60 0 98 -27.5t38 -76.5q0 -38 -33 -125q40 -13 86 -13q103 0 162 65t59 189q0 94 -53.5 151.5t-143.5 57.5
q-86 0 -186 -98l-84 29z" />
    <glyph glyph-name="uni2086" unicode="&#x2086;" horiz-adv-x="1130" 
d="M838 970l10 -78l-76 -12q-104 -16 -213.5 -96t-144.5 -271q119 99 276 99q135 0 227.5 -88.5t92.5 -221.5q0 -150 -118 -242.5t-323 -92.5q-212 0 -329 106.5t-117 292.5q0 243 186 405t529 199zM408 419l-2 -33q-8 -131 32 -236.5t131 -105.5q152 0 152 236
q0 213 -158 213q-83 0 -155 -74z" />
    <glyph glyph-name="uni2087" unicode="&#x2087;" horiz-adv-x="1130" 
d="M1006 933v-108l-529 -856h-145l510 770h-381q-131 0 -165 -30t-54 -136h-66v360h830z" />
    <glyph glyph-name="uni2088" unicode="&#x2088;" horiz-adv-x="1130" 
d="M381 448q-215 87 -215 254q0 117 119 192.5t295 75.5q171 0 278 -67t107 -166q0 -152 -228 -209q267 -86 267 -271q0 -124 -121 -207t-334 -83q-191 0 -306.5 72t-115.5 184q0 168 254 225zM676 554q33 70 33 181q0 165 -142 165q-66 0 -104.5 -37.5t-38.5 -99.5
q0 -63 35.5 -95.5t165.5 -89.5zM440 419q-59 -70 -59 -180q0 -97 51 -150t135 -53q87 0 135 43.5t48 112.5q0 54 -42 97t-268 130z" />
    <glyph glyph-name="uni2089" unicode="&#x2089;" horiz-adv-x="1130" 
d="M291 -33l-17 77l76 13q304 52 365 366q-119 -98 -287 -98q-138 0 -223.5 81t-85.5 216q0 154 120 251t324 97q209 0 326 -108.5t117 -296.5q0 -247 -185 -404.5t-530 -193.5zM721 518l2 33q8 135 -33 238t-131 103q-151 0 -151 -235q0 -213 157 -213q86 0 156 74z" />
    <glyph glyph-name="zero.oldstyle.lnum" horiz-adv-x="1333" 
d="M666 -35q-292 0 -443 193.5t-151 552.5q0 346 154 542.5t442 196.5q289 0 441.5 -195t152.5 -544q0 -357 -155.5 -551.5t-440.5 -194.5zM668 1360q-219 0 -219 -649q0 -656 217 -656q219 0 219 656q0 649 -217 649z" />
    <glyph glyph-name="one.oldstyle.lnum" horiz-adv-x="1006" 
d="M102 76q173 10 211.5 39.5t38.5 87.5v975h-241v96h43q243 0 370 176h176q-10 -183 -10 -309v-928q0 -67 53 -98.5t177 -38.5v-76h-818v76z" />
    <glyph glyph-name="two.oldstyle.lnum" horiz-adv-x="1249" 
d="M53 0v201q51 101 281 266q397 285 397 557q0 334 -220 334q-66 0 -116 -23q43 -118 43 -198q0 -69 -49 -112.5t-132 -43.5q-77 0 -120 43t-43 115q0 127 136 219t351 92q246 0 386 -118.5t140 -323.5q0 -157 -105 -279t-454 -262q-215 -87 -282 -162v-10h889v-295h-1102z
" />
    <glyph glyph-name="three.oldstyle.lnum" horiz-adv-x="1233" 
d="M335 84q46 -20 140 -20q137 0 218 91t81 255q0 278 -248 278h-127v121h90q126 0 181.5 74.5t55.5 228.5q0 246 -210 246q-76 0 -127 -23q43 -129 43 -198q0 -72 -49 -113t-130 -41q-73 0 -118 48t-45 120q0 121 141.5 210t361.5 89q246 0 375 -97.5t129 -234.5
q0 -128 -93 -217.5t-261 -124.5v-16q199 -16 306.5 -108.5t107.5 -245.5q0 -191 -182 -313t-457 -122q-210 0 -348 88.5t-138 210.5q0 74 48 121t120 47q82 0 131 -42.5t49 -112.5t-45 -199z" />
    <glyph glyph-name="four.oldstyle.lnum" horiz-adv-x="1333" 
d="M1061 358v-358h-336v358h-662v205l719 875h279v-848h215v-232h-215zM725 1198l-498 -608h498v608z" />
    <glyph glyph-name="five.oldstyle.lnum" horiz-adv-x="1276" 
d="M377 82q48 -19 115 -19q129 0 213 109.5t84 296.5q0 142 -75.5 232t-194.5 90q-154 0 -269 -136l-77 27l96 735h846v-297h-781l-34 -309q159 96 340 96q222 0 371 -112.5t149 -323.5q0 -220 -170.5 -360t-435.5 -140q-204 0 -342 86.5t-138 210.5q0 72 48.5 120t119.5 48
q81 0 131 -42.5t50 -112.5q0 -64 -46 -199z" />
    <glyph glyph-name="six.oldstyle.lnum" horiz-adv-x="1315" 
d="M1022 1458l22 -98l-106 -19q-126 -23 -269 -144.5t-192 -414.5q144 131 357 131q175 0 292 -127t117 -323q0 -211 -160 -354.5t-407 -143.5q-262 0 -418 162.5t-156 435.5q0 365 244 604.5t676 290.5zM469 672q0 -103 3 -218t32.5 -216t75.5 -143t96 -42q88 0 142 102
t54 281q0 155 -54.5 249.5t-147.5 94.5q-130 0 -201 -108z" />
    <glyph glyph-name="seven.oldstyle.lnum" horiz-adv-x="1249" 
d="M482 -20h-149l690 1140h-594q-153 0 -202.5 -33.5t-75.5 -191.5h-74v522h1157v-119z" />
    <glyph glyph-name="eight.oldstyle.lnum" horiz-adv-x="1343" 
d="M432 682q-291 131 -291 385q0 166 158 279.5t397 113.5q225 0 367.5 -98.5t142.5 -249.5q0 -226 -307 -315q362 -132 362 -400q0 -189 -168.5 -311.5t-441.5 -122.5q-254 0 -410 106.5t-156 274.5q0 260 347 338zM827 834q45 97 45 280q0 118 -51.5 188t-143.5 70
q-88 0 -144 -61.5t-56 -155.5q0 -91 50.5 -146t156.5 -104q64 -31 143 -71zM503 645q-84 -109 -84 -280q0 -144 71 -229t187 -85q114 0 181 67t67 179q0 95 -59.5 152.5t-189.5 114.5q-78 34 -173 81z" />
    <glyph glyph-name="nine.oldstyle.lnum" horiz-adv-x="1315" 
d="M294 -29l-22 99l106 18q121 21 267 140t194 411q-138 -127 -356 -127q-174 0 -292 129t-118 326q0 207 160 348t407 141q263 0 418.5 -163.5t155.5 -438.5q0 -359 -240 -591.5t-680 -291.5zM845 749q4 26 4 123q0 235 -56 365.5t-151 130.5q-90 0 -144 -101t-54 -276
q0 -158 55 -254t149 -96q128 0 197 108z" />
    <glyph glyph-name="zero" unicode="0" horiz-adv-x="1333" 
d="M666 -35q-292 0 -443 193.5t-151 552.5q0 346 154 542.5t442 196.5q289 0 441.5 -195t152.5 -544q0 -357 -155.5 -551.5t-440.5 -194.5zM668 1360q-219 0 -219 -649q0 -656 217 -656q219 0 219 656q0 649 -217 649z" />
    <glyph glyph-name="one" unicode="1" horiz-adv-x="1333" 
d="M242 76q200 10 245 35.5t45 91.5v975h-282v96h84q242 0 371 176h176q-11 -211 -11 -309v-928q0 -62 44.5 -94t226.5 -43v-76h-899v76z" />
    <glyph glyph-name="two" unicode="2" horiz-adv-x="1333" 
d="M115 0v201q51 101 281 266q397 285 397 557q0 334 -220 334q-66 0 -116 -23q43 -118 43 -198q0 -69 -49 -112.5t-132 -43.5q-77 0 -120 43t-43 115q0 127 136 219t351 92q246 0 386 -118.5t140 -323.5q0 -157 -105 -279t-454 -262q-215 -87 -282 -162v-10h889v-295h-1102
z" />
    <glyph glyph-name="three" unicode="3" horiz-adv-x="1333" 
d="M389 84q46 -20 140 -20q137 0 218 91t81 255q0 278 -248 278h-127v121h90q126 0 181.5 74.5t55.5 228.5q0 246 -210 246q-76 0 -127 -23q43 -129 43 -198q0 -72 -49 -113t-130 -41q-73 0 -118 48t-45 120q0 121 141.5 210t361.5 89q246 0 375 -97.5t129 -234.5
q0 -128 -93 -217.5t-261 -124.5v-16q199 -16 306.5 -108.5t107.5 -245.5q0 -191 -182 -313t-457 -122q-210 0 -348 88.5t-138 210.5q0 74 48 121t120 47q82 0 131 -42.5t49 -112.5t-45 -199z" />
    <glyph glyph-name="four" unicode="4" horiz-adv-x="1333" 
d="M1061 358v-358h-336v358h-662v205l719 875h279v-848h215v-232h-215zM725 1198l-498 -608h498v608z" />
    <glyph glyph-name="five" unicode="5" horiz-adv-x="1333" 
d="M403 82q48 -19 115 -19q129 0 213 109.5t84 296.5q0 142 -75.5 232t-194.5 90q-154 0 -269 -136l-77 27l96 735h846v-297h-781l-34 -309q159 96 340 96q222 0 371 -112.5t149 -323.5q0 -220 -170.5 -360t-435.5 -140q-204 0 -342 86.5t-138 210.5q0 72 48.5 120t119.5 48
q81 0 131 -42.5t50 -112.5q0 -64 -46 -199z" />
    <glyph glyph-name="six" unicode="6" horiz-adv-x="1333" 
d="M1024 1458l22 -98l-106 -19q-126 -23 -269 -144.5t-192 -414.5q144 131 357 131q175 0 292 -127t117 -323q0 -211 -160 -354.5t-407 -143.5q-262 0 -418 162.5t-156 435.5q0 365 244 604.5t676 290.5zM471 672q0 -103 3 -218t32.5 -216t75.5 -143t96 -42q88 0 142 102
t54 281q0 155 -54.5 249.5t-147.5 94.5q-130 0 -201 -108z" />
    <glyph glyph-name="seven" unicode="7" horiz-adv-x="1333" 
d="M532 -20h-149l690 1140h-594q-153 0 -202.5 -33.5t-75.5 -191.5h-74v522h1157v-119z" />
    <glyph glyph-name="eight" unicode="8" horiz-adv-x="1333" 
d="M425 682q-291 131 -291 385q0 166 158 279.5t397 113.5q225 0 367.5 -98.5t142.5 -249.5q0 -226 -307 -315q362 -132 362 -400q0 -189 -168.5 -311.5t-441.5 -122.5q-254 0 -410 106.5t-156 274.5q0 260 347 338zM820 834q45 97 45 280q0 118 -51.5 188t-143.5 70
q-88 0 -144 -61.5t-56 -155.5q0 -91 50.5 -146t156.5 -104q64 -31 143 -71zM496 645q-84 -109 -84 -280q0 -144 71 -229t187 -85q114 0 181 67t67 179q0 95 -59.5 152.5t-189.5 114.5q-78 34 -173 81z" />
    <glyph glyph-name="nine" unicode="9" horiz-adv-x="1333" 
d="M313 -29l-22 99l106 18q121 21 267 140t194 411q-138 -127 -356 -127q-174 0 -292 129t-118 326q0 207 160 348t407 141q263 0 418.5 -163.5t155.5 -438.5q0 -359 -240 -591.5t-680 -291.5zM864 749q4 26 4 123q0 235 -56 365.5t-151 130.5q-90 0 -144 -101t-54 -276
q0 -158 55 -254t149 -96q128 0 197 108z" />
    <glyph glyph-name="dollar.aalt" horiz-adv-x="1374" 
d="M740 -18v-281h-101v281q-215 6 -361.5 98.5t-146.5 212.5q0 74 45 122t117 48q81 0 126.5 -42t45.5 -114q0 -58 -45 -182q112 -57 219 -57v448q-252 21 -361.5 123.5t-109.5 255.5q0 157 122 277t349 135v217h101v-217q213 -11 336 -88.5t123 -190.5q0 -69 -43 -115.5
t-113 -46.5q-78 0 -121 40t-43 108q0 58 43 174q-71 29 -182 33v-410q491 -47 491 -399q0 -180 -134 -297t-357 -133zM639 1221q-233 -28 -233 -199q0 -94 55.5 -140.5t177.5 -60.5v400zM740 508v-440q258 24 258 225q0 180 -231 211z" />
    <glyph glyph-name="cent.aalt" horiz-adv-x="1374" 
d="M1233 262q-126 -238 -379 -280v-281h-101v279q-274 2 -420.5 140t-146.5 378q0 209 156 361t411 163v254h101v-256q153 -17 235 -82t82 -135q0 -152 -164 -152q-51 0 -95 34.5t-58 92.5v-657q193 0 303 192zM753 938q-209 -42 -209 -428q0 -282 209 -373v801z" />
    <glyph glyph-name="sterling.aalt" horiz-adv-x="1374" 
d="M1266 270v-270h-1169v188q149 49 188 127.5t39 311.5h-192v114h192l-9 116q-7 82 -7 126q0 206 144.5 341.5t383.5 135.5q172 0 297 -83t125 -201q0 -72 -44.5 -119t-119.5 -47q-82 0 -132 41.5t-50 111.5q0 60 34 149l15 42q-49 14 -119 14q-77 0 -130.5 -69.5
t-53.5 -211.5q0 -43 5 -164q5 -122 5 -182h389v-114h-389q-30 -240 -235 -346v-11h833z" />
    <glyph glyph-name="currency.aalt" horiz-adv-x="1374" 
d="M1107 45l-236 231q-99 -53 -184 -53q-88 0 -182 53l-238 -233l-106 115l231 233q-53 82 -53 180q0 95 53 183l-231 237l110 109l234 -234q88 54 182 54q92 0 180 -52l234 232l112 -109l-231 -237q53 -96 53 -183q0 -90 -53 -180l231 -235zM687 778q-84 0 -144.5 -59
t-60.5 -148q0 -84 60 -145t145 -61q83 0 143 60t60 146q0 85 -59 146t-144 61z" />
    <glyph glyph-name="yen.aalt" horiz-adv-x="1374" 
d="M1457 1341q-119 -18 -194.5 -104t-407.5 -623v-30h432v-117h-430v-250q0 -89 82 -111.5t135 -27.5v-78h-779v78q138 11 178 35t40 94v260h-431v117h433v18q-306 533 -378 629.5t-218 109.5v78h784v-78q-28 -2 -59 -3q-121 -6 -121 -48q0 -50 293 -540q301 477 301 516
q0 66 -166 75v78h506v-78z" />
    <glyph glyph-name="glyph640" 
 />
    <glyph glyph-name="glyph641" 
 />
    <glyph glyph-name="Euro.aalt" horiz-adv-x="1374" 
d="M1348 358q-201 -393 -560 -393q-256 0 -413.5 145.5t-198.5 413.5h-147l41 117h92l-2 27q-4 50 4 127h-135l41 114h110q55 255 226.5 398t416.5 143q165 0 322 -92l53 61h84l10 -520h-96q-76 247 -158.5 351t-201.5 104q-254 0 -297 -445h346l-39 -114h-314v-66
q0 -60 3 -88h256l-41 -117h-205q49 -418 332 -418q116 0 204.5 71t180.5 233z" />
    <glyph glyph-name="A.aalt" horiz-adv-x="1280" 
d="M1317 0h-682v78q166 15 166 43q0 14 -8 35l-74 180h-375q-12 -31 -21 -52q-42 -101 -42 -139q0 -53 149 -67v-78h-467v78q151 9 205 133l393 868h187l398 -913q39 -76 171 -88v-78zM686 430l-145 354l-154 -354h299z" />
    <glyph glyph-name="B.aalt" horiz-adv-x="1352" 
d="M59 78q106 9 136 28t30 68v709q0 49 -39 69.5t-127 32.5v80h689q469 0 469 -238q0 -183 -299 -247v-15q171 -17 266.5 -90.5t95.5 -185.5q0 -289 -549 -289h-672v78zM625 608q219 0 219 199q0 168 -193 168q-48 0 -80 -4v-363h54zM571 514v-358q0 -20 36.5 -43t101.5 -23
q192 0 192 207q0 100 -43.5 148.5t-96 58.5t-190.5 10z" />
    <glyph glyph-name="C.aalt" horiz-adv-x="1223" 
d="M1024 1022l51 43h70l8 -389h-90q-105 323 -326 323q-291 0 -291 -464q0 -439 328 -439q215 0 350 215l78 -45q-158 -295 -518 -295q-269 0 -442.5 151.5t-173.5 399.5q0 251 180.5 410.5t460.5 159.5q168 0 315 -70z" />
    <glyph glyph-name="D.aalt" horiz-adv-x="1440" 
d="M59 0v78q117 8 141.5 29.5t24.5 70.5v701q0 46 -34.5 70.5t-133.5 35.5v80h637q311 0 494.5 -143t183.5 -398q0 -249 -192 -386.5t-527 -137.5h-594zM569 971v-774q0 -109 123 -109q301 0 301 436q0 213 -89 332t-247 119q-56 0 -88 -4z" />
    <glyph glyph-name="E.aalt" horiz-adv-x="1186" 
d="M1124 0h-1065v78q106 6 136 24.5t30 65.5v719q0 84 -166 98v80h1006v-272h-70q-56 115 -115.5 148.5t-201.5 33.5h-107v-373h66q84 0 123 35.5t55 128.5h78v-434h-78q-18 96 -54.5 138t-123.5 42h-66v-289q0 -71 28 -102t108 -31h26q153 0 211 40t125 202h78z" />
    <glyph glyph-name="F.aalt" horiz-adv-x="1118" 
d="M1012 780q-64 126 -127 160.5t-197 34.5h-117v-375h47q103 0 142.5 43t54.5 137h78v-465h-78q-18 107 -59 151t-138 44h-47v-334q0 -84 164 -98v-78h-676v78q106 6 136 24.5t30 69.5v711q0 50 -44 72.5t-122 29.5v80h1020v-285h-67z" />
    <glyph glyph-name="G.aalt" horiz-adv-x="1382" 
d="M1378 412q-94 -12 -119.5 -32t-25.5 -79v-96q0 -59 4 -111q-105 -54 -265.5 -88.5t-295.5 -34.5q-267 0 -437.5 147.5t-170.5 393.5q0 253 187 416.5t476 163.5q169 0 322 -70l51 43h67l9 -389h-90q-114 323 -336 323q-144 0 -226 -119t-82 -333q0 -229 72 -355t211 -126
q108 0 176 61v170q0 53 -30.5 77t-111.5 34l-30 4v80h645v-80z" />
    <glyph glyph-name="H.aalt" horiz-adv-x="1575" 
d="M846 0v78q110 5 135 27t25 65v334h-437v-328q0 -85 158 -98v-78h-668v78q120 8 143 30.5t23 61.5v713q0 88 -166 102v80h668v-80q-103 -9 -130.5 -30t-27.5 -64v-289h437v281q0 86 -160 102v80h670v-80q-117 -9 -141.5 -31.5t-24.5 -62.5v-715q0 -37 25.5 -61t140.5 -37
v-78h-670z" />
    <glyph glyph-name="I.aalt" horiz-adv-x="795" 
d="M53 0v78q126 5 149 28.5t23 63.5v713q0 48 -38.5 69t-133.5 33v80h688v-80q-120 -9 -146 -31t-26 -63v-715q0 -40 27 -63t145 -35v-78h-688z" />
    <glyph glyph-name="J.aalt" horiz-adv-x="1061" 
d="M1018 985q-112 -12 -139 -30.5t-27 -84.5v-512q0 -183 -118.5 -285t-336.5 -102q-184 0 -286.5 73t-102.5 200q0 83 48 137.5t130 54.5q72 0 118 -42.5t46 -106.5q0 -83 -81 -144q-21 -16 -38 -32v-11q19 -37 91 -37q88 0 137 62.5t49 177.5v574q0 47 -35 72.5t-141 37.5
v78h686v-80z" />
    <glyph glyph-name="K.aalt" horiz-adv-x="1489" 
d="M1530 0h-529q-132 180 -395 481h-37v-301q0 -39 26 -64t126 -38v-78h-662v78q122 8 144 32t22 60v711q0 90 -168 104v80h682v-80q-121 -9 -145.5 -32.5t-24.5 -57.5v-334h54q393 316 393 383q0 30 -129 41v80h563v-80q-225 -11 -571 -330q394 -430 469 -499t182 -78v-78z
" />
    <glyph glyph-name="L.aalt" horiz-adv-x="1153" 
d="M1124 0h-1065v78q106 6 136 24.5t30 71.5v707q0 46 -37.5 70.5t-128.5 33.5v80h684v-80q-120 -9 -146 -31t-26 -63v-660q0 -86 31 -113.5t113 -27.5q153 0 219.5 49t132.5 211h82z" />
    <glyph glyph-name="M.aalt" horiz-adv-x="1757" 
d="M1698 0h-674v78q114 9 145 31.5t31 68.5v737l-371 -899h-118q-27 79 -111 269l-260 565v-512q0 -162 45.5 -203.5t155.5 -56.5v-78h-508v78q129 13 160.5 61.5t31.5 190.5v485q0 94 -44.5 129t-139.5 41v80h543l301 -653l192 471q38 94 56 182h565v-80
q-113 -9 -139.5 -30t-26.5 -64v-715q0 -40 27.5 -62.5t138.5 -35.5v-78z" />
    <glyph glyph-name="N.aalt" horiz-adv-x="1423" 
d="M1405 985q-109 -9 -152 -48t-43 -204v-739h-176l-694 792v-448q0 -139 36.5 -190.5t164.5 -69.5v-78h-508v78q111 12 151.5 49t40.5 203v463q0 158 -198 192v80h469l600 -666v326q0 146 -38 194t-161 66v80h508v-80z" />
    <glyph glyph-name="O.aalt" horiz-adv-x="1442" 
d="M1374 539q0 -247 -179 -407.5t-478 -160.5q-275 0 -462 155t-187 394q0 253 183.5 413.5t469.5 160.5q277 0 465 -154.5t188 -400.5zM995 535q0 222 -70 343t-204 121t-204.5 -122.5t-70.5 -348.5q0 -220 70.5 -341t204.5 -121q274 0 274 469z" />
    <glyph glyph-name="P.aalt" horiz-adv-x="1270" 
d="M571 438v-258q0 -90 164 -102v-78h-676v78q102 6 134 24t32 70v707q0 48 -38 73t-128 33v80h693q481 0 481 -287q0 -164 -142.5 -252t-418.5 -88h-101zM571 975v-447h31q260 0 260 222q0 225 -237 225h-54z" />
    <glyph glyph-name="Q.aalt" horiz-adv-x="1442" 
d="M973 8q31 -103 88.5 -159t122.5 -56q66 0 149 27v-88q-151 -64 -346 -64q-315 0 -373 309q-250 33 -398 183.5t-148 359.5q0 253 183.5 413.5t469.5 160.5q277 0 465 -154.5t188 -400.5q0 -184 -105 -326.5t-296 -204.5zM721 999q-134 0 -204.5 -122.5t-70.5 -348.5
q0 -220 70.5 -341t204.5 -121q274 0 274 469q0 222 -70 343t-204 121z" />
    <glyph glyph-name="R.aalt" horiz-adv-x="1436" 
d="M1477 0h-504q-113 159 -383 461h-21v-285q0 -86 156 -98v-78h-666v78q115 7 140.5 29t25.5 65v711q0 86 -168 102v80h680q490 0 490 -262q0 -196 -266 -281q242 -275 333 -356.5t183 -87.5v-78zM569 975v-426h41q246 0 246 235q0 191 -258 191h-29z" />
    <glyph glyph-name="S.aalt" horiz-adv-x="1110" 
d="M205 47l-49 -47h-80l-13 393h82q157 -327 387 -327q82 0 133.5 43t51.5 114q0 57 -42.5 92t-135.5 64q-265 81 -359 160.5t-94 212.5q0 147 122 244.5t329 97.5q148 0 307 -70l45 41h80l6 -350h-82q-123 284 -332 284q-70 0 -112.5 -40.5t-42.5 -100.5q0 -68 44.5 -103
t178.5 -77q73 -23 105 -35l46 -16q142 -52 202 -125.5t60 -182.5q0 -152 -134.5 -250t-356.5 -98q-195 0 -346 76z" />
    <glyph glyph-name="T.aalt" horiz-adv-x="1180" 
d="M1169 739h-77q-25 78 -70.5 140t-86.5 79t-144 17h-29v-793q0 -82 106 -95q33 -4 68 -9v-78h-692v78q125 5 149.5 26t24.5 74v797h-25q-99 0 -136.5 -13.5t-86.5 -74.5t-82 -148h-78v326h1159v-326z" />
    <glyph glyph-name="U.aalt" horiz-adv-x="1454" 
d="M1434 985q-129 -15 -161 -57t-32 -195v-368q0 -188 -127 -291t-362 -103q-539 0 -539 379v512q0 64 -32.5 88t-133.5 35v80h668v-80q-104 -8 -131 -32.5t-27 -90.5v-481q0 -289 281 -289q286 0 286 295v338q0 120 -22.5 179t-177.5 81v80h510v-80z" />
    <glyph glyph-name="V.aalt" horiz-adv-x="1253" 
d="M1303 987q-155 -10 -205 -133l-393 -866h-185q-381 891 -420 939.5t-151 59.5v78h682v-78q-16 -2 -33 -3q-133 -12 -133 -40q0 -14 20 -65l250 -588l139 325q105 246 105 304q0 54 -154 67v78h478v-78z" />
    <glyph glyph-name="W.aalt" horiz-adv-x="1939" 
d="M1939 987q-112 -9 -152 -57t-364 -942h-182l-293 749l-256 -749h-180q-321 874 -358.5 932t-153.5 67v78h655v-80q-143 -15 -143 -47q0 -35 45 -159l160 -433l246 719h188l291 -750q188 514 188 607q0 53 -157 65v78h466v-78z" />
    <glyph glyph-name="X.aalt" horiz-adv-x="1378" 
d="M625 0v78q147 6 147 43q0 26 -190 295q-240 -252 -240 -289q0 -36 127 -49v-78h-465v78q118 10 211.5 96.5t310.5 321.5l-173 238q-92 124 -136 166t-95.5 63.5t-109.5 23.5v78h748v-78q-146 -6 -146 -37t177 -274q217 233 217 262q0 40 -138 49v78h478v-78
q-91 -6 -170 -63.5t-328 -325.5q48 -62 85 -113q221 -304 283 -353t162 -54v-78h-755z" />
    <glyph glyph-name="Y.aalt" horiz-adv-x="1229" 
d="M1278 987q-69 -6 -104.5 -24.5t-102 -104.5t-161 -232t-108.5 -181t-14 -126v-137q0 -82 106 -95l69 -9v-78h-693v78q127 6 150.5 28t23.5 70v119q0 50 -6.5 72.5t-34.5 66.5l-140 233q-138 234 -184.5 273.5t-129.5 46.5v78h696v-78q-149 -7 -149 -39q0 -28 71 -154.5
t134 -220.5q12 -18 24 -38q238 355 238 395q0 45 -142 57v78h457v-78z" />
    <glyph glyph-name="Z.aalt" horiz-adv-x="1137" 
d="M1124 373l-37 -373h-1073v63l656 912h-162q-149 0 -216 -57.5t-145 -188.5h-79l34 336h994v-66l-660 -909h158q218 0 296.5 62.5t153.5 220.5h80z" />
    <glyph glyph-name="aacute.aalt" horiz-adv-x="1280" 
d="M1317 0h-682v78q166 15 166 43q0 14 -8 35l-74 180h-375q-12 -31 -21 -52q-42 -101 -42 -139q0 -53 149 -67v-78h-467v78q151 9 205 133l393 868h187l398 -913q39 -76 171 -88v-78zM686 430l-145 354l-154 -354h299zM444 1160l-35 41q128 118 266 266q69 76 148 76
q63 0 106 -28t43 -73q0 -52 -41 -82t-228 -98q-112 -41 -259 -102z" />
    <glyph glyph-name="glyph670" 
 />
    <glyph glyph-name="acircumflex.aalt" horiz-adv-x="1280" 
d="M1317 0h-682v78q166 15 166 43q0 14 -8 35l-74 180h-375q-12 -31 -21 -52q-42 -101 -42 -139q0 -53 149 -67v-78h-467v78q151 9 205 133l393 868h187l398 -913q39 -76 171 -88v-78zM686 430l-145 354l-154 -354h299zM1005 1160l-350 203l-344 -203l-35 28l157 189
q52 61 85 104q44 62 141 62q66 0 99.5 -26.5t279.5 -328.5z" />
    <glyph glyph-name="Adieresis.aalt" horiz-adv-x="1280" 
d="M1317 0h-682v78q166 15 166 43q0 14 -8 35l-74 180h-375q-12 -31 -21 -52q-42 -101 -42 -139q0 -53 149 -67v-78h-467v78q151 9 205 133l393 868h187l398 -913q39 -76 171 -88v-78zM686 430l-145 354l-154 -354h299zM905 1182q-65 0 -112.5 49.5t-47.5 118.5t47.5 118.5
t112.5 49.5q64 0 112 -50.5t48 -117.5t-48 -117.5t-112 -50.5zM409 1182q-65 0 -112.5 49.5t-47.5 118.5t47.5 118.5t112.5 49.5q64 0 112 -50.5t48 -117.5t-48 -117.5t-112 -50.5z" />
    <glyph glyph-name="agrave.aalt" horiz-adv-x="1280" 
d="M1317 0h-682v78q166 15 166 43q0 14 -8 35l-74 180h-375q-12 -31 -21 -52q-42 -101 -42 -139q0 -53 149 -67v-78h-467v78q151 9 205 133l393 868h187l398 -913q39 -76 171 -88v-78zM686 430l-145 354l-154 -354h299zM825 1160q-162 69 -269 107q-181 64 -220 94t-39 81
q0 43 42 72t107 29q58 0 89 -23.5t162 -159.5q56 -59 163 -159z" />
    <glyph glyph-name="glyph674" 
 />
    <glyph glyph-name="glyph675" 
 />
    <glyph glyph-name="Aring.aalt" horiz-adv-x="1280" 
d="M768 1030q358 -835 393 -886.5t156 -65.5v-78h-682v78q166 15 166 43q0 14 -8 35l-74 180h-375q-12 -31 -21 -52q-42 -101 -42 -139q0 -53 149 -67v-78h-467v78q151 9 205 133l369 813q-170 48 -170 213q0 104 77.5 166.5t200.5 62.5q126 0 202.5 -62.5t76.5 -166.5
q0 -154 -156 -207zM645 1397q-131 0 -131 -160q0 -158 131 -158t131 158q0 160 -131 160zM686 430l-145 354l-154 -354h299z" />
    <glyph glyph-name="glyph677" 
 />
    <glyph glyph-name="atilde.aalt" horiz-adv-x="1280" 
d="M1317 0h-682v78q166 15 166 43q0 14 -8 35l-74 180h-375q-12 -31 -21 -52q-42 -101 -42 -139q0 -53 149 -67v-78h-467v78q151 9 205 133l393 868h187l398 -913q39 -76 171 -88v-78zM686 430l-145 354l-154 -354h299zM1112 1479q-33 -119 -120.5 -210t-182.5 -91
q-113 0 -216 55q-104 55 -154 55q-38 0 -65 -22t-83 -125l-71 30q43 124 123.5 210.5t170.5 86.5q64 0 113.5 -14t177.5 -77q34 -17 72 -17q55 0 87.5 18t72.5 125z" />
    <glyph glyph-name="AE.aalt" horiz-adv-x="1716" 
d="M1655 0h-1065v78q108 6 137 27t29 63v256h-344q-144 -236 -144 -281q0 -53 152 -65v-78h-461v78q91 18 124 47t190 288l323 539q-54 26 -154 33v80h1153v-272h-69q-55 113 -115 147.5t-203 34.5h-106v-373h65q82 0 121.5 33.5t57.5 130.5h77v-434h-77q-20 100 -57.5 140
t-121.5 40h-65v-289q0 -66 24.5 -100.5t100.5 -34.5h35q158 0 215 43.5t122 200.5h78zM756 518v457h-23l-268 -457h291z" />
    <glyph glyph-name="glyph680" 
 />
    <glyph glyph-name="glyph681" 
 />
    <glyph glyph-name="glyph682" 
 />
    <glyph glyph-name="Ccedilla.aalt" horiz-adv-x="1223" 
d="M1024 1022l51 43h70l8 -389h-90q-105 323 -326 323q-291 0 -291 -464q0 -439 328 -439q215 0 350 215l78 -45q-158 -295 -518 -295q-269 0 -442.5 151.5t-173.5 399.5q0 251 180.5 410.5t460.5 159.5q168 0 315 -70zM506 -444v77q156 0 202.5 15.5t46.5 64.5
q0 66 -139 66v237h86v-112q248 0 248 -156q0 -105 -94.5 -148.5t-349.5 -43.5z" />
    <glyph glyph-name="glyph684" 
 />
    <glyph glyph-name="glyph685" 
 />
    <glyph glyph-name="glyph686" 
 />
    <glyph glyph-name="glyph687" 
 />
    <glyph glyph-name="Eacute.aalt" horiz-adv-x="1186" 
d="M1124 0h-1065v78q106 6 136 24.5t30 65.5v719q0 84 -166 98v80h1006v-272h-70q-56 115 -115.5 148.5t-201.5 33.5h-107v-373h66q84 0 123 35.5t55 128.5h78v-434h-78q-18 96 -54.5 138t-123.5 42h-66v-289q0 -71 28 -102t108 -31h26q153 0 211 40t125 202h78zM418 1160
l-35 41q128 118 266 266q69 76 148 76q63 0 106 -28t43 -73q0 -52 -41 -82t-228 -98q-112 -41 -259 -102z" />
    <glyph glyph-name="glyph689" 
 />
    <glyph glyph-name="glyph690" 
 />
    <glyph glyph-name="ecircumflex.aalt" horiz-adv-x="1186" 
d="M1124 0h-1065v78q106 6 136 24.5t30 65.5v719q0 84 -166 98v80h1006v-272h-70q-56 115 -115.5 148.5t-201.5 33.5h-107v-373h66q84 0 123 35.5t55 128.5h78v-434h-78q-18 96 -54.5 138t-123.5 42h-66v-289q0 -71 28 -102t108 -31h26q153 0 211 40t125 202h78zM938 1160
l-350 203l-344 -203l-35 28l157 189q52 61 85 104q44 62 141 62q66 0 99.5 -26.5t279.5 -328.5z" />
    <glyph glyph-name="edieresis.aalt" horiz-adv-x="1186" 
d="M1124 0h-1065v78q106 6 136 24.5t30 65.5v719q0 84 -166 98v80h1006v-272h-70q-56 115 -115.5 148.5t-201.5 33.5h-107v-373h66q84 0 123 35.5t55 128.5h78v-434h-78q-18 96 -54.5 138t-123.5 42h-66v-289q0 -71 28 -102t108 -31h26q153 0 211 40t125 202h78zM842 1182
q-65 0 -112.5 49.5t-47.5 118.5t47.5 118.5t112.5 49.5q64 0 112 -50.5t48 -117.5t-48 -117.5t-112 -50.5zM346 1182q-65 0 -112.5 49.5t-47.5 118.5t47.5 118.5t112.5 49.5q64 0 112 -50.5t48 -117.5t-48 -117.5t-112 -50.5z" />
    <glyph glyph-name="glyph693" 
 />
    <glyph glyph-name="egrave.aalt" horiz-adv-x="1186" 
d="M1124 0h-1065v78q106 6 136 24.5t30 65.5v719q0 84 -166 98v80h1006v-272h-70q-56 115 -115.5 148.5t-201.5 33.5h-107v-373h66q84 0 123 35.5t55 128.5h78v-434h-78q-18 96 -54.5 138t-123.5 42h-66v-289q0 -71 28 -102t108 -31h26q153 0 211 40t125 202h78zM736 1160
q-162 69 -269 107q-181 64 -220 94t-39 81q0 43 42 72t107 29q58 0 89 -23.5t162 -159.5q56 -59 163 -159z" />
    <glyph glyph-name="glyph695" 
 />
    <glyph glyph-name="glyph696" 
 />
    <glyph glyph-name="glyph697" 
 />
    <glyph glyph-name="Eth.aalt" horiz-adv-x="1440" 
d="M59 0v78q117 8 141.5 29.5t24.5 70.5v326h-166v98h166v277q0 46 -34.5 70.5t-133.5 35.5v80h637q311 0 494.5 -143t183.5 -398q0 -249 -192 -386.5t-527 -137.5h-594zM569 971v-369h226v-98h-226v-307q0 -109 123 -109q301 0 301 436q0 213 -89 332t-247 119
q-56 0 -88 -4z" />
    <glyph glyph-name="glyph699" 
 />
    <glyph glyph-name="glyph700" 
 />
    <glyph glyph-name="glyph701" 
 />
    <glyph glyph-name="glyph702" 
 />
    <glyph glyph-name="glyph703" 
 />
    <glyph glyph-name="glyph704" 
 />
    <glyph glyph-name="Iacute.aalt" horiz-adv-x="795" 
d="M53 0v78q126 5 149 28.5t23 63.5v713q0 48 -38.5 69t-133.5 33v80h688v-80q-120 -9 -146 -31t-26 -63v-715q0 -40 27 -63t145 -35v-78h-688zM235 1160l-35 41q128 118 266 266q69 76 148 76q63 0 106 -28t43 -73q0 -52 -41 -82t-228 -98q-112 -41 -259 -102z" />
    <glyph glyph-name="glyph706" 
 />
    <glyph glyph-name="icircumflex.aalt" horiz-adv-x="795" 
d="M53 0v78q126 5 149 28.5t23 63.5v713q0 48 -38.5 69t-133.5 33v80h688v-80q-120 -9 -146 -31t-26 -63v-715q0 -40 27 -63t145 -35v-78h-688zM746 1160l-350 203l-344 -203l-35 28l157 189q52 61 85 104q44 62 141 62q66 0 99.5 -26.5t279.5 -328.5z" />
    <glyph glyph-name="idieresis.aalt" horiz-adv-x="795" 
d="M53 0v78q126 5 149 28.5t23 63.5v713q0 48 -38.5 69t-133.5 33v80h688v-80q-120 -9 -146 -31t-26 -63v-715q0 -40 27 -63t145 -35v-78h-688zM646 1182q-65 0 -112.5 49.5t-47.5 118.5t47.5 118.5t112.5 49.5q64 0 112 -50.5t48 -117.5t-48 -117.5t-112 -50.5zM150 1182
q-65 0 -112.5 49.5t-47.5 118.5t47.5 118.5t112.5 49.5q64 0 112 -50.5t48 -117.5t-48 -117.5t-112 -50.5z" />
    <glyph glyph-name="i.locl.sc" horiz-adv-x="795" 
d="M53 0v78q126 5 149 28.5t23 63.5v713q0 48 -38.5 69t-133.5 33v80h688v-80q-120 -9 -146 -31t-26 -63v-715q0 -40 27 -63t145 -35v-78h-688zM400 1182q-71 0 -120.5 48t-49.5 120q0 70 50 119t120 49q69 0 118.5 -49t49.5 -119q0 -71 -49 -119.5t-119 -48.5z" />
    <glyph glyph-name="igrave.aalt" horiz-adv-x="795" 
d="M53 0v78q126 5 149 28.5t23 63.5v713q0 48 -38.5 69t-133.5 33v80h688v-80q-120 -9 -146 -31t-26 -63v-715q0 -40 27 -63t145 -35v-78h-688zM564 1160q-162 69 -269 107q-181 64 -220 94t-39 81q0 43 42 72t107 29q58 0 89 -23.5t162 -159.5q56 -59 163 -159z" />
    <glyph glyph-name="glyph711" 
 />
    <glyph glyph-name="glyph712" 
 />
    <glyph glyph-name="glyph713" 
 />
    <glyph glyph-name="glyph714" 
 />
    <glyph glyph-name="glyph715" 
 />
    <glyph glyph-name="glyph716" 
 />
    <glyph glyph-name="glyph717" 
 />
    <glyph glyph-name="glyph718" 
 />
    <glyph glyph-name="glyph719" 
 />
    <glyph glyph-name="glyph720" 
 />
    <glyph glyph-name="glyph721" 
 />
    <glyph glyph-name="glyph722" 
 />
    <glyph glyph-name="glyph723" 
 />
    <glyph glyph-name="glyph724" 
 />
    <glyph glyph-name="Ntilde.aalt" horiz-adv-x="1423" 
d="M1405 985q-109 -9 -152 -48t-43 -204v-739h-176l-694 792v-448q0 -139 36.5 -190.5t164.5 -69.5v-78h-508v78q111 12 151.5 49t40.5 203v463q0 158 -198 192v80h469l600 -666v326q0 146 -38 194t-161 66v80h508v-80zM1175 1479q-33 -119 -120.5 -210t-182.5 -91
q-113 0 -216 55q-104 55 -154 55q-38 0 -65 -22t-83 -125l-71 30q43 124 123.5 210.5t170.5 86.5q64 0 113.5 -14t177.5 -77q34 -17 72 -17q55 0 87.5 18t72.5 125z" />
    <glyph glyph-name="oacute.aalt" horiz-adv-x="1442" 
d="M1374 539q0 -247 -179 -407.5t-478 -160.5q-275 0 -462 155t-187 394q0 253 183.5 413.5t469.5 160.5q277 0 465 -154.5t188 -400.5zM995 535q0 222 -70 343t-204 121t-204.5 -122.5t-70.5 -348.5q0 -220 70.5 -341t204.5 -121q274 0 274 469zM557 1160l-35 41
q128 118 266 266q69 76 148 76q63 0 106 -28t43 -73q0 -52 -41 -82t-228 -98q-112 -41 -259 -102z" />
    <glyph glyph-name="glyph727" 
 />
    <glyph glyph-name="ocircumflex.aalt" horiz-adv-x="1442" 
d="M1374 539q0 -247 -179 -407.5t-478 -160.5q-275 0 -462 155t-187 394q0 253 183.5 413.5t469.5 160.5q277 0 465 -154.5t188 -400.5zM995 535q0 222 -70 343t-204 121t-204.5 -122.5t-70.5 -348.5q0 -220 70.5 -341t204.5 -121q274 0 274 469zM1069 1160l-350 203
l-344 -203l-35 28l157 189q52 61 85 104q44 62 141 62q66 0 99.5 -26.5t279.5 -328.5z" />
    <glyph glyph-name="Odieresis.aalt" horiz-adv-x="1442" 
d="M1374 539q0 -247 -179 -407.5t-478 -160.5q-275 0 -462 155t-187 394q0 253 183.5 413.5t469.5 160.5q277 0 465 -154.5t188 -400.5zM995 535q0 222 -70 343t-204 121t-204.5 -122.5t-70.5 -348.5q0 -220 70.5 -341t204.5 -121q274 0 274 469zM969 1182
q-65 0 -112.5 49.5t-47.5 118.5t47.5 118.5t112.5 49.5q64 0 112 -50.5t48 -117.5t-48 -117.5t-112 -50.5zM473 1182q-65 0 -112.5 49.5t-47.5 118.5t47.5 118.5t112.5 49.5q64 0 112 -50.5t48 -117.5t-48 -117.5t-112 -50.5z" />
    <glyph glyph-name="ograve.aalt" horiz-adv-x="1442" 
d="M1374 539q0 -247 -179 -407.5t-478 -160.5q-275 0 -462 155t-187 394q0 253 183.5 413.5t469.5 160.5q277 0 465 -154.5t188 -400.5zM995 535q0 222 -70 343t-204 121t-204.5 -122.5t-70.5 -348.5q0 -220 70.5 -341t204.5 -121q274 0 274 469zM887 1160q-162 69 -269 107
q-181 64 -220 94t-39 81q0 43 42 72t107 29q58 0 89 -23.5t162 -159.5q56 -59 163 -159z" />
    <glyph glyph-name="glyph731" 
 />
    <glyph glyph-name="glyph732" 
 />
    <glyph glyph-name="Oslash.aalt" horiz-adv-x="1442" 
d="M367 51l-119 -129l-68 68l103 114q-215 162 -215 416q0 253 183.5 413.5t469.5 160.5q202 0 373 -93l102 113l72 -70l-90 -100q196 -158 196 -405t-179 -407.5t-478 -160.5q-186 0 -350 80zM467 307l481 533q-68 159 -227 159q-134 0 -204.5 -122.5t-70.5 -348.5
q0 -125 21 -221zM979 727l-475 -524q66 -137 217 -137q274 0 274 469q0 102 -16 192z" />
    <glyph glyph-name="glyph734" 
 />
    <glyph glyph-name="otilde.aalt" horiz-adv-x="1442" 
d="M1374 539q0 -247 -179 -407.5t-478 -160.5q-275 0 -462 155t-187 394q0 253 183.5 413.5t469.5 160.5q277 0 465 -154.5t188 -400.5zM995 535q0 222 -70 343t-204 121t-204.5 -122.5t-70.5 -348.5q0 -220 70.5 -341t204.5 -121q274 0 274 469zM1179 1479
q-33 -119 -120.5 -210t-182.5 -91q-113 0 -216 55q-104 55 -154 55q-38 0 -65 -22t-83 -125l-71 30q43 124 123.5 210.5t170.5 86.5q64 0 113.5 -14t177.5 -77q34 -17 72 -17q55 0 87.5 18t72.5 125z" />
    <glyph glyph-name="OE.aalt" horiz-adv-x="1794" 
d="M1755 332l-22 -332h-1028q-283 0 -460 140.5t-177 379.5q0 255 177 400t476 145h952v-272h-69q-57 115 -116 148.5t-202 33.5h-106v-373h65q84 0 123 35.5t55 128.5h78v-434h-78q-19 98 -56.5 139t-121.5 41h-65v-289q0 -67 25.5 -101t99.5 -34h22q167 0 231 55t119 189
h78zM834 104v859q-43 8 -113 8q-275 0 -275 -443q0 -434 275 -434q67 0 113 10z" />
    <glyph glyph-name="Thorn.aalt" horiz-adv-x="1270" 
d="M571 238v-62q0 -85 160 -98v-78h-672v78q111 8 138.5 30t27.5 64v711q0 88 -166 102v80h672v-80q-104 -10 -132 -32.5t-28 -65.5v-23h183q251 0 365 -70.5t114 -230.5q0 -150 -142 -237.5t-362 -87.5h-158zM571 774v-446h41q250 0 250 223q0 112 -54 167.5t-183 55.5h-54
z" />
    <glyph glyph-name="glyph738" 
 />
    <glyph glyph-name="glyph739" 
 />
    <glyph glyph-name="glyph740" 
 />
    <glyph glyph-name="glyph741" 
 />
    <glyph glyph-name="Scaron.aalt" horiz-adv-x="1110" 
d="M205 47l-49 -47h-80l-13 393h82q157 -327 387 -327q82 0 133.5 43t51.5 114q0 57 -42.5 92t-135.5 64q-265 81 -359 160.5t-94 212.5q0 147 122 244.5t329 97.5q148 0 307 -70l45 41h80l6 -350h-82q-123 284 -332 284q-70 0 -112.5 -40.5t-42.5 -100.5q0 -68 44.5 -103
t178.5 -77q73 -23 105 -35l46 -16q142 -52 202 -125.5t60 -182.5q0 -152 -134.5 -250t-356.5 -98q-195 0 -346 76zM910 1514l-150 -184q-96 -124 -125 -143t-94 -19q-91 0 -139 61q-28 37 -230 285l33 29l334 -193l338 193z" />
    <glyph glyph-name="glyph743" 
 />
    <glyph glyph-name="glyph744" 
 />
    <glyph glyph-name="glyph745" 
 />
    <glyph glyph-name="glyph746" 
 />
    <glyph glyph-name="glyph747" 
 />
    <glyph glyph-name="glyph748" 
 />
    <glyph glyph-name="glyph749" 
 />
    <glyph glyph-name="uacute.aalt" horiz-adv-x="1454" 
d="M1434 985q-129 -15 -161 -57t-32 -195v-368q0 -188 -127 -291t-362 -103q-539 0 -539 379v512q0 64 -32.5 88t-133.5 35v80h668v-80q-104 -8 -131 -32.5t-27 -90.5v-481q0 -289 281 -289q286 0 286 295v338q0 120 -22.5 179t-177.5 81v80h510v-80zM578 1160l-35 41
q128 118 266 266q69 76 148 76q63 0 106 -28t43 -73q0 -52 -41 -82t-228 -98q-112 -41 -259 -102z" />
    <glyph glyph-name="glyph751" 
 />
    <glyph glyph-name="ucircumflex.aalt" horiz-adv-x="1454" 
d="M1434 985q-129 -15 -161 -57t-32 -195v-368q0 -188 -127 -291t-362 -103q-539 0 -539 379v512q0 64 -32.5 88t-133.5 35v80h668v-80q-104 -8 -131 -32.5t-27 -90.5v-481q0 -289 281 -289q286 0 286 295v338q0 120 -22.5 179t-177.5 81v80h510v-80zM1098 1160l-350 203
l-344 -203l-35 28l157 189q52 61 85 104q44 62 141 62q66 0 99.5 -26.5t279.5 -328.5z" />
    <glyph glyph-name="Udieresis.aalt" horiz-adv-x="1454" 
d="M1434 985q-129 -15 -161 -57t-32 -195v-368q0 -188 -127 -291t-362 -103q-539 0 -539 379v512q0 64 -32.5 88t-133.5 35v80h668v-80q-104 -8 -131 -32.5t-27 -90.5v-481q0 -289 281 -289q286 0 286 295v338q0 120 -22.5 179t-177.5 81v80h510v-80zM993 1182
q-65 0 -112.5 49.5t-47.5 118.5t47.5 118.5t112.5 49.5q64 0 112 -50.5t48 -117.5t-48 -117.5t-112 -50.5zM497 1182q-65 0 -112.5 49.5t-47.5 118.5t47.5 118.5t112.5 49.5q64 0 112 -50.5t48 -117.5t-48 -117.5t-112 -50.5z" />
    <glyph glyph-name="ugrave.aalt" horiz-adv-x="1454" 
d="M1434 985q-129 -15 -161 -57t-32 -195v-368q0 -188 -127 -291t-362 -103q-539 0 -539 379v512q0 64 -32.5 88t-133.5 35v80h668v-80q-104 -8 -131 -32.5t-27 -90.5v-481q0 -289 281 -289q286 0 286 295v338q0 120 -22.5 179t-177.5 81v80h510v-80zM917 1160
q-162 69 -269 107q-181 64 -220 94t-39 81q0 43 42 72t107 29q58 0 89 -23.5t162 -159.5q56 -59 163 -159z" />
    <glyph glyph-name="glyph755" 
 />
    <glyph glyph-name="glyph756" 
 />
    <glyph glyph-name="glyph757" 
 />
    <glyph glyph-name="glyph758" 
 />
    <glyph glyph-name="glyph759" 
 />
    <glyph glyph-name="glyph760" 
 />
    <glyph glyph-name="glyph761" 
 />
    <glyph glyph-name="glyph762" 
 />
    <glyph glyph-name="glyph763" 
 />
    <glyph glyph-name="Yacute.aalt" horiz-adv-x="1229" 
d="M1278 987q-69 -6 -104.5 -24.5t-102 -104.5t-161 -232t-108.5 -181t-14 -126v-137q0 -82 106 -95l69 -9v-78h-693v78q127 6 150.5 28t23.5 70v119q0 50 -6.5 72.5t-34.5 66.5l-140 233q-138 234 -184.5 273.5t-129.5 46.5v78h696v-78q-149 -7 -149 -39q0 -28 71 -154.5
t134 -220.5q12 -18 24 -38q238 355 238 395q0 45 -142 57v78h457v-78zM461 1160l-35 41q128 118 266 266q69 76 148 76q63 0 106 -28t43 -73q0 -52 -41 -82t-228 -98q-112 -41 -259 -102z" />
    <glyph glyph-name="glyph765" 
 />
    <glyph glyph-name="ydieresis.aalt" horiz-adv-x="1229" 
d="M1278 987q-69 -6 -104.5 -24.5t-102 -104.5t-161 -232t-108.5 -181t-14 -126v-137q0 -82 106 -95l69 -9v-78h-693v78q127 6 150.5 28t23.5 70v119q0 50 -6.5 72.5t-34.5 66.5l-140 233q-138 234 -184.5 273.5t-129.5 46.5v78h696v-78q-149 -7 -149 -39q0 -28 71 -154.5
t134 -220.5q12 -18 24 -38q238 355 238 395q0 45 -142 57v78h457v-78zM877 1182q-65 0 -112.5 49.5t-47.5 118.5t47.5 118.5t112.5 49.5q64 0 112 -50.5t48 -117.5t-48 -117.5t-112 -50.5zM381 1182q-65 0 -112.5 49.5t-47.5 118.5t47.5 118.5t112.5 49.5q64 0 112 -50.5
t48 -117.5t-48 -117.5t-112 -50.5z" />
    <glyph glyph-name="glyph767" 
 />
    <glyph glyph-name="glyph768" 
 />
    <glyph glyph-name="Zcaron.aalt" horiz-adv-x="1137" 
d="M1124 373l-37 -373h-1073v63l656 912h-162q-149 0 -216 -57.5t-145 -188.5h-79l34 336h994v-66l-660 -909h158q218 0 296.5 62.5t153.5 220.5h80zM951 1514l-150 -184q-96 -124 -125 -143t-94 -19q-91 0 -139 61q-28 37 -230 285l33 29l334 -193l338 193z" />
    <glyph glyph-name="glyph770" 
 />
    <glyph glyph-name="glyph771" 
 />
    <glyph glyph-name="glyph772" 
 />
    <glyph glyph-name="glyph773" 
 />
    <glyph glyph-name="glyph774" 
 />
    <glyph glyph-name="glyph775" 
 />
    <glyph glyph-name="glyph776" 
 />
    <glyph glyph-name="glyph777" 
 />
    <glyph glyph-name="glyph778" 
 />
    <glyph glyph-name="glyph779" 
 />
    <glyph glyph-name="glyph780" 
 />
    <glyph glyph-name="glyph781" 
 />
    <glyph glyph-name="glyph782" 
 />
    <glyph glyph-name="glyph783" 
 />
    <glyph glyph-name="glyph784" 
 />
    <glyph glyph-name="glyph785" 
 />
    <glyph glyph-name="glyph786" 
 />
    <glyph glyph-name="glyph787" 
 />
    <glyph glyph-name="glyph788" 
 />
    <glyph glyph-name="glyph789" 
 />
    <glyph glyph-name="glyph790" 
 />
    <glyph glyph-name="glyph791" 
 />
    <glyph glyph-name="glyph792" 
 />
    <glyph glyph-name="glyph793" 
 />
    <glyph glyph-name="glyph794" 
 />
    <glyph glyph-name="glyph795" 
 />
    <glyph glyph-name="glyph796" 
 />
    <glyph glyph-name="glyph797" 
 />
    <glyph glyph-name="glyph798" 
 />
    <glyph glyph-name="glyph799" 
 />
    <glyph glyph-name="glyph800" 
 />
    <glyph glyph-name="glyph801" 
 />
    <glyph glyph-name="glyph802" 
 />
    <glyph glyph-name="glyph803" 
 />
    <glyph glyph-name="glyph804" 
 />
    <glyph glyph-name="glyph805" 
 />
    <glyph glyph-name="glyph806" 
 />
    <glyph glyph-name="glyph807" 
 />
    <glyph glyph-name="glyph808" 
 />
    <glyph glyph-name="glyph809" 
 />
    <glyph glyph-name="glyph810" 
 />
    <glyph glyph-name="glyph811" 
 />
    <glyph glyph-name="glyph812" 
 />
    <glyph glyph-name="glyph813" 
 />
    <glyph glyph-name="glyph814" 
 />
    <glyph glyph-name="glyph815" 
 />
    <glyph glyph-name="glyph816" 
 />
    <glyph glyph-name="glyph817" 
 />
    <glyph glyph-name="glyph818" 
 />
    <glyph glyph-name="glyph819" 
 />
    <glyph glyph-name="glyph820" 
 />
    <glyph glyph-name="glyph821" 
 />
    <glyph glyph-name="glyph822" 
 />
    <glyph glyph-name="glyph823" 
 />
    <glyph glyph-name="glyph824" 
 />
    <glyph glyph-name="glyph825" 
 />
    <glyph glyph-name="glyph826" 
 />
    <glyph glyph-name="glyph827" 
 />
    <glyph glyph-name="glyph828" 
 />
    <glyph glyph-name="glyph829" 
 />
    <glyph glyph-name="glyph830" 
 />
    <glyph glyph-name="glyph831" 
 />
    <glyph glyph-name="glyph832" 
 />
    <glyph glyph-name="glyph833" 
 />
    <glyph glyph-name="glyph834" 
 />
    <glyph glyph-name="glyph835" 
 />
    <glyph glyph-name="glyph836" 
 />
    <glyph glyph-name="glyph837" 
 />
    <glyph glyph-name="glyph838" 
 />
    <glyph glyph-name="glyph839" 
 />
    <glyph glyph-name="glyph840" 
 />
    <glyph glyph-name="glyph841" 
 />
    <glyph glyph-name="glyph842" 
 />
    <glyph glyph-name="glyph843" 
 />
    <glyph glyph-name="glyph844" 
 />
    <glyph glyph-name="glyph845" 
 />
    <glyph glyph-name="glyph846" 
 />
    <glyph glyph-name="glyph847" 
 />
    <glyph glyph-name="glyph848" 
 />
    <glyph glyph-name="glyph849" 
 />
    <glyph glyph-name="glyph850" 
 />
    <glyph glyph-name="germandbls.aalt" horiz-adv-x="1505" 
d="M559 0h-512v78q115 9 140.5 31t25.5 65v547q0 192 147 282.5t449 90.5q254 0 407.5 -73.5t153.5 -197.5q0 -182 -299 -245v-11q174 -21 268.5 -93.5t94.5 -184.5q0 -145 -146.5 -228.5t-396.5 -83.5q-135 0 -225 23l-11 248h84q75 -176 170 -176q62 0 104 60.5t42 164.5
q0 219 -240 219h-59v92h32q209 0 209 197q0 88 -58 141t-146 53q-110 0 -172 -74.5t-62 -213.5v-711z" />
    <glyph glyph-name="glyph852" 
 />
    <glyph glyph-name="glyph853" 
 />
    <glyph glyph-name="glyph854" 
 />
    <glyph glyph-name="i.locl" horiz-adv-x="725" 
d="M346 1182q-82 0 -139 53.5t-57 128.5t57.5 129.5t138.5 54.5q82 0 140.5 -55t58.5 -129t-58 -128t-141 -54zM57 0v74q97 4 125.5 31.5t28.5 76.5v582q0 117 -178 141v74l489 25l17 -15v-794q0 -52 30.5 -80t120.5 -41v-74h-633z" />
    <glyph glyph-name="glyph856" 
 />
    </font>
</defs>
</svg>
