<?xml version="1.0" standalone="no"?>
<!DOCTYPE svg PUBLIC "-//W3C//DTD SVG 1.1//EN" "http://www.w3.org/Graphics/SVG/1.1/DTD/svg11.dtd" >
<svg>
<metadata>
Created by FontForge 20110222 at Thu Feb 13 05:29:19 2014
 By Orthosie Webhosting
(c) 2011 Microsoft Corporation. All Rights Reserved.
</metadata>
<defs>
<font id="web" horiz-adv-x="0" >
  <font-face 
    font-family="GeorgiaPro-Regular"
    font-weight="400"
    font-stretch="normal"
    units-per-em="2048"
    panose-1="2 4 5 2 5 4 5 2 3 3"
    ascent="1638"
    descent="-410"
    x-height="985"
    cap-height="1419"
    bbox="-354 -444 2359 1868"
    underline-thickness="101"
    underline-position="-131"
    unicode-range="U+0020-FB04"
  />
<missing-glyph horiz-adv-x="2048" 
d="M256 0v1536h1536v-1536h-1536zM385 129h1280v1280h-1280v-1280z" />
    <glyph glyph-name="uniFB01" unicode="fi" horiz-adv-x="1194" 
d="M672 0v66q100 8 119.5 34.5t19.5 69.5v631q0 52 -29 90h-376v-713q0 -54 32.5 -77.5t122.5 -34.5v-66h-487v66q105 8 125 36t20 68v717h-194v94h194v25q0 250 138 397t327 147q145 0 221 -45.5t76 -122.5q0 -41 -26 -74.5t-66 -33.5q-107 0 -142 130l-20 66h-53
q-125 0 -196.5 -104t-71.5 -301v-84h329l248 16l14 -14v-803q0 -98 148 -114v-66h-473z" />
    <glyph glyph-name="uniFB02" unicode="fl" horiz-adv-x="1208" 
d="M676 0v66l49 5q98 7 98 97v1192q0 43 -37.5 76.5t-109.5 33.5q-270 0 -270 -405v-84h243v-94h-243v-709q0 -54 32.5 -77.5t122.5 -34.5v-66h-487v66q105 8 125 36t20 68v717h-194v94h194v25q0 258 139.5 401t325.5 143q136 0 229 -41l82 39l15 -14v-1354q0 -101 145 -114
v-66h-479z" />
    <glyph glyph-name="uniFB00" unicode="ff" horiz-adv-x="1270" 
d="M1149 1464q-139 -9 -139 -381v-102h254v-94h-254v-709q0 -61 40 -82.5t148 -29.5v-66h-520v66l48 5q97 7 97 97v719h-417v-709q0 -61 40 -82.5t148 -29.5v-66h-520v66l48 5q97 7 97 97v719h-194v94h194v41q0 223 115 363.5t293 140.5q89 0 134.5 -34.5t45.5 -84.5
q0 -107 -98 -107q-79 0 -164 142q-139 -9 -139 -381v-80h417v63q0 223 115 363.5t293 140.5q89 0 134.5 -34.5t45.5 -83.5q0 -107 -98 -107q-80 0 -164 141z" />
    <glyph glyph-name="uniFB03" unicode="ffi" horiz-adv-x="1810" 
d="M1288 0v66q100 8 119.5 34.5t19.5 69.5v631q0 50 -28 90h-389v-713q0 -54 32.5 -77.5t122.5 -34.5v-66h-487v66q105 8 125 36t20 68v717h-417v-709q0 -61 40 -82.5t148 -29.5v-66h-520v66l48 5q97 7 97 97v719h-194v94h194v51q0 216 125 355t303 139q83 0 131.5 -33
t48.5 -86q0 -107 -98 -107q-79 0 -164 142q-159 -8 -159 -371v-90h417v25q0 250 138 397t327 147q145 0 221 -45.5t76 -122.5q0 -41 -26 -74.5t-66 -33.5q-107 0 -142 130l-20 66h-53q-125 0 -196.5 -104t-71.5 -301v-84h342l247 16l15 -14v-803q0 -98 147 -114v-66h-473z
" />
    <glyph glyph-name="uniFB04" unicode="ffl" horiz-adv-x="1810" 
d="M1280 0v66l49 5q98 7 98 97v1192q0 43 -39 76.5t-108 33.5q-270 0 -270 -405v-84h243v-94h-243v-709q0 -54 32.5 -77.5t122.5 -34.5v-66h-487v66q105 8 125 36t20 68v717h-417v-709q0 -61 40 -82.5t148 -29.5v-66h-520v66l48 5q97 7 97 97v719h-194v94h194v51
q0 216 125 355t303 139q83 0 131.5 -33t48.5 -86q0 -107 -98 -107q-79 0 -164 142q-159 -8 -159 -371v-90h417v25q0 258 139.5 401t325.5 143q135 0 230 -41l81 39l15 -14v-1354q0 -101 145 -114v-66h-479z" />
    <glyph glyph-name="f_j.liga" unicode="fj" horiz-adv-x="1165" 
d="M997 59q0 -221 -115.5 -362t-287.5 -141q-84 0 -132 34t-48 84q0 109 94 109q39 0 72 -22.5t90 -120.5q75 0 108 93.5t33 293.5v774q0 52 -29 90h-376v-713q0 -54 32.5 -77.5t122.5 -34.5v-66h-487v66q105 8 125 36t20 68v717h-194v94h194v25q0 250 138 397t327 147
q145 0 221 -45.5t76 -122.5q0 -41 -26 -74.5t-66 -33.5q-107 0 -142 130l-20 66h-53q-125 0 -196.5 -104t-71.5 -301v-84h329l248 16l14 -14v-924z" />
    <glyph glyph-name=".notdef" horiz-adv-x="2048" 
d="M256 0v1536h1536v-1536h-1536zM385 129h1280v1280h-1280v-1280z" />
    <glyph glyph-name="glyph1" 
 />
    <glyph glyph-name="glyph2" horiz-adv-x="1176" 
 />
    <glyph glyph-name="space" unicode=" " horiz-adv-x="494" 
 />
    <glyph glyph-name="space" unicode="&#xa0;" horiz-adv-x="494" 
 />
    <glyph glyph-name="exclam" unicode="!" horiz-adv-x="678" 
d="M381 432h-78q-22 264 -55 557q-33 282 -33 332q0 57 36.5 96t92.5 39q54 0 90.5 -37.5t36.5 -97.5t-31 -334zM344 -20q-55 0 -96 38.5t-41 96.5q0 57 41 97t96 40q54 0 95.5 -39.5t41.5 -97.5q0 -59 -41 -97t-96 -38z" />
    <glyph glyph-name="quotedbl" unicode="&#x22;" horiz-adv-x="844" 
d="M641 967h-61q-19 123 -53 289q-27 129 -27 161q0 47 28.5 80t83.5 33q56 0 84.5 -33t28.5 -80q0 -29 -27 -160zM258 967h-59q-19 123 -53 289q-27 129 -27 161q0 47 28.5 80t83.5 33q54 0 82.5 -33t28.5 -80q0 -29 -27 -160z" />
    <glyph glyph-name="numbersign" unicode="#" horiz-adv-x="1317" 
d="M913 745l-71 -251h262v-123h-297l-107 -371h-110l106 371h-217l-106 -371h-113l109 371h-215v123h249l72 251h-262v123h297l104 363h111l-104 -363h217l104 363h113l-107 -363h215v-123h-250zM586 748l-74 -256h219l76 256h-221z" />
    <glyph glyph-name="dollar" unicode="$" horiz-adv-x="1249" 
d="M682 -16v-283h-84v281q-193 3 -317.5 93t-124.5 224q0 123 98 123q56 0 84.5 -26.5t28.5 -61.5q0 -28 -33 -124q-7 -21 -10 -34q64 -112 274 -117v506q-279 99 -342 187t-63 198q0 140 115 240t290 104v230h84v-230q182 -4 288.5 -88.5t106.5 -187.5q0 -109 -90 -109
q-48 0 -81.5 25t-33.5 57q0 42 17 110q4 16 6 27q-59 86 -213 86v-462l65 -25q237 -92 297 -175.5t60 -186.5q0 -153 -116 -260t-306 -121zM598 1214q-96 0 -161.5 -55t-65.5 -135q0 -87 42.5 -141.5t184.5 -108.5v440zM682 545v-484q233 14 233 224q0 174 -211 251
q-13 4 -22 9z" />
    <glyph glyph-name="percent" unicode="%" horiz-adv-x="1673" 
d="M449 713q-159 0 -249.5 101.5t-90.5 268.5q0 163 91.5 266t248.5 103t248 -102t91 -267q0 -171 -92.5 -270.5t-246.5 -99.5zM449 1378q-82 0 -126 -79.5t-44 -215.5q0 -138 44 -217.5t126 -79.5q80 0 124.5 78.5t44.5 218.5q0 138 -44 216.5t-125 78.5zM319 0h-137
l1176 1423h141zM1225 -33q-160 0 -249 101.5t-89 269.5q0 164 90.5 267.5t249.5 103.5q158 0 248 -105t90 -266q0 -173 -93.5 -272t-246.5 -99zM1227 635q-82 0 -127 -79t-45 -218q0 -135 43.5 -215t126.5 -80q81 0 126.5 78.5t45.5 216.5q0 136 -44 216.5t-126 80.5z" />
    <glyph glyph-name="ampersand" unicode="&#x26;" horiz-adv-x="1454" 
d="M1454 827q-115 -10 -166.5 -42.5t-87.5 -111.5q-135 -291 -192 -360q118 -134 193 -182.5t239 -58.5v-72h-414l-147 170q-189 -205 -394 -205q-176 0 -292.5 101.5t-116.5 277.5q0 133 71 232.5t238 205.5q-121 160 -146.5 223t-25.5 138q0 135 101.5 222t250.5 87
q146 0 229 -81.5t83 -196.5q0 -215 -281 -363q97 -130 263 -324q44 -52 93 -112q142 222 142 366q0 53 -174 86v72h534v-72zM553 870q195 108 195 283q0 211 -175 211q-77 0 -122 -59t-45 -125q0 -117 147 -310zM825 227q-55 71 -208 258q-136 166 -189 240
q-147 -102 -147 -305q0 -138 78 -227t206 -89q165 0 260 123z" />
    <glyph glyph-name="quotesingle" unicode="'" horiz-adv-x="440" 
d="M250 967h-62q-15 101 -52 289q-27 132 -27 161q0 113 112 113q56 0 84.5 -33t28.5 -80q0 -29 -27 -160z" />
    <glyph glyph-name="parenleft" unicode="(" horiz-adv-x="768" 
d="M700 -328q-276 34 -429.5 277.5t-153.5 646.5q0 404 150.5 651t432.5 285v-82q-391 -74 -391 -856q0 -770 391 -840v-82z" />
    <glyph glyph-name="parenright" unicode=")" horiz-adv-x="768" 
d="M68 -328v82q391 70 391 840q0 782 -391 856v82q283 -39 433 -286t150 -650t-153 -646t-430 -278z" />
    <glyph glyph-name="asterisk" unicode="*" horiz-adv-x="967" 
d="M514 1083q46 -64 150 -173q57 -61 57 -99q0 -26 -24 -46t-52 -20q-33 0 -49.5 23t-46.5 122q-32 102 -66 177q-37 -85 -83 -242q-23 -80 -76 -80q-28 0 -52 20t-24 46q0 38 58 99q103 109 149 173q-82 -8 -251 -48q-27 -7 -42 -7q-76 0 -76 72q0 69 76 69q15 0 42 -6
q186 -41 251 -47q-50 69 -149 174q-58 61 -58 99q0 25 24 45t52 20q53 0 76 -79q46 -156 83 -240q34 75 66 176q30 98 46 120.5t50 22.5q28 0 52 -20t24 -45q0 -38 -57 -99q-100 -105 -150 -174q57 5 251 47q27 6 42 6q76 0 76 -69q0 -72 -76 -72q-15 0 -42 7
q-175 41 -251 48z" />
    <glyph glyph-name="plus" unicode="+" horiz-adv-x="1317" 
d="M723 498v-453h-127v453h-453v125h453v450h127v-450h451v-125h-451z" />
    <glyph glyph-name="comma" unicode="," horiz-adv-x="553" 
d="M143 -354l-47 67q206 123 228 289h-52q-67 0 -105 35.5t-38 93.5q0 47 36.5 84t90.5 37q172 0 172 -217q0 -106 -78.5 -211t-206.5 -178z" />
    <glyph glyph-name="hyphen" unicode="-" horiz-adv-x="766" 
d="M86 465v158h596v-158h-596z" />
    <glyph glyph-name="hyphen" unicode="&#xad;" horiz-adv-x="766" 
d="M86 465v158h596v-158h-596z" />
    <glyph glyph-name="period" unicode="." horiz-adv-x="553" 
d="M279 -20q-57 0 -97.5 39.5t-40.5 95.5q0 55 40.5 96t97.5 41q56 0 96.5 -40.5t40.5 -96.5t-40.5 -95.5t-96.5 -39.5z" />
    <glyph glyph-name="slash" unicode="/" horiz-adv-x="961" 
d="M178 -424h-129l688 1948h133z" />
    <glyph glyph-name="zero.oldstyle" horiz-adv-x="1257" 
d="M629 -33q-248 0 -387.5 154.5t-139.5 415.5q0 254 141 411.5t386 157.5q246 0 385 -157.5t139 -411.5q0 -267 -141.5 -418.5t-382.5 -151.5zM631 1034q-145 0 -226 -132t-81 -365q0 -232 80.5 -366t224.5 -134q141 0 223 131.5t82 368.5q0 228 -80 362.5t-223 134.5z" />
    <glyph glyph-name="one.oldstyle" horiz-adv-x="881" 
d="M135 0v72q158 12 183.5 21t44 34t18.5 66v702h-250v84h55q198 0 316 127h84q-11 -215 -11 -309v-592q0 -62 41 -92t193 -41v-72h-674z" />
    <glyph glyph-name="two.oldstyle" horiz-adv-x="1145" 
d="M111 0v135q90 110 411 283q143 78 196.5 150t53.5 212q0 244 -240 244q-144 0 -208 -96q3 -15 8 -34q18 -81 18 -128q0 -42 -34 -70t-91 -28q-102 0 -102 127q0 115 122.5 213t303.5 98q201 0 323.5 -91t122.5 -247q0 -131 -67.5 -215.5t-317.5 -190.5
q-228 -97 -331 -186h768v-176h-936z" />
    <glyph glyph-name="three.oldstyle" horiz-adv-x="1130" 
d="M260 -199q83 -84 238 -84q135 0 221 93t86 260q0 282 -275 282h-131v115h86q139 0 199.5 75.5t60.5 229.5q0 252 -225 252q-126 0 -205 -94l8 -34q19 -76 19 -132q0 -38 -33.5 -67t-91.5 -29q-100 0 -100 125q0 115 123.5 214t318.5 99q201 0 305.5 -101t104.5 -227
q0 -256 -297 -342v-16q166 -17 260 -109t94 -245q0 -190 -153 -310.5t-386 -120.5q-180 0 -302 85.5t-122 201.5q0 56 27.5 91.5t75.5 35.5q57 0 90 -27.5t33 -68.5q0 -48 -29 -152z" />
    <glyph glyph-name="four.oldstyle" horiz-adv-x="1157" 
d="M881 90v-455h-193v455h-639v154l701 856h131v-879h202v-131h-202zM688 877l-538 -656h538v656z" />
    <glyph glyph-name="five.oldstyle" horiz-adv-x="1081" 
d="M256 -213q89 -70 219 -70q138 0 220.5 109t82.5 303q0 145 -79.5 235.5t-204.5 90.5q-176 0 -275 -129l-65 26l84 721h716v-178h-635l-53 -424q138 96 281 96q184 0 316 -114.5t132 -321.5q0 -215 -147.5 -355.5t-372.5 -140.5q-174 0 -295 82t-121 195q0 56 28 91.5
t75 35.5q57 0 90 -29.5t33 -70.5t-21 -118q-5 -19 -8 -34z" />
    <glyph glyph-name="six.oldstyle" horiz-adv-x="1159" 
d="M885 1454l18 -90l-90 -16q-56 -10 -180 -82.5t-203 -199.5t-106 -296q156 137 348 137q167 0 285 -129t118 -317q0 -207 -139 -350.5t-344 -143.5q-222 0 -356 160t-134 430q0 354 211.5 600.5t571.5 296.5zM319 670l-4 -123q0 -232 76 -366t203 -134q119 0 191.5 104.5
t72.5 282.5q0 165 -75 262t-199 97q-155 0 -265 -123z" />
    <glyph glyph-name="seven.oldstyle" horiz-adv-x="1028" 
d="M315 -365h-125l672 1270h-393q-149 0 -194 -10t-75.5 -54.5t-49.5 -158.5h-62v391h940v-65z" />
    <glyph glyph-name="eight.oldstyle" horiz-adv-x="1221" 
d="M416 725q-254 142 -254 348q0 158 136 270.5t335 112.5q193 0 312.5 -102.5t119.5 -261.5q0 -220 -260 -340q168 -73 239.5 -160t71.5 -215q0 -171 -148 -291.5t-376 -120.5q-221 0 -354.5 110.5t-133.5 286.5q0 243 312 363zM733 786q141 86 141 316q0 118 -71 196
t-187 78q-115 0 -185.5 -74t-70.5 -182q0 -110 88 -182t285 -152zM485 690q-186 -101 -186 -315q0 -147 87 -238.5t230 -91.5q138 0 220 79.5t82 205.5q0 106 -83 179t-350 181z" />
    <glyph glyph-name="nine.oldstyle" horiz-adv-x="1159" 
d="M270 -371l-16 90l88 17q127 25 285 155t209 412q-155 -135 -349 -135q-167 0 -285 128.5t-118 317.5q0 208 140 350t343 142q222 0 356 -160t134 -430q0 -351 -209.5 -592.5t-577.5 -294.5zM840 403l4 123q0 232 -76 366t-203 134q-118 0 -191 -103t-73 -282
q0 -162 74.5 -260t199.5 -98q158 0 265 120z" />
    <glyph glyph-name="colon" unicode=":" horiz-adv-x="641" 
d="M319 717q-57 0 -97 40.5t-40 96.5q0 54 40 94.5t97 40.5q58 0 98 -40t40 -95q0 -57 -40 -97t-98 -40zM319 -20q-56 0 -96.5 39.5t-40.5 95.5t40.5 96.5t96.5 40.5t97 -40.5t41 -96.5q0 -57 -40.5 -96t-97.5 -39z" />
    <glyph glyph-name="semicolon" unicode=";" horiz-adv-x="641" 
d="M319 717q-57 0 -97 40.5t-40 96.5q0 54 40 94.5t97 40.5q58 0 98 -40t40 -95q0 -57 -40 -97t-98 -40zM188 -354l-47 67q206 123 228 289h-52q-67 0 -105 35.5t-38 93.5q0 47 36.5 84t90.5 37q172 0 172 -217q0 -106 -78.5 -211t-206.5 -178z" />
    <glyph glyph-name="semicolon" unicode="&#x37e;" horiz-adv-x="641" 
d="M319 717q-57 0 -97 40.5t-40 96.5q0 54 40 94.5t97 40.5q58 0 98 -40t40 -95q0 -57 -40 -97t-98 -40zM188 -354l-47 67q206 123 228 289h-52q-67 0 -105 35.5t-38 93.5q0 47 36.5 84t90.5 37q172 0 172 -217q0 -106 -78.5 -211t-206.5 -178z" />
    <glyph glyph-name="less" unicode="&#x3c;" horiz-adv-x="1317" 
d="M193 504v112l925 482v-137l-770 -402l770 -399v-137z" />
    <glyph glyph-name="equal" unicode="=" horiz-adv-x="1317" 
d="M154 682v127h1009v-127h-1009zM154 311v125h1009v-125h-1009z" />
    <glyph glyph-name="greater" unicode="&#x3e;" horiz-adv-x="1317" 
d="M199 23v137l770 399l-770 402v137l925 -482v-112z" />
    <glyph glyph-name="question" unicode="?" horiz-adv-x="981" 
d="M436 598v-221h-92v379q344 23 344 307q0 309 -248 309q-81 0 -131 -39q23 -101 23 -137q0 -40 -35 -69t-90 -29q-101 0 -101 123q0 87 98.5 159t244.5 72q199 0 314.5 -116.5t115.5 -295.5q0 -182 -117 -298.5t-326 -143.5zM393 -20q-55 0 -96 38.5t-41 96.5q0 57 41 97
t96 40q54 0 95.5 -39.5t41.5 -97.5q0 -59 -41 -97t-96 -38z" />
    <glyph glyph-name="at" unicode="@" horiz-adv-x="1903" 
d="M1530 -119q-225 -194 -545 -194q-340 0 -578.5 215t-238.5 575q0 363 256 628t645 265q313 0 491.5 -185t178.5 -468q0 -243 -133.5 -412.5t-339.5 -169.5q-84 0 -143 43.5t-66 120.5h-8q-109 -160 -234 -160q-108 0 -169.5 72t-61.5 205q0 169 138.5 354.5t328.5 185.5
q131 0 153 -125h6l43 113h150l-191 -538q-18 -51 -18 -109q0 -98 92 -98q156 0 259.5 146t103.5 382q0 251 -159.5 406t-428.5 155q-293 0 -512 -221.5t-219 -572.5q0 -344 179 -537t484 -193q301 0 506 168zM1182 741q-25 156 -135 156q-115 0 -203 -164t-88 -334
q0 -176 88 -176q119 0 223 180z" />
    <glyph glyph-name="A" unicode="A" horiz-adv-x="1374" 
d="M829 0v72q183 11 183 57q0 22 -8 43l-119 320h-498q-98 -254 -98 -332q0 -74 205 -88v-72h-535v72q82 6 132 38.5t76 80.5t186 459l306 790h80l473 -1225q51 -133 209 -143v-72h-592zM635 1130l-211 -550h426z" />
    <glyph glyph-name="B" unicode="B" horiz-adv-x="1339" 
d="M94 0v72q120 9 157.5 34t37.5 87v1019q0 121 -187 136v71h656q178 0 294.5 -80.5t116.5 -228.5q0 -265 -335 -344v-8q413 -62 413 -373q0 -174 -139.5 -279.5t-339.5 -105.5h-674zM502 1335v-544h127q301 0 301 299q0 249 -266 249q-90 0 -162 -4zM502 707v-500
q0 -127 192 -127q307 0 307 342q0 132 -87 210.5t-238 78.5q-117 0 -174 -4z" />
    <glyph glyph-name="C" unicode="C" horiz-adv-x="1315" 
d="M1288 358q-156 -391 -565 -391q-271 0 -458 203.5t-187 525.5q0 330 192.5 542t483.5 212q195 0 352 -98l41 67h80l10 -506h-84q-97 453 -387 453q-204 0 -326.5 -174t-122.5 -481q0 -272 135 -451.5t345 -179.5q295 0 417 315z" />
    <glyph glyph-name="D" unicode="D" horiz-adv-x="1534" 
d="M94 0v72q121 0 158 28t37 88v1024q0 66 -42.5 95.5t-144.5 40.5v71h621q300 0 516.5 -186.5t216.5 -532.5q0 -324 -223.5 -512t-550.5 -188h-588zM502 1333v-1089q0 -91 52.5 -126.5t162.5 -35.5q242 0 368.5 160t126.5 460q0 282 -149.5 458.5t-392.5 176.5
q-104 0 -168 -4z" />
    <glyph glyph-name="E" unicode="E" horiz-adv-x="1337" 
d="M1264 0h-1178v72q134 11 168.5 34.5t34.5 86.5v1019q0 70 -53.5 99t-149.5 37v71h1098v-342h-74q-21 78 -79.5 152t-100.5 92t-205 18h-223v-563h160q113 0 163 50.5t70 181.5h74v-555h-74q-5 50 -28 117.5t-65.5 95.5t-139.5 28h-160v-426q0 -122 38.5 -154t202.5 -32
h87q140 0 189 22t108 121t92 193h71z" />
    <glyph glyph-name="F" unicode="F" horiz-adv-x="1227" 
d="M1124 1065q-18 77 -78.5 156.5t-102 98.5t-204.5 19h-237v-569h162q131 0 181 57.5t62 173.5h76v-557h-76q-12 115 -56 179.5t-187 64.5h-162v-487q0 -52 29 -84t169 -45v-72h-614v72q114 9 138.5 13.5t44.5 30.5t20 72v1024q0 70 -53.5 99t-149.5 37v71h1112v-354h-74z
" />
    <glyph glyph-name="G" unicode="G" horiz-adv-x="1485" 
d="M1470 567q-12 -2 -29 -4q-90 -14 -122.5 -39t-32.5 -92v-193q0 -113 4 -149q-268 -123 -522 -123q-292 0 -491 205t-199 526q0 326 203.5 539t509.5 213q201 0 366 -98l41 67h80l8 -495h-82q-107 442 -420 442q-210 0 -336 -174.5t-126 -482.5q0 -291 133.5 -472.5
t357.5 -181.5q159 0 264 84l8 96v179q0 82 -42 112t-193 41v74h620v-74z" />
    <glyph glyph-name="H" unicode="H" horiz-adv-x="1669" 
d="M979 0v72q116 10 137.5 19t36 31t14.5 66v506h-665v-493q0 -61 37 -90.5t147 -38.5v-72h-588v72q137 6 164 37t27 79v1024q0 120 -191 136v71h588v-71q-105 -9 -144.5 -32t-39.5 -93v-441h665v430q0 120 -188 136v71h588v-71q-106 -9 -146.5 -33t-40.5 -92v-1022
q0 -63 40.5 -91.5t146.5 -37.5v-72h-588z" />
    <glyph glyph-name="I" unicode="I" horiz-adv-x="799" 
d="M80 0v72q141 10 177 29t36 85v1028q0 67 -59.5 97t-153.5 37v71h639v-71q-135 -10 -174 -35.5t-39 -87.5v-1026q0 -52 34 -83.5t179 -43.5v-72h-639z" />
    <glyph glyph-name="J" unicode="J" horiz-adv-x="1061" 
d="M1006 1348q-126 -11 -161.5 -35.5t-35.5 -89.5v-840q0 -159 -119 -288.5t-313 -129.5q-166 0 -266.5 92t-100.5 246q0 77 38 125.5t99 48.5q63 0 98.5 -34.5t35.5 -88.5q0 -56 -76 -174q-18 -27 -27 -55v-2q63 -82 184 -82t176.5 93.5t55.5 328.5v749q0 121 -213 136v71
h625v-71z" />
    <glyph glyph-name="K" unicode="K" horiz-adv-x="1421" 
d="M1077 0q-215 338 -551 694h-24v-493q0 -53 30.5 -85t157.5 -44v-72h-588v72q115 10 136 19t36 33t15 64v1024q0 120 -187 136v71h588v-71q-106 -9 -147 -32t-41 -93v-490h18q215 181 351.5 340t136.5 225q0 41 -148 50v71h533v-71q-58 0 -120.5 -19t-84.5 -37t-142 -156
q-180 -205 -323 -341q152 -172 346 -415q137 -173 176.5 -212t87.5 -63.5t142 -32.5v-72h-398z" />
    <glyph glyph-name="L" unicode="L" horiz-adv-x="1237" 
d="M1206 0h-1108v72q124 10 157.5 32t33.5 89v1015q0 70 -55 101.5t-136 38.5v71h598v-71q-126 -10 -160 -37.5t-34 -91.5v-953q0 -128 36 -158t195 -30q108 0 169 12.5t85.5 32t84.5 117.5t93 182h72z" />
    <glyph glyph-name="M" unicode="M" horiz-adv-x="1898" 
d="M1180 0v72q103 9 136 15t59 37t26 77v1032h-17l-483 -1210h-49l-463 1234h-12v-847q0 -130 20.5 -207.5t104.5 -102.5t119 -28v-72h-574v72q154 13 194 71t40 256v725q0 212 -224 224v71h484l405 -1065l348 891q34 88 47 174h463v-71q-121 -10 -156.5 -35t-35.5 -90
v-1022q0 -64 40 -91.5t154 -37.5v-72h-626z" />
    <glyph glyph-name="N" unicode="N" horiz-adv-x="1571" 
d="M1554 1348q-146 -19 -188.5 -64t-42.5 -260v-1038h-86l-860 1161v-731q0 -132 16 -193t38.5 -83.5t87 -43t112.5 -24.5v-72h-584v72q119 17 176.5 54t57.5 277v701q0 207 -256 244v71h403l799 -1081v674q0 228 -56.5 272.5t-193.5 63.5v71h577v-71z" />
    <glyph glyph-name="O" unicode="O" horiz-adv-x="1524" 
d="M762 -35q-293 0 -487.5 210.5t-194.5 533.5q0 326 197.5 534.5t484.5 208.5q292 0 487 -208t195 -535q0 -328 -197.5 -536t-484.5 -208zM762 1364q-209 0 -324.5 -176.5t-115.5 -478.5q0 -304 116 -479t324 -175q210 0 325 175.5t115 478.5q0 304 -116 479.5t-324 175.5z
" />
    <glyph glyph-name="P" unicode="P" horiz-adv-x="1249" 
d="M502 623v-430q0 -71 36 -92t169 -29v-72h-609v72q124 10 157.5 32t33.5 89v1024q0 60 -30.5 89.5t-168.5 41.5v71h649q197 0 321 -96.5t124 -253.5q0 -206 -149.5 -326t-375.5 -120h-157zM502 1337v-626h100q168 0 251 86t83 223q0 317 -295 317h-139z" />
    <glyph glyph-name="Q" unicode="Q" horiz-adv-x="1524" 
d="M977 4q3 -114 80.5 -199.5t165.5 -85.5q99 0 163 12q16 3 31 5v-78q-141 -43 -299 -43q-156 0 -259 92t-120 260q-294 13 -476.5 222.5t-182.5 519.5q0 326 197.5 534.5t484.5 208.5q292 0 487 -208t195 -535q0 -251 -123.5 -437.5t-343.5 -267.5zM762 1364
q-209 0 -324.5 -176.5t-115.5 -478.5q0 -304 116 -479t324 -175q210 0 325 175.5t115 478.5q0 304 -116 479.5t-324 175.5z" />
    <glyph glyph-name="R" unicode="R" horiz-adv-x="1438" 
d="M1098 0q-219 345 -453 643h-143v-450q0 -71 33.5 -90.5t162.5 -30.5v-72h-600v72q124 10 157.5 32t33.5 89v1026q0 65 -36 92t-155 37v71h656q205 0 325.5 -88.5t120.5 -249.5q0 -282 -346 -383q71 -90 281 -376q109 -149 138.5 -172.5t68 -47.5t139.5 -30v-72h-383z
M502 1337v-608h131q144 0 232.5 92t88.5 238q0 132 -75.5 205t-206.5 73h-170z" />
    <glyph glyph-name="S" unicode="S" horiz-adv-x="1149" 
d="M231 72l-43 -72h-79l-15 485h80q122 -428 430 -428q268 0 268 250q0 75 -36 137t-85.5 95t-148.5 70q-197 72 -281 119.5t-136 132.5t-52 204q0 161 126.5 273t303.5 112q156 0 318 -98l41 67h79l9 -471h-82q-65 241 -154 328.5t-223 87.5q-97 0 -163 -61.5t-66 -149.5
q0 -104 56.5 -172t253.5 -139q253 -92 345 -186.5t92 -252.5q0 -189 -138.5 -310.5t-344.5 -121.5q-185 0 -355 101z" />
    <glyph glyph-name="T" unicode="T" horiz-adv-x="1268" 
d="M1182 1034q-22 82 -80.5 172t-101 112.5t-201.5 22.5h-60v-1134q0 -56 36 -88t194 -47v-72h-670v72q147 10 187 33t40 92v1144h-57q-145 0 -187.5 -14.5t-105 -105t-90.5 -187.5h-72v385h1237v-385h-69z" />
    <glyph glyph-name="U" unicode="U" horiz-adv-x="1548" 
d="M1534 1348q-151 -12 -191 -67.5t-40 -248.5v-616q0 -210 -153.5 -330.5t-358.5 -120.5q-242 0 -386.5 118t-144.5 292v837q0 117 -186 136v71h592v-71q-120 -10 -155.5 -35t-35.5 -90v-785q0 -360 352 -360q184 0 280.5 103t96.5 255v584q0 212 -52.5 262t-199.5 66v71
h582v-71z" />
    <glyph glyph-name="V" unicode="V" horiz-adv-x="1366" 
d="M1407 1348q-145 -15 -193.5 -111t-502.5 -1255h-82l-464 1238q-51 117 -204 128v71h588v-71q-178 -12 -178 -54q0 -29 366 -999q127 306 226.5 565t113 308.5t13.5 91.5q0 68 -211 88v71h528v-71z" />
    <glyph glyph-name="W" unicode="W" horiz-adv-x="1999" 
d="M2028 1348q-48 -4 -90.5 -23.5t-70 -49t-35.5 -49.5t-88 -281l-296 -963h-92l-359 1091l-372 -1091h-88l-352 1240q-34 111 -189 126v71h579v-71q-184 -12 -184 -52q0 -24 20.5 -99.5t243.5 -850.5l355 1053h98l356 -1075q246 836 246 936q0 71 -197 88v71h515v-71z" />
    <glyph glyph-name="X" unicode="X" horiz-adv-x="1454" 
d="M793 0v72q184 7 184 57q0 54 -287 481q-311 -409 -311 -471q0 -63 164 -67v-72h-531v72q111 9 166 43.5t172 192.5l285 384q-372 548 -418.5 596t-189.5 60v71h657v-71q-182 -12 -182 -54q0 -39 84 -168l41 -65q57 -92 141 -215q276 373 276 436q0 56 -163 66v71h528v-71
q-136 -7 -200 -70.5t-388 -507.5l176 -256q207 -308 237 -342.5t74 -66.5t148 -33v-72h-663z" />
    <glyph glyph-name="Y" unicode="Y" horiz-adv-x="1260" 
d="M1315 1348q-57 -6 -108.5 -36.5t-119.5 -125.5t-193.5 -310.5t-145 -262t-19.5 -134.5v-270q0 -57 38.5 -90t188.5 -47v-72h-663v72q147 10 185 32t38 95v344q0 34 -169 350.5t-223.5 381t-166.5 73.5v71h604v-71q-186 -9 -186 -48q0 -28 311 -591q324 520 324 565
q0 30 -35.5 47.5t-153.5 26.5v71h494v-71z" />
    <glyph glyph-name="Z" unicode="Z" horiz-adv-x="1233" 
d="M1167 0h-1140v35l893 1304h-326q-156 0 -210 -25t-125 -117t-105 -179h-70l43 401h1063v-35l-893 -1304h338q152 0 218.5 16t103 51t96 123.5t92.5 171.5h69z" />
    <glyph glyph-name="bracketleft" unicode="[" horiz-adv-x="768" 
d="M168 -309v1829h532v-93h-354v-1644h354v-92h-532z" />
    <glyph glyph-name="backslash" unicode="\" horiz-adv-x="961" 
d="M780 -424l-690 1948h131l690 -1948h-131z" />
    <glyph glyph-name="bracketright" unicode="]" horiz-adv-x="768" 
d="M68 -309v92h354v1644h-354v93h532v-1829h-532z" />
    <glyph glyph-name="asciicircum" unicode="^" horiz-adv-x="1317" 
d="M981 797l-322 524l-323 -524h-146l412 659h115l409 -659h-145z" />
    <glyph glyph-name="underscore" unicode="_" horiz-adv-x="1317" 
d="M-4 -283v103h1327v-103h-1327z" />
    <glyph glyph-name="grave" unicode="`" horiz-adv-x="1024" 
d="M700 1110q-105 85 -252 197q-81 61 -100.5 87t-19.5 66q0 31 24 54.5t58 23.5q74 0 127 -88q88 -142 202 -307z" />
    <glyph glyph-name="a" unicode="a" horiz-adv-x="1032" 
d="M1006 18q-104 -38 -162 -38q-157 0 -185 143h-6q-133 -148 -319 -148q-111 0 -182.5 67.5t-71.5 178.5q0 124 68 189.5t234 120.5q237 78 273 100v98q0 86 -47.5 148.5t-140.5 62.5q-96 0 -141 -47q0 -25 9 -59t9 -72q0 -39 -34.5 -65.5t-84.5 -26.5q-96 0 -96 114
q0 89 112 159.5t238 70.5q205 0 285 -80.5t80 -245.5l-6 -493q0 -54 25.5 -80t46 -29.5t96.5 -3.5v-64zM657 547q-218 -64 -297 -132t-79 -169q0 -160 153 -160q118 0 217 115z" />
    <glyph glyph-name="b" unicode="b" horiz-adv-x="1147" 
d="M301 61l-74 -114l-61 14q8 219 8 379v977q0 69 -36 101.5t-154 41.5v66l362 22l14 -14v-651l7 -2q125 133 280 133q183 0 304.5 -145.5t121.5 -374.5q0 -222 -139 -373.5t-326 -151.5q-150 0 -307 92zM360 801v-576q0 -33 62.5 -106.5t169.5 -73.5q121 0 196.5 118
t75.5 324q0 186 -75.5 300t-210.5 114q-128 0 -218 -100z" />
    <glyph glyph-name="c" unicode="c" horiz-adv-x="930" 
d="M926 229q-63 -114 -171.5 -185t-226.5 -71q-214 0 -335 142.5t-121 382.5q0 212 132.5 364t336.5 152q151 0 239 -71.5t88 -186.5q0 -127 -102 -127q-58 0 -91.5 29t-33.5 67q0 40 12 90q12 51 15 72q-29 51 -131 51q-113 0 -185.5 -111.5t-72.5 -320.5
q0 -189 83.5 -305.5t215.5 -116.5q171 0 282 188z" />
    <glyph glyph-name="d" unicode="d" horiz-adv-x="1176" 
d="M809 -4l-16 14v92l-9 2q-126 -133 -284 -133q-179 0 -303.5 148.5t-124.5 376.5q0 220 138 369t331 149q142 0 250 -64v344q0 63 -34.5 111t-197.5 57v64l404 22l16 -14v-1331q0 -45 23.5 -74.5t44.5 -34t106 -10.5v-66zM791 768q0 29 -60 99.5t-170 70.5
q-123 0 -201.5 -122.5t-78.5 -332.5q0 -179 78 -291t210 -112q126 0 222 110v578z" />
    <glyph glyph-name="e" unicode="e" horiz-adv-x="989" 
d="M948 231q-138 -258 -405 -258q-222 0 -346.5 145.5t-124.5 383.5q0 210 126.5 361t323.5 151q195 0 298.5 -113.5t103.5 -310.5v-66h-654q0 -210 85.5 -325t244.5 -115q88 0 150.5 39t128.5 151zM727 608q0 330 -207 330q-104 0 -174 -88t-76 -242h457z" />
    <glyph glyph-name="f" unicode="f" horiz-adv-x="666" 
d="M545 1464q-139 -9 -139 -381v-102h253v-94h-253v-709q0 -61 40 -82.5t148 -29.5v-66h-520v66l48 5q97 7 97 97v719h-194v94h194v63q0 223 115 363.5t293 140.5q89 0 134.5 -34.5t45.5 -83.5q0 -107 -98 -107q-80 0 -164 141z" />
    <glyph glyph-name="g" unicode="g" horiz-adv-x="1042" 
d="M326 39v12q-174 52 -174 174q0 113 149 174v17q-201 92 -201 278q0 143 105.5 231.5t265.5 88.5q76 0 180 -33h344v-94h-231v-6q74 -88 74 -199q0 -129 -107.5 -219t-245.5 -90h-120q-72 -30 -72 -86q0 -28 12 -46.5t43.5 -31.5t131.5 -18l214 -10q170 -9 240 -96.5
t70 -186.5q0 -156 -136 -249t-381 -93q-444 0 -444 258q0 93 73 155t210 70zM467 942q-172 0 -172 -250q0 -110 48.5 -180t125.5 -70q84 0 131 68t47 176q0 117 -47 186.5t-133 69.5zM418 14q-50 0 -125.5 -46t-75.5 -150q0 -83 79 -135t226 -52q318 0 318 230
q0 59 -33.5 97t-119.5 47t-269 9z" />
    <glyph glyph-name="h" unicode="h" horiz-adv-x="1192" 
d="M659 0v66q28 3 52 5q100 6 100 97v508q0 99 -47.5 159t-122.5 60q-171 0 -256 -150v-567q0 -101 152 -112v-66h-484v66l49 5q97 7 97 97v1149q0 39 -19.5 76.5t-49.5 48.5t-124 18v66l365 22l14 -14v-688h4q109 110 181 139t155 29q274 0 274 -326v-512q0 -99 144 -110
v-66h-484z" />
    <glyph glyph-name="i" unicode="i" horiz-adv-x="600" 
d="M295 1245q-50 0 -87.5 39.5t-37.5 93.5q0 55 37 96.5t88 41.5q56 0 93.5 -39t37.5 -91q0 -57 -38 -99t-93 -42zM74 0v66l48 5q97 7 97 97v608q0 122 -176 135v66l348 20l15 -14v-803q0 -57 35.5 -81t109.5 -33v-66h-477z" />
    <glyph glyph-name="j" unicode="j" horiz-adv-x="598" 
d="M315 1245q-49 0 -87 40t-38 93q0 56 38 97t87 41q56 0 93.5 -38t37.5 -89q0 -59 -39 -101.5t-92 -42.5zM430 59q0 -222 -114.5 -362.5t-286.5 -140.5q-83 0 -132 33.5t-49 84.5q0 109 95 109q76 0 131 -93q15 -26 30 -50q76 0 109 93.5t33 293.5v741q0 45 -35.5 89.5
t-190.5 55.5v64l398 20l12 -14v-924z" />
    <glyph glyph-name="k" unicode="k" horiz-adv-x="1098" 
d="M819 0q-277 397 -352 494l-82 -78v-234q0 -58 34 -82.5t118 -33.5v-66h-484v66l49 5q97 7 97 97v1147q0 47 -31.5 94.5t-161.5 50.5v66l365 22l14 -14v-1045l292 291q56 58 56 84q0 41 -127 58v63h434v-61q-110 -32 -174 -75.5t-200 -176.5q-30 -30 -64 -62
q103 -124 264 -348q95 -133 131.5 -162t118.5 -34v-66h-297z" />
    <glyph glyph-name="l" unicode="l" horiz-adv-x="586" 
d="M53 0v66l50 5q98 6 98 97v1143q0 47 -31.5 93t-167.5 56v66l371 22l14 -14v-1354q0 -102 148 -114v-66h-482z" />
    <glyph glyph-name="m" unicode="m" horiz-adv-x="1804" 
d="M1280 0v66l47 5q96 7 96 97v510q0 101 -46.5 159t-119.5 58q-162 0 -249 -147v-570q0 -101 143 -112v-66h-471v66l45 5q94 8 94 97v510q0 101 -46.5 159t-119.5 58q-160 0 -250 -150v-565q0 -102 148 -114v-66h-479v66l48 5q97 7 97 97v612q0 119 -160 131v66l330 20
l14 -14v-139h7q30 29 60 60q109 110 269 110q187 0 264 -176q112 113 184.5 144.5t155.5 31.5q131 0 201 -87t70 -247v-502q0 -48 27 -75.5t122 -36.5v-66h-481z" />
    <glyph glyph-name="n" unicode="n" horiz-adv-x="1210" 
d="M678 0v66l51 5q100 6 100 97v508q0 100 -47.5 159.5t-122.5 59.5q-171 0 -256 -150v-567q0 -100 152 -112v-66h-483v66l48 5q97 7 97 97v608q0 129 -156 135v66l328 20l14 -14v-137h5q109 112 179.5 140t151.5 28q279 0 279 -326v-512q0 -99 143 -110v-66h-483z" />
    <glyph glyph-name="o" unicode="o" horiz-adv-x="1104" 
d="M543 -31q-198 0 -335.5 146t-137.5 374q0 232 134.5 378.5t352.5 146.5q212 0 343.5 -142.5t131.5 -367.5q0 -234 -134 -384.5t-355 -150.5zM555 938q-135 0 -207 -117.5t-72 -314.5q0 -209 72.5 -335t206.5 -126q128 0 199 125t71 332q0 202 -69.5 319t-200.5 117z" />
    <glyph glyph-name="p" unicode="p" horiz-adv-x="1169" 
d="M393 41h-8v-297q0 -51 33.5 -80t165.5 -41v-67h-551v67q119 5 142.5 34t23.5 75v1048q0 124 -166 131v66l336 20l14 -12v-111l8 -2q130 142 283 142q177 0 300.5 -146.5t123.5 -371.5t-138.5 -374t-326.5 -149q-155 0 -240 68zM385 793v-584q0 -29 62 -95.5t167 -66.5
q121 0 198 117t77 323q0 183 -75.5 298.5t-213.5 115.5q-123 0 -215 -108z" />
    <glyph glyph-name="q" unicode="q" horiz-adv-x="1147" 
d="M621 -444v67q122 6 146 34t24 75v364l-7 2q-122 -125 -276 -125q-186 0 -311 148t-125 383q0 214 142 362t331 148q151 0 266 -77q26 -18 43 -28l84 131l57 -8q-16 -281 -16 -370v-914q0 -54 29.5 -82.5t144.5 -42.5v-67h-532zM791 772q0 29 -60.5 97.5t-173.5 68.5
q-120 0 -198 -123.5t-78 -331.5q0 -181 78 -291t221 -110q117 0 211 100v590z" />
    <glyph glyph-name="r" unicode="r" horiz-adv-x="840" 
d="M621 897q-132 -7 -218 -145v-574q0 -54 34.5 -79t154.5 -33v-66h-520v66l48 5q97 7 97 97v608q0 130 -156 135v66l328 20l14 -14v-137h5q129 164 276 164q63 0 103 -40.5t40 -111.5q0 -57 -27.5 -93t-74.5 -36q-52 0 -83.5 26.5t-31.5 65.5q0 30 11 76z" />
    <glyph glyph-name="s" unicode="s" horiz-adv-x="885" 
d="M178 61l-20 -63h-74l-10 342h67q30 -118 116 -203.5t198 -85.5q200 0 200 168q0 69 -49.5 114t-204.5 91q-303 89 -303 301q0 124 92.5 206.5t239.5 82.5q122 0 217 -51l23 53h71l17 -318h-70q-55 240 -260 240q-79 0 -127.5 -40.5t-48.5 -100.5q0 -77 46.5 -114
t203.5 -89q177 -57 242 -129.5t65 -179.5q0 -137 -104 -224.5t-265 -87.5q-146 0 -262 88z" />
    <glyph glyph-name="t" unicode="t" horiz-adv-x="707" 
d="M682 43q-144 -63 -266 -63q-226 0 -226 237v670h-178v94h183v307h182v-307h282v-94h-280v-551q0 -137 31 -186.5t129 -49.5q85 0 143 17v-74z" />
    <glyph glyph-name="u" unicode="u" horiz-adv-x="1178" 
d="M809 -4l-16 14v125h-7q-143 -160 -327 -160q-269 0 -269 334v471q0 123 -155 129v66l330 22l14 -14v-684q0 -100 46 -157.5t118 -57.5q157 0 248 145v559q0 42 -26 75.5t-53.5 37.5t-107.5 8v66l359 22l16 -14v-782q0 -118 149 -117v-66z" />
    <glyph glyph-name="v" unicode="v" horiz-adv-x="1018" 
d="M1047 926q-58 -13 -92.5 -39.5t-51 -55.5t-117.5 -265l-146 -341q-45 -103 -85 -233h-80q-309 769 -349.5 839.5t-143.5 88.5v65h454v-70q-119 -7 -119 -43l252 -624l170 407q68 163 68 191q0 53 -137 76v63h377v-59z" />
    <glyph glyph-name="w" unicode="w" horiz-adv-x="1509" 
d="M1540 922q-69 -10 -108 -46.5t-57 -94t-126 -373t-133 -414.5h-86l-264 725l-268 -725h-82l-268 807q-30 95 -152 119v65h438v-70q-108 -5 -108 -43q0 -18 188 -616l252 711h96l256 -701q180 540 180 586q0 30 -47.5 50t-85.5 20v63h375v-63z" />
    <glyph glyph-name="x" unicode="x" horiz-adv-x="1034" 
d="M569 0v66q109 11 109 36q0 33 -205 324q-211 -271 -211 -305q0 -44 115 -58v-63h-365v61q113 29 187.5 121.5t228.5 298.5l-198 286q-78 113 -113.5 133t-87.5 20v65h428v-65q-95 0 -95 -23q0 -27 191 -299q49 66 109.5 152.5t64.5 97.5t4 22q0 31 -69 46q-17 3 -29 6v63
h362v-61q-102 -26 -148.5 -67.5t-248.5 -311.5l278 -402q50 -72 146 -77v-66h-453z" />
    <glyph glyph-name="y" unicode="y" horiz-adv-x="1008" 
d="M1038 924q-34 -5 -78 -35t-58 -53.5t-89 -202.5l-138 -330q-141 -341 -210 -478.5t-146 -203t-155 -65.5q-73 0 -119.5 34.5t-46.5 87.5q0 48 25.5 80.5t68.5 32.5q86 0 156 -127q44 23 112.5 129t108.5 211l-336 820q-33 73 -151 96v65h448v-70q-113 -7 -113 -43
q0 -2 5 -14l10 -31l237 -583l201 491q4 12 11 27q24 54 24 84q0 51 -133 76v63h366v-61z" />
    <glyph glyph-name="z" unicode="z" horiz-adv-x="909" 
d="M55 0v53l557 852h-137q-203 0 -248.5 -39t-72.5 -184h-62v303h756v-41l-567 -862l90 -2q290 -6 328 22.5t94 245.5h61v-348h-799z" />
    <glyph glyph-name="braceleft" unicode="{" horiz-adv-x="881" 
d="M813 -334q-255 0 -350.5 85t-95.5 276q0 63 8 129t8 125q0 123 -67 183t-244 73v129q176 13 243.5 72.5t67.5 183.5q0 58 -8 126q-8 67 -8 130q0 186 96.5 272t349.5 86v-82q-153 -3 -205.5 -55.5t-52.5 -161.5v-233q0 -162 -70 -255.5t-272 -132.5v-30
q202 -39 272 -131.5t70 -255.5v-234q0 -103 49 -156.5t209 -62.5v-80z" />
    <glyph glyph-name="bar" unicode="|" horiz-adv-x="768" 
d="M322 -424v1948h127v-1948h-127z" />
    <glyph glyph-name="braceright" unicode="}" horiz-adv-x="881" 
d="M809 537q-177 -13 -243 -72.5t-66 -183.5q0 -59 7 -125t7 -129q0 -189 -95.5 -275t-350.5 -86v80q160 9 209 62.5t49 156.5v234q0 163 70 255.5t274 131.5v30q-204 39 -274 132.5t-70 255.5v233q0 108 -52.5 160.5t-205.5 56.5v82q253 0 349.5 -86.5t96.5 -271.5
q0 -63 -7 -130q-7 -68 -7 -126q0 -125 66.5 -184t242.5 -72v-129z" />
    <glyph glyph-name="asciitilde" unicode="~" horiz-adv-x="1317" 
d="M1188 715q-46 -120 -140 -207.5t-202 -87.5q-104 0 -242 68q-138 67 -201 67q-54 0 -96.5 -33.5t-97.5 -140.5l-80 31q47 121 141.5 207t200.5 86q117 0 244 -68q126 -68 198 -68q53 0 95.5 32t101.5 144z" />
    <glyph glyph-name="Adieresis" unicode="&#xc4;" horiz-adv-x="1374" 
d="M829 0v72q183 11 183 57q0 22 -8 43l-119 320h-498q-98 -254 -98 -332q0 -74 205 -88v-72h-535v72q82 6 132 38.5t76 80.5t186 459l306 790h80l473 -1225q51 -133 209 -143v-72h-592zM635 1130l-211 -550h426zM919 1597q-49 0 -84 35.5t-35 87.5q0 51 35 86.5t84 35.5
t83 -35.5t34 -86.5q0 -52 -34 -87.5t-83 -35.5zM469 1597q-49 0 -83 35.5t-34 87.5q0 51 34 86.5t83 35.5t84 -35.5t35 -86.5q0 -52 -35 -87.5t-84 -35.5z" />
    <glyph glyph-name="Aring" unicode="&#xc5;" horiz-adv-x="1374" 
d="M829 0v72q183 11 183 57q0 22 -8 43l-119 320h-498q-98 -254 -98 -332q0 -74 205 -88v-72h-535v72q82 6 132 38.5t76 80.5t186 459l306 790h80l473 -1225q51 -133 209 -143v-72h-592zM635 1130l-211 -550h426zM696 1421q-117 0 -187.5 60.5t-70.5 162.5q0 97 74 159.5
t184 62.5q114 0 186 -61t72 -161q0 -98 -71 -160.5t-187 -62.5zM696 1802q-131 0 -131 -158q0 -69 33 -114t98 -45q131 0 131 159q0 72 -35 115t-96 43z" />
    <glyph glyph-name="Ccedilla" unicode="&#xc7;" horiz-adv-x="1315" 
d="M1288 358q-156 -391 -565 -391q-271 0 -458 203.5t-187 525.5q0 330 192.5 542t483.5 212q195 0 352 -98l41 67h80l10 -506h-84q-97 453 -387 453q-204 0 -326.5 -174t-122.5 -481q0 -272 135 -451.5t345 -179.5q295 0 417 315zM579 -444v71q171 0 212.5 23.5t41.5 66.5
q0 76 -164 76v223h78v-114q232 0 232 -150q0 -196 -400 -196z" />
    <glyph glyph-name="Eacute" unicode="&#xc9;" horiz-adv-x="1337" 
d="M1264 0h-1178v72q134 11 168.5 34.5t34.5 86.5v1019q0 70 -53.5 99t-149.5 37v71h1098v-342h-74q-21 78 -79.5 152t-100.5 92t-205 18h-223v-563h160q113 0 163 50.5t70 181.5h74v-555h-74q-5 50 -28 117.5t-65.5 95.5t-139.5 28h-160v-426q0 -122 38.5 -154t202.5 -32
h87q140 0 189 22t108 121t92 193h71zM525 1507l-31 39q166 158 262 258q60 64 115 64q39 0 65.5 -22.5t26.5 -57.5q0 -48 -35 -76.5t-193 -102.5q-94 -44 -210 -102z" />
    <glyph glyph-name="Ntilde" unicode="&#xd1;" horiz-adv-x="1571" 
d="M1554 1348q-146 -19 -188.5 -64t-42.5 -260v-1038h-86l-860 1161v-731q0 -132 16 -193t38.5 -83.5t87 -43t112.5 -24.5v-72h-584v72q119 17 176.5 54t57.5 277v701q0 207 -256 244v71h403l799 -1081v674q0 228 -56.5 272.5t-193.5 63.5v71h577v-71zM1194 1835
q-31 -102 -102 -171.5t-154 -69.5q-84 0 -175 51t-134 51q-36 0 -61 -16t-81 -119l-59 25q93 241 250 241q80 0 171 -51t128 -51q96 0 130 78q11 25 26 57z" />
    <glyph glyph-name="Odieresis" unicode="&#xd6;" horiz-adv-x="1524" 
d="M762 -35q-293 0 -487.5 210.5t-194.5 533.5q0 326 197.5 534.5t484.5 208.5q292 0 487 -208t195 -535q0 -328 -197.5 -536t-484.5 -208zM762 1364q-209 0 -324.5 -176.5t-115.5 -478.5q0 -304 116 -479t324 -175q210 0 325 175.5t115 478.5q0 304 -116 479.5t-324 175.5z
M987 1608q-49 0 -84 35.5t-35 87.5q0 51 35 86.5t84 35.5t83 -35.5t34 -86.5q0 -52 -34 -87.5t-83 -35.5zM537 1608q-49 0 -83 35.5t-34 87.5q0 51 34 86.5t83 35.5t84 -35.5t35 -86.5q0 -52 -35 -87.5t-84 -35.5z" />
    <glyph glyph-name="Udieresis" unicode="&#xdc;" horiz-adv-x="1548" 
d="M1534 1348q-151 -12 -191 -67.5t-40 -248.5v-616q0 -210 -153.5 -330.5t-358.5 -120.5q-242 0 -386.5 118t-144.5 292v837q0 117 -186 136v71h592v-71q-120 -10 -155.5 -35t-35.5 -90v-785q0 -360 352 -360q184 0 280.5 103t96.5 255v584q0 212 -52.5 262t-199.5 66v71
h582v-71zM1040 1608q-49 0 -84 35.5t-35 87.5q0 51 35 86.5t84 35.5t83 -35.5t34 -86.5q0 -52 -34 -87.5t-83 -35.5zM590 1608q-49 0 -83 35.5t-34 87.5q0 51 34 86.5t83 35.5t84 -35.5t35 -86.5q0 -52 -35 -87.5t-84 -35.5z" />
    <glyph glyph-name="aacute" unicode="&#xe1;" horiz-adv-x="1032" 
d="M1006 18q-104 -38 -162 -38q-157 0 -185 143h-6q-133 -148 -319 -148q-111 0 -182.5 67.5t-71.5 178.5q0 124 68 189.5t234 120.5q237 78 273 100v98q0 86 -47.5 148.5t-140.5 62.5q-96 0 -141 -47q0 -25 9 -59t9 -72q0 -39 -34.5 -65.5t-84.5 -26.5q-96 0 -96 114
q0 89 112 159.5t238 70.5q205 0 285 -80.5t80 -245.5l-6 -493q0 -54 25.5 -80t46 -29.5t96.5 -3.5v-64zM657 547q-218 -64 -297 -132t-79 -169q0 -160 153 -160q118 0 217 115zM367 1110l-39 33q114 165 202 307q53 88 127 88q34 0 58 -23.5t24 -54.5q0 -56 -43 -91
t-221 -174q-47 -36 -108 -85z" />
    <glyph glyph-name="agrave" unicode="&#xe0;" horiz-adv-x="1032" 
d="M1006 18q-104 -38 -162 -38q-157 0 -185 143h-6q-133 -148 -319 -148q-111 0 -182.5 67.5t-71.5 178.5q0 124 68 189.5t234 120.5q237 78 273 100v98q0 86 -47.5 148.5t-140.5 62.5q-96 0 -141 -47q0 -25 9 -59t9 -72q0 -39 -34.5 -65.5t-84.5 -26.5q-96 0 -96 114
q0 89 112 159.5t238 70.5q205 0 285 -80.5t80 -245.5l-6 -493q0 -54 25.5 -80t46 -29.5t96.5 -3.5v-64zM657 547q-218 -64 -297 -132t-79 -169q0 -160 153 -160q118 0 217 115zM656 1110q-105 85 -252 197q-81 61 -100.5 87t-19.5 66q0 31 24 54.5t58 23.5q74 0 127 -88
q88 -142 202 -307z" />
    <glyph glyph-name="acircumflex" unicode="&#xe2;" horiz-adv-x="1032" 
d="M1006 18q-104 -38 -162 -38q-157 0 -185 143h-6q-133 -148 -319 -148q-111 0 -182.5 67.5t-71.5 178.5q0 124 68 189.5t234 120.5q237 78 273 100v98q0 86 -47.5 148.5t-140.5 62.5q-96 0 -141 -47q0 -25 9 -59t9 -72q0 -39 -34.5 -65.5t-84.5 -26.5q-96 0 -96 114
q0 89 112 159.5t238 70.5q205 0 285 -80.5t80 -245.5l-6 -493q0 -54 25.5 -80t46 -29.5t96.5 -3.5v-64zM657 547q-218 -64 -297 -132t-79 -169q0 -160 153 -160q118 0 217 115zM769 1124l-278 273l-274 -273l-50 33l238 346q19 27 34.5 36t55.5 9q55 0 84 -41l240 -350z" />
    <glyph glyph-name="adieresis" unicode="&#xe4;" horiz-adv-x="1032" 
d="M1006 18q-104 -38 -162 -38q-157 0 -185 143h-6q-133 -148 -319 -148q-111 0 -182.5 67.5t-71.5 178.5q0 124 68 189.5t234 120.5q237 78 273 100v98q0 86 -47.5 148.5t-140.5 62.5q-96 0 -141 -47q0 -25 9 -59t9 -72q0 -39 -34.5 -65.5t-84.5 -26.5q-96 0 -96 114
q0 89 112 159.5t238 70.5q205 0 285 -80.5t80 -245.5l-6 -493q0 -54 25.5 -80t46 -29.5t96.5 -3.5v-64zM657 547q-218 -64 -297 -132t-79 -169q0 -160 153 -160q118 0 217 115zM710 1241q-50 0 -84.5 36.5t-34.5 86.5q0 49 34.5 86t84.5 37q51 0 85 -37t34 -86t-34.5 -86
t-84.5 -37zM280 1241q-50 0 -84.5 37t-34.5 86t34 86t85 37q50 0 84.5 -37t34.5 -86q0 -50 -34.5 -86.5t-84.5 -36.5z" />
    <glyph glyph-name="atilde" unicode="&#xe3;" horiz-adv-x="1032" 
d="M1006 18q-104 -38 -162 -38q-157 0 -185 143h-6q-133 -148 -319 -148q-111 0 -182.5 67.5t-71.5 178.5q0 124 68 189.5t234 120.5q237 78 273 100v98q0 86 -47.5 148.5t-140.5 62.5q-96 0 -141 -47q0 -25 9 -59t9 -72q0 -39 -34.5 -65.5t-84.5 -26.5q-96 0 -96 114
q0 89 112 159.5t238 70.5q205 0 285 -80.5t80 -245.5l-6 -493q0 -54 25.5 -80t46 -29.5t96.5 -3.5v-64zM657 547q-218 -64 -297 -132t-79 -169q0 -160 153 -160q118 0 217 115zM890 1466q-31 -102 -102 -171.5t-154 -69.5q-84 0 -175 51t-134 51q-36 0 -61 -16t-81 -119
l-59 25q93 241 250 241q80 0 171 -51t128 -51q96 0 130 78q11 25 26 57z" />
    <glyph glyph-name="aring" unicode="&#xe5;" horiz-adv-x="1032" 
d="M1006 18q-104 -38 -162 -38q-157 0 -185 143h-6q-133 -148 -319 -148q-111 0 -182.5 67.5t-71.5 178.5q0 124 68 189.5t234 120.5q237 78 273 100v98q0 86 -47.5 148.5t-140.5 62.5q-96 0 -141 -47q0 -25 9 -59t9 -72q0 -39 -34.5 -65.5t-84.5 -26.5q-96 0 -96 114
q0 89 112 159.5t238 70.5q205 0 285 -80.5t80 -245.5l-6 -493q0 -54 25.5 -80t46 -29.5t96.5 -3.5v-64zM657 547q-218 -64 -297 -132t-79 -169q0 -160 153 -160q118 0 217 115zM495 1114q-117 0 -187.5 60.5t-70.5 162.5q0 97 74 159.5t184 62.5q114 0 186 -61t72 -161
q0 -98 -71 -160.5t-187 -62.5zM495 1495q-131 0 -131 -158q0 -69 33 -114t98 -45q131 0 131 159q0 72 -35 115t-96 43z" />
    <glyph glyph-name="ccedilla" unicode="&#xe7;" horiz-adv-x="930" 
d="M926 229q-63 -114 -171.5 -185t-226.5 -71q-214 0 -335 142.5t-121 382.5q0 212 132.5 364t336.5 152q151 0 239 -71.5t88 -186.5q0 -127 -102 -127q-58 0 -91.5 29t-33.5 67q0 40 12 90q12 51 15 72q-29 51 -131 51q-113 0 -185.5 -111.5t-72.5 -320.5
q0 -189 83.5 -305.5t215.5 -116.5q171 0 282 188zM368 -444v71q171 0 212.5 23.5t41.5 66.5q0 76 -164 76v223h78v-114q232 0 232 -150q0 -196 -400 -196z" />
    <glyph glyph-name="eacute" unicode="&#xe9;" horiz-adv-x="989" 
d="M948 231q-138 -258 -405 -258q-222 0 -346.5 145.5t-124.5 383.5q0 210 126.5 361t323.5 151q195 0 298.5 -113.5t103.5 -310.5v-66h-654q0 -210 85.5 -325t244.5 -115q88 0 150.5 39t128.5 151zM727 608q0 330 -207 330q-104 0 -174 -88t-76 -242h457zM392 1110l-39 33
q114 165 202 307q53 88 127 88q34 0 58 -23.5t24 -54.5q0 -56 -43 -91t-221 -174q-47 -36 -108 -85z" />
    <glyph glyph-name="egrave" unicode="&#xe8;" horiz-adv-x="989" 
d="M948 231q-138 -258 -405 -258q-222 0 -346.5 145.5t-124.5 383.5q0 210 126.5 361t323.5 151q195 0 298.5 -113.5t103.5 -310.5v-66h-654q0 -210 85.5 -325t244.5 -115q88 0 150.5 39t128.5 151zM727 608q0 330 -207 330q-104 0 -174 -88t-76 -242h457zM658 1110
q-105 85 -252 197q-81 61 -100.5 87t-19.5 66q0 31 24 54.5t58 23.5q74 0 127 -88q88 -142 202 -307z" />
    <glyph glyph-name="ecircumflex" unicode="&#xea;" horiz-adv-x="989" 
d="M948 231q-138 -258 -405 -258q-222 0 -346.5 145.5t-124.5 383.5q0 210 126.5 361t323.5 151q195 0 298.5 -113.5t103.5 -310.5v-66h-654q0 -210 85.5 -325t244.5 -115q88 0 150.5 39t128.5 151zM727 608q0 330 -207 330q-104 0 -174 -88t-76 -242h457zM798 1118
l-278 273l-274 -273l-50 33l238 346q19 27 34.5 36t55.5 9q55 0 84 -41l240 -350z" />
    <glyph glyph-name="edieresis" unicode="&#xeb;" horiz-adv-x="989" 
d="M948 231q-138 -258 -405 -258q-222 0 -346.5 145.5t-124.5 383.5q0 210 126.5 361t323.5 151q195 0 298.5 -113.5t103.5 -310.5v-66h-654q0 -210 85.5 -325t244.5 -115q88 0 150.5 39t128.5 151zM727 608q0 330 -207 330q-104 0 -174 -88t-76 -242h457zM743 1241
q-50 0 -84.5 36.5t-34.5 86.5q0 49 34.5 86t84.5 37q51 0 85 -37t34 -86t-34.5 -86t-84.5 -37zM313 1241q-50 0 -84.5 37t-34.5 86t34 86t85 37q50 0 84.5 -37t34.5 -86q0 -50 -34.5 -86.5t-84.5 -36.5z" />
    <glyph glyph-name="iacute" unicode="&#xed;" horiz-adv-x="600" 
d="M74 0v66l48 5q97 7 97 97v608q0 122 -176 135v66l348 20l15 -14v-803q0 -57 35.5 -81t109.5 -33v-66h-477zM141 1110l-39 33q114 165 202 307q53 88 127 88q34 0 58 -23.5t24 -54.5q0 -56 -43 -91t-221 -174q-47 -36 -108 -85z" />
    <glyph glyph-name="igrave" unicode="&#xec;" horiz-adv-x="600" 
d="M74 0v66l48 5q97 7 97 97v608q0 122 -176 135v66l348 20l15 -14v-803q0 -57 35.5 -81t109.5 -33v-66h-477zM414 1110q-105 85 -252 197q-81 61 -100.5 87t-19.5 66q0 31 24 54.5t58 23.5q74 0 127 -88q88 -142 202 -307z" />
    <glyph glyph-name="icircumflex" unicode="&#xee;" horiz-adv-x="600" 
d="M74 0v66l48 5q97 7 97 97v608q0 122 -176 135v66l348 20l15 -14v-803q0 -57 35.5 -81t109.5 -33v-66h-477zM537 1118l-278 273l-274 -273l-50 33l238 346q19 27 34.5 36t55.5 9q55 0 84 -41l240 -350z" />
    <glyph glyph-name="idieresis" unicode="&#xef;" horiz-adv-x="600" 
d="M74 0v66l48 5q97 7 97 97v608q0 122 -176 135v66l348 20l15 -14v-803q0 -57 35.5 -81t109.5 -33v-66h-477zM484 1241q-50 0 -84.5 36.5t-34.5 86.5q0 49 34.5 86t84.5 37q51 0 85 -37t34 -86t-34.5 -86t-84.5 -37zM54 1241q-50 0 -84.5 37t-34.5 86t34 86t85 37
q50 0 84.5 -37t34.5 -86q0 -50 -34.5 -86.5t-84.5 -36.5z" />
    <glyph glyph-name="ntilde" unicode="&#xf1;" horiz-adv-x="1210" 
d="M678 0v66l51 5q100 6 100 97v508q0 100 -47.5 159.5t-122.5 59.5q-171 0 -256 -150v-567q0 -100 152 -112v-66h-483v66l48 5q97 7 97 97v608q0 129 -156 135v66l328 20l14 -14v-137h5q109 112 179.5 140t151.5 28q279 0 279 -326v-512q0 -99 143 -110v-66h-483zM987 1466
q-31 -102 -102 -171.5t-154 -69.5q-84 0 -175 51t-134 51q-36 0 -61 -16t-81 -119l-59 25q93 241 250 241q80 0 171 -51t128 -51q96 0 130 78q11 25 26 57z" />
    <glyph glyph-name="oacute" unicode="&#xf3;" horiz-adv-x="1104" 
d="M543 -31q-198 0 -335.5 146t-137.5 374q0 232 134.5 378.5t352.5 146.5q212 0 343.5 -142.5t131.5 -367.5q0 -234 -134 -384.5t-355 -150.5zM555 938q-135 0 -207 -117.5t-72 -314.5q0 -209 72.5 -335t206.5 -126q128 0 199 125t71 332q0 202 -69.5 319t-200.5 117z
M371 1110l-39 33q114 165 202 307q53 88 127 88q34 0 58 -23.5t24 -54.5q0 -56 -43 -91t-221 -174q-47 -36 -108 -85z" />
    <glyph glyph-name="ograve" unicode="&#xf2;" horiz-adv-x="1104" 
d="M543 -31q-198 0 -335.5 146t-137.5 374q0 232 134.5 378.5t352.5 146.5q212 0 343.5 -142.5t131.5 -367.5q0 -234 -134 -384.5t-355 -150.5zM555 938q-135 0 -207 -117.5t-72 -314.5q0 -209 72.5 -335t206.5 -126q128 0 199 125t71 332q0 202 -69.5 319t-200.5 117z
M747 1110q-105 85 -252 197q-81 61 -100.5 87t-19.5 66q0 31 24 54.5t58 23.5q74 0 127 -88q88 -142 202 -307z" />
    <glyph glyph-name="ocircumflex" unicode="&#xf4;" horiz-adv-x="1104" 
d="M543 -31q-198 0 -335.5 146t-137.5 374q0 232 134.5 378.5t352.5 146.5q212 0 343.5 -142.5t131.5 -367.5q0 -234 -134 -384.5t-355 -150.5zM555 938q-135 0 -207 -117.5t-72 -314.5q0 -209 72.5 -335t206.5 -126q128 0 199 125t71 332q0 202 -69.5 319t-200.5 117z
M835 1118l-278 273l-274 -273l-50 33l238 346q19 27 34.5 36t55.5 9q55 0 84 -41l240 -350z" />
    <glyph glyph-name="odieresis" unicode="&#xf6;" horiz-adv-x="1104" 
d="M543 -31q-198 0 -335.5 146t-137.5 374q0 232 134.5 378.5t352.5 146.5q212 0 343.5 -142.5t131.5 -367.5q0 -234 -134 -384.5t-355 -150.5zM555 938q-135 0 -207 -117.5t-72 -314.5q0 -209 72.5 -335t206.5 -126q128 0 199 125t71 332q0 202 -69.5 319t-200.5 117z
M774 1241q-50 0 -84.5 36.5t-34.5 86.5q0 49 34.5 86t84.5 37q51 0 85 -37t34 -86t-34.5 -86t-84.5 -37zM344 1241q-50 0 -84.5 37t-34.5 86t34 86t85 37q50 0 84.5 -37t34.5 -86q0 -50 -34.5 -86.5t-84.5 -36.5z" />
    <glyph glyph-name="otilde" unicode="&#xf5;" horiz-adv-x="1104" 
d="M543 -31q-198 0 -335.5 146t-137.5 374q0 232 134.5 378.5t352.5 146.5q212 0 343.5 -142.5t131.5 -367.5q0 -234 -134 -384.5t-355 -150.5zM555 938q-135 0 -207 -117.5t-72 -314.5q0 -209 72.5 -335t206.5 -126q128 0 199 125t71 332q0 202 -69.5 319t-200.5 117z
M942 1466q-31 -102 -102 -171.5t-154 -69.5q-84 0 -175 51t-134 51q-36 0 -61 -16t-81 -119l-59 25q93 241 250 241q80 0 171 -51t128 -51q96 0 130 78q11 25 26 57z" />
    <glyph glyph-name="uacute" unicode="&#xfa;" horiz-adv-x="1178" 
d="M809 -4l-16 14v125h-7q-143 -160 -327 -160q-269 0 -269 334v471q0 123 -155 129v66l330 22l14 -14v-684q0 -100 46 -157.5t118 -57.5q157 0 248 145v559q0 42 -26 75.5t-53.5 37.5t-107.5 8v66l359 22l16 -14v-782q0 -118 149 -117v-66zM437 1110l-39 33
q114 165 202 307q53 88 127 88q34 0 58 -23.5t24 -54.5q0 -56 -43 -91t-221 -174q-47 -36 -108 -85z" />
    <glyph glyph-name="ugrave" unicode="&#xf9;" horiz-adv-x="1178" 
d="M809 -4l-16 14v125h-7q-143 -160 -327 -160q-269 0 -269 334v471q0 123 -155 129v66l330 22l14 -14v-684q0 -100 46 -157.5t118 -57.5q157 0 248 145v559q0 42 -26 75.5t-53.5 37.5t-107.5 8v66l359 22l16 -14v-782q0 -118 149 -117v-66zM731 1110q-105 85 -252 197
q-81 61 -100.5 87t-19.5 66q0 31 24 54.5t58 23.5q74 0 127 -88q88 -142 202 -307z" />
    <glyph glyph-name="ucircumflex" unicode="&#xfb;" horiz-adv-x="1178" 
d="M809 -4l-16 14v125h-7q-143 -160 -327 -160q-269 0 -269 334v471q0 123 -155 129v66l330 22l14 -14v-684q0 -100 46 -157.5t118 -57.5q157 0 248 145v559q0 42 -26 75.5t-53.5 37.5t-107.5 8v66l359 22l16 -14v-782q0 -118 149 -117v-66zM849 1118l-278 273l-274 -273
l-50 33l238 346q19 27 34.5 36t55.5 9q55 0 84 -41l240 -350z" />
    <glyph glyph-name="udieresis" unicode="&#xfc;" horiz-adv-x="1178" 
d="M809 -4l-16 14v125h-7q-143 -160 -327 -160q-269 0 -269 334v471q0 123 -155 129v66l330 22l14 -14v-684q0 -100 46 -157.5t118 -57.5q157 0 248 145v559q0 42 -26 75.5t-53.5 37.5t-107.5 8v66l359 22l16 -14v-782q0 -118 149 -117v-66zM788 1241q-50 0 -84.5 36.5
t-34.5 86.5q0 49 34.5 86t84.5 37q51 0 85 -37t34 -86t-34.5 -86t-84.5 -37zM358 1241q-50 0 -84.5 37t-34.5 86t34 86t85 37q50 0 84.5 -37t34.5 -86q0 -50 -34.5 -86.5t-84.5 -36.5z" />
    <glyph glyph-name="dagger" unicode="&#x2020;" horiz-adv-x="967" 
d="M508 1047l47 -752q0 -76 -70 -76q-71 0 -71 76l45 752q-60 -5 -242 -44q-26 -6 -41 -6q-74 0 -74 70q0 72 74 72q16 0 102 -20q110 -27 181 -34q-3 45 -42 253q-5 27 -5 42q0 74 73 74q72 0 72 -74q0 -17 -19 -107q-24 -112 -30 -188q69 7 180 34q85 20 100 20
q76 0 76 -72q0 -70 -76 -70q-14 0 -39 6q-184 39 -241 44z" />
    <glyph glyph-name="degree" unicode="&#xb0;" horiz-adv-x="858" 
d="M428 803q-141 0 -232.5 93t-91.5 232q0 140 92.5 232t231.5 92q145 0 236.5 -92.5t91.5 -231.5q0 -140 -92.5 -232.5t-235.5 -92.5zM428 1378q-81 0 -128.5 -66.5t-47.5 -181.5q0 -117 46.5 -184t133.5 -67q74 0 124 65t50 176q0 127 -48 192.5t-130 65.5z" />
    <glyph glyph-name="cent" unicode="&#xa2;" horiz-adv-x="1137" 
d="M1040 233q-140 -230 -389 -251v-281h-82v281q-202 17 -315 157t-113 361q0 192 118.5 339t309.5 171v266h82v-260q161 -4 251.5 -78t90.5 -182q0 -127 -106 -127q-121 0 -121 96q0 41 24 130q5 18 7 32q-35 49 -146 57v-856l10 -2q39 -8 132.5 21.5t187.5 173.5zM569 938
q-225 -66 -225 -430q0 -328 225 -408v838z" />
    <glyph glyph-name="sterling" unicode="&#xa3;" horiz-adv-x="1274" 
d="M1165 176v-176h-1048v147q219 73 219 474h-166v96h166q-14 232 -14 252q0 212 125.5 349.5t328.5 137.5q157 0 257 -89t100 -208q0 -125 -105 -125q-62 0 -94.5 30t-32.5 69q0 45 31 159q-48 84 -160 84q-114 0 -180 -76t-66 -217q0 -60 6 -175q5 -116 5 -191h395v-96
h-395q0 -279 -238 -435v-10h866z" />
    <glyph glyph-name="section" unicode="&#xa7;" horiz-adv-x="1024" 
d="M653 317q207 -85 207 -266q0 -134 -111 -221.5t-292 -87.5q-144 0 -221.5 50t-77.5 122q0 100 98 100q76 0 127 -122q13 -33 27 -62q28 -10 84 -10q89 0 152 54.5t63 125.5q0 69 -55 123t-224 121q-309 119 -309 352q0 201 241 303q-204 97 -204 262q0 128 109.5 210.5
t291.5 82.5q146 0 222.5 -50.5t76.5 -123.5q0 -98 -98 -98q-76 0 -126 123q-14 32 -28 61q-28 10 -84 10q-90 0 -150.5 -51t-60.5 -127q0 -66 56 -110t251 -125q285 -119 285 -328q0 -104 -68.5 -189.5t-181.5 -128.5zM446 862q-172 -69 -172 -225q0 -93 70 -158t238 -133
q166 92 166 242q0 169 -302 274z" />
    <glyph glyph-name="bullet" unicode="&#x2022;" horiz-adv-x="805" 
d="M401 336q-108 0 -186 77.5t-78 184.5q0 108 77.5 186t186.5 78q110 0 187.5 -77t77.5 -187q0 -109 -77.5 -185.5t-187.5 -76.5z" />
    <glyph glyph-name="paragraph" unicode="&#xb6;" horiz-adv-x="1024" 
d="M999 1346h-110v-1561h-103v1561h-159v-1561h-105v922q-196 0 -310 93.5t-114 258.5q0 158 112 259t273 101h516v-73z" />
    <glyph glyph-name="germandbls" unicode="&#xdf;" horiz-adv-x="1122" 
d="M489 0v82q38 -10 89 -10q258 0 258 432q0 178 -76 282.5t-211 104.5h-21v86h37q96 0 164 69.5t68 192.5q0 115 -50 175.5t-135 60.5q-227 0 -227 -414v-1061h-326v66q106 7 123 39t17 67v834q0 186 45 296t146.5 179t232.5 69q154 0 251 -80.5t97 -224.5
q0 -123 -79.5 -207t-189.5 -98v-8q152 -36 247 -151t95 -283q0 -226 -124.5 -367t-309.5 -141q-71 0 -121 10z" />
    <glyph glyph-name="registered" unicode="&#xae;" horiz-adv-x="1929" 
d="M967 -281q-365 0 -626 261t-261 624q0 360 261.5 620.5t625.5 260.5q361 0 621.5 -261t260.5 -620q0 -362 -260 -623.5t-622 -261.5zM967 1397q-328 0 -558.5 -232t-230.5 -561q0 -334 230 -566.5t559 -232.5q327 0 555.5 233t228.5 566q0 329 -229 561t-555 232z
M1255 145q-158 220 -309 404h-104v-262q0 -33 18.5 -53.5t122.5 -30.5v-58h-438v58q89 11 112 26t23 58v643q0 46 -30.5 62.5t-104.5 25.5v57h491q133 0 219 -57.5t86 -163.5q0 -198 -235 -264q110 -130 184 -225q74 -96 116 -124t136 -38v-58h-287zM842 1004v-379h88
q104 0 164.5 57t60.5 152q0 170 -197 170h-116z" />
    <glyph glyph-name="copyright" unicode="&#xa9;" horiz-adv-x="1929" 
d="M967 -281q-365 0 -626 261t-261 624q0 360 261.5 620.5t625.5 260.5q361 0 621.5 -261t260.5 -620q0 -362 -260 -623.5t-622 -261.5zM967 1397q-328 0 -558.5 -232t-230.5 -561q0 -334 230 -566.5t559 -232.5q327 0 555.5 233t228.5 566q0 329 -229 561t-555 232z
M1374 403q-123 -292 -393 -292q-220 0 -354.5 131.5t-134.5 349.5q0 213 148 356.5t372 143.5q122 0 219 -64l45 66h57l6 -363h-55q-51 165 -125 227t-186 62q-119 0 -197 -110.5t-78 -307.5q0 -177 90.5 -286t235.5 -109q200 0 293 221z" />
    <glyph glyph-name="trademark" unicode="&#x2122;" horiz-adv-x="1929" 
d="M1509 733v51q113 0 113 52v450h-14l-244 -530h-33l-235 540h-17v-364q0 -95 31.5 -121.5t95.5 -26.5v-51h-313v49q86 11 104.5 35t18.5 111v348q0 86 -119 92v51h279l210 -473l177 387q12 27 17 49l7 37h268v-51q-69 -7 -86.5 -14t-17.5 -35v-483q0 -52 104 -52v-51h-346
zM727 1221q-17 52 -43.5 90.5t-45 45.5t-87.5 7h-49v-524q0 -56 110 -56v-51h-352v51q113 0 113 50v530h-49q-74 0 -93 -9.5t-44.5 -48t-41.5 -85.5h-49v198h680v-198h-49z" />
    <glyph glyph-name="acute" unicode="&#xb4;" horiz-adv-x="1024" 
d="M324 1110l-39 33q114 165 202 307q53 88 127 88q34 0 58 -23.5t24 -54.5q0 -56 -43 -91t-221 -174q-47 -36 -108 -85z" />
    <glyph glyph-name="dieresis" unicode="&#xa8;" horiz-adv-x="1024" 
d="M727 1241q-50 0 -84.5 36.5t-34.5 86.5q0 49 34.5 86t84.5 37q51 0 85 -37t34 -86t-34.5 -86t-84.5 -37zM297 1241q-50 0 -84.5 37t-34.5 86t34 86t85 37q50 0 84.5 -37t34.5 -86q0 -50 -34.5 -86.5t-84.5 -36.5z" />
    <glyph glyph-name="glyph143" 
 />
    <glyph glyph-name="AE" unicode="&#xc6;" horiz-adv-x="1989" 
d="M1915 0h-1170v72q148 8 175.5 38t27.5 83v409h-479q-211 -362 -211 -432q0 -87 168 -98v-72h-522v72q142 14 209.5 108.5t652.5 1144.5q-49 17 -170 23v71h1239v-342h-76q-18 75 -76 150t-101.5 93.5t-207.5 18.5h-213v-563h150q116 0 164.5 49.5t68.5 182.5h76v-555h-76
q-4 48 -28.5 120.5t-69.5 96.5t-135 24h-150v-426q0 -128 42.5 -157t201.5 -29h84q133 0 180 22t108.5 123.5t92.5 190.5h72zM948 1331h-78l-354 -641h432v641z" />
    <glyph glyph-name="Oslash" unicode="&#xd8;" horiz-adv-x="1524" 
d="M330 127l-174 -211l-66 49l182 215q-192 214 -192 529q0 326 197.5 534.5t484.5 208.5q250 0 432 -160l152 185l65 -54l-158 -186q191 -219 191 -528q0 -328 -197.5 -536t-484.5 -208q-243 0 -432 162zM1098 1176q-117 188 -336 188q-213 0 -328 -178t-115 -477
q0 -235 66 -394zM1141 1102l-715 -858q120 -189 336 -189q209 0 325.5 175t116.5 479q0 237 -63 393z" />
    <glyph glyph-name="glyph146" 
 />
    <glyph glyph-name="plusminus" unicode="&#xb1;" horiz-adv-x="1317" 
d="M150 0v125h446v401h-446v125h446v453h127v-453h444v-125h-444v-401h444v-125h-1017z" />
    <glyph glyph-name="glyph148" 
 />
    <glyph glyph-name="glyph149" 
 />
    <glyph glyph-name="yen" unicode="&#xa5;" horiz-adv-x="1260" 
d="M1282 1348q-87 -15 -154.5 -69t-402.5 -636v-84h393v-94h-393v-258q0 -56 34 -88.5t171 -46.5v-72h-611v72q132 11 166.5 31.5t34.5 93.5v268h-391v94h391v66q-291 578 -359.5 647t-172.5 76v71h579v-71q-168 -9 -168 -48q0 -25 289 -542q291 491 291 516q0 61 -168 74
v71h471v-71z" />
    <glyph glyph-name="uni00B5" unicode="&#xb5;" horiz-adv-x="1159" 
d="M1133 18q-105 -36 -164 -36q-167 0 -195 153h-6q-92 -103 -158.5 -129t-154.5 -26q-125 0 -191 79h-6v-57q0 -66 27 -186q26 -120 26 -158q0 -45 -28 -73.5t-70 -28.5q-92 0 -92 100q0 55 32 236q21 118 21 243v850h191v-676q0 -103 45 -160t118 -57q164 0 244 139v754
h191v-782q0 -60 25.5 -86t48.5 -29.5t96 -3.5v-66z" />
    <glyph glyph-name="glyph152" 
 />
    <glyph glyph-name="glyph153" 
 />
    <glyph glyph-name="glyph154" 
 />
    <glyph glyph-name="glyph155" 
 />
    <glyph glyph-name="glyph156" 
 />
    <glyph glyph-name="ordfeminine" unicode="&#xaa;" horiz-adv-x="1024" 
d="M934 647q-96 -31 -143 -31q-131 0 -152 121h-6q-120 -125 -268 -125q-91 0 -150 58t-59 143q0 121 59.5 167.5t274.5 116.5q100 32 145 56v55q0 65 -39 118.5t-119 53.5q-69 0 -108 -39q3 -18 9 -45q5 -27 5 -53q0 -29 -30.5 -50.5t-78.5 -21.5q-79 0 -79 97
q0 72 91.5 128t200.5 56q172 0 241 -65.5t69 -196.5l-6 -391q0 -57 47 -82l42 -8h54v-62zM637 1075q-188 -54 -246.5 -102.5t-58.5 -122.5q0 -127 117 -127q110 0 184 86z" />
    <glyph glyph-name="ordmasculine" unicode="&#xba;" horiz-adv-x="1024" 
d="M504 606q-160 0 -273.5 117.5t-113.5 302.5q0 189 110 307.5t289 118.5q177 0 284 -116.5t107 -297.5q0 -186 -109.5 -309t-293.5 -123zM514 1378q-105 0 -160 -92.5t-55 -245.5q0 -167 57 -263.5t158 -96.5q98 0 153.5 97.5t55.5 258.5q0 159 -54 250.5t-155 91.5z" />
    <glyph glyph-name="glyph159" 
 />
    <glyph glyph-name="ae" unicode="&#xe6;" horiz-adv-x="1509" 
d="M1468 233q-127 -260 -385 -260q-243 0 -370 189h-6q-142 -189 -367 -189q-117 0 -187.5 67.5t-70.5 178.5q0 129 78.5 209t480.5 195v106q0 80 -43.5 145.5t-128.5 65.5q-100 0 -145 -47q0 -25 9 -59t9 -72q0 -39 -33.5 -65.5t-85.5 -26.5q-96 0 -96 114q0 87 110 158.5
t234 71.5q229 0 311 -121q125 121 281 121q184 0 282.5 -111t98.5 -297v-57h-619q0 -465 305 -465q174 0 269 192zM1245 631q0 307 -194 307q-97 0 -161.5 -87t-64.5 -220h420zM643 537q-362 -71 -362 -289q0 -162 145 -162q132 0 217 109v342z" />
    <glyph glyph-name="oslash" unicode="&#xf8;" horiz-adv-x="1104" 
d="M256 76q-23 -26 -127 -158l-57 43l133 164q-135 151 -135 364q0 232 134.5 378.5t352.5 146.5q166 0 289 -96l110 141l60 -45l-119 -146q135 -145 135 -364q0 -234 -134 -384.5t-355 -150.5q-156 0 -287 107zM764 815q-69 123 -209 123q-137 0 -210 -119t-73 -313
q0 -142 35 -258zM797 748l-457 -570q73 -133 215 -133q129 0 201.5 125.5t72.5 331.5q0 144 -32 246z" />
    <glyph glyph-name="questiondown" unicode="&#xbf;" horiz-adv-x="981" 
d="M586 1174q-57 0 -97 40t-40 97q0 56 40.5 95.5t96.5 39.5t96.5 -39t40.5 -96t-40.5 -97t-96.5 -40zM543 827v222h92v-379q-344 -26 -344 -308q0 -309 250 -309q73 0 131 39q-23 103 -23 137q0 39 34 69t91 30q100 0 100 -123q0 -85 -97.5 -158.5t-244.5 -73.5
q-200 0 -316 117.5t-116 294.5q0 181 116 299t327 143z" />
    <glyph glyph-name="exclamdown" unicode="&#xa1;" horiz-adv-x="678" 
d="M344 1174q-55 0 -96 38.5t-41 96.5q0 57 41 97t96 40q54 0 95.5 -39.5t41.5 -97.5q0 -59 -41 -97t-96 -38zM303 991h78q19 -206 54.5 -523.5t35.5 -365.5q0 -58 -36 -96.5t-91 -38.5q-57 0 -93 39.5t-36 95.5q0 50 33 333q33 292 55 556z" />
    <glyph glyph-name="logicalnot" unicode="&#xac;" horiz-adv-x="1317" 
d="M1030 76v450h-887v125h1020v-575h-133z" />
    <glyph glyph-name="glyph165" 
 />
    <glyph glyph-name="florin" unicode="&#x192;" horiz-adv-x="1063" 
d="M784 1235q-163 -24 -209 -395l-14 -121h258v-96h-266q-38 -454 -102 -637t-174 -269t-250 -86q-96 0 -149.5 40.5t-53.5 99.5q0 104 96 104q95 0 174 -172q87 7 147.5 149.5t120.5 770.5h-204v96h213q28 280 156 434t325 154q95 0 149 -42t54 -102q0 -104 -99 -104
q-96 0 -172 176z" />
    <glyph glyph-name="glyph167" 
 />
    <glyph glyph-name="glyph168" 
 />
    <glyph glyph-name="guillemotleft" unicode="&#xab;" horiz-adv-x="1190" 
d="M948 121l-354 332q-43 40 -43 75q0 39 45 80l352 330l49 -41l-260 -369l260 -368zM567 121l-354 332q-43 40 -43 75t45 80l352 330l49 -41l-260 -369l260 -368z" />
    <glyph glyph-name="guillemotright" unicode="&#xbb;" horiz-adv-x="1190" 
d="M623 121l-50 39l261 368l-261 369l50 41l352 -330q45 -42 45 -80q0 -37 -30 -64zM242 121l-49 39l260 368l-260 369l49 41l352 -330q45 -42 45 -80q0 -37 -30 -64z" />
    <glyph glyph-name="ellipsis" unicode="&#x2026;" horiz-adv-x="1653" 
d="M1380 -20q-54 0 -92.5 38t-38.5 91t39 92t92 39q54 0 92.5 -39.5t38.5 -91.5t-38 -90.5t-93 -38.5zM829 -20q-54 0 -92.5 38t-38.5 91t39 92t92 39t92.5 -39t39.5 -92t-39 -91t-93 -38zM279 -20q-54 0 -93 38t-39 91t39.5 92t92.5 39t92 -39t39 -92t-38.5 -91t-92.5 -38z
" />
    <glyph glyph-name="Agrave" unicode="&#xc0;" horiz-adv-x="1374" 
d="M829 0v72q183 11 183 57q0 22 -8 43l-119 320h-498q-98 -254 -98 -332q0 -74 205 -88v-72h-535v72q82 6 132 38.5t76 80.5t186 459l306 790h80l473 -1225q51 -133 209 -143v-72h-592zM635 1130l-211 -550h426zM907 1507q-116 58 -209 102q-103 48 -166 81t-63 98
q0 80 92 80q56 0 102 -50t275 -272z" />
    <glyph glyph-name="Atilde" unicode="&#xc3;" horiz-adv-x="1374" 
d="M829 0v72q183 11 183 57q0 22 -8 43l-119 320h-498q-98 -254 -98 -332q0 -74 205 -88v-72h-535v72q82 6 132 38.5t76 80.5t186 459l306 790h80l473 -1225q51 -133 209 -143v-72h-592zM635 1130l-211 -550h426zM1088 1824q-31 -102 -102 -171.5t-154 -69.5q-84 0 -175 51
t-134 51q-36 0 -61 -16t-81 -119l-59 25q93 241 250 241q80 0 171 -51t128 -51q96 0 130 78q11 25 26 57z" />
    <glyph glyph-name="Otilde" unicode="&#xd5;" horiz-adv-x="1524" 
d="M762 -35q-293 0 -487.5 210.5t-194.5 533.5q0 326 197.5 534.5t484.5 208.5q292 0 487 -208t195 -535q0 -328 -197.5 -536t-484.5 -208zM762 1364q-209 0 -324.5 -176.5t-115.5 -478.5q0 -304 116 -479t324 -175q210 0 325 175.5t115 478.5q0 304 -116 479.5t-324 175.5z
M1145 1835q-31 -102 -102 -171.5t-154 -69.5q-84 0 -175 51t-134 51q-36 0 -61 -16t-81 -119l-59 25q93 241 250 241q80 0 171 -51t128 -51q96 0 130 78q11 25 26 57z" />
    <glyph glyph-name="OE" unicode="&#x152;" horiz-adv-x="2044" 
d="M1968 0h-1153q-301 0 -518 187.5t-217 531.5q0 326 221.5 513t548.5 187h1038v-342h-73q-21 80 -79 153t-100.5 91t-205.5 18h-213v-563h149q121 0 168 55t65 177h74v-555h-74q-6 67 -33.5 133.5t-72 87t-127.5 20.5h-149v-426q0 -120 37 -153t204 -33h86q134 0 182 23
t110 127t87 186h74zM1004 1331q-71 4 -156 4q-248 0 -387 -159t-139 -459q0 -282 149.5 -458.5t392.5 -176.5l140 4v1245z" />
    <glyph glyph-name="oe" unicode="&#x153;" horiz-adv-x="1671" 
d="M1630 233q-54 -118 -156 -189t-227 -71q-237 0 -360 197q-134 -201 -357 -201q-192 0 -326 145.5t-134 374.5t130.5 377t348.5 148q211 0 346 -193q125 193 330 193q182 0 281.5 -112t99.5 -306v-72h-625q6 -440 313 -440q92 0 152.5 43t114.5 149zM1409 608
q0 330 -197 330q-100 0 -165.5 -94.5t-65.5 -235.5h428zM539 938q-127 0 -195 -116.5t-68 -315.5q0 -214 68 -337.5t195 -123.5q249 0 249 444q0 449 -249 449z" />
    <glyph glyph-name="endash" unicode="&#x2013;" horiz-adv-x="1317" 
d="M102 498v125h1112v-125h-1112z" />
    <glyph glyph-name="emdash" unicode="&#x2014;" horiz-adv-x="1755" 
d="M102 498v125h1551v-125h-1551z" />
    <glyph glyph-name="quotedblleft" unicode="&#x201c;" horiz-adv-x="840" 
d="M745 1466q-194 -103 -200 -245h49q133 0 133 -121q0 -46 -33.5 -80.5t-85.5 -34.5q-159 0 -159 205q0 190 262 336zM375 1466q-193 -103 -199 -245h47q133 0 133 -121q0 -46 -33.5 -80.5t-84.5 -34.5q-160 0 -160 205q0 190 262 336z" />
    <glyph glyph-name="quotedblright" unicode="&#x201d;" horiz-adv-x="840" 
d="M498 989l-33 60q191 104 199 245h-48q-133 0 -133 121q0 46 33.5 80.5t85.5 34.5q158 0 158 -205q0 -190 -262 -336zM129 989l-35 60q191 102 199 245h-47q-133 0 -133 121q0 46 33.5 80.5t84.5 34.5q160 0 160 -205q0 -190 -262 -336z" />
    <glyph glyph-name="quoteleft" unicode="&#x2018;" horiz-adv-x="465" 
d="M371 1466q-193 -103 -199 -245h47q135 0 135 -121q0 -46 -33.5 -80.5t-84.5 -34.5q-162 0 -162 205q0 190 260 336z" />
    <glyph glyph-name="quoteright" unicode="&#x2019;" horiz-adv-x="465" 
d="M125 989l-35 60q193 101 199 245h-47q-133 0 -133 121q0 46 33.5 80.5t84.5 34.5q160 0 160 -205q0 -190 -262 -336z" />
    <glyph glyph-name="divide" unicode="&#xf7;" horiz-adv-x="1317" 
d="M659 838q-54 0 -91.5 37.5t-37.5 91.5q0 52 37.5 89.5t91.5 37.5q53 0 91 -38.5t38 -88.5q0 -52 -38 -90.5t-91 -38.5zM143 498v125h1031v-125h-1031zM659 27q-55 0 -92 37.5t-37 89.5q0 53 38.5 91t90.5 38t90.5 -38.5t38.5 -90.5q0 -51 -37.5 -89t-91.5 -38z" />
    <glyph glyph-name="glyph184" 
 />
    <glyph glyph-name="ydieresis" unicode="&#xff;" horiz-adv-x="1008" 
d="M1038 924q-34 -5 -78 -35t-58 -53.5t-89 -202.5l-138 -330q-141 -341 -210 -478.5t-146 -203t-155 -65.5q-73 0 -119.5 34.5t-46.5 87.5q0 48 25.5 80.5t68.5 32.5q86 0 156 -127q44 23 112.5 129t108.5 211l-336 820q-33 73 -151 96v65h448v-70q-113 -7 -113 -43
q0 -2 5 -14l10 -31l237 -583l201 491q4 12 11 27q24 54 24 84q0 51 -133 76v63h366v-61zM758 1241q-50 0 -84.5 36.5t-34.5 86.5q0 49 34.5 86t84.5 37q51 0 85 -37t34 -86t-34.5 -86t-84.5 -37zM328 1241q-50 0 -84.5 37t-34.5 86t34 86t85 37q50 0 84.5 -37t34.5 -86
q0 -50 -34.5 -86.5t-84.5 -36.5z" />
    <glyph glyph-name="Ydieresis" unicode="&#x178;" horiz-adv-x="1260" 
d="M1315 1348q-57 -6 -108.5 -36.5t-119.5 -125.5t-193.5 -310.5t-145 -262t-19.5 -134.5v-270q0 -57 38.5 -90t188.5 -47v-72h-663v72q147 10 185 32t38 95v344q0 34 -169 350.5t-223.5 381t-166.5 73.5v71h604v-71q-186 -9 -186 -48q0 -28 311 -591q324 520 324 565
q0 30 -35.5 47.5t-153.5 26.5v71h494v-71zM895 1608q-49 0 -84 35.5t-35 87.5q0 51 35 86.5t84 35.5t83 -35.5t34 -86.5q0 -52 -34 -87.5t-83 -35.5zM445 1608q-49 0 -83 35.5t-34 87.5q0 51 34 86.5t83 35.5t84 -35.5t35 -86.5q0 -52 -35 -87.5t-84 -35.5z" />
    <glyph glyph-name="fraction" unicode="&#x2044;" horiz-adv-x="166" 
d="M518 1419l-737 -1419h-135l737 1419h135z" />
    <glyph glyph-name="fraction" unicode="&#x2215;" horiz-adv-x="166" 
d="M518 1419l-737 -1419h-135l737 1419h135z" />
    <glyph glyph-name="Euro" unicode="&#x20ac;" horiz-adv-x="1315" 
d="M1288 358q-78 -192 -207.5 -291.5t-347.5 -99.5q-229 0 -398 157.5t-208 405.5h-127l37 97h80q-2 21 -2 48v21q0 37 6 105h-121l37 96h96q50 245 219 399t412 154q184 0 342 -98l41 67h80l10 -506h-84q-102 453 -377 453q-163 0 -271.5 -122.5t-139.5 -346.5h395l-37 -96
h-367q-2 -12 -2 -72v-67q0 -17 2 -35h301l-36 -97h-254q37 -217 158.5 -333.5t281.5 -116.5q284 0 407 315z" />
    <glyph glyph-name="guilsinglleft" unicode="&#x2039;" horiz-adv-x="850" 
d="M592 121l-375 332q-43 38 -43 75q0 35 45 80l373 330l49 -41l-268 -369l268 -368z" />
    <glyph glyph-name="guilsinglright" unicode="&#x203a;" horiz-adv-x="850" 
d="M258 121l-49 39l268 368l-268 369l49 41l373 -330q45 -40 45 -80q0 -41 -43 -75z" />
    <glyph glyph-name="daggerdbl" unicode="&#x2021;" horiz-adv-x="967" 
d="M508 578q6 -73 30 -186q19 -90 19 -107q0 -76 -72 -76q-73 0 -73 76q0 15 5 42q39 211 42 251q-92 -9 -242 -47q-26 -7 -41 -7q-74 0 -74 72t74 72q17 0 102 -19q99 -22 181 -31q-1 25 -15 100q-13 63 -14 97v33q0 26 14 98q14 78 15 101q-60 -5 -242 -44q-26 -6 -41 -6
q-74 0 -74 70q0 72 74 72q16 0 102 -20q110 -27 181 -34q-3 45 -42 253q-5 27 -5 42q0 74 73 74q72 0 72 -74q0 -17 -19 -107q-24 -112 -30 -188q69 7 180 34q85 20 100 20q76 0 76 -72q0 -70 -76 -70q-14 0 -39 6q-184 39 -241 44q1 -32 14 -101q10 -58 15 -98v-33
q0 -17 -15 -97q-13 -68 -14 -100q79 8 180 31q84 19 100 19q76 0 76 -72t-76 -72q-14 0 -39 7q-151 38 -241 47z" />
    <glyph glyph-name="uni2219" unicode="&#x2219;" horiz-adv-x="571" 
d="M289 424q-57 0 -97.5 39.5t-40.5 95.5q0 55 40.5 96t97.5 41q56 0 96.5 -40.5t40.5 -96.5t-40.5 -95.5t-96.5 -39.5z" />
    <glyph glyph-name="quotesinglbase" unicode="&#x201a;" horiz-adv-x="465" 
d="M125 -302l-35 60q193 101 199 245h-47q-133 0 -133 121q0 46 33.5 80.5t84.5 34.5q160 0 160 -205q0 -190 -262 -336z" />
    <glyph glyph-name="quotedblbase" unicode="&#x201e;" horiz-adv-x="840" 
d="M498 -302l-33 60q191 104 199 245h-48q-133 0 -133 121q0 46 33.5 80.5t85.5 34.5q158 0 158 -205q0 -190 -262 -336zM129 -302l-35 60q191 102 199 245h-47q-133 0 -133 121q0 46 33.5 80.5t84.5 34.5q160 0 160 -205q0 -190 -262 -336z" />
    <glyph glyph-name="perthousand" unicode="&#x2030;" horiz-adv-x="2470" 
d="M449 713q-159 0 -249.5 101.5t-90.5 268.5q0 163 91.5 266t248.5 103t248 -102t91 -267q0 -171 -92.5 -270.5t-246.5 -99.5zM449 1378q-82 0 -126 -79.5t-44 -215.5q0 -138 44 -217.5t126 -79.5q80 0 124.5 78.5t44.5 218.5q0 138 -44 216.5t-125 78.5zM319 0h-137
l1176 1423h141zM2019 -33q-157 0 -247.5 101t-90.5 270q0 164 90.5 267.5t249.5 103.5q156 0 247 -103.5t91 -267.5q0 -173 -93.5 -272t-246.5 -99zM2021 635q-82 0 -127 -79t-45 -218q0 -135 43.5 -215t126.5 -80q81 0 126.5 76.5t45.5 218.5q0 136 -44 216.5t-126 80.5z
M1225 -33q-160 0 -249 101.5t-89 269.5q0 164 90.5 267.5t249.5 103.5q158 0 248 -105t90 -266q0 -173 -93.5 -272t-246.5 -99zM1227 635q-82 0 -127 -79t-45 -218q0 -135 43.5 -215t126.5 -80q81 0 126.5 78.5t45.5 216.5q0 136 -44 216.5t-126 80.5z" />
    <glyph glyph-name="Acircumflex" unicode="&#xc2;" horiz-adv-x="1374" 
d="M829 0v72q183 11 183 57q0 22 -8 43l-119 320h-498q-98 -254 -98 -332q0 -74 205 -88v-72h-535v72q82 6 132 38.5t76 80.5t186 459l306 790h80l473 -1225q51 -133 209 -143v-72h-592zM635 1130l-211 -550h426zM976 1507l-278 211l-274 -211l-50 31l236 285q21 25 36 35
t56 10q54 0 86 -41l238 -289z" />
    <glyph glyph-name="Ecircumflex" unicode="&#xca;" horiz-adv-x="1337" 
d="M1264 0h-1178v72q134 11 168.5 34.5t34.5 86.5v1019q0 70 -53.5 99t-149.5 37v71h1098v-342h-74q-21 78 -79.5 152t-100.5 92t-205 18h-223v-563h160q113 0 163 50.5t70 181.5h74v-555h-74q-5 50 -28 117.5t-65.5 95.5t-139.5 28h-160v-426q0 -122 38.5 -154t202.5 -32
h87q140 0 189 22t108 121t92 193h71zM956 1507l-278 211l-274 -211l-50 31l236 285q21 25 36 35t56 10q54 0 86 -41l238 -289z" />
    <glyph glyph-name="Aacute" unicode="&#xc1;" horiz-adv-x="1374" 
d="M829 0v72q183 11 183 57q0 22 -8 43l-119 320h-498q-98 -254 -98 -332q0 -74 205 -88v-72h-535v72q82 6 132 38.5t76 80.5t186 459l306 790h80l473 -1225q51 -133 209 -143v-72h-592zM635 1130l-211 -550h426zM547 1507l-31 39q166 158 262 258q60 64 115 64
q39 0 65.5 -22.5t26.5 -57.5q0 -48 -35 -76.5t-193 -102.5q-94 -44 -210 -102z" />
    <glyph glyph-name="Edieresis" unicode="&#xcb;" horiz-adv-x="1337" 
d="M1264 0h-1178v72q134 11 168.5 34.5t34.5 86.5v1019q0 70 -53.5 99t-149.5 37v71h1098v-342h-74q-21 78 -79.5 152t-100.5 92t-205 18h-223v-563h160q113 0 163 50.5t70 181.5h74v-555h-74q-5 50 -28 117.5t-65.5 95.5t-139.5 28h-160v-426q0 -122 38.5 -154t202.5 -32
h87q140 0 189 22t108 121t92 193h71zM913 1608q-49 0 -84 35.5t-35 87.5q0 51 35 86.5t84 35.5t83 -35.5t34 -86.5q0 -52 -34 -87.5t-83 -35.5zM463 1608q-49 0 -83 35.5t-34 87.5q0 51 34 86.5t83 35.5t84 -35.5t35 -86.5q0 -52 -35 -87.5t-84 -35.5z" />
    <glyph glyph-name="Egrave" unicode="&#xc8;" horiz-adv-x="1337" 
d="M1264 0h-1178v72q134 11 168.5 34.5t34.5 86.5v1019q0 70 -53.5 99t-149.5 37v71h1098v-342h-74q-21 78 -79.5 152t-100.5 92t-205 18h-223v-563h160q113 0 163 50.5t70 181.5h74v-555h-74q-5 50 -28 117.5t-65.5 95.5t-139.5 28h-160v-426q0 -122 38.5 -154t202.5 -32
h87q140 0 189 22t108 121t92 193h71zM815 1507q-116 58 -209 102q-103 48 -166 81t-63 98q0 80 92 80q56 0 102 -50t275 -272z" />
    <glyph glyph-name="Iacute" unicode="&#xcd;" horiz-adv-x="799" 
d="M80 0v72q141 10 177 29t36 85v1028q0 67 -59.5 97t-153.5 37v71h639v-71q-135 -10 -174 -35.5t-39 -87.5v-1026q0 -52 34 -83.5t179 -43.5v-72h-639zM200 1507l-31 39q166 158 262 258q60 64 115 64q39 0 65.5 -22.5t26.5 -57.5q0 -48 -35 -76.5t-193 -102.5
q-94 -44 -210 -102z" />
    <glyph glyph-name="Icircumflex" unicode="&#xce;" horiz-adv-x="799" 
d="M80 0v72q141 10 177 29t36 85v1028q0 67 -59.5 97t-153.5 37v71h639v-71q-135 -10 -174 -35.5t-39 -87.5v-1026q0 -52 34 -83.5t179 -43.5v-72h-639zM676 1507l-278 211l-274 -211l-50 31l236 285q21 25 36 35t56 10q54 0 86 -41l238 -289z" />
    <glyph glyph-name="Idieresis" unicode="&#xcf;" horiz-adv-x="799" 
d="M80 0v72q141 10 177 29t36 85v1028q0 67 -59.5 97t-153.5 37v71h639v-71q-135 -10 -174 -35.5t-39 -87.5v-1026q0 -52 34 -83.5t179 -43.5v-72h-639zM615 1608q-50 0 -84.5 36.5t-34.5 86.5q0 49 34.5 86t84.5 37q51 0 85 -37t34 -86t-34.5 -86t-84.5 -37zM185 1608
q-50 0 -84.5 37t-34.5 86t34 86t85 37q50 0 84.5 -37t34.5 -86q0 -50 -34.5 -86.5t-84.5 -36.5z" />
    <glyph glyph-name="Igrave" unicode="&#xcc;" horiz-adv-x="799" 
d="M80 0v72q141 10 177 29t36 85v1028q0 67 -59.5 97t-153.5 37v71h639v-71q-135 -10 -174 -35.5t-39 -87.5v-1026q0 -52 34 -83.5t179 -43.5v-72h-639zM644 1507q-116 58 -209 102q-103 48 -166 81t-63 98q0 80 92 80q56 0 102 -50t275 -272z" />
    <glyph glyph-name="Oacute" unicode="&#xd3;" horiz-adv-x="1524" 
d="M762 -35q-293 0 -487.5 210.5t-194.5 533.5q0 326 197.5 534.5t484.5 208.5q292 0 487 -208t195 -535q0 -328 -197.5 -536t-484.5 -208zM762 1364q-209 0 -324.5 -176.5t-115.5 -478.5q0 -304 116 -479t324 -175q210 0 325 175.5t115 478.5q0 304 -116 479.5t-324 175.5z
M568 1507l-31 39q166 158 262 258q60 64 115 64q39 0 65.5 -22.5t26.5 -57.5q0 -48 -35 -76.5t-193 -102.5q-94 -44 -210 -102z" />
    <glyph glyph-name="Ocircumflex" unicode="&#xd4;" horiz-adv-x="1524" 
d="M762 -35q-293 0 -487.5 210.5t-194.5 533.5q0 326 197.5 534.5t484.5 208.5q292 0 487 -208t195 -535q0 -328 -197.5 -536t-484.5 -208zM762 1364q-209 0 -324.5 -176.5t-115.5 -478.5q0 -304 116 -479t324 -175q210 0 325 175.5t115 478.5q0 304 -116 479.5t-324 175.5z
M1038 1507l-278 211l-274 -211l-50 31l236 285q21 25 36 35t56 10q54 0 86 -41l238 -289z" />
    <glyph glyph-name="Ograve" unicode="&#xd2;" horiz-adv-x="1524" 
d="M762 -35q-293 0 -487.5 210.5t-194.5 533.5q0 326 197.5 534.5t484.5 208.5q292 0 487 -208t195 -535q0 -328 -197.5 -536t-484.5 -208zM762 1364q-209 0 -324.5 -176.5t-115.5 -478.5q0 -304 116 -479t324 -175q210 0 325 175.5t115 478.5q0 304 -116 479.5t-324 175.5z
M999 1507q-116 58 -209 102q-103 48 -166 81t-63 98q0 80 92 80q56 0 102 -50t275 -272z" />
    <glyph glyph-name="Uacute" unicode="&#xda;" horiz-adv-x="1548" 
d="M1534 1348q-151 -12 -191 -67.5t-40 -248.5v-616q0 -210 -153.5 -330.5t-358.5 -120.5q-242 0 -386.5 118t-144.5 292v837q0 117 -186 136v71h592v-71q-120 -10 -155.5 -35t-35.5 -90v-785q0 -360 352 -360q184 0 280.5 103t96.5 255v584q0 212 -52.5 262t-199.5 66v71
h582v-71zM615 1507l-31 39q166 158 262 258q60 64 115 64q39 0 65.5 -22.5t26.5 -57.5q0 -48 -35 -76.5t-193 -102.5q-94 -44 -210 -102z" />
    <glyph glyph-name="Ucircumflex" unicode="&#xdb;" horiz-adv-x="1548" 
d="M1534 1348q-151 -12 -191 -67.5t-40 -248.5v-616q0 -210 -153.5 -330.5t-358.5 -120.5q-242 0 -386.5 118t-144.5 292v837q0 117 -186 136v71h592v-71q-120 -10 -155.5 -35t-35.5 -90v-785q0 -360 352 -360q184 0 280.5 103t96.5 255v584q0 212 -52.5 262t-199.5 66v71
h582v-71zM1087 1507l-278 211l-274 -211l-50 31l236 285q21 25 36 35t56 10q54 0 86 -41l238 -289z" />
    <glyph glyph-name="Ugrave" unicode="&#xd9;" horiz-adv-x="1548" 
d="M1534 1348q-151 -12 -191 -67.5t-40 -248.5v-616q0 -210 -153.5 -330.5t-358.5 -120.5q-242 0 -386.5 118t-144.5 292v837q0 117 -186 136v71h592v-71q-120 -10 -155.5 -35t-35.5 -90v-785q0 -360 352 -360q184 0 280.5 103t96.5 255v584q0 212 -52.5 262t-199.5 66v71
h582v-71zM991 1507q-116 58 -209 102q-103 48 -166 81t-63 98q0 80 92 80q56 0 102 -50t275 -272z" />
    <glyph glyph-name="dotlessi" unicode="&#x131;" horiz-adv-x="600" 
d="M74 0v66l48 5q97 7 97 97v608q0 122 -176 135v66l348 20l15 -14v-803q0 -57 35.5 -81t109.5 -33v-66h-477z" />
    <glyph glyph-name="circumflex" unicode="&#x2c6;" horiz-adv-x="1024" 
d="M788 1118l-278 273l-274 -273l-50 33l238 346q19 27 34.5 36t55.5 9q55 0 84 -41l240 -350z" />
    <glyph glyph-name="tilde" unicode="&#x2dc;" horiz-adv-x="1024" 
d="M895 1466q-31 -102 -102 -171.5t-154 -69.5q-84 0 -175 51t-134 51q-36 0 -61 -16t-81 -119l-59 25q93 241 250 241q80 0 171 -51t128 -51q96 0 130 78q11 25 26 57z" />
    <glyph glyph-name="glyph216" 
 />
    <glyph glyph-name="glyph217" 
 />
    <glyph glyph-name="dotaccent" unicode="&#x2d9;" horiz-adv-x="1024" 
d="M510 1247q-51 0 -88 39t-37 92q0 54 36.5 94.5t88.5 40.5q57 0 94 -38t37 -89q0 -57 -37.5 -98t-93.5 -41z" />
    <glyph glyph-name="ring" unicode="&#x2da;" horiz-adv-x="1024" 
d="M512 1114q-117 0 -187.5 60.5t-70.5 162.5q0 97 74 159.5t184 62.5q114 0 186 -61t72 -161q0 -98 -71 -160.5t-187 -62.5zM512 1495q-131 0 -131 -158q0 -69 33 -114t98 -45q131 0 131 159q0 72 -35 115t-96 43z" />
    <glyph glyph-name="cedilla" unicode="&#xb8;" horiz-adv-x="1024" 
d="M307 -444v71q171 0 212.5 23.5t41.5 66.5q0 76 -164 76v223h78v-114q232 0 232 -150q0 -196 -400 -196z" />
    <glyph glyph-name="glyph221" 
 />
    <glyph glyph-name="glyph222" 
 />
    <glyph glyph-name="caron" unicode="&#x2c7;" horiz-adv-x="1024" 
d="M598 1159q-28 -41 -84 -41q-41 0 -56.5 9t-33.5 36l-238 346l50 33l274 -272l278 272l50 -33z" />
    <glyph glyph-name="glyph224" 
 />
    <glyph glyph-name="glyph225" 
 />
    <glyph glyph-name="Scaron" unicode="&#x160;" horiz-adv-x="1149" 
d="M231 72l-43 -72h-79l-15 485h80q122 -428 430 -428q268 0 268 250q0 75 -36 137t-85.5 95t-148.5 70q-197 72 -281 119.5t-136 132.5t-52 204q0 161 126.5 273t303.5 112q156 0 318 -98l41 67h79l9 -471h-82q-65 241 -154 328.5t-223 87.5q-97 0 -163 -61.5t-66 -149.5
q0 -104 56.5 -172t253.5 -139q253 -92 345 -186.5t92 -252.5q0 -189 -138.5 -310.5t-344.5 -121.5q-185 0 -355 101zM910 1835l-236 -283q-29 -35 -39.5 -40t-52.5 -5q-54 0 -86 41l-238 287l50 33l278 -213l274 213z" />
    <glyph glyph-name="scaron" unicode="&#x161;" horiz-adv-x="885" 
d="M178 61l-20 -63h-74l-10 342h67q30 -118 116 -203.5t198 -85.5q200 0 200 168q0 69 -49.5 114t-204.5 91q-303 89 -303 301q0 124 92.5 206.5t239.5 82.5q122 0 217 -51l23 53h71l17 -318h-70q-55 240 -260 240q-79 0 -127.5 -40.5t-48.5 -100.5q0 -77 46.5 -114
t203.5 -89q177 -57 242 -129.5t65 -179.5q0 -137 -104 -224.5t-265 -87.5q-146 0 -262 88zM538 1159q-28 -41 -84 -41q-41 0 -56.5 9t-33.5 36l-238 346l50 33l274 -272l278 272l50 -33z" />
    <glyph glyph-name="Zcaron" unicode="&#x17d;" horiz-adv-x="1233" 
d="M1167 0h-1140v35l893 1304h-326q-156 0 -210 -25t-125 -117t-105 -179h-70l43 401h1063v-35l-893 -1304h338q152 0 218.5 16t103 51t96 123.5t92.5 171.5h69zM955 1835l-236 -283q-29 -35 -39.5 -40t-52.5 -5q-54 0 -86 41l-238 287l50 33l278 -213l274 213z" />
    <glyph glyph-name="zcaron" unicode="&#x17e;" horiz-adv-x="909" 
d="M55 0v53l557 852h-137q-203 0 -248.5 -39t-72.5 -184h-62v303h756v-41l-567 -862l90 -2q290 -6 328 22.5t94 245.5h61v-348h-799zM544 1159q-28 -41 -84 -41q-41 0 -56.5 9t-33.5 36l-238 346l50 33l274 -272l278 272l50 -33z" />
    <glyph glyph-name="brokenbar" unicode="&#xa6;" horiz-adv-x="768" 
d="M322 723v801h127v-801h-127zM322 -424v809h127v-809h-127z" />
    <glyph glyph-name="Eth" unicode="&#xd0;" horiz-adv-x="1534" 
d="M94 0v72q121 0 158 28t37 88v512h-187v99h187v413q0 66 -42.5 95.5t-144.5 40.5v71h621q300 0 516.5 -186.5t216.5 -532.5q0 -323 -221.5 -511.5t-552.5 -188.5h-588zM502 1333v-534h301v-99h-301v-456q0 -91 52.5 -126.5t162.5 -35.5q242 0 368.5 160t126.5 460
q0 282 -149.5 458.5t-392.5 176.5q-104 0 -168 -4z" />
    <glyph glyph-name="eth" unicode="&#xf0;" horiz-adv-x="1090" 
d="M795 846l8 2q-25 219 -174 434l-232 -137l-49 78l227 131q-55 74 -165 145l51 57q109 -56 213 -147l203 123l51 -80l-191 -109q277 -293 277 -733q0 -295 -129 -468t-353 -173q-192 0 -327 143.5t-135 372.5q0 222 127 361t327 139q176 0 271 -139zM545 905
q-131 0 -200 -106.5t-69 -298.5q0 -455 267 -455q126 0 194 127t68 340q0 177 -70.5 285t-189.5 108z" />
    <glyph glyph-name="Yacute" unicode="&#xdd;" horiz-adv-x="1260" 
d="M1315 1348q-57 -6 -108.5 -36.5t-119.5 -125.5t-193.5 -310.5t-145 -262t-19.5 -134.5v-270q0 -57 38.5 -90t188.5 -47v-72h-663v72q147 10 185 32t38 95v344q0 34 -169 350.5t-223.5 381t-166.5 73.5v71h604v-71q-186 -9 -186 -48q0 -28 311 -591q324 520 324 565
q0 30 -35.5 47.5t-153.5 26.5v71h494v-71zM525 1507l-31 39q166 158 262 258q60 64 115 64q39 0 65.5 -22.5t26.5 -57.5q0 -48 -35 -76.5t-193 -102.5q-94 -44 -210 -102z" />
    <glyph glyph-name="yacute" unicode="&#xfd;" horiz-adv-x="1008" 
d="M1038 924q-34 -5 -78 -35t-58 -53.5t-89 -202.5l-138 -330q-141 -341 -210 -478.5t-146 -203t-155 -65.5q-73 0 -119.5 34.5t-46.5 87.5q0 48 25.5 80.5t68.5 32.5q86 0 156 -127q44 23 112.5 129t108.5 211l-336 820q-33 73 -151 96v65h448v-70q-113 -7 -113 -43
q0 -2 5 -14l10 -31l237 -583l201 491q4 12 11 27q24 54 24 84q0 51 -133 76v63h366v-61zM387 1110l-39 33q114 165 202 307q53 88 127 88q34 0 58 -23.5t24 -54.5q0 -56 -43 -91t-221 -174q-47 -36 -108 -85z" />
    <glyph glyph-name="Thorn" unicode="&#xde;" horiz-adv-x="1257" 
d="M502 324v-131q0 -71 36.5 -92.5t166.5 -28.5v-72h-607v72q124 10 157.5 32t33.5 89v1021q0 67 -53.5 97t-139.5 37v71h596v-71q-119 -10 -154.5 -35t-35.5 -88v-92h252q187 0 311.5 -103.5t124.5 -271.5q0 -205 -144.5 -319.5t-375.5 -114.5h-168zM502 1049v-637h108
q164 0 247 84.5t83 228.5q0 155 -76.5 239.5t-222.5 84.5h-139z" />
    <glyph glyph-name="thorn" unicode="&#xfe;" horiz-adv-x="1145" 
d="M369 41h-9v-297q0 -53 35.5 -81t163.5 -40v-67h-551v67q121 6 143.5 34t22.5 75v1585q0 31 -18.5 72t-46.5 52t-127 19v66l364 22l14 -14v-660l7 -2q129 142 278 142q182 0 304 -149t122 -380q0 -216 -139 -364t-326 -148q-152 0 -237 68zM360 793v-584q0 -28 60.5 -95
t169.5 -67q120 0 196 116.5t76 323.5q0 185 -75.5 299.5t-211.5 114.5q-123 0 -215 -108z" />
    <glyph glyph-name="glyph237" 
 />
    <glyph glyph-name="multiply" unicode="&#xd7;" horiz-adv-x="1317" 
d="M1020 111l-363 362l-360 -364l-88 90l362 360l-362 363l88 88l360 -363l363 363l88 -88l-365 -363l365 -360z" />
    <glyph glyph-name="uni00B9" unicode="&#xb9;" horiz-adv-x="1024" 
d="M223 489v72q74 0 138.5 9.5t64.5 70.5v631h-207v78h64q152 0 247 96h72q-6 -168 -6 -238v-559q0 -88 192 -88v-72h-565z" />
    <glyph glyph-name="uni00B2" unicode="&#xb2;" horiz-adv-x="1024" 
d="M147 489v111q61 101 228 207q169 106 229 182t60 193q0 98 -49.5 147t-129.5 49q-108 0 -155 -65q20 -85 20 -119q0 -29 -28 -52.5t-80 -23.5q-88 0 -88 103q0 86 100.5 158.5t245.5 72.5q159 0 256.5 -76t97.5 -200q0 -99 -45.5 -180t-222.5 -173q-233 -113 -307 -188
h620v-146h-752z" />
    <glyph glyph-name="uni00B3" unicode="&#xb3;" horiz-adv-x="1024" 
d="M297 582q66 -54 168 -54t162.5 59t60.5 169q0 178 -205 178h-106v92h76q192 0 192 201q0 153 -162 153q-92 0 -141 -57q18 -77 18 -109q0 -26 -28.5 -47.5t-77.5 -21.5q-88 0 -88 92q0 80 98.5 147.5t251.5 67.5q159 0 240.5 -68.5t81.5 -154.5q0 -169 -215 -230v-10
q258 -33 258 -237q0 -132 -119.5 -214.5t-302.5 -82.5q-144 0 -238 61t-94 139q0 41 22 71t62 30q53 0 79.5 -23t26.5 -51q0 -23 -7 -51q-8 -28 -13 -49z" />
    <glyph glyph-name="onehalf" unicode="&#xbd;" horiz-adv-x="2150" 
d="M136 489v72q74 0 138.5 9.5t64.5 70.5v631h-207v78h64q152 0 247 96h72q-6 -168 -6 -238v-559q0 -88 192 -88v-72h-565zM1436 1419l-737 -1419h-135l737 1419h135zM1292 1v111q61 101 228 207q169 106 229 182t60 193q0 98 -49.5 147t-129.5 49q-108 0 -155 -65
q20 -85 20 -119q0 -29 -28 -52.5t-80 -23.5q-88 0 -88 103q0 86 100.5 158.5t245.5 72.5q159 0 256.5 -76t97.5 -200q0 -99 -45.5 -180t-222.5 -173q-233 -113 -307 -188h620v-146h-752z" />
    <glyph glyph-name="onequarter" unicode="&#xbc;" horiz-adv-x="2150" 
d="M136 489v72q74 0 138.5 9.5t64.5 70.5v631h-207v78h64q152 0 247 96h72q-6 -168 -6 -238v-559q0 -88 192 -88v-72h-565zM1446 1419l-737 -1419h-135l737 1419h135zM1986 214h-157v-233h-166v233h-496v125l543 623h119v-639h157v-109zM1663 323v453l-394 -453h394z" />
    <glyph glyph-name="threequarters" unicode="&#xbe;" horiz-adv-x="2150" 
d="M288 582q66 -54 168 -54t162.5 59t60.5 169q0 178 -205 178h-106v92h76q192 0 192 201q0 153 -162 153q-92 0 -141 -57q18 -77 18 -109q0 -26 -28.5 -47.5t-77.5 -21.5q-88 0 -88 92q0 80 98.5 147.5t251.5 67.5q159 0 240.5 -68.5t81.5 -154.5q0 -169 -215 -230v-10
q258 -33 258 -237q0 -132 -119.5 -214.5t-302.5 -82.5q-144 0 -238 61t-94 139q0 41 22 71t62 30q53 0 79.5 -23t26.5 -51q0 -23 -7 -51q-8 -28 -13 -49zM1597 1419l-737 -1419h-135l737 1419h135zM2076 214h-157v-233h-166v233h-496v125l543 623h119v-639h157v-109z
M1753 323v453l-394 -453h394z" />
    <glyph glyph-name="glyph245" 
 />
    <glyph glyph-name="glyph246" 
 />
    <glyph glyph-name="glyph247" 
 />
    <glyph glyph-name="glyph248" 
 />
    <glyph glyph-name="glyph249" 
 />
    <glyph glyph-name="glyph250" 
 />
    <glyph glyph-name="glyph251" 
 />
    <glyph glyph-name="glyph252" 
 />
    <glyph glyph-name="glyph253" 
 />
    <glyph glyph-name="glyph254" 
 />
    <glyph glyph-name="glyph255" 
 />
    <glyph glyph-name="macron" unicode="&#xaf;" horiz-adv-x="1317" 
d="M-4 1604v100h1327v-100h-1327z" />
    <glyph glyph-name="periodcentered" unicode="&#xb7;" horiz-adv-x="571" 
d="M289 424q-57 0 -97.5 39.5t-40.5 95.5q0 55 40.5 96t97.5 41q56 0 96.5 -40.5t40.5 -96.5t-40.5 -95.5t-96.5 -39.5z" />
    <glyph glyph-name="glyph258" 
 />
    <glyph glyph-name="glyph259" 
 />
    <glyph glyph-name="glyph260" 
 />
    <glyph glyph-name="glyph261" 
 />
    <glyph glyph-name="glyph262" 
 />
    <glyph glyph-name="glyph263" 
 />
    <glyph glyph-name="glyph264" 
 />
    <glyph glyph-name="glyph265" 
 />
    <glyph glyph-name="glyph266" 
 />
    <glyph glyph-name="glyph267" 
 />
    <glyph glyph-name="glyph268" 
 />
    <glyph glyph-name="glyph269" 
 />
    <glyph glyph-name="glyph270" 
 />
    <glyph glyph-name="glyph271" 
 />
    <glyph glyph-name="glyph272" 
 />
    <glyph glyph-name="glyph273" 
 />
    <glyph glyph-name="glyph274" 
 />
    <glyph glyph-name="glyph275" 
 />
    <glyph glyph-name="glyph276" 
 />
    <glyph glyph-name="glyph277" 
 />
    <glyph glyph-name="glyph278" 
 />
    <glyph glyph-name="glyph279" 
 />
    <glyph glyph-name="glyph280" 
 />
    <glyph glyph-name="glyph281" 
 />
    <glyph glyph-name="glyph282" 
 />
    <glyph glyph-name="glyph283" 
 />
    <glyph glyph-name="glyph284" 
 />
    <glyph glyph-name="glyph285" 
 />
    <glyph glyph-name="glyph286" 
 />
    <glyph glyph-name="glyph287" 
 />
    <glyph glyph-name="glyph288" 
 />
    <glyph glyph-name="glyph289" 
 />
    <glyph glyph-name="glyph290" 
 />
    <glyph glyph-name="glyph291" 
 />
    <glyph glyph-name="glyph292" 
 />
    <glyph glyph-name="glyph293" 
 />
    <glyph glyph-name="glyph294" 
 />
    <glyph glyph-name="glyph295" 
 />
    <glyph glyph-name="glyph296" 
 />
    <glyph glyph-name="glyph297" 
 />
    <glyph glyph-name="glyph298" 
 />
    <glyph glyph-name="glyph299" 
 />
    <glyph glyph-name="glyph300" 
 />
    <glyph glyph-name="glyph301" 
 />
    <glyph glyph-name="glyph302" 
 />
    <glyph glyph-name="glyph303" 
 />
    <glyph glyph-name="glyph304" 
 />
    <glyph glyph-name="glyph305" 
 />
    <glyph glyph-name="glyph306" 
 />
    <glyph glyph-name="glyph307" 
 />
    <glyph glyph-name="glyph308" 
 />
    <glyph glyph-name="glyph309" 
 />
    <glyph glyph-name="glyph310" 
 />
    <glyph glyph-name="glyph311" 
 />
    <glyph glyph-name="glyph312" 
 />
    <glyph glyph-name="glyph313" 
 />
    <glyph glyph-name="glyph314" 
 />
    <glyph glyph-name="glyph315" 
 />
    <glyph glyph-name="glyph316" 
 />
    <glyph glyph-name="glyph317" 
 />
    <glyph glyph-name="glyph318" 
 />
    <glyph glyph-name="glyph319" 
 />
    <glyph glyph-name="glyph320" 
 />
    <glyph glyph-name="glyph321" 
 />
    <glyph glyph-name="glyph322" 
 />
    <glyph glyph-name="glyph323" 
 />
    <glyph glyph-name="glyph324" 
 />
    <glyph glyph-name="glyph325" 
 />
    <glyph glyph-name="glyph326" 
 />
    <glyph glyph-name="glyph327" 
 />
    <glyph glyph-name="glyph328" 
 />
    <glyph glyph-name="glyph329" 
 />
    <glyph glyph-name="glyph330" 
 />
    <glyph glyph-name="glyph331" 
 />
    <glyph glyph-name="glyph332" 
 />
    <glyph glyph-name="glyph333" 
 />
    <glyph glyph-name="glyph334" 
 />
    <glyph glyph-name="glyph335" 
 />
    <glyph glyph-name="glyph336" 
 />
    <glyph glyph-name="glyph337" 
 />
    <glyph glyph-name="glyph338" 
 />
    <glyph glyph-name="glyph339" 
 />
    <glyph glyph-name="glyph340" 
 />
    <glyph glyph-name="glyph341" 
 />
    <glyph glyph-name="glyph342" 
 />
    <glyph glyph-name="glyph343" 
 />
    <glyph glyph-name="glyph344" 
 />
    <glyph glyph-name="glyph345" 
 />
    <glyph glyph-name="glyph346" 
 />
    <glyph glyph-name="glyph347" 
 />
    <glyph glyph-name="glyph348" 
 />
    <glyph glyph-name="glyph349" 
 />
    <glyph glyph-name="glyph350" 
 />
    <glyph glyph-name="glyph351" 
 />
    <glyph glyph-name="glyph352" 
 />
    <glyph glyph-name="glyph353" 
 />
    <glyph glyph-name="glyph354" 
 />
    <glyph glyph-name="glyph355" 
 />
    <glyph glyph-name="glyph356" 
 />
    <glyph glyph-name="glyph357" 
 />
    <glyph glyph-name="glyph358" 
 />
    <glyph glyph-name="glyph359" 
 />
    <glyph glyph-name="glyph360" 
 />
    <glyph glyph-name="glyph361" 
 />
    <glyph glyph-name="glyph362" 
 />
    <glyph glyph-name="glyph363" 
 />
    <glyph glyph-name="glyph364" 
 />
    <glyph glyph-name="glyph365" 
 />
    <glyph glyph-name="glyph366" 
 />
    <glyph glyph-name="glyph367" 
 />
    <glyph glyph-name="glyph368" 
 />
    <glyph glyph-name="glyph369" 
 />
    <glyph glyph-name="glyph370" 
 />
    <glyph glyph-name="glyph371" 
 />
    <glyph glyph-name="glyph372" 
 />
    <glyph glyph-name="glyph373" 
 />
    <glyph glyph-name="glyph374" 
 />
    <glyph glyph-name="glyph375" 
 />
    <glyph glyph-name="glyph376" 
 />
    <glyph glyph-name="glyph377" 
 />
    <glyph glyph-name="glyph378" 
 />
    <glyph glyph-name="glyph379" 
 />
    <glyph glyph-name="glyph380" 
 />
    <glyph glyph-name="glyph381" 
 />
    <glyph glyph-name="glyph382" 
 />
    <glyph glyph-name="glyph383" 
 />
    <glyph glyph-name="glyph384" 
 />
    <glyph glyph-name="glyph385" 
 />
    <glyph glyph-name="glyph386" 
 />
    <glyph glyph-name="glyph387" 
 />
    <glyph glyph-name="glyph388" 
 />
    <glyph glyph-name="glyph389" 
 />
    <glyph glyph-name="glyph390" 
 />
    <glyph glyph-name="glyph391" 
 />
    <glyph glyph-name="glyph392" 
 />
    <glyph glyph-name="glyph393" 
 />
    <glyph glyph-name="glyph394" 
 />
    <glyph glyph-name="glyph395" 
 />
    <glyph glyph-name="glyph396" 
 />
    <glyph glyph-name="glyph397" 
 />
    <glyph glyph-name="glyph398" 
 />
    <glyph glyph-name="glyph399" 
 />
    <glyph glyph-name="glyph400" 
 />
    <glyph glyph-name="glyph401" 
 />
    <glyph glyph-name="glyph402" 
 />
    <glyph glyph-name="glyph403" 
 />
    <glyph glyph-name="glyph404" 
 />
    <glyph glyph-name="glyph405" 
 />
    <glyph glyph-name="glyph406" 
 />
    <glyph glyph-name="glyph407" 
 />
    <glyph glyph-name="glyph408" 
 />
    <glyph glyph-name="glyph409" 
 />
    <glyph glyph-name="glyph410" 
 />
    <glyph glyph-name="glyph411" 
 />
    <glyph glyph-name="glyph412" 
 />
    <glyph glyph-name="glyph413" 
 />
    <glyph glyph-name="glyph414" 
 />
    <glyph glyph-name="glyph415" 
 />
    <glyph glyph-name="glyph416" 
 />
    <glyph glyph-name="glyph417" 
 />
    <glyph glyph-name="glyph418" 
 />
    <glyph glyph-name="glyph419" 
 />
    <glyph glyph-name="glyph420" 
 />
    <glyph glyph-name="glyph421" 
 />
    <glyph glyph-name="glyph422" 
 />
    <glyph glyph-name="glyph423" 
 />
    <glyph glyph-name="glyph424" 
 />
    <glyph glyph-name="glyph425" 
 />
    <glyph glyph-name="glyph426" 
 />
    <glyph glyph-name="glyph427" 
 />
    <glyph glyph-name="glyph428" 
 />
    <glyph glyph-name="glyph429" 
 />
    <glyph glyph-name="glyph430" 
 />
    <glyph glyph-name="glyph431" 
 />
    <glyph glyph-name="glyph432" 
 />
    <glyph glyph-name="glyph433" 
 />
    <glyph glyph-name="glyph434" 
 />
    <glyph glyph-name="glyph435" 
 />
    <glyph glyph-name="glyph436" 
 />
    <glyph glyph-name="glyph437" 
 />
    <glyph glyph-name="glyph438" 
 />
    <glyph glyph-name="glyph439" 
 />
    <glyph glyph-name="glyph440" 
 />
    <glyph glyph-name="glyph441" 
 />
    <glyph glyph-name="glyph442" 
 />
    <glyph glyph-name="glyph443" 
 />
    <glyph glyph-name="glyph444" 
 />
    <glyph glyph-name="glyph445" 
 />
    <glyph glyph-name="glyph446" 
 />
    <glyph glyph-name="glyph447" 
 />
    <glyph glyph-name="glyph448" 
 />
    <glyph glyph-name="glyph449" 
 />
    <glyph glyph-name="glyph450" 
 />
    <glyph glyph-name="glyph451" 
 />
    <glyph glyph-name="glyph452" 
 />
    <glyph glyph-name="glyph453" 
 />
    <glyph glyph-name="glyph454" 
 />
    <glyph glyph-name="glyph455" 
 />
    <glyph glyph-name="glyph456" 
 />
    <glyph glyph-name="glyph457" 
 />
    <glyph glyph-name="glyph458" 
 />
    <glyph glyph-name="glyph459" 
 />
    <glyph glyph-name="glyph460" 
 />
    <glyph glyph-name="glyph461" 
 />
    <glyph glyph-name="glyph462" 
 />
    <glyph glyph-name="glyph463" 
 />
    <glyph glyph-name="glyph464" 
 />
    <glyph glyph-name="glyph465" 
 />
    <glyph glyph-name="glyph466" 
 />
    <glyph glyph-name="glyph467" 
 />
    <glyph glyph-name="glyph468" 
 />
    <glyph glyph-name="glyph469" 
 />
    <glyph glyph-name="glyph470" 
 />
    <glyph glyph-name="glyph471" 
 />
    <glyph glyph-name="glyph472" 
 />
    <glyph glyph-name="glyph473" 
 />
    <glyph glyph-name="glyph474" 
 />
    <glyph glyph-name="glyph475" 
 />
    <glyph glyph-name="glyph476" 
 />
    <glyph glyph-name="glyph477" 
 />
    <glyph glyph-name="glyph478" 
 />
    <glyph glyph-name="glyph479" 
 />
    <glyph glyph-name="glyph480" 
 />
    <glyph glyph-name="glyph481" 
 />
    <glyph glyph-name="glyph482" 
 />
    <glyph glyph-name="glyph483" 
 />
    <glyph glyph-name="glyph484" 
 />
    <glyph glyph-name="glyph485" 
 />
    <glyph glyph-name="glyph486" 
 />
    <glyph glyph-name="glyph487" 
 />
    <glyph glyph-name="glyph488" 
 />
    <glyph glyph-name="glyph489" 
 />
    <glyph glyph-name="glyph490" 
 />
    <glyph glyph-name="glyph491" 
 />
    <glyph glyph-name="glyph492" 
 />
    <glyph glyph-name="glyph493" 
 />
    <glyph glyph-name="glyph494" 
 />
    <glyph glyph-name="glyph495" 
 />
    <glyph glyph-name="glyph496" 
 />
    <glyph glyph-name="glyph497" 
 />
    <glyph glyph-name="glyph498" 
 />
    <glyph glyph-name="glyph499" 
 />
    <glyph glyph-name="glyph500" 
 />
    <glyph glyph-name="glyph501" 
 />
    <glyph glyph-name="glyph502" 
 />
    <glyph glyph-name="glyph503" 
 />
    <glyph glyph-name="glyph504" 
 />
    <glyph glyph-name="glyph505" 
 />
    <glyph glyph-name="glyph506" 
 />
    <glyph glyph-name="glyph507" 
 />
    <glyph glyph-name="glyph508" 
 />
    <glyph glyph-name="glyph509" 
 />
    <glyph glyph-name="glyph510" 
 />
    <glyph glyph-name="glyph511" 
 />
    <glyph glyph-name="glyph512" 
 />
    <glyph glyph-name="glyph513" 
 />
    <glyph glyph-name="glyph514" 
 />
    <glyph glyph-name="glyph515" 
 />
    <glyph glyph-name="glyph516" 
 />
    <glyph glyph-name="glyph517" 
 />
    <glyph glyph-name="glyph518" 
 />
    <glyph glyph-name="glyph519" 
 />
    <glyph glyph-name="glyph520" 
 />
    <glyph glyph-name="glyph521" 
 />
    <glyph glyph-name="glyph522" 
 />
    <glyph glyph-name="glyph523" 
 />
    <glyph glyph-name="glyph524" 
 />
    <glyph glyph-name="glyph525" 
 />
    <glyph glyph-name="glyph526" 
 />
    <glyph glyph-name="glyph527" 
 />
    <glyph glyph-name="glyph528" 
 />
    <glyph glyph-name="glyph529" 
 />
    <glyph glyph-name="glyph530" 
 />
    <glyph glyph-name="glyph531" 
 />
    <glyph glyph-name="glyph532" 
 />
    <glyph glyph-name="glyph533" 
 />
    <glyph glyph-name="glyph534" 
 />
    <glyph glyph-name="glyph535" 
 />
    <glyph glyph-name="glyph536" 
 />
    <glyph glyph-name="glyph537" 
 />
    <glyph glyph-name="glyph538" 
 />
    <glyph glyph-name="glyph539" 
 />
    <glyph glyph-name="glyph540" 
 />
    <glyph glyph-name="glyph541" 
 />
    <glyph glyph-name="glyph542" 
 />
    <glyph glyph-name="glyph543" 
 />
    <glyph glyph-name="glyph544" 
 />
    <glyph glyph-name="glyph545" 
 />
    <glyph glyph-name="glyph546" 
 />
    <glyph glyph-name="glyph547" 
 />
    <glyph glyph-name="glyph548" 
 />
    <glyph glyph-name="glyph549" 
 />
    <glyph glyph-name="glyph550" 
 />
    <glyph glyph-name="glyph551" 
 />
    <glyph glyph-name="glyph552" 
 />
    <glyph glyph-name="glyph553" 
 />
    <glyph glyph-name="glyph554" 
 />
    <glyph glyph-name="glyph555" 
 />
    <glyph glyph-name="glyph556" 
 />
    <glyph glyph-name="glyph557" 
 />
    <glyph glyph-name="glyph558" 
 />
    <glyph glyph-name="glyph559" 
 />
    <glyph glyph-name="glyph560" 
 />
    <glyph glyph-name="glyph561" 
 />
    <glyph glyph-name="glyph562" 
 />
    <glyph glyph-name="glyph563" 
 />
    <glyph glyph-name="glyph564" 
 />
    <glyph glyph-name="glyph565" 
 />
    <glyph glyph-name="glyph566" 
 />
    <glyph glyph-name="glyph567" 
 />
    <glyph glyph-name="glyph568" 
 />
    <glyph glyph-name="afii61352" unicode="&#x2116;" horiz-adv-x="2501" 
d="M1524 1348q-123 -15 -176.5 -53.5t-53.5 -270.5v-1038h-88l-829 1161v-731q0 -132 16 -193t38.5 -83.5t87 -43t112.5 -24.5v-72h-584v72q119 17 176.5 54t57.5 277v701q0 207 -256 244v71h403l768 -1081v674q0 218 -46.5 265.5t-203.5 70.5v71h578v-71zM1944 459
q-161 0 -274.5 118.5t-113.5 303.5q0 187 111 306.5t291 119.5q174 0 281.5 -117.5t107.5 -298.5q0 -188 -110 -310t-293 -122zM1956 1233q-105 0 -160 -93.5t-55 -246.5q0 -165 55.5 -263t157.5 -98q99 0 154 97.5t55 259.5q0 158 -54 251t-153 93zM1602 143v105h696v-105
h-696z" />
    <glyph glyph-name="glyph570" 
 />
    <glyph glyph-name="uni2074" unicode="&#x2074;" horiz-adv-x="1024" 
d="M905 702h-157v-233h-166v233h-496v125l543 623h119v-639h157v-109zM582 811v453l-394 -453h394z" />
    <glyph glyph-name="uni2075" unicode="&#x2075;" horiz-adv-x="1024" 
d="M260 1419h555v-137h-475l-39 -254q91 57 203 57q154 0 249 -78t95 -216q0 -141 -107.5 -238.5t-289.5 -97.5q-139 0 -230.5 57.5t-91.5 132.5q0 44 25 72t63 28q45 0 73.5 -23.5t28.5 -53.5q0 -34 -20 -97q59 -43 152 -43q98 0 156.5 71.5t58.5 191.5q0 87 -56 144.5
t-145 57.5q-131 0 -205 -86l-65 23z" />
    <glyph glyph-name="uni2077" unicode="&#x2077;" horiz-adv-x="1024" 
d="M891 1419v-57l-524 -893h-123l487 817h-270q-139 0 -168.5 -20.5t-52.5 -135.5h-64v289h715z" />
    <glyph glyph-name="uni2078" unicode="&#x2078;" horiz-adv-x="1024" 
d="M342 965q-170 85 -170 227q0 103 103 180.5t249 77.5q147 0 236.5 -69t89.5 -179q0 -138 -170 -221q211 -80 211 -246q0 -111 -106.5 -194.5t-286.5 -83.5q-165 0 -265 75.5t-100 194.5q0 155 209 238zM608 1016q80 51 80 192q0 72 -48.5 120t-125.5 48q-76 0 -124 -44.5
t-48 -108.5q0 -66 53 -109.5t213 -97.5zM410 932q-111 -60 -111 -199q0 -91 59 -147t158 -56q93 0 149 49.5t56 125.5q0 64 -62 112.5t-249 114.5z" />
    <glyph glyph-name="uni0308" unicode="&#x308;" horiz-adv-x="1024" 
d="M737 1608q-49 0 -84 35.5t-35 87.5q0 51 35 86.5t84 35.5t83 -35.5t34 -86.5q0 -52 -34 -87.5t-83 -35.5zM287 1608q-49 0 -83 35.5t-34 87.5q0 51 34 86.5t83 35.5t84 -35.5t35 -86.5q0 -52 -35 -87.5t-84 -35.5z" />
    <glyph glyph-name="acutecomb" unicode="&#x301;" horiz-adv-x="1024" 
d="M287 1507l-31 39q166 158 262 258q60 64 115 64q39 0 65.5 -22.5t26.5 -57.5q0 -48 -35 -76.5t-193 -102.5q-94 -44 -210 -102z" />
    <glyph glyph-name="gravecomb" unicode="&#x300;" horiz-adv-x="1024" 
d="M737 1507q-116 58 -209 102q-103 48 -166 81t-63 98q0 80 92 80q56 0 102 -50t275 -272z" />
    <glyph glyph-name="uni0302" unicode="&#x302;" horiz-adv-x="1024" 
d="M788 1507l-278 211l-274 -211l-50 31l236 285q21 25 36 35t56 10q54 0 86 -41l238 -289z" />
    <glyph glyph-name="uni030C" unicode="&#x30c;" horiz-adv-x="1024" 
d="M838 1835l-236 -283q-29 -35 -39.5 -40t-52.5 -5q-54 0 -86 41l-238 287l50 33l278 -213l274 213z" />
    <glyph glyph-name="glyph580" 
 />
    <glyph glyph-name="glyph581" 
 />
    <glyph glyph-name="glyph582" 
 />
    <glyph glyph-name="glyph583" 
 />
    <glyph glyph-name="currency" unicode="&#xa4;" horiz-adv-x="1169" 
d="M920 141l-189 185q-70 -43 -145 -43q-78 0 -146 43l-188 -187l-84 90l182 187q-41 72 -41 143q0 73 41 143l-182 191l88 86l184 -186q68 43 146 43q71 0 143 -41l186 184l91 -86l-187 -191q43 -66 43 -143q0 -75 -43 -143l187 -189zM586 725q-69 0 -115.5 -48t-46.5 -118
q0 -69 48 -117.5t114 -48.5q68 0 115 49t47 117q0 69 -48 117.5t-114 48.5z" />
    <glyph glyph-name="glyph585" 
 />
    <glyph glyph-name="glyph586" 
 />
    <glyph glyph-name="glyph587" 
 />
    <glyph glyph-name="glyph588" 
 />
    <glyph glyph-name="glyph589" 
 />
    <glyph glyph-name="glyph590" 
 />
    <glyph glyph-name="glyph591" 
 />
    <glyph glyph-name="glyph592" 
 />
    <glyph glyph-name="glyph593" 
 />
    <glyph glyph-name="glyph594" 
 />
    <glyph glyph-name="iacute.locl" horiz-adv-x="600" 
d="M74 0v66l48 5q97 7 97 97v608q0 122 -176 135v66l348 20l15 -14v-803q0 -57 35.5 -81t109.5 -33v-66h-477zM296 1166q-51 0 -88 39t-37 92q0 54 36.5 94.5t88.5 40.5q57 0 94 -38t37 -89q0 -57 -37.5 -98t-93.5 -41zM106 1507l-31 39q166 158 262 258q60 64 115 64
q39 0 65.5 -22.5t26.5 -57.5q0 -48 -35 -76.5t-193 -102.5q-94 -44 -210 -102z" />
    <glyph glyph-name="glyph596" 
 />
    <glyph glyph-name="glyph597" 
 />
    <glyph glyph-name="uni2070" unicode="&#x2070;" horiz-adv-x="1024" 
d="M510 457q-188 0 -291.5 129t-103.5 368q0 228 102.5 362t292.5 134q188 0 291.5 -132.5t103.5 -363.5q0 -236 -104.5 -366.5t-290.5 -130.5zM510 1376q-213 0 -213 -424q0 -422 213 -422q101 0 157 109t56 313q0 424 -213 424z" />
    <glyph glyph-name="uni2076" unicode="&#x2076;" horiz-adv-x="1024" 
d="M750 1454l12 -76l-70 -12q-100 -17 -214.5 -103.5t-151.5 -267.5q120 92 266 92q133 0 217 -83.5t84 -215.5q0 -143 -106.5 -237t-262.5 -94q-175 0 -282 108t-107 287q0 237 167 402.5t448 199.5zM322 913q0 -6 -4 -52q-11 -125 39 -228t159 -103q88 0 141.5 65
t53.5 175q0 101 -56 161t-145 60q-110 0 -188 -78z" />
    <glyph glyph-name="uni2079" unicode="&#x2079;" horiz-adv-x="1024" 
d="M270 457l-16 75l70 13q104 19 218 105.5t152 264.5q-123 -92 -266 -92q-131 0 -216 80.5t-85 212.5q0 143 105.5 240.5t263.5 97.5q178 0 283.5 -107t105.5 -288q0 -240 -163.5 -403t-451.5 -199zM698 997l4 74q0 150 -52.5 229.5t-145.5 79.5q-89 0 -142 -65t-53 -174
q0 -101 56 -161t145 -60q109 0 188 77z" />
    <glyph glyph-name="uni2080" unicode="&#x2080;" horiz-adv-x="1024" 
d="M510 -29q-188 0 -291.5 129t-103.5 368q0 228 102.5 362t292.5 134q188 0 291.5 -132.5t103.5 -363.5q0 -236 -104.5 -366.5t-290.5 -130.5zM510 890q-213 0 -213 -424q0 -422 213 -422q101 0 157 109t56 313q0 424 -213 424z" />
    <glyph glyph-name="uni2081" unicode="&#x2081;" horiz-adv-x="1024" 
d="M223 3v72q74 0 138.5 9.5t64.5 70.5v631h-207v78h64q152 0 247 96h72q-6 -168 -6 -238v-559q0 -88 192 -88v-72h-565z" />
    <glyph glyph-name="uni2082" unicode="&#x2082;" horiz-adv-x="1024" 
d="M147 3v111q61 101 228 207q169 106 229 182t60 193q0 98 -49.5 147t-129.5 49q-108 0 -155 -65q20 -85 20 -119q0 -29 -28 -52.5t-80 -23.5q-88 0 -88 103q0 86 100.5 158.5t245.5 72.5q159 0 256.5 -76t97.5 -200q0 -99 -45.5 -180t-222.5 -173q-233 -113 -307 -188h620
v-146h-752z" />
    <glyph glyph-name="uni2083" unicode="&#x2083;" horiz-adv-x="1024" 
d="M297 96q66 -54 168 -54t162.5 59t60.5 169q0 178 -205 178h-106v92h76q192 0 192 201q0 153 -162 153q-92 0 -141 -57q18 -77 18 -109q0 -26 -28.5 -47.5t-77.5 -21.5q-88 0 -88 92q0 80 98.5 147.5t251.5 67.5q159 0 240.5 -68.5t81.5 -154.5q0 -169 -215 -230v-10
q258 -33 258 -237q0 -132 -119.5 -214.5t-302.5 -82.5q-144 0 -238 61t-94 139q0 41 22 71t62 30q53 0 79.5 -23t26.5 -51q0 -23 -7 -51q-8 -28 -13 -49z" />
    <glyph glyph-name="uni2084" unicode="&#x2084;" horiz-adv-x="1024" 
d="M905 216h-157v-233h-166v233h-496v125l543 623h119v-639h157v-109zM582 325v453l-394 -453h394z" />
    <glyph glyph-name="uni2085" unicode="&#x2085;" horiz-adv-x="1024" 
d="M260 933h555v-137h-475l-39 -254q91 57 203 57q154 0 249 -78t95 -216q0 -141 -107.5 -238.5t-289.5 -97.5q-139 0 -230.5 57.5t-91.5 132.5q0 44 25 72t63 28q45 0 73.5 -23.5t28.5 -53.5q0 -34 -20 -97q59 -43 152 -43q98 0 156.5 71.5t58.5 191.5q0 87 -56 144.5
t-145 57.5q-131 0 -205 -86l-65 23z" />
    <glyph glyph-name="uni2086" unicode="&#x2086;" horiz-adv-x="1024" 
d="M750 968l12 -76l-70 -12q-100 -17 -214.5 -103.5t-151.5 -267.5q120 92 266 92q133 0 217 -83.5t84 -215.5q0 -143 -106.5 -237t-262.5 -94q-175 0 -282 108t-107 287q0 237 167 402.5t448 199.5zM322 427q0 -6 -4 -52q-11 -125 39 -228t159 -103q88 0 141.5 65t53.5 175
q0 101 -56 161t-145 60q-110 0 -188 -78z" />
    <glyph glyph-name="uni2087" unicode="&#x2087;" horiz-adv-x="1024" 
d="M891 933v-57l-524 -893h-123l487 817h-270q-139 0 -168.5 -20.5t-52.5 -135.5h-64v289h715z" />
    <glyph glyph-name="uni2088" unicode="&#x2088;" horiz-adv-x="1024" 
d="M342 479q-170 85 -170 227q0 103 103 180.5t249 77.5q147 0 236.5 -69t89.5 -179q0 -138 -170 -221q211 -80 211 -246q0 -111 -106.5 -194.5t-286.5 -83.5q-165 0 -265 75.5t-100 194.5q0 155 209 238zM608 530q80 51 80 192q0 72 -48.5 120t-125.5 48q-76 0 -124 -44.5
t-48 -108.5q0 -66 53 -109.5t213 -97.5zM410 446q-111 -60 -111 -199q0 -91 59 -147t158 -56q93 0 149 49.5t56 125.5q0 64 -62 112.5t-249 114.5z" />
    <glyph glyph-name="uni2089" unicode="&#x2089;" horiz-adv-x="1024" 
d="M270 -29l-16 75l70 13q104 19 218 105.5t152 264.5q-123 -92 -266 -92q-131 0 -216 80.5t-85 212.5q0 143 105.5 240.5t263.5 97.5q178 0 283.5 -107t105.5 -288q0 -240 -163.5 -403t-451.5 -199zM698 511l4 74q0 150 -52.5 229.5t-145.5 79.5q-89 0 -142 -65t-53 -174
q0 -101 56 -161t145 -60q109 0 188 77z" />
    <glyph glyph-name="zero.oldstyle.lnum" horiz-adv-x="1194" 
d="M595 -33q-246 0 -374.5 198.5t-128.5 545.5q0 342 133 540.5t373 198.5q242 0 372.5 -200.5t130.5 -538.5q0 -355 -134.5 -549.5t-371.5 -194.5zM598 1382q-140 0 -212.5 -174t-72.5 -497q0 -325 72.5 -499.5t209.5 -174.5q139 0 212 175t73 499q0 322 -72.5 496.5
t-209.5 174.5z" />
    <glyph glyph-name="one.oldstyle.lnum" horiz-adv-x="868" 
d="M61 72q287 5 287 133v1034h-291v84h96q94 0 183.5 37.5t131.5 89.5h84q-10 -260 -10 -309v-936q0 -63 51.5 -94.5t223.5 -38.5v-72h-756v72z" />
    <glyph glyph-name="two.oldstyle.lnum" horiz-adv-x="1137" 
d="M91 0v135q51 92 381 371q178 150 239.5 252t61.5 289q0 154 -71 237.5t-189 83.5q-142 0 -209 -94q3 -16 8 -35q21 -82 21 -129q0 -40 -34.5 -68t-92.5 -28q-102 0 -102 127q0 121 120 215t316 94q213 0 335 -104t122 -297q0 -121 -36 -202.5t-101 -147.5t-259 -214
q-264 -201 -356 -309h803v-176h-957z" />
    <glyph glyph-name="three.oldstyle.lnum" horiz-adv-x="1130" 
d="M265 135q68 -84 238 -84q136 0 220.5 95t84.5 264q0 286 -274 286h-131v115h88q260 0 260 305q0 252 -228 252q-123 0 -183 -69q-14 -16 -21 -23q26 -104 26 -166q0 -39 -33 -67.5t-90 -28.5q-102 0 -102 125q0 115 124.5 213t317.5 98q200 0 305 -100t105 -228
q0 -257 -297 -342v-14q168 -19 261 -113.5t93 -246.5q0 -190 -153.5 -313.5t-384.5 -123.5q-184 0 -303 86.5t-119 200.5q0 127 100 127q55 0 89 -27t34 -69q0 -56 -27 -152z" />
    <glyph glyph-name="four.oldstyle.lnum" horiz-adv-x="1157" 
d="M891 428v-428h-193v428h-639v156l701 854h131v-879h203v-131h-203zM698 1214l-538 -655h538v655z" />
    <glyph glyph-name="five.oldstyle.lnum" horiz-adv-x="1081" 
d="M249 123q80 -70 221 -70q139 0 221 109t82 303q0 141 -81.5 233.5t-205.5 92.5q-173 0 -272 -129l-68 24l84 733h717v-178h-635l-51 -434q134 94 278 94q192 0 321.5 -117t129.5 -317q0 -215 -148 -355.5t-372 -140.5q-171 0 -294.5 82.5t-123.5 194.5q0 58 28 92.5
t74 34.5q54 0 88.5 -29.5t34.5 -71.5q0 -45 -28 -151z" />
    <glyph glyph-name="six.oldstyle.lnum" horiz-adv-x="1159" 
d="M878 1454l18 -90l-90 -16q-56 -10 -180 -82.5t-203 -199.5t-106 -296q156 137 348 137q167 0 285 -129t118 -317q0 -207 -139 -350.5t-344 -143.5q-222 0 -356 160t-134 430q0 354 211.5 600.5t571.5 296.5zM312 670l-4 -123q0 -232 76 -366t203 -134q119 0 191.5 104.5
t72.5 282.5q0 165 -75 262t-199 97q-155 0 -265 -123z" />
    <glyph glyph-name="seven.oldstyle.lnum" horiz-adv-x="1106" 
d="M394 -20h-125l670 1269h-494q-136 0 -186.5 -14t-83.5 -58t-49 -151h-62v391h1043v-63z" />
    <glyph glyph-name="eight.oldstyle.lnum" horiz-adv-x="1221" 
d="M416 725q-254 142 -254 348q0 158 136 270.5t335 112.5q193 0 312.5 -102.5t119.5 -261.5q0 -220 -260 -340q168 -73 239.5 -160t71.5 -215q0 -171 -148 -291.5t-376 -120.5q-221 0 -354.5 110.5t-133.5 286.5q0 243 312 363zM733 786q141 86 141 316q0 118 -71 196
t-187 78q-115 0 -185.5 -74t-70.5 -182q0 -110 88 -182t285 -152zM485 690q-186 -101 -186 -315q0 -147 87 -238.5t230 -91.5q138 0 220 79.5t82 205.5q0 106 -83 179t-350 181z" />
    <glyph glyph-name="nine.oldstyle.lnum" horiz-adv-x="1159" 
d="M270 -25l-16 90l88 17q127 25 285 155t209 412q-155 -135 -349 -135q-167 0 -285 128.5t-118 317.5q0 208 140 350t343 142q222 0 356 -160t134 -430q0 -351 -209.5 -592.5t-577.5 -294.5zM840 749l4 123q0 232 -76 366t-203 134q-118 0 -191 -103t-73 -282
q0 -162 74.5 -260t199.5 -98q158 0 265 120z" />
    <glyph glyph-name="zero" unicode="0" horiz-adv-x="1153" 
d="M575 -33q-246 0 -374.5 198.5t-128.5 545.5q0 342 133 540.5t373 198.5q242 0 372.5 -200.5t130.5 -538.5q0 -355 -134.5 -549.5t-371.5 -194.5zM578 1382q-140 0 -212.5 -174t-72.5 -497q0 -325 72.5 -499.5t209.5 -174.5q139 0 212 175t73 499q0 322 -72.5 496.5
t-209.5 174.5z" />
    <glyph glyph-name="one" unicode="1" horiz-adv-x="1153" 
d="M207 72q287 5 287 133v1034h-291v84h96q94 0 183.5 37.5t131.5 89.5h84q-10 -260 -10 -309v-936q0 -63 51.5 -94.5t223.5 -38.5v-72h-756v72z" />
    <glyph glyph-name="two" unicode="2" horiz-adv-x="1153" 
d="M98 0v135q51 92 381 371q178 150 239.5 252t61.5 289q0 154 -71 237.5t-189 83.5q-142 0 -209 -94q3 -16 8 -35q21 -82 21 -129q0 -40 -34.5 -68t-92.5 -28q-102 0 -102 127q0 121 120 215t316 94q213 0 335 -104t122 -297q0 -121 -36 -202.5t-101 -147.5t-259 -214
q-264 -201 -356 -309h803v-176h-957z" />
    <glyph glyph-name="three" unicode="3" horiz-adv-x="1153" 
d="M274 135q68 -84 238 -84q136 0 220.5 95t84.5 264q0 286 -274 286h-131v115h88q260 0 260 305q0 252 -228 252q-123 0 -183 -69q-14 -16 -21 -23q26 -104 26 -166q0 -39 -33 -67.5t-90 -28.5q-102 0 -102 125q0 115 124.5 213t317.5 98q200 0 305 -100t105 -228
q0 -257 -297 -342v-14q168 -19 261 -113.5t93 -246.5q0 -190 -153.5 -313.5t-384.5 -123.5q-184 0 -303 86.5t-119 200.5q0 127 100 127q55 0 89 -27t34 -69q0 -56 -27 -152z" />
    <glyph glyph-name="four" unicode="4" horiz-adv-x="1153" 
d="M891 428v-428h-193v428h-639v156l701 854h131v-879h203v-131h-203zM698 1214l-538 -655h538v655z" />
    <glyph glyph-name="five" unicode="5" horiz-adv-x="1153" 
d="M279 123q80 -70 221 -70q139 0 221 109t82 303q0 141 -81.5 233.5t-205.5 92.5q-173 0 -272 -129l-68 24l84 733h717v-178h-635l-51 -434q134 94 278 94q192 0 321.5 -117t129.5 -317q0 -215 -148 -355.5t-372 -140.5q-171 0 -294.5 82.5t-123.5 194.5q0 58 28 92.5
t74 34.5q54 0 88.5 -29.5t34.5 -71.5q0 -45 -28 -151z" />
    <glyph glyph-name="six" unicode="6" horiz-adv-x="1153" 
d="M878 1454l18 -90l-90 -16q-56 -10 -180 -82.5t-203 -199.5t-106 -296q156 137 348 137q167 0 285 -129t118 -317q0 -207 -139 -350.5t-344 -143.5q-222 0 -356 160t-134 430q0 354 211.5 600.5t571.5 296.5zM312 670l-4 -123q0 -232 76 -366t203 -134q119 0 191.5 104.5
t72.5 282.5q0 165 -75 262t-199 97q-155 0 -265 -123z" />
    <glyph glyph-name="seven" unicode="7" horiz-adv-x="1153" 
d="M432 -20h-125l670 1269h-494q-136 0 -186.5 -14t-83.5 -58t-49 -151h-62v391h1043v-63z" />
    <glyph glyph-name="eight" unicode="8" horiz-adv-x="1153" 
d="M382 725q-254 142 -254 348q0 158 136 270.5t335 112.5q193 0 312.5 -102.5t119.5 -261.5q0 -220 -260 -340q168 -73 239.5 -160t71.5 -215q0 -171 -148 -291.5t-376 -120.5q-221 0 -354.5 110.5t-133.5 286.5q0 243 312 363zM699 786q141 86 141 316q0 118 -71 196
t-187 78q-115 0 -185.5 -74t-70.5 -182q0 -110 88 -182t285 -152zM451 690q-186 -101 -186 -315q0 -147 87 -238.5t230 -91.5q138 0 220 79.5t82 205.5q0 106 -83 179t-350 181z" />
    <glyph glyph-name="nine" unicode="9" horiz-adv-x="1153" 
d="M270 -25l-16 90l88 17q127 25 285 155t209 412q-155 -135 -349 -135q-167 0 -285 128.5t-118 317.5q0 208 140 350t343 142q222 0 356 -160t134 -430q0 -351 -209.5 -592.5t-577.5 -294.5zM840 749l4 123q0 232 -76 366t-203 134q-118 0 -191 -103t-73 -282
q0 -162 74.5 -260t199.5 -98q158 0 265 120z" />
    <glyph glyph-name="dollar.aalt" horiz-adv-x="1153" 
d="M622 -16v-283h-84v281q-193 3 -317.5 93t-124.5 224q0 123 98 123q56 0 84.5 -26.5t28.5 -61.5q0 -28 -33 -124q-7 -21 -10 -34q64 -112 274 -117v506q-279 99 -342 187t-63 198q0 140 115 240t290 104v230h84v-230q182 -4 288.5 -88.5t106.5 -187.5q0 -109 -90 -109
q-48 0 -81.5 25t-33.5 57q0 42 17 110q4 16 6 27q-59 86 -213 86v-462l65 -25q237 -92 297 -175.5t60 -186.5q0 -153 -116 -260t-306 -121zM538 1214q-96 0 -161.5 -55t-65.5 -135q0 -87 42.5 -141.5t184.5 -108.5v440zM622 545v-484q233 14 233 224q0 174 -211 251
q-13 4 -22 9z" />
    <glyph glyph-name="cent.aalt" horiz-adv-x="1153" 
d="M1040 233q-140 -230 -389 -251v-281h-82v281q-202 17 -315 157t-113 361q0 192 118.5 339t309.5 171v266h82v-260q161 -4 251.5 -78t90.5 -182q0 -127 -106 -127q-121 0 -121 96q0 41 24 130q5 18 7 32q-35 49 -146 57v-856l10 -2q39 -8 132.5 21.5t187.5 173.5zM569 938
q-225 -66 -225 -430q0 -328 225 -408v838z" />
    <glyph glyph-name="sterling.aalt" horiz-adv-x="1153" 
d="M1100 176v-176h-1048v147q219 73 219 474h-166v96h166q-14 232 -14 252q0 212 125.5 349.5t328.5 137.5q157 0 257 -89t100 -208q0 -125 -105 -125q-62 0 -94.5 30t-32.5 69q0 45 31 159q-48 84 -160 84q-114 0 -180 -76t-66 -217q0 -60 6 -175q5 -116 5 -191h395v-96
h-395q0 -279 -238 -435v-10h866z" />
    <glyph glyph-name="currency.aalt" horiz-adv-x="1153" 
d="M911 141l-189 185q-70 -43 -145 -43q-78 0 -146 43l-188 -187l-84 90l182 187q-41 72 -41 143q0 73 41 143l-182 191l88 86l184 -186q68 43 146 43q71 0 143 -41l186 184l91 -86l-187 -191q43 -66 43 -143q0 -75 -43 -143l187 -189zM577 725q-69 0 -115.5 -48t-46.5 -118
q0 -69 48 -117.5t114 -48.5q68 0 115 49t47 117q0 69 -48 117.5t-114 48.5z" />
    <glyph glyph-name="yen.aalt" horiz-adv-x="1153" 
d="M1228 1348q-87 -15 -154.5 -69t-402.5 -636v-84h393v-94h-393v-258q0 -56 34 -88.5t171 -46.5v-72h-611v72q132 11 166.5 31.5t34.5 93.5v268h-391v94h391v66q-291 578 -359.5 647t-172.5 76v71h579v-71q-168 -9 -168 -48q0 -25 289 -542q291 491 291 516q0 61 -168 74
v71h471v-71z" />
    <glyph glyph-name="glyph640" 
 />
    <glyph glyph-name="glyph641" 
 />
    <glyph glyph-name="Euro.aalt" horiz-adv-x="1153" 
d="M1112 358q-67 -193 -176.5 -292t-286.5 -99q-188 0 -324 150.5t-167 412.5h-119l31 97h80q-7 70 2 174h-113l31 96h90q39 252 182.5 402.5t333.5 150.5q151 0 282 -98l25 67h76v-506h-78q-78 453 -297 453q-260 0 -311 -469h299l-31 -96h-272l-2 -51v-79q0 -18 2 -44h217
l-29 -97h-182q69 -450 336 -450q223 0 321 307z" />
    <glyph glyph-name="A.aalt" horiz-adv-x="1100" 
d="M1137 0h-494v63q145 10 145 43q0 18 -10 46l-80 206h-381q-79 -190 -79 -229q0 -56 155 -66v-63h-426v63q113 8 159.5 83.5t215.5 488.5l184 444h74l371 -909q41 -101 166 -107v-63zM670 434l-160 408l-164 -408h324z" />
    <glyph glyph-name="B.aalt" horiz-adv-x="1098" 
d="M76 63q153 7 153 93v743q0 91 -147 102v64h545q145 0 242.5 -61t97.5 -173q0 -196 -281 -258v-6q158 -19 250 -92t92 -186q0 -130 -116 -209.5t-277 -79.5h-559v63zM522 598q232 0 232 219q0 178 -203 178q-75 0 -129 -6v-391h100zM422 524v-360q0 -94 153 -94
q236 0 236 245q0 55 -21 101t-83.5 80t-188.5 31z" />
    <glyph glyph-name="C.aalt" horiz-adv-x="1053" 
d="M885 1014l39 51h67l8 -381h-69q-86 330 -318 330q-167 0 -252.5 -131t-85.5 -351q0 -200 97.5 -331t267.5 -131q224 0 332 227l67 -33q-127 -289 -460 -289q-224 0 -370.5 160t-146.5 387q0 241 155.5 403t385.5 162q154 0 283 -73z" />
    <glyph glyph-name="D.aalt" horiz-adv-x="1260" 
d="M76 0v63q86 0 119.5 20t33.5 69v747q0 60 -41 78.5t-106 23.5v64h526q274 0 431 -142t157 -388q0 -245 -180 -390t-441 -145h-499zM422 989v-796q0 -67 39 -94t133 -27q387 0 387 454q0 212 -115 339.5t-311 127.5q-105 0 -133 -4z" />
    <glyph glyph-name="E.aalt" horiz-adv-x="1069" 
d="M1016 0h-946v63q42 0 100.5 12.5t58.5 80.5v743q0 44 -23.5 64t-109.5 34q-16 2 -26 4v64h882v-266h-65q-13 49 -60.5 109t-85 73.5t-143.5 13.5h-176v-413h106q71 0 102.5 15.5t56 61t28.5 97.5h65v-416h-65q-6 66 -37.5 123t-149.5 57h-106v-307q0 -96 28 -118.5
t164 -22.5h52q134 0 165 21t80.5 101t63.5 130h63z" />
    <glyph glyph-name="F.aalt" horiz-adv-x="987" 
d="M899 788q-22 72 -66 125.5t-78.5 67.5t-162.5 14h-170v-413h129q154 0 174 174h61v-428h-61q-19 184 -174 184h-129v-352q0 -53 42 -72.5t118 -24.5v-63h-512v63q125 8 142 30t17 59v747q0 50 -36.5 73.5t-122.5 28.5v64h888v-277h-59z" />
    <glyph glyph-name="G.aalt" horiz-adv-x="1198" 
d="M1188 416q-12 -2 -26 -3q-124 -14 -124 -100v-89l4 -156q-221 -93 -428 -93q-242 0 -397.5 155.5t-155.5 391.5q0 247 162 406t410 159q157 0 289 -73l30 51h70l8 -373h-72q-40 164 -113 243t-216 79q-173 0 -264 -130t-91 -354q0 -213 99 -346t278 -133q120 0 201 64
q2 8 6 112v72q0 69 -37 88t-118 26q-20 1 -33 3v63h518v-63z" />
    <glyph glyph-name="H.aalt" horiz-adv-x="1366" 
d="M793 0v63l55 5q96 9 96 84v362h-522v-354q0 -49 31.5 -69t115.5 -28v-63h-491v63l55 5q60 5 78 25.5t18 58.5v747q0 89 -151 102v64h491v-64q-84 -5 -115.5 -26t-31.5 -68v-315h522v307q0 89 -151 102v64h491v-64q-149 -6 -149 -94v-747q0 -50 36 -71t113 -26v-63h-491z
" />
    <glyph glyph-name="I.aalt" horiz-adv-x="649" 
d="M59 0v63q116 9 143 23.5t27 63.5v751q0 44 -28 63t-115 33q-16 2 -27 4v64h531v-64q-115 -9 -142.5 -28t-27.5 -64v-751q0 -62 66.5 -78.5t103.5 -16.5v-63h-531z" />
    <glyph glyph-name="J.aalt" horiz-adv-x="866" 
d="M825 1001q-10 -2 -24 -3q-87 -9 -111 -27.5t-24 -63.5v-588q0 -119 -99 -232.5t-266 -113.5q-133 0 -213 72.5t-80 181.5q0 142 119 142q46 0 77.5 -27.5t31.5 -65.5q0 -34 -35 -92q-32 -41 -49 -82q41 -61 139 -61q103 0 142.5 65.5t39.5 239.5v553q0 48 -32.5 68.5
t-137.5 33.5v64h522v-64z" />
    <glyph glyph-name="K.aalt" horiz-adv-x="1180" 
d="M1200 0h-328q-195 284 -430 520h-20v-360q0 -48 29.5 -68t121.5 -29v-63h-491v63l53 5q94 9 94 84v747q0 51 -39.5 73.5t-107.5 28.5v64h491v-64q-89 -6 -120 -27t-31 -67v-356h14q383 311 383 412q0 29 -110 38v64h426v-64q-40 0 -99 -16t-90 -47q-172 -187 -334 -332
q122 -133 201 -223l174 -197q110 -125 213 -123v-63z" />
    <glyph glyph-name="L.aalt" horiz-adv-x="1014" 
d="M985 0h-907v63q102 7 126.5 27t24.5 66v741q0 68 -74 86t-77 18v64h500v-64q-156 -10 -156 -98v-694q0 -97 27.5 -119t156.5 -22q58 0 109.5 7t78.5 21t82 99t72 131h62z" />
    <glyph glyph-name="M.aalt" horiz-adv-x="1559" 
d="M1485 0h-522v63q109 7 143.5 29t34.5 68v737h-13l-387 -881h-59l-360 883h-11v-592q0 -119 14 -162.5t85 -62.5t88 -19v-63h-459v63q118 11 151 52.5t33 193.5v525q0 161 -178 167v64h408l317 -780l285 639q19 42 39 141h389v-64q-88 -7 -121 -27t-33 -67v-747
q0 -59 47 -76.5t109 -20.5v-63z" />
    <glyph glyph-name="N.aalt" horiz-adv-x="1284" 
d="M1270 1001q-124 -17 -154.5 -54t-30.5 -187v-770h-79l-699 860v-528q0 -150 35 -195.5t168 -63.5v-63h-467v63q125 14 155.5 56t30.5 194v504q0 158 -204 184v64h344l639 -793v478q0 128 -27.5 182t-171.5 69v64h461v-64z" />
    <glyph glyph-name="O.aalt" horiz-adv-x="1219" 
d="M1155 530q0 -244 -158 -400.5t-387 -156.5q-234 0 -390.5 157.5t-156.5 399.5q0 243 158.5 401.5t388.5 158.5q235 0 390 -157.5t155 -402.5zM942 530q0 484 -332 484q-331 0 -331 -484q0 -479 331 -479q161 0 246.5 124.5t85.5 354.5z" />
    <glyph glyph-name="P.aalt" horiz-adv-x="1012" 
d="M422 463v-307q0 -66 40.5 -77t123.5 -16v-63h-508v63l61 7q90 8 90 86v747q0 50 -24.5 68t-80.5 24q-29 3 -50 6v64h526q171 0 269 -69t98 -193q0 -158 -112.5 -249t-297.5 -91h-135zM422 993v-456h70q258 0 258 227q0 229 -226 229h-102z" />
    <glyph glyph-name="Q.aalt" horiz-adv-x="1219" 
d="M782 4q0 -75 59.5 -140t137.5 -65q70 0 156 17v-70q-20 -5 -41 -11q-78 -24 -199 -24q-126 0 -218 68.5t-106 195.5q-225 15 -366.5 172.5t-141.5 382.5q0 243 158.5 401.5t388.5 158.5q229 0 387 -155t158 -405q0 -184 -97 -324.5t-276 -201.5zM610 1014
q-331 0 -331 -484q0 -479 331 -479q162 0 247 125.5t85 353.5q0 484 -332 484z" />
    <glyph glyph-name="R.aalt" horiz-adv-x="1184" 
d="M1204 0h-307q-164 247 -360 481h-115v-325q0 -52 31 -70t125 -23v-63h-500v63l61 7q90 8 90 86v747q0 50 -22.5 68t-128.5 30v64h545q167 0 272.5 -67.5t105.5 -186.5q0 -215 -276 -287q42 -52 76 -96q33 -45 61 -80l137 -164q68 -82 109.5 -101t95.5 -20v-63zM422 993
v-436h104q256 0 256 236q0 200 -225 200h-135z" />
    <glyph glyph-name="S.aalt" horiz-adv-x="920" 
d="M190 53l-34 -53h-70l-12 365h69q98 -312 340 -312q205 0 205 180q0 74 -40.5 118t-143.5 83q-160 55 -236 96.5t-119 110t-43 158.5q0 126 98.5 207t246.5 81q121 0 247 -73l33 51h70l8 -354h-70q-83 303 -299 303q-76 0 -125 -44t-49 -120t44.5 -114t187.5 -87
q213 -68 284.5 -153t71.5 -195q0 -141 -101 -232.5t-261 -91.5q-166 0 -302 76z" />
    <glyph glyph-name="T.aalt" horiz-adv-x="1034" 
d="M1022 766h-66q-30 104 -72.5 152.5t-68 62.5t-158.5 14h-45v-831q0 -74 100 -88l83 -13v-63h-557v63q38 0 111 12t73 83v837h-47q-140 0 -161 -15t-62 -59.5t-74 -154.5h-66v299h1010v-299z" />
    <glyph glyph-name="U.aalt" horiz-adv-x="1278" 
d="M1255 1001q-11 -2 -28 -4q-114 -13 -135 -58.5t-21 -154.5v-438q0 -174 -114.5 -273.5t-303.5 -99.5q-201 0 -322.5 85t-121.5 223v618q0 87 -150 102v64h494v-64q-12 -2 -27 -3q-88 -9 -107.5 -31.5t-19.5 -59.5v-567q0 -272 283 -272q134 0 217.5 74.5t83.5 195.5v436
q0 140 -32.5 172t-168.5 55v64h473v-64z" />
    <glyph glyph-name="V.aalt" horiz-adv-x="1092" 
d="M1137 1001q-90 -8 -127 -47t-167 -345l-265 -623h-86l-222 555q-90 225 -129 310l-22 48q-43 91 -156 102v64h486v-64q-140 -9 -140 -40q0 -17 10 -37l279 -697q23 48 131 316l109 256q34 96 34 129q0 57 -170 73v64h435v-64z" />
    <glyph glyph-name="W.aalt" horiz-adv-x="1624" 
d="M1626 1001q-130 -14 -170 -127l-131 -395l-168 -493h-74l-282 802l-297 -802h-76l-287 913q-29 92 -143 102v64h467v-64q-135 -9 -135 -38q0 -36 65 -248l133 -434l283 768h80l285 -775q194 585 194 662q0 55 -156 65v64h412v-64z" />
    <glyph glyph-name="X.aalt" horiz-adv-x="1163" 
d="M635 0v63q135 4 135 43q0 30 -143 228l-82 115l-35 -44q-209 -250 -209 -290q0 -30 32 -39.5t101 -12.5v-63h-424v63q135 4 223 121q25 31 59 71q150 176 208 253l-275 373q-47 63 -83.5 89t-118.5 31v64h524v-64q-135 -7 -135 -40q0 -45 162 -259q20 -27 44 -61
q218 277 218 309q0 46 -131 51v64h423v-64q-100 -9 -150.5 -42.5t-313.5 -372.5q32 -44 69 -98q36 -54 76 -107l145 -197q79 -108 156 -118l55 -3v-63h-530z" />
    <glyph glyph-name="Y.aalt" horiz-adv-x="1032" 
d="M1069 1001q-44 -6 -78.5 -23.5t-61 -48t-104.5 -142.5t-141.5 -214.5t-72.5 -129t-9 -85.5v-192q0 -64 61 -82.5t119 -20.5v-63h-551v63q109 5 145 26.5t36 68.5v239q0 40 -160 303q-5 8 -9 17q-91 170 -147 224.5t-133 59.5v64h494v-64q-140 -3 -140 -36q0 -28 168 -314
l74 -127q258 381 258 420q0 47 -149 57v64h401v-64z" />
    <glyph glyph-name="Z.aalt" horiz-adv-x="985" 
d="M971 342l-37 -342h-911v37l684 958h-234q-138 0 -207.5 -48t-138.5 -193h-59l34 311h850v-37l-684 -958h240q66 0 136.5 8.5t96 22.5t82 90t86.5 151h62z" />
    <glyph glyph-name="aacute.aalt" horiz-adv-x="1100" 
d="M1137 0h-494v63q145 10 145 43q0 18 -10 46l-80 206h-381q-79 -190 -79 -229q0 -56 155 -66v-63h-426v63q113 8 159.5 83.5t215.5 488.5l184 444h74l371 -909q41 -101 166 -107v-63zM670 434l-160 408l-164 -408h324zM412 1182l-31 39q166 158 262 258q60 64 115 64
q39 0 65.5 -22.5t26.5 -57.5q0 -48 -35 -76.5t-193 -102.5q-94 -44 -210 -102z" />
    <glyph glyph-name="glyph670" 
 />
    <glyph glyph-name="acircumflex.aalt" horiz-adv-x="1100" 
d="M1137 0h-494v63q145 10 145 43q0 18 -10 46l-80 206h-381q-79 -190 -79 -229q0 -56 155 -66v-63h-426v63q113 8 159.5 83.5t215.5 488.5l184 444h74l371 -909q41 -101 166 -107v-63zM670 434l-160 408l-164 -408h324zM837 1182l-278 211l-274 -211l-50 31l236 285
q21 25 36 35t56 10q54 0 86 -41l238 -289z" />
    <glyph glyph-name="Adieresis.aalt" horiz-adv-x="1100" 
d="M1137 0h-494v63q145 10 145 43q0 18 -10 46l-80 206h-381q-79 -190 -79 -229q0 -56 155 -66v-63h-426v63q113 8 159.5 83.5t215.5 488.5l184 444h74l371 -909q41 -101 166 -107v-63zM670 434l-160 408l-164 -408h324zM780 1241q-50 0 -84.5 36.5t-34.5 86.5q0 49 34.5 86
t84.5 37q51 0 85 -37t34 -86t-34.5 -86t-84.5 -37zM350 1241q-50 0 -84.5 37t-34.5 86t34 86t85 37q50 0 84.5 -37t34.5 -86q0 -50 -34.5 -86.5t-84.5 -36.5z" />
    <glyph glyph-name="agrave.aalt" horiz-adv-x="1100" 
d="M1137 0h-494v63q145 10 145 43q0 18 -10 46l-80 206h-381q-79 -190 -79 -229q0 -56 155 -66v-63h-426v63q113 8 159.5 83.5t215.5 488.5l184 444h74l371 -909q41 -101 166 -107v-63zM670 434l-160 408l-164 -408h324zM718 1182q-116 58 -209 102q-103 48 -166 81t-63 98
q0 80 92 80q56 0 102 -50t275 -272z" />
    <glyph glyph-name="glyph674" 
 />
    <glyph glyph-name="glyph675" 
 />
    <glyph glyph-name="Aring.aalt" horiz-adv-x="1100" 
d="M623 1022l348 -852q41 -102 166 -107v-63h-494v63q145 10 145 43q0 18 -10 46l-80 206h-381q-79 -190 -79 -229q0 -56 155 -66v-63h-426v63q138 11 183 122l352 835q-199 37 -199 219q0 94 73 157.5t185 63.5q114 0 186 -60.5t72 -160.5q0 -82 -52.5 -142t-143.5 -75z
M561 1397q-131 0 -131 -158q0 -69 33 -114.5t98 -45.5q131 0 131 160q0 72 -35 115t-96 43zM670 434l-160 408l-164 -408h324z" />
    <glyph glyph-name="glyph677" 
 />
    <glyph glyph-name="atilde.aalt" horiz-adv-x="1100" 
d="M1137 0h-494v63q145 10 145 43q0 18 -10 46l-80 206h-381q-79 -190 -79 -229q0 -56 155 -66v-63h-426v63q113 8 159.5 83.5t215.5 488.5l184 444h74l371 -909q41 -101 166 -107v-63zM670 434l-160 408l-164 -408h324zM926 1466q-31 -102 -102 -171.5t-154 -69.5
q-84 0 -175 51t-134 51q-36 0 -61 -16t-81 -119l-59 25q93 241 250 241q80 0 171 -51t128 -51q96 0 130 78q11 25 26 57z" />
    <glyph glyph-name="AE.aalt" horiz-adv-x="1614" 
d="M1561 0h-947v63q117 8 138.5 31t21.5 62v286h-368q-156 -250 -156 -305q0 -63 141 -74v-63h-428v63q54 4 94.5 28t68.5 61.5t206 327t299 497.5q-37 15 -137 24v64h1003v-266h-65q-16 53 -67 114t-85 71.5t-137 10.5h-176v-413h110q95 0 130 38t53 136h65v-416h-65
q-15 106 -56 143t-129 37h-108v-307q0 -93 30.5 -117t161.5 -24h62q107 0 147 20t91 107t61 125h63zM774 518v461h-53l-270 -461h323z" />
    <glyph glyph-name="glyph680" 
 />
    <glyph glyph-name="glyph681" 
 />
    <glyph glyph-name="glyph682" 
 />
    <glyph glyph-name="Ccedilla.aalt" horiz-adv-x="1053" 
d="M885 1014l39 51h67l8 -381h-69q-86 330 -318 330q-167 0 -252.5 -131t-85.5 -351q0 -200 97.5 -331t267.5 -131q224 0 332 227l67 -33q-127 -289 -460 -289q-224 0 -370.5 160t-146.5 387q0 241 155.5 403t385.5 162q154 0 283 -73zM403 -444v71q171 0 212.5 23.5
t41.5 66.5q0 76 -164 76v223h78v-114q232 0 232 -150q0 -196 -400 -196z" />
    <glyph glyph-name="glyph684" 
 />
    <glyph glyph-name="glyph685" 
 />
    <glyph glyph-name="glyph686" 
 />
    <glyph glyph-name="glyph687" 
 />
    <glyph glyph-name="Eacute.aalt" horiz-adv-x="1069" 
d="M1016 0h-946v63q42 0 100.5 12.5t58.5 80.5v743q0 44 -23.5 64t-109.5 34q-16 2 -26 4v64h882v-266h-65q-13 49 -60.5 109t-85 73.5t-143.5 13.5h-176v-413h106q71 0 102.5 15.5t56 61t28.5 97.5h65v-416h-65q-6 66 -37.5 123t-149.5 57h-106v-307q0 -96 28 -118.5
t164 -22.5h52q134 0 165 21t80.5 101t63.5 130h63zM422 1182l-31 39q166 158 262 258q60 64 115 64q39 0 65.5 -22.5t26.5 -57.5q0 -48 -35 -76.5t-193 -102.5q-94 -44 -210 -102z" />
    <glyph glyph-name="glyph689" 
 />
    <glyph glyph-name="glyph690" 
 />
    <glyph glyph-name="ecircumflex.aalt" horiz-adv-x="1069" 
d="M1016 0h-946v63q42 0 100.5 12.5t58.5 80.5v743q0 44 -23.5 64t-109.5 34q-16 2 -26 4v64h882v-266h-65q-13 49 -60.5 109t-85 73.5t-143.5 13.5h-176v-413h106q71 0 102.5 15.5t56 61t28.5 97.5h65v-416h-65q-6 66 -37.5 123t-149.5 57h-106v-307q0 -96 28 -118.5
t164 -22.5h52q134 0 165 21t80.5 101t63.5 130h63zM823 1182l-278 211l-274 -211l-50 31l236 285q21 25 36 35t56 10q54 0 86 -41l238 -289z" />
    <glyph glyph-name="edieresis.aalt" horiz-adv-x="1069" 
d="M1016 0h-946v63q42 0 100.5 12.5t58.5 80.5v743q0 44 -23.5 64t-109.5 34q-16 2 -26 4v64h882v-266h-65q-13 49 -60.5 109t-85 73.5t-143.5 13.5h-176v-413h106q71 0 102.5 15.5t56 61t28.5 97.5h65v-416h-65q-6 66 -37.5 123t-149.5 57h-106v-307q0 -96 28 -118.5
t164 -22.5h52q134 0 165 21t80.5 101t63.5 130h63zM776 1241q-50 0 -84.5 36.5t-34.5 86.5q0 49 34.5 86t84.5 37q51 0 85 -37t34 -86t-34.5 -86t-84.5 -37zM346 1241q-50 0 -84.5 37t-34.5 86t34 86t85 37q50 0 84.5 -37t34.5 -86q0 -50 -34.5 -86.5t-84.5 -36.5z" />
    <glyph glyph-name="glyph693" 
 />
    <glyph glyph-name="egrave.aalt" horiz-adv-x="1069" 
d="M1016 0h-946v63q42 0 100.5 12.5t58.5 80.5v743q0 44 -23.5 64t-109.5 34q-16 2 -26 4v64h882v-266h-65q-13 49 -60.5 109t-85 73.5t-143.5 13.5h-176v-413h106q71 0 102.5 15.5t56 61t28.5 97.5h65v-416h-65q-6 66 -37.5 123t-149.5 57h-106v-307q0 -96 28 -118.5
t164 -22.5h52q134 0 165 21t80.5 101t63.5 130h63zM670 1182q-116 58 -209 102q-103 48 -166 81t-63 98q0 80 92 80q56 0 102 -50t275 -272z" />
    <glyph glyph-name="glyph695" 
 />
    <glyph glyph-name="glyph696" 
 />
    <glyph glyph-name="glyph697" 
 />
    <glyph glyph-name="Eth.aalt" horiz-adv-x="1260" 
d="M76 0v63q77 0 115 18.5t38 70.5v362h-157v78h157v307q0 60 -41 78.5t-106 23.5v64h526q274 0 431 -142t157 -388q0 -245 -180 -390t-441 -145h-499zM422 989v-397h262v-78h-262v-321q0 -67 39 -94t133 -27q387 0 387 454q0 212 -115 339.5t-311 127.5q-105 0 -133 -4z
" />
    <glyph glyph-name="glyph699" 
 />
    <glyph glyph-name="glyph700" 
 />
    <glyph glyph-name="glyph701" 
 />
    <glyph glyph-name="glyph702" 
 />
    <glyph glyph-name="glyph703" 
 />
    <glyph glyph-name="glyph704" 
 />
    <glyph glyph-name="Iacute.aalt" horiz-adv-x="649" 
d="M59 0v63q116 9 143 23.5t27 63.5v751q0 44 -28 63t-115 33q-16 2 -27 4v64h531v-64q-115 -9 -142.5 -28t-27.5 -64v-751q0 -62 66.5 -78.5t103.5 -16.5v-63h-531zM184 1182l-31 39q166 158 262 258q60 64 115 64q39 0 65.5 -22.5t26.5 -57.5q0 -48 -35 -76.5t-193 -102.5
q-94 -44 -210 -102z" />
    <glyph glyph-name="glyph706" 
 />
    <glyph glyph-name="icircumflex.aalt" horiz-adv-x="649" 
d="M59 0v63q116 9 143 23.5t27 63.5v751q0 44 -28 63t-115 33q-16 2 -27 4v64h531v-64q-115 -9 -142.5 -28t-27.5 -64v-751q0 -62 66.5 -78.5t103.5 -16.5v-63h-531zM603 1182l-278 211l-274 -211l-50 31l236 285q21 25 36 35t56 10q54 0 86 -41l238 -289z" />
    <glyph glyph-name="idieresis.aalt" horiz-adv-x="649" 
d="M59 0v63q116 9 143 23.5t27 63.5v751q0 44 -28 63t-115 33q-16 2 -27 4v64h531v-64q-115 -9 -142.5 -28t-27.5 -64v-751q0 -62 66.5 -78.5t103.5 -16.5v-63h-531zM540 1241q-50 0 -84.5 36.5t-34.5 86.5q0 49 34.5 86t84.5 37q51 0 85 -37t34 -86t-34.5 -86t-84.5 -37z
M110 1241q-50 0 -84.5 37t-34.5 86t34 86t85 37q50 0 84.5 -37t34.5 -86q0 -50 -34.5 -86.5t-84.5 -36.5z" />
    <glyph glyph-name="i.locl.sc" horiz-adv-x="649" 
d="M59 0v63q116 9 143 23.5t27 63.5v751q0 44 -28 63t-115 33q-16 2 -27 4v64h531v-64q-115 -9 -142.5 -28t-27.5 -64v-751q0 -62 66.5 -78.5t103.5 -16.5v-63h-531zM323 1247q-51 0 -88 39t-37 92q0 54 36.5 94.5t88.5 40.5q57 0 94 -38t37 -89q0 -57 -37.5 -98t-93.5 -41z
" />
    <glyph glyph-name="igrave.aalt" horiz-adv-x="649" 
d="M59 0v63q116 9 143 23.5t27 63.5v751q0 44 -28 63t-115 33q-16 2 -27 4v64h531v-64q-115 -9 -142.5 -28t-27.5 -64v-751q0 -62 66.5 -78.5t103.5 -16.5v-63h-531zM468 1182q-116 58 -209 102q-103 48 -166 81t-63 98q0 80 92 80q56 0 102 -50t275 -272z" />
    <glyph glyph-name="glyph711" 
 />
    <glyph glyph-name="glyph712" 
 />
    <glyph glyph-name="glyph713" 
 />
    <glyph glyph-name="glyph714" 
 />
    <glyph glyph-name="glyph715" 
 />
    <glyph glyph-name="glyph716" 
 />
    <glyph glyph-name="glyph717" 
 />
    <glyph glyph-name="glyph718" 
 />
    <glyph glyph-name="glyph719" 
 />
    <glyph glyph-name="glyph720" 
 />
    <glyph glyph-name="glyph721" 
 />
    <glyph glyph-name="glyph722" 
 />
    <glyph glyph-name="glyph723" 
 />
    <glyph glyph-name="glyph724" 
 />
    <glyph glyph-name="Ntilde.aalt" horiz-adv-x="1284" 
d="M1270 1001q-124 -17 -154.5 -54t-30.5 -187v-770h-79l-699 860v-528q0 -150 35 -195.5t168 -63.5v-63h-467v63q125 14 155.5 56t30.5 194v504q0 158 -204 184v64h344l639 -793v478q0 128 -27.5 182t-171.5 69v64h461v-64zM1051 1466q-31 -102 -102 -171.5t-154 -69.5
q-84 0 -175 51t-134 51q-36 0 -61 -16t-81 -119l-59 25q93 241 250 241q80 0 171 -51t128 -51q96 0 130 78q11 25 26 57z" />
    <glyph glyph-name="oacute.aalt" horiz-adv-x="1219" 
d="M1155 530q0 -244 -158 -400.5t-387 -156.5q-234 0 -390.5 157.5t-156.5 399.5q0 243 158.5 401.5t388.5 158.5q235 0 390 -157.5t155 -402.5zM942 530q0 484 -332 484q-331 0 -331 -484q0 -479 331 -479q161 0 246.5 124.5t85.5 354.5zM457 1182l-31 39q166 158 262 258
q60 64 115 64q39 0 65.5 -22.5t26.5 -57.5q0 -48 -35 -76.5t-193 -102.5q-94 -44 -210 -102z" />
    <glyph glyph-name="glyph727" 
 />
    <glyph glyph-name="ocircumflex.aalt" horiz-adv-x="1219" 
d="M1155 530q0 -244 -158 -400.5t-387 -156.5q-234 0 -390.5 157.5t-156.5 399.5q0 243 158.5 401.5t388.5 158.5q235 0 390 -157.5t155 -402.5zM942 530q0 484 -332 484q-331 0 -331 -484q0 -479 331 -479q161 0 246.5 124.5t85.5 354.5zM890 1182l-278 211l-274 -211
l-50 31l236 285q21 25 36 35t56 10q54 0 86 -41l238 -289z" />
    <glyph glyph-name="Odieresis.aalt" horiz-adv-x="1219" 
d="M1155 530q0 -244 -158 -400.5t-387 -156.5q-234 0 -390.5 157.5t-156.5 399.5q0 243 158.5 401.5t388.5 158.5q235 0 390 -157.5t155 -402.5zM942 530q0 484 -332 484q-331 0 -331 -484q0 -479 331 -479q161 0 246.5 124.5t85.5 354.5zM825 1241q-50 0 -84.5 36.5
t-34.5 86.5q0 49 34.5 86t84.5 37q51 0 85 -37t34 -86t-34.5 -86t-84.5 -37zM395 1241q-50 0 -84.5 37t-34.5 86t34 86t85 37q50 0 84.5 -37t34.5 -86q0 -50 -34.5 -86.5t-84.5 -36.5z" />
    <glyph glyph-name="ograve.aalt" horiz-adv-x="1219" 
d="M1155 530q0 -244 -158 -400.5t-387 -156.5q-234 0 -390.5 157.5t-156.5 399.5q0 243 158.5 401.5t388.5 158.5q235 0 390 -157.5t155 -402.5zM942 530q0 484 -332 484q-331 0 -331 -484q0 -479 331 -479q161 0 246.5 124.5t85.5 354.5zM751 1182q-116 58 -209 102
q-103 48 -166 81t-63 98q0 80 92 80q56 0 102 -50t275 -272z" />
    <glyph glyph-name="glyph731" 
 />
    <glyph glyph-name="glyph732" 
 />
    <glyph glyph-name="Oslash.aalt" horiz-adv-x="1219" 
d="M268 88l-137 -156l-61 52l141 155q-148 164 -148 391q0 243 158.5 401.5t388.5 158.5q202 0 351 -121l124 139l62 -53l-129 -142q137 -154 137 -383q0 -244 -158 -400.5t-387 -156.5q-199 0 -342 115zM317 258l553 612q-86 144 -260 144q-331 0 -331 -484q0 -164 38 -272
zM907 793l-551 -611q82 -131 254 -131q161 0 246.5 124.5t85.5 354.5q0 147 -35 263z" />
    <glyph glyph-name="glyph734" 
 />
    <glyph glyph-name="otilde.aalt" horiz-adv-x="1219" 
d="M1155 530q0 -244 -158 -400.5t-387 -156.5q-234 0 -390.5 157.5t-156.5 399.5q0 243 158.5 401.5t388.5 158.5q235 0 390 -157.5t155 -402.5zM942 530q0 484 -332 484q-331 0 -331 -484q0 -479 331 -479q161 0 246.5 124.5t85.5 354.5zM1006 1466q-31 -102 -102 -171.5
t-154 -69.5q-84 0 -175 51t-134 51q-36 0 -61 -16t-81 -119l-59 25q93 241 250 241q80 0 171 -51t128 -51q96 0 130 78q11 25 26 57z" />
    <glyph glyph-name="OE.aalt" horiz-adv-x="1628" 
d="M1597 324l-22 -324h-957q-255 0 -405 141t-150 391q0 248 163.5 390.5t414.5 142.5h870v-266h-65q-12 43 -47 92t-66 71t-47 25t-129.5 5.5t-133.5 2.5h-42v-413h106q88 0 132.5 38t54.5 136h65v-416h-65q-6 66 -37.5 123t-149.5 57h-106v-307q0 -103 36 -122t157 -19h51
q134 0 165 21t80.5 101t63.5 130h63zM788 88v895q-36 6 -147 6q-175 0 -268.5 -116.5t-93.5 -340.5q0 -216 97.5 -335t266.5 -119q86 0 145 10z" />
    <glyph glyph-name="Thorn.aalt" horiz-adv-x="1016" 
d="M422 238v-84q0 -50 28 -66.5t134 -24.5v-63h-506v63q102 10 127.5 27t25.5 64v749q0 64 -68.5 81t-84.5 17v64h495v-64q-62 0 -106.5 -18t-44.5 -74v-59h201q153 0 256.5 -79t103.5 -204q0 -152 -120.5 -240.5t-305.5 -88.5h-135zM422 780v-469h86q254 0 254 232
q0 237 -230 237h-110z" />
    <glyph glyph-name="glyph738" 
 />
    <glyph glyph-name="glyph739" 
 />
    <glyph glyph-name="glyph740" 
 />
    <glyph glyph-name="glyph741" 
 />
    <glyph glyph-name="Scaron.aalt" horiz-adv-x="920" 
d="M190 53l-34 -53h-70l-12 365h69q98 -312 340 -312q205 0 205 180q0 74 -40.5 118t-143.5 83q-160 55 -236 96.5t-119 110t-43 158.5q0 126 98.5 207t246.5 81q121 0 247 -73l33 51h70l8 -354h-70q-83 303 -299 303q-76 0 -125 -44t-49 -120t44.5 -114t187.5 -87
q213 -68 284.5 -153t71.5 -195q0 -141 -101 -232.5t-261 -91.5q-166 0 -302 76zM782 1510l-236 -283q-29 -35 -39.5 -40t-52.5 -5q-54 0 -86 41l-238 287l50 33l278 -213l274 213z" />
    <glyph glyph-name="glyph743" 
 />
    <glyph glyph-name="glyph744" 
 />
    <glyph glyph-name="glyph745" 
 />
    <glyph glyph-name="glyph746" 
 />
    <glyph glyph-name="glyph747" 
 />
    <glyph glyph-name="glyph748" 
 />
    <glyph glyph-name="glyph749" 
 />
    <glyph glyph-name="uacute.aalt" horiz-adv-x="1278" 
d="M1255 1001q-11 -2 -28 -4q-114 -13 -135 -58.5t-21 -154.5v-438q0 -174 -114.5 -273.5t-303.5 -99.5q-201 0 -322.5 85t-121.5 223v618q0 87 -150 102v64h494v-64q-12 -2 -27 -3q-88 -9 -107.5 -31.5t-19.5 -59.5v-567q0 -272 283 -272q134 0 217.5 74.5t83.5 195.5v436
q0 140 -32.5 172t-168.5 55v64h473v-64zM529 1182l-31 39q166 158 262 258q60 64 115 64q39 0 65.5 -22.5t26.5 -57.5q0 -48 -35 -76.5t-193 -102.5q-94 -44 -210 -102z" />
    <glyph glyph-name="glyph751" 
 />
    <glyph glyph-name="ucircumflex.aalt" horiz-adv-x="1278" 
d="M1255 1001q-11 -2 -28 -4q-114 -13 -135 -58.5t-21 -154.5v-438q0 -174 -114.5 -273.5t-303.5 -99.5q-201 0 -322.5 85t-121.5 223v618q0 87 -150 102v64h494v-64q-12 -2 -27 -3q-88 -9 -107.5 -31.5t-19.5 -59.5v-567q0 -272 283 -272q134 0 217.5 74.5t83.5 195.5v436
q0 140 -32.5 172t-168.5 55v64h473v-64zM938 1182l-278 211l-274 -211l-50 31l236 285q21 25 36 35t56 10q54 0 86 -41l238 -289z" />
    <glyph glyph-name="Udieresis.aalt" horiz-adv-x="1278" 
d="M1255 1001q-11 -2 -28 -4q-114 -13 -135 -58.5t-21 -154.5v-438q0 -174 -114.5 -273.5t-303.5 -99.5q-201 0 -322.5 85t-121.5 223v618q0 87 -150 102v64h494v-64q-12 -2 -27 -3q-88 -9 -107.5 -31.5t-19.5 -59.5v-567q0 -272 283 -272q134 0 217.5 74.5t83.5 195.5v436
q0 140 -32.5 172t-168.5 55v64h473v-64zM866 1241q-50 0 -84.5 36.5t-34.5 86.5q0 49 34.5 86t84.5 37q51 0 85 -37t34 -86t-34.5 -86t-84.5 -37zM436 1241q-50 0 -84.5 37t-34.5 86t34 86t85 37q50 0 84.5 -37t34.5 -86q0 -50 -34.5 -86.5t-84.5 -36.5z" />
    <glyph glyph-name="ugrave.aalt" horiz-adv-x="1278" 
d="M1255 1001q-11 -2 -28 -4q-114 -13 -135 -58.5t-21 -154.5v-438q0 -174 -114.5 -273.5t-303.5 -99.5q-201 0 -322.5 85t-121.5 223v618q0 87 -150 102v64h494v-64q-12 -2 -27 -3q-88 -9 -107.5 -31.5t-19.5 -59.5v-567q0 -272 283 -272q134 0 217.5 74.5t83.5 195.5v436
q0 140 -32.5 172t-168.5 55v64h473v-64zM782 1182q-116 58 -209 102q-103 48 -166 81t-63 98q0 80 92 80q56 0 102 -50t275 -272z" />
    <glyph glyph-name="glyph755" 
 />
    <glyph glyph-name="glyph756" 
 />
    <glyph glyph-name="glyph757" 
 />
    <glyph glyph-name="glyph758" 
 />
    <glyph glyph-name="glyph759" 
 />
    <glyph glyph-name="glyph760" 
 />
    <glyph glyph-name="glyph761" 
 />
    <glyph glyph-name="glyph762" 
 />
    <glyph glyph-name="glyph763" 
 />
    <glyph glyph-name="Yacute.aalt" horiz-adv-x="1032" 
d="M1069 1001q-44 -6 -78.5 -23.5t-61 -48t-104.5 -142.5t-141.5 -214.5t-72.5 -129t-9 -85.5v-192q0 -64 61 -82.5t119 -20.5v-63h-551v63q109 5 145 26.5t36 68.5v239q0 40 -160 303q-5 8 -9 17q-91 170 -147 224.5t-133 59.5v64h494v-64q-140 -3 -140 -36q0 -28 168 -314
l74 -127q258 381 258 420q0 47 -149 57v64h401v-64zM389 1182l-31 39q166 158 262 258q60 64 115 64q39 0 65.5 -22.5t26.5 -57.5q0 -48 -35 -76.5t-193 -102.5q-94 -44 -210 -102z" />
    <glyph glyph-name="glyph765" 
 />
    <glyph glyph-name="ydieresis.aalt" horiz-adv-x="1032" 
d="M1069 1001q-44 -6 -78.5 -23.5t-61 -48t-104.5 -142.5t-141.5 -214.5t-72.5 -129t-9 -85.5v-192q0 -64 61 -82.5t119 -20.5v-63h-551v63q109 5 145 26.5t36 68.5v239q0 40 -160 303q-5 8 -9 17q-91 170 -147 224.5t-133 59.5v64h494v-64q-140 -3 -140 -36q0 -28 168 -314
l74 -127q258 381 258 420q0 47 -149 57v64h401v-64zM739 1241q-50 0 -84.5 36.5t-34.5 86.5q0 49 34.5 86t84.5 37q51 0 85 -37t34 -86t-34.5 -86t-84.5 -37zM309 1241q-50 0 -84.5 37t-34.5 86t34 86t85 37q50 0 84.5 -37t34.5 -86q0 -50 -34.5 -86.5t-84.5 -36.5z" />
    <glyph glyph-name="glyph767" 
 />
    <glyph glyph-name="glyph768" 
 />
    <glyph glyph-name="Zcaron.aalt" horiz-adv-x="985" 
d="M971 342l-37 -342h-911v37l684 958h-234q-138 0 -207.5 -48t-138.5 -193h-59l34 311h850v-37l-684 -958h240q66 0 136.5 8.5t96 22.5t82 90t86.5 151h62zM829 1510l-236 -283q-29 -35 -39.5 -40t-52.5 -5q-54 0 -86 41l-238 287l50 33l278 -213l274 213z" />
    <glyph glyph-name="glyph770" 
 />
    <glyph glyph-name="glyph771" 
 />
    <glyph glyph-name="glyph772" 
 />
    <glyph glyph-name="glyph773" 
 />
    <glyph glyph-name="glyph774" 
 />
    <glyph glyph-name="glyph775" 
 />
    <glyph glyph-name="glyph776" 
 />
    <glyph glyph-name="glyph777" 
 />
    <glyph glyph-name="glyph778" 
 />
    <glyph glyph-name="glyph779" 
 />
    <glyph glyph-name="glyph780" 
 />
    <glyph glyph-name="glyph781" 
 />
    <glyph glyph-name="glyph782" 
 />
    <glyph glyph-name="glyph783" 
 />
    <glyph glyph-name="glyph784" 
 />
    <glyph glyph-name="glyph785" 
 />
    <glyph glyph-name="glyph786" 
 />
    <glyph glyph-name="glyph787" 
 />
    <glyph glyph-name="glyph788" 
 />
    <glyph glyph-name="glyph789" 
 />
    <glyph glyph-name="glyph790" 
 />
    <glyph glyph-name="glyph791" 
 />
    <glyph glyph-name="glyph792" 
 />
    <glyph glyph-name="glyph793" 
 />
    <glyph glyph-name="glyph794" 
 />
    <glyph glyph-name="glyph795" 
 />
    <glyph glyph-name="glyph796" 
 />
    <glyph glyph-name="glyph797" 
 />
    <glyph glyph-name="glyph798" 
 />
    <glyph glyph-name="glyph799" 
 />
    <glyph glyph-name="glyph800" 
 />
    <glyph glyph-name="glyph801" 
 />
    <glyph glyph-name="glyph802" 
 />
    <glyph glyph-name="glyph803" 
 />
    <glyph glyph-name="glyph804" 
 />
    <glyph glyph-name="glyph805" 
 />
    <glyph glyph-name="glyph806" 
 />
    <glyph glyph-name="glyph807" 
 />
    <glyph glyph-name="glyph808" 
 />
    <glyph glyph-name="glyph809" 
 />
    <glyph glyph-name="glyph810" 
 />
    <glyph glyph-name="glyph811" 
 />
    <glyph glyph-name="glyph812" 
 />
    <glyph glyph-name="glyph813" 
 />
    <glyph glyph-name="glyph814" 
 />
    <glyph glyph-name="glyph815" 
 />
    <glyph glyph-name="glyph816" 
 />
    <glyph glyph-name="glyph817" 
 />
    <glyph glyph-name="glyph818" 
 />
    <glyph glyph-name="glyph819" 
 />
    <glyph glyph-name="glyph820" 
 />
    <glyph glyph-name="glyph821" 
 />
    <glyph glyph-name="glyph822" 
 />
    <glyph glyph-name="glyph823" 
 />
    <glyph glyph-name="glyph824" 
 />
    <glyph glyph-name="glyph825" 
 />
    <glyph glyph-name="glyph826" 
 />
    <glyph glyph-name="glyph827" 
 />
    <glyph glyph-name="glyph828" 
 />
    <glyph glyph-name="glyph829" 
 />
    <glyph glyph-name="glyph830" 
 />
    <glyph glyph-name="glyph831" 
 />
    <glyph glyph-name="glyph832" 
 />
    <glyph glyph-name="glyph833" 
 />
    <glyph glyph-name="glyph834" 
 />
    <glyph glyph-name="glyph835" 
 />
    <glyph glyph-name="glyph836" 
 />
    <glyph glyph-name="glyph837" 
 />
    <glyph glyph-name="glyph838" 
 />
    <glyph glyph-name="glyph839" 
 />
    <glyph glyph-name="glyph840" 
 />
    <glyph glyph-name="glyph841" 
 />
    <glyph glyph-name="glyph842" 
 />
    <glyph glyph-name="glyph843" 
 />
    <glyph glyph-name="glyph844" 
 />
    <glyph glyph-name="glyph845" 
 />
    <glyph glyph-name="glyph846" 
 />
    <glyph glyph-name="glyph847" 
 />
    <glyph glyph-name="glyph848" 
 />
    <glyph glyph-name="glyph849" 
 />
    <glyph glyph-name="glyph850" 
 />
    <glyph glyph-name="germandbls.aalt" horiz-adv-x="1176" 
d="M401 0h-346v63q83 5 118.5 24t35.5 75v557q0 371 422 371q182 0 297.5 -72.5t115.5 -194.5q0 -186 -270 -250v-6q159 -21 245.5 -95.5t86.5 -190.5q0 -143 -102.5 -223.5t-284.5 -80.5q-124 0 -203 23l-12 233h65q46 -180 164 -180q69 0 112.5 63.5t43.5 172.5
q0 107 -64 169t-174 62h-39v78h23q196 0 196 215q0 97 -57 149t-151 52q-106 0 -164 -76.5t-58 -214.5v-723z" />
    <glyph glyph-name="glyph852" 
 />
    <glyph glyph-name="glyph853" 
 />
    <glyph glyph-name="glyph854" 
 />
    <glyph glyph-name="i.locl" horiz-adv-x="600" 
d="M295 1245q-50 0 -87.5 39.5t-37.5 93.5q0 55 37 96.5t88 41.5q56 0 93.5 -39t37.5 -91q0 -57 -38 -99t-93 -42zM74 0v66l48 5q97 7 97 97v608q0 122 -176 135v66l348 20l15 -14v-803q0 -57 35.5 -81t109.5 -33v-66h-477z" />
    <glyph glyph-name="glyph856" 
 />
    </font>
</defs>
</svg>
