<?xml version="1.0" standalone="no"?>
<!DOCTYPE svg PUBLIC "-//W3C//DTD SVG 1.1//EN" "http://www.w3.org/Graphics/SVG/1.1/DTD/svg11.dtd" >
<svg>
<metadata>
Created by FontForge 20110222 at Thu Feb 13 05:28:35 2014
 By Orthosie Webhosting
(c) 2011 Microsoft Corporation. All Rights Reserved.
</metadata>
<defs>
<font id="web" horiz-adv-x="0" >
  <font-face 
    font-family="GeorgiaPro-Italic"
    font-weight="400"
    font-style="italic"
    font-stretch="normal"
    units-per-em="2048"
    panose-1="2 4 5 2 5 4 5 9 3 3"
    ascent="1638"
    descent="-410"
    x-height="979"
    cap-height="1419"
    bbox="-401 -444 2451 1870"
    underline-thickness="96"
    underline-position="-135"
    slope="-13"
    unicode-range="U+0020-FB04"
  />
<missing-glyph horiz-adv-x="2048" 
d="M256 0v1536h1536v-1536h-1536zM385 129h1280v1280h-1280v-1280z" />
    <glyph glyph-name="uniFB01" unicode="fi" horiz-adv-x="1194" 
d="M922 1470h-31q-270 0 -356 -401l-21 -92h326l252 16l12 -14l-154 -645q-24 -101 -24 -139q0 -57 25 -78t81 -21t111 17l-17 -64q-154 -65 -239 -65q-162 0 -162 143q0 39 18 111l131 557q7 30 7 45t-15 47h-370l-177 -828q-44 -206 -194 -354.5t-315 -148.5
q-170 0 -170 118q0 47 27 78t73 31q74 0 129 -95q14 -26 29 -50q147 11 227 385l182 864h-194l20 90h195l6 33q42 231 212.5 384.5t375.5 153.5q254 0 254 -151q0 -42 -27 -75.5t-68 -33.5q-107 0 -140 118q-9 32 -19 64z" />
    <glyph glyph-name="uniFB02" unicode="fl" horiz-adv-x="1235" 
d="M971 330q-25 -108 -25 -140q0 -56 26 -77t83 -21q67 0 119 17l-17 -64q-156 -65 -248 -65q-77 0 -119 39.5t-42 103.5q0 46 16 110l254 1100q8 35 8 47q0 41 -33.5 69t-93.5 28q-280 0 -371 -430l-16 -70h254l-23 -90h-247l-177 -828q-47 -219 -196 -361t-313 -142
q-170 0 -170 118q0 47 27 78t73 31q74 0 129 -95q14 -26 29 -50q147 11 227 385l182 864h-194l20 90h193l6 29q54 259 226.5 400.5t367.5 141.5q142 0 223 -39l90 39l10 -14z" />
    <glyph glyph-name="uniFB00" unicode="ff" horiz-adv-x="1270" 
d="M1350 1466q-138 -6 -217 -383l-23 -106h252l-23 -90h-247l-170 -793q-47 -218 -196 -361t-314 -143q-170 0 -170 119q0 47 27 78t73 31q75 0 129 -96q14 -26 29 -50q149 15 227 385l176 830h-407l-177 -828q-46 -215 -195 -359t-314 -144q-170 0 -170 118q0 47 27 78
t73 31q74 0 129 -95q14 -26 29 -50q147 11 227 385l182 864h-194l20 90h195l16 82q36 187 180 327t312 140q81 0 125.5 -32.5t44.5 -84.5q0 -41 -25 -71.5t-74 -30.5q-96 0 -151 137q-145 0 -224 -375l-18 -92h410l14 67q48 228 192.5 366t307.5 138q87 0 128.5 -33.5
t41.5 -82.5q0 -47 -27.5 -78t-73.5 -31q-72 0 -127 95q-15 25 -30 48z" />
    <glyph glyph-name="uniFB03" unicode="ffi" horiz-adv-x="1810" 
d="M938 977l6 31q48 248 225.5 394t362.5 146q254 0 254 -151q0 -42 -27 -75.5t-67 -33.5q-55 0 -90.5 29t-69.5 153h-31q-270 0 -356 -401l-21 -92h332l252 16l12 -14l-153 -645q-25 -105 -25 -139q0 -57 25.5 -78t81.5 -21q58 0 110 17l-16 -64q-158 -65 -240 -65
q-76 0 -119 38.5t-43 104.5q0 35 19 111l131 557q6 26 6 45q0 17 -14 47h-377l-170 -793q-47 -219 -194 -361.5t-326 -142.5q-85 0 -127.5 34t-42.5 85q0 47 27 78t73 31q75 0 129 -96q14 -26 29 -50q158 16 237 385l177 830h-422l-177 -828q-46 -215 -195 -359t-314 -144
q-170 0 -170 118q0 47 27 78t73 31q74 0 129 -95q14 -26 29 -50q147 11 227 385l182 864h-194l20 90h195l16 82q36 187 180 327t312 140q81 0 125.5 -32.5t44.5 -84.5q0 -41 -25 -71.5t-74 -30.5q-96 0 -151 137q-145 0 -224 -375l-18 -92h424z" />
    <glyph glyph-name="uniFB04" unicode="ffl" horiz-adv-x="1810" 
d="M938 977l6 31q51 263 223 401.5t353 138.5q142 0 223 -39l90 39l10 -14l-276 -1204q-23 -100 -23 -140q0 -56 26 -77t83 -21q67 0 119 17l-17 -64q-156 -65 -248 -65q-77 0 -119 39.5t-42 103.5q0 46 16 110l250 1092q8 35 8 55q0 93 -123 93q-271 0 -358 -426l-15 -70
h238l-23 -90h-233l-170 -793q-47 -219 -194 -361.5t-326 -142.5q-85 0 -127.5 34t-42.5 85q0 47 27 78t73 31q75 0 129 -96q14 -26 29 -50q158 16 237 385l177 830h-422l-177 -828q-46 -215 -195 -359t-314 -144q-170 0 -170 118q0 47 27 78t73 31q74 0 129 -95
q14 -26 29 -50q147 11 227 385l182 864h-194l20 90h195l16 82q36 187 180 327t312 140q81 0 125.5 -32.5t44.5 -84.5q0 -41 -25 -71.5t-74 -30.5q-96 0 -151 137q-145 0 -224 -375l-18 -92h424z" />
    <glyph glyph-name="f_j.liga" unicode="fj" horiz-adv-x="1165" 
d="M872 887h-376l-177 -828q-45 -210 -195.5 -356.5t-313.5 -146.5q-170 0 -170 118q0 47 27 78t73 31q74 0 129 -95q14 -26 29 -50q147 11 227 385l182 864h-194l20 90h195l6 33q41 225 210.5 381.5t377.5 156.5q254 0 254 -151q0 -42 -27 -75.5t-68 -33.5q-107 0 -140 118
q-9 32 -19 64h-31q-270 0 -356 -401l-21 -92h332l252 16l12 -14q-48 -171 -146 -683q-41 -214 -73 -305.5t-106 -190t-175 -154.5t-198 -56q-170 0 -170 119q0 47 27 78t73 31q73 0 128 -96q15 -26 30 -50q58 0 123.5 90.5t164.5 565t99 512.5q0 23 -15 47z" />
    <glyph glyph-name=".notdef" horiz-adv-x="2048" 
d="M256 0v1536h1536v-1536h-1536zM385 129h1280v1280h-1280v-1280z" />
    <glyph glyph-name="glyph1" 
 />
    <glyph glyph-name="glyph2" horiz-adv-x="1178" 
 />
    <glyph glyph-name="space" unicode=" " horiz-adv-x="494" 
 />
    <glyph glyph-name="space" unicode="&#xa0;" horiz-adv-x="494" 
 />
    <glyph glyph-name="exclam" unicode="!" horiz-adv-x="678" 
d="M367 432h-78q34 235 73 557l29 224q15 114 32 152.5t55.5 64.5t86.5 26q103 0 103 -100q0 -46 -38 -152t-263 -772zM272 -20q-56 0 -96.5 39.5t-40.5 95.5t40.5 96.5t96.5 40.5t97 -40.5t41 -96.5q0 -57 -40.5 -96t-97.5 -39z" />
    <glyph glyph-name="quotedbl" unicode="&#x22;" horiz-adv-x="844" 
d="M731 967h-61q4 103 6 289l1 116q2 73 38.5 115.5t99.5 42.5q92 0 92 -88q0 -32 -109 -299q-32 -79 -67 -176zM354 967h-59l5 390q0 78 36.5 125.5t103.5 47.5q92 0 92 -88q0 -36 -52 -162q-96 -230 -126 -313z" />
    <glyph glyph-name="numbersign" unicode="#" horiz-adv-x="1317" 
d="M1180 745h-232l-94 -251h260l-27 -123h-278l-139 -371h-113l139 371h-217l-137 -371h-113l140 371h-213l26 123h234l94 251h-262l28 123h279l137 363h111l-137 -363h217l137 363h110l-137 -363h215zM618 748l-96 -256h221l99 256h-224z" />
    <glyph glyph-name="dollar" unicode="$" horiz-adv-x="1249" 
d="M1012 1130q-36 84 -170 93l-111 -484q201 -71 277.5 -148.5t76.5 -182.5q0 -173 -147.5 -295.5t-382.5 -130.5l-61 -281h-93l68 279q-165 8 -265 82.5t-100 187.5q0 72 38.5 122t95.5 50q104 0 104 -88q0 -51 -76 -158q42 -109 217 -121l121 523l-68 27q-156 58 -213 128
t-57 166q0 168 147 282.5t357 114.5l51 228h92l-55 -228q154 -15 239 -84.5t85 -158.5q0 -60 -32 -104t-83 -44q-109 0 -109 84q0 29 39 110zM754 1221q-142 0 -222.5 -66.5t-80.5 -179.5q0 -68 34.5 -114t161.5 -97zM688 555l-117 -502q154 0 239 76.5t85 202.5
q0 93 -60 145t-121 69q-15 4 -26 9z" />
    <glyph glyph-name="percent" unicode="%" horiz-adv-x="1673" 
d="M465 713q-134 0 -206.5 74t-72.5 204q0 185 118 323t302 138q131 0 205 -75t74 -206q0 -194 -120 -326t-300 -132zM594 1386q-107 0 -174.5 -120.5t-67.5 -298.5q0 -187 127 -187q103 0 172.5 124.5t69.5 291.5q0 190 -127 190zM217 0h-143l1456 1423h145zM1141 -31
q-133 0 -207 74t-74 205q0 186 120 323.5t302 137.5q132 0 204.5 -75.5t72.5 -205.5q0 -193 -118.5 -326t-299.5 -133zM1268 641q-107 0 -174.5 -122.5t-67.5 -297.5q0 -184 129 -184q101 0 170.5 124.5t69.5 291.5q0 188 -127 188z" />
    <glyph glyph-name="ampersand" unicode="&#x26;" horiz-adv-x="1454" 
d="M1524 834q-101 -14 -155 -36.5t-84.5 -55t-134.5 -179.5q-125 -176 -206 -258q81 -125 141 -174t232 -65l-17 -66h-385l-112 180q-236 -215 -434 -215q-157 0 -254 88t-97 232q0 150 103 269t328 234q-99 178 -99 291q0 164 119 268.5t289 104.5q126 0 197 -66.5
t71 -168.5q0 -127 -86.5 -220.5t-290.5 -189.5q149 -279 256 -447q89 97 164.5 220.5t75.5 177.5q0 41 -156 76l17 65h534zM618 862q275 129 275 350q0 158 -150 158q-97 0 -154 -68.5t-57 -162.5q0 -106 86 -277zM764 236q-192 317 -285 495q-239 -130 -239 -379
q0 -116 61 -185t168 -69q156 0 295 138z" />
    <glyph glyph-name="quotesingle" unicode="'" horiz-adv-x="440" 
d="M342 967h-61q4 103 6 289q1 122 9 165.5t41 76t89 32.5q92 0 92 -88q0 -32 -109 -299q-32 -79 -67 -176z" />
    <glyph glyph-name="parenleft" unicode="(" horiz-adv-x="768" 
d="M895 1450q-268 -53 -434 -421t-166 -808q0 -425 264 -475l-16 -74q-209 25 -323 186.5t-114 430.5q0 483 225 837.5t578 405.5z" />
    <glyph glyph-name="parenright" unicode=")" horiz-adv-x="768" 
d="M-90 -328l14 80q267 53 433.5 421t166.5 810q0 424 -264 475l16 74q211 -27 324 -188.5t113 -428.5q0 -483 -225.5 -837.5t-577.5 -405.5z" />
    <glyph glyph-name="asterisk" unicode="*" horiz-adv-x="967" 
d="M641 1083q37 -54 148 -173q57 -61 57 -99q0 -27 -23.5 -46.5t-52.5 -19.5q-32 0 -50 25.5t-45 119.5q-28 96 -65 177q-30 -66 -64 -177q-31 -100 -47.5 -122.5t-49.5 -22.5q-28 0 -51 19.5t-23 46.5q0 38 57 99q111 119 148 173q-83 -8 -251 -48q-27 -7 -42 -7
q-74 0 -74 72q0 69 74 69q15 0 42 -6q185 -41 251 -47q-42 61 -148 174q-57 61 -57 99q0 25 22.5 45t51.5 20q34 0 50 -22.5t47 -120.5q34 -110 64 -176q38 84 65 176q26 88 43 115.5t52 27.5q29 0 52.5 -19.5t23.5 -45.5q0 -38 -57 -99q-106 -113 -148 -174q57 5 251 47
q27 6 42 6q74 0 74 -69q0 -72 -74 -72q-15 0 -42 7q-175 41 -251 48z" />
    <glyph glyph-name="plus" unicode="+" horiz-adv-x="1317" 
d="M748 498v-453h-127v453h-451v125h451v450h127v-450h450v-125h-450z" />
    <glyph glyph-name="comma" unicode="," horiz-adv-x="553" 
d="M43 -354l-31 67q232 124 283 289h-47q-121 0 -121 111q0 56 41.5 97.5t105.5 41.5q140 0 140 -154q0 -128 -99 -247.5t-272 -204.5z" />
    <glyph glyph-name="hyphen" unicode="-" horiz-adv-x="766" 
d="M676 469h-596l35 152h596z" />
    <glyph glyph-name="hyphen" unicode="&#xad;" horiz-adv-x="766" 
d="M676 469h-596l35 152h596z" />
    <glyph glyph-name="period" unicode="." horiz-adv-x="553" 
d="M262 -20q-57 0 -96 39t-39 96q0 56 39.5 96.5t95.5 40.5t96.5 -40t40.5 -97q0 -58 -40 -96.5t-97 -38.5z" />
    <glyph glyph-name="slash" unicode="/" horiz-adv-x="961" 
d="M23 -424h-140l1032 1948h140z" />
    <glyph glyph-name="zero.oldstyle" horiz-adv-x="1257" 
d="M524 -33q-199 0 -312.5 115.5t-113.5 288.5q0 307 202.5 521t477.5 214q209 0 317.5 -119t108.5 -291q0 -297 -196 -513t-484 -216zM766 1030q-204 0 -329.5 -225.5t-125.5 -472.5q0 -289 230 -289q211 0 330.5 231t119.5 463q0 293 -225 293z" />
    <glyph glyph-name="one.oldstyle" horiz-adv-x="881" 
d="M717 1106q-50 -178 -80 -309l-139 -598q-4 -17 -4 -33q0 -45 34.5 -66t171.5 -34l-16 -66h-674l17 66q173 13 216 34.5t56 87.5l166 713h-250l18 78h56q199 0 346 127h82z" />
    <glyph glyph-name="two.oldstyle" horiz-adv-x="1145" 
d="M178 174h799l-41 -174h-936l33 135q7 27 107.5 110.5t351.5 178.5q199 75 284.5 165t85.5 226q0 99 -52 156t-140 57q-152 0 -224 -90q5 -44 5 -88q0 -178 -148 -178q-98 0 -98 88q0 125 147 235.5t346 110.5q172 0 275.5 -82.5t103.5 -230.5q0 -299 -485 -424
q-300 -80 -414 -195z" />
    <glyph glyph-name="three.oldstyle" horiz-adv-x="1130" 
d="M696 436l-6 -16q140 -16 218.5 -88t78.5 -185q0 -219 -185.5 -365.5t-447.5 -146.5q-162 0 -266 72.5t-104 175.5q0 69 38.5 117.5t98.5 48.5q106 0 106 -86q0 -49 -42 -129q-10 -19 -17 -35q63 -86 221 -86q152 0 268.5 125t116.5 326q0 190 -237 190h-136l27 111h88
q150 0 243 104t93 273q0 186 -184 186q-127 0 -213 -86q0 -127 -6.5 -164.5t-44 -71.5t-107.5 -34q-88 0 -88 88q0 123 147 234.5t361 111.5q170 0 259 -78t89 -203q0 -134 -96 -238t-273 -151z" />
    <glyph glyph-name="four.oldstyle" horiz-adv-x="1157" 
d="M1071 90h-209l-104 -455h-193l105 455h-643l41 164l886 846h142l-205 -883h211zM156 217h542l154 660z" />
    <glyph glyph-name="five.oldstyle" horiz-adv-x="1081" 
d="M1071 897h-635l-137 -426q152 94 295 94q159 0 268 -90t109 -248q0 -245 -190 -418.5t-439 -173.5q-158 0 -263.5 69t-105.5 171q0 63 38.5 111.5t97.5 48.5q108 0 108 -86q0 -48 -40 -124q-10 -19 -17 -36q56 -76 205 -76q153 0 273 145t120 351q0 109 -64.5 178.5
t-171.5 69.5q-177 0 -303 -131l-65 26l237 721h723z" />
    <glyph glyph-name="six.oldstyle" horiz-adv-x="1159" 
d="M1073 1454v-94l-90 -10q-42 -5 -171.5 -66.5t-251 -194.5t-187.5 -321q182 139 383 139q144 0 241 -102.5t97 -257.5q0 -237 -169 -408.5t-405 -171.5q-192 0 -303 121t-111 336q0 376 270.5 672t696.5 358zM356 670q-43 -132 -43 -285q0 -342 226 -342q140 0 241 140
t101 335q0 130 -62 204.5t-168 74.5q-158 0 -295 -127z" />
    <glyph glyph-name="seven.oldstyle" horiz-adv-x="1018" 
d="M1165 1008l-1020 -1373h-131l961 1274h-389q-152 0 -199.5 -10.5t-88.5 -57.5t-83 -159h-65l90 391h940z" />
    <glyph glyph-name="eight.oldstyle" horiz-adv-x="1221" 
d="M872 745q248 -119 248 -317q0 -187 -173.5 -325t-426.5 -138q-196 0 -311 93t-115 239q0 293 391 434q-194 124 -194 297q0 169 161 298.5t379 129.5q169 0 272 -85t103 -220q0 -261 -334 -406zM809 780q97 58 151 163.5t54 219.5q0 101 -56.5 160t-154.5 59
q-135 0 -224.5 -86t-89.5 -213q0 -101 76.5 -168.5t243.5 -134.5zM549 696q-256 -127 -256 -393q0 -119 72.5 -190.5t191.5 -71.5q160 0 261.5 94t101.5 234q0 97 -78 166.5t-293 160.5z" />
    <glyph glyph-name="nine.oldstyle" horiz-adv-x="1159" 
d="M129 -371v97l94 10q54 6 200.5 77t250.5 195t164 291q-176 -131 -383 -131q-144 0 -239 102t-95 258q0 228 169.5 403t403.5 175q190 0 302 -120t112 -320q0 -389 -272 -685.5t-707 -351.5zM858 397q43 125 43 308q0 150 -61.5 238.5t-161.5 88.5q-154 0 -249 -155.5
t-95 -331.5q0 -120 62 -193t165 -73q170 0 297 118z" />
    <glyph glyph-name="colon" unicode=":" horiz-adv-x="786" 
d="M475 717q-56 0 -96.5 39.5t-40.5 97.5q0 56 40.5 95.5t96.5 39.5t96.5 -39t40.5 -96q0 -59 -40.5 -98t-96.5 -39zM309 -20q-55 0 -96 38.5t-41 96.5q0 57 41 97t96 40q54 0 95.5 -39.5t41.5 -97.5q0 -59 -41 -97t-96 -38z" />
    <glyph glyph-name="semicolon" unicode=";" horiz-adv-x="786" 
d="M475 717q-56 0 -96.5 39.5t-40.5 97.5q0 56 40.5 95.5t96.5 39.5t96.5 -39t40.5 -96q0 -59 -40.5 -98t-96.5 -39zM92 -354l-31 67q232 124 283 289h-47q-123 0 -123 111q0 56 42.5 97.5t107.5 41.5q139 0 139 -154q0 -262 -371 -452z" />
    <glyph glyph-name="semicolon" unicode="&#x37e;" horiz-adv-x="786" 
d="M475 717q-56 0 -96.5 39.5t-40.5 97.5q0 56 40.5 95.5t96.5 39.5t96.5 -39t40.5 -96q0 -59 -40.5 -98t-96.5 -39zM92 -354l-31 67q232 124 283 289h-47q-123 0 -123 111q0 56 42.5 97.5t107.5 41.5q139 0 139 -154q0 -262 -371 -452z" />
    <glyph glyph-name="less" unicode="&#x3c;" horiz-adv-x="1317" 
d="M217 504v112l926 482v-137l-768 -402l768 -399v-137z" />
    <glyph glyph-name="equal" unicode="=" horiz-adv-x="1317" 
d="M178 682v127h1010v-127h-1010zM178 311v125h1010v-125h-1010z" />
    <glyph glyph-name="greater" unicode="&#x3e;" horiz-adv-x="1317" 
d="M223 23v137l770 399l-770 402v137l926 -482v-112z" />
    <glyph glyph-name="question" unicode="?" horiz-adv-x="981" 
d="M461 590l-51 -213h-93l80 379q424 41 424 397q0 108 -56 166.5t-155 58.5q-73 0 -137 -41v-70q0 -85 -35.5 -127t-115.5 -42q-82 0 -82 88q0 98 112 182t281 84q176 0 274.5 -93t98.5 -241q0 -214 -146 -354.5t-399 -173.5zM326 -20q-57 0 -97.5 39.5t-40.5 95.5
q0 55 40.5 96t97.5 41q56 0 96.5 -40.5t40.5 -96.5t-40.5 -95.5t-96.5 -39.5z" />
    <glyph glyph-name="at" unicode="@" horiz-adv-x="1903" 
d="M1083 299h-8q-104 -160 -233 -160q-108 0 -170 71t-62 206q0 169 138.5 354.5t328.5 185.5q132 0 154 -125h6l43 113h150l-191 -538q-18 -51 -18 -109q0 -98 92 -98q156 0 259 147t103 381q0 250 -158.5 405.5t-429.5 155.5q-294 0 -512.5 -222.5t-218.5 -571.5
q0 -345 180 -537.5t484 -192.5q302 0 506 168l30 -51q-225 -194 -542 -194q-343 0 -581 215t-238 575q0 363 256.5 628t644.5 265q313 0 491 -184.5t178 -468.5q0 -247 -134.5 -414.5t-338.5 -167.5q-84 0 -143.5 44.5t-65.5 119.5zM1208 741q-23 156 -135 156
q-115 0 -203 -164t-88 -334q0 -176 88 -176q65 0 113.5 39t110.5 141z" />
    <glyph glyph-name="A" unicode="A" horiz-adv-x="1374" 
d="M1303 0h-580l14 66q199 19 199 75l-45 353h-500q-178 -294 -178 -351q0 -64 186 -77l-14 -66h-545l15 66q79 6 137 35.5t100.5 86.5t309.5 490l470 762h80l189 -1229q21 -133 176 -145zM786 1130l-340 -555h428z" />
    <glyph glyph-name="B" unicode="B" horiz-adv-x="1339" 
d="M885 766v-8q168 -25 260 -104.5t92 -200.5q0 -203 -170 -328t-403 -125h-693l17 66q124 10 164.5 36t56.5 86l235 1031q7 31 7 38q0 78 -160 97l14 65h627q164 0 265 -66.5t101 -185.5q0 -308 -413 -401zM686 1341l-127 -553h125q176 0 274.5 103t98.5 266
q0 189 -228 189q-48 0 -143 -5zM541 709l-113 -490q-6 -26 -6 -49q0 -98 188 -98q177 0 279 125t102 286q0 106 -72 168t-202 62q-111 0 -176 -4z" />
    <glyph glyph-name="C" unicode="C" horiz-adv-x="1315" 
d="M1319 913h-82v39q0 418 -322 418q-239 0 -408 -239t-169 -576q0 -219 106 -349t279 -130q291 0 471 319l72 -37q-224 -391 -635 -391q-230 0 -380.5 156t-150.5 409q0 371 241 645.5t574 274.5q230 0 375 -100l58 67h79z" />
    <glyph glyph-name="D" unicode="D" horiz-adv-x="1534" 
d="M-29 0l15 66q87 0 145 20t76 98l235 1020q9 39 9 51q0 48 -42.5 69t-117.5 30l14 65h602q254 0 431.5 -141.5t177.5 -405.5q0 -384 -270.5 -628t-655.5 -244h-619zM686 1339l-254 -1101q-6 -26 -6 -52q0 -62 53.5 -85t161.5 -23q283 0 461 232.5t178 559.5
q0 218 -117.5 345.5t-320.5 127.5q-87 0 -156 -4z" />
    <glyph glyph-name="E" unicode="E" horiz-adv-x="1337" 
d="M1309 1077h-74q-7 105 -40.5 169t-76 82t-203.5 18h-227l-131 -572h160q113 0 172.5 48t114.5 186h73l-127 -555h-73q0 108 -5.5 149.5t-41 67.5t-132.5 26h-159l-101 -432q-12 -51 -12 -96q0 -54 38.5 -72t174.5 -18q153 0 215.5 10.5t100.5 35.5t116.5 123.5
t120.5 170.5h72l-123 -418h-1178l14 66q135 10 175.5 32.5t56.5 89.5l237 1031q5 22 5 36q0 84 -177 99l17 65h1098z" />
    <glyph glyph-name="F" unicode="F" horiz-adv-x="1227" 
d="M1323 1065h-76q-5 104 -43.5 180t-87 88.5t-184.5 12.5h-244l-133 -578h164q134 0 197 63t100 170h76l-129 -557h-76q4 32 4 64q0 105 -41.5 144.5t-149.5 39.5h-163l-113 -497q-4 -18 -4 -33q0 -60 60 -74.5t118 -21.5l-14 -66h-619l17 66q149 7 181 37.5t44 80.5
l239 1035q5 22 5 38q0 43 -41 63t-136 34l17 65h1114z" />
    <glyph glyph-name="G" unicode="G" horiz-adv-x="1485" 
d="M1481 571q-13 -2 -31 -4q-92 -10 -130.5 -36t-55.5 -95l-27 -114q-41 -175 -47 -232q-291 -123 -522 -123q-250 0 -409 156t-159 418q0 379 251.5 645t602.5 266q239 0 392 -100l57 67h80l-107 -495h-82q-1 236 -87.5 341t-272.5 105q-249 0 -423.5 -241t-174.5 -601
q0 -222 104.5 -350.5t288.5 -128.5q143 0 256 84q23 63 55 199l19 86q8 36 8 53q0 53 -44 72t-165 28l14 70h623z" />
    <glyph glyph-name="H" unicode="H" horiz-adv-x="1669" 
d="M1755 1354q-63 -5 -128 -23.5t-87 -101.5l-237 -1034q-5 -22 -5 -35q0 -81 160 -94l-14 -66h-590l16 66q139 7 172.5 39t44.5 79l117 512h-665l-115 -501q-4 -17 -4 -33q0 -50 38 -69t122 -27l-17 -66h-588l15 66q139 6 172 37.5t45 80.5l239 1035q5 22 5 32
q0 80 -164 103l14 65h590l-14 -65q-119 -10 -159.5 -35.5t-55.5 -89.5l-103 -449h668l98 439q4 18 4 32q0 49 -50.5 73.5t-111.5 29.5l15 65h590z" />
    <glyph glyph-name="I" unicode="I" horiz-adv-x="799" 
d="M907 1354q-137 -10 -181.5 -35.5t-59.5 -87.5l-240 -1038q-4 -17 -4 -31q0 -83 188 -96l-14 -66h-639l14 66q156 6 192.5 37t47.5 79l240 1039q4 17 4 34q0 47 -51 66.5t-136 32.5l15 65h639z" />
    <glyph glyph-name="J" unicode="J" horiz-adv-x="1061" 
d="M1194 1354q-126 -10 -168 -34t-59 -91l-191 -846q-38 -168 -181.5 -293t-336.5 -125q-140 0 -223.5 72t-83.5 192q0 100 49 174t129 74q111 0 111 -96q0 -82 -114 -208q-28 -31 -46 -58q41 -78 178 -78q116 0 191.5 89.5t130.5 336.5l170 756q4 18 4 32q0 49 -43 70
t-148 33l17 65h628z" />
    <glyph glyph-name="K" unicode="K" horiz-adv-x="1421" 
d="M1581 1354l-36 -4q-139 -15 -214 -80q-375 -341 -565 -494q137 -211 332 -543q60 -100 113 -129.5t143 -37.5l-19 -66h-360q-162 345 -385 674h-55l-111 -479q-4 -17 -4 -33q0 -61 52 -75.5t112 -20.5l-17 -66h-587l14 66q134 6 168 39t45 79l239 1035q5 22 5 34
q0 45 -40.5 67t-119.5 34l14 65h590l-14 -65q-124 -10 -164 -35.5t-55 -89.5l-117 -506h20q201 140 411 335.5t210 250.5q0 35 -135 45l14 65h532z" />
    <glyph glyph-name="L" unicode="L" horiz-adv-x="1237" 
d="M1083 0h-1108l15 66q138 8 172 38t47 84l235 1026q7 31 7 37q0 78 -164 103l14 65h600l-14 -65q-105 -8 -155.5 -31t-72.5 -98l-221 -965q-16 -70 -16 -104q0 -50 36.5 -66t170.5 -16q107 0 172.5 14t94.5 36t112 122t133 176h69z" />
    <glyph glyph-name="M" unicode="M" horiz-adv-x="1898" 
d="M1993 1354q-127 -11 -166.5 -36t-54.5 -89l-240 -1034q-4 -17 -4 -33q0 -44 33.5 -65t136.5 -31l-17 -66h-624l16 66q157 6 200 46t50 83l246 1056h-10l-777 -1228h-47l-178 1255h-8l-203 -872q-27 -116 -27 -185q0 -77 39 -105t154 -50l-14 -66h-574l17 66
q169 16 217.5 82.5t87.5 244.5l170 737q10 43 10 78q0 136 -180 146l14 65h477l156 -1067l553 893q64 103 86 174h475z" />
    <glyph glyph-name="N" unicode="N" horiz-adv-x="1571" 
d="M1743 1354q-150 -21 -202 -64t-101 -260l-242 -1044h-88l-584 1198l-178 -774q-26 -113 -26 -191q0 -49 14 -79t89 -51.5t97 -22.5l-14 -66h-584l17 66q126 20 188.5 56t118.5 277l160 688q12 52 12 101q0 139 -207 166l16 65h408l539 -1110l163 709q27 117 27 188
q0 52 -14.5 77t-76.5 45.5t-110 25.5l17 65h577z" />
    <glyph glyph-name="O" unicode="O" horiz-adv-x="1495" 
d="M651 -35q-248 0 -399.5 159.5t-151.5 416.5q0 372 249 641.5t577 269.5q246 0 398.5 -158.5t152.5 -421.5q0 -372 -251.5 -639.5t-574.5 -267.5zM907 1368q-254 0 -412.5 -270t-158.5 -604q0 -213 86.5 -329t247.5 -116q249 0 410 266.5t161 616.5q0 207 -87 321.5
t-247 114.5z" />
    <glyph glyph-name="P" unicode="P" horiz-adv-x="1249" 
d="M522 627l-100 -439q-4 -18 -4 -36q0 -46 31 -62.5t149 -23.5l-14 -66h-609l15 66q138 8 172 38t47 84l237 1035q7 31 7 41q0 45 -41 64t-131 26l14 65h631q176 0 281.5 -78t105.5 -208q0 -224 -182 -365t-435 -141h-174zM686 1341l-143 -632h112q201 0 306.5 115.5
t105.5 287.5q0 229 -250 229h-131z" />
    <glyph glyph-name="Q" unicode="Q" horiz-adv-x="1495" 
d="M860 0q-6 -45 -6 -72q0 -97 53.5 -155t139.5 -58q114 0 202 23l-16 -76q-170 -47 -311 -47q-295 0 -295 295q0 33 4 57q-243 10 -387 168t-144 406q0 372 249 641.5t577 269.5q246 0 398.5 -158.5t152.5 -421.5q0 -294 -171 -537t-446 -335zM907 1368q-254 0 -412.5 -270
t-158.5 -604q0 -213 86.5 -329t247.5 -116q252 0 411.5 265t159.5 618q0 207 -87 321.5t-247 114.5z" />
    <glyph glyph-name="R" unicode="R" horiz-adv-x="1438" 
d="M1354 0h-359q-77 197 -319 645h-150l-104 -457q-6 -26 -6 -34q0 -39 23 -59.5t151 -28.5l-17 -66h-600l17 66q137 8 172 39t47 83l237 1037q7 31 7 41q0 44 -42 62.5t-124 25.5l14 65h639q181 0 285 -70.5t104 -199.5q0 -351 -448 -459q72 -141 158 -299q37 -68 83 -158
q38 -71 85.5 -115.5t162.5 -51.5zM686 1343l-139 -616h141q163 0 279 114.5t116 284.5q0 105 -64 161t-173 56h-160z" />
    <glyph glyph-name="S" unicode="S" horiz-adv-x="1149" 
d="M1098 948h-80q-9 242 -83.5 331t-223.5 89q-118 0 -198.5 -80t-80.5 -194q0 -107 52 -158.5t205 -107.5q243 -91 309.5 -180.5t66.5 -188.5q0 -209 -165 -348.5t-406 -139.5q-214 0 -365 101l-57 -72h-80l96 485h82q24 -432 358 -432q151 0 240.5 83.5t89.5 223.5
q0 100 -51 158t-175 104q-160 57 -235 97.5t-123.5 116t-48.5 174.5q0 183 152 311.5t358 128.5q191 0 330 -98l53 67h80z" />
    <glyph glyph-name="T" unicode="T" horiz-adv-x="1268" 
d="M1366 1034h-70q-6 121 -40.5 201.5t-80.5 95.5t-186 15h-61l-264 -1145q-5 -22 -5 -35q0 -50 45 -68.5t156 -31.5l-16 -66h-670l16 66q150 11 194.5 33.5t64.5 93.5l266 1153h-53q-143 0 -191.5 -16t-132.5 -106.5t-137 -189.5h-72l90 385h1235z" />
    <glyph glyph-name="U" unicode="U" horiz-adv-x="1548" 
d="M1720 1354q-115 -10 -182 -49t-121 -273l-97 -430q-51 -227 -88 -310.5t-117 -159.5t-198 -121.5t-258 -45.5q-209 0 -327.5 89.5t-118.5 238.5q0 47 8 82l197 844q4 17 4 32q0 78 -133 99q-16 2 -27 4l17 65h589l-16 -65q-110 -9 -156.5 -32.5t-62.5 -92.5l-182 -791
q-15 -65 -15 -119q0 -245 285 -245q103 0 187.5 33t146.5 95t89 125t71 247.5t86 379t42 267.5q0 59 -42.5 88.5t-159.5 44.5l16 65h580z" />
    <glyph glyph-name="V" unicode="V" horiz-adv-x="1366" 
d="M1599 1354q-60 -5 -117.5 -29.5t-103.5 -86.5t-361 -562l-433 -694h-82l-175 1229q-7 58 -47.5 96t-127.5 47l14 65h575l-16 -65q-193 -11 -193 -68q0 -47 140 -995q443 698 510 822.5t67 160.5q0 64 -190 80l14 65h541z" />
    <glyph glyph-name="W" unicode="W" horiz-adv-x="1999" 
d="M2218 1354q-75 -5 -134 -41.5t-87.5 -80.5t-259.5 -475l-414 -775h-90l-117 1093l-620 -1093h-88l-65 1243q-8 113 -161 129l15 65h571l-14 -65q-201 -12 -201 -72q0 -35 47 -944l596 1061h92l119 -1084q463 887 463 963q0 64 -176 76l14 65h524z" />
    <glyph glyph-name="X" unicode="X" horiz-adv-x="1454" 
d="M1599 1354q-151 -11 -227 -81.5t-504 -510.5l179 -398q82 -182 115.5 -228t53.5 -54t119 -16l-14 -66h-639l14 66q201 7 201 63q0 73 -182 489q-432 -442 -432 -495q0 -52 155 -57l-14 -66h-535l17 66q157 8 252 103.5t518 532.5l-164 368q-84 188 -102 213.5t-56 44.5
t-127 26l17 65h630l-14 -65q-198 -11 -198 -62q0 -77 172 -452q389 403 389 456q0 49 -154 58l16 65h529z" />
    <glyph glyph-name="Y" unicode="Y" horiz-adv-x="1260" 
d="M1501 1354q-49 -6 -105.5 -32.5t-123 -90t-264.5 -308.5t-234.5 -300t-56.5 -144l-64 -276q-4 -17 -4 -35q0 -65 74 -81.5t125 -20.5l-14 -66h-664l14 66q145 10 190.5 32t63.5 95l72 311q8 35 8 49q0 47 -49 208l-104 344q-55 182 -109 213.5t-113 35.5l17 65h581
l-16 -65q-129 -5 -163 -18.5t-34 -37.5q0 -42 183 -610q458 554 458 600q0 54 -172 66l17 65h504z" />
    <glyph glyph-name="Z" unicode="Z" horiz-adv-x="1233" 
d="M1378 1384l-1171 -1308h321q89 0 167 9.5t122 27.5t138 116t173 213h70l-149 -442h-1139l8 35l1174 1308h-314q-159 0 -222.5 -33t-147.5 -116t-148 -176h-70l136 401h1060z" />
    <glyph glyph-name="bracketleft" unicode="[" horiz-adv-x="768" 
d="M907 1434h-354l-383 -1657h356l-20 -86h-533l422 1829h533z" />
    <glyph glyph-name="backslash" unicode="\" horiz-adv-x="961" 
d="M569 -424l-239 1948h131l239 -1948h-131z" />
    <glyph glyph-name="bracketright" unicode="]" horiz-adv-x="768" 
d="M406 -309h-535l20 86h357l381 1657h-355l21 86h532z" />
    <glyph glyph-name="asciicircum" unicode="^" horiz-adv-x="1317" 
d="M1030 797l-321 524l-324 -524h-145l411 659h115l410 -659h-146z" />
    <glyph glyph-name="underscore" unicode="_" horiz-adv-x="1317" 
d="M1145 -279h-1327l22 97h1327z" />
    <glyph glyph-name="grave" unicode="`" horiz-adv-x="1024" 
d="M881 1110l-181 149q-111 88 -139.5 120t-28.5 71q0 34 24 61t65 27q59 0 94 -59l205 -336z" />
    <glyph glyph-name="a" unicode="a" horiz-adv-x="1174" 
d="M1098 51q-159 -67 -242 -67q-71 0 -114.5 42t-45.5 105h-8q-177 -160 -307 -160q-145 0 -228 103.5t-83 285.5q0 252 173.5 451t399.5 199q137 0 238 -64l184 47l10 -14l-151 -645q-25 -107 -25 -141q0 -57 24.5 -77t80.5 -20q54 0 108 19zM840 764q9 40 -28 107t-153 67
q-146 0 -264.5 -177.5t-118.5 -402.5q0 -148 44 -211t137 -63q113 0 256 141z" />
    <glyph glyph-name="b" unicode="b" horiz-adv-x="1135" 
d="M92 156l258 1130q12 53 12 74q0 46 -23 70.5t-140 33.5l14 62l371 22l10 -14l-152 -666h4q158 142 291 142q153 0 240.5 -104t87.5 -279q0 -265 -174.5 -461.5t-401.5 -196.5q-285 0 -397 187zM418 768l-133 -594q13 -57 67.5 -95t128.5 -38q155 0 266 170t111 412
q0 276 -203 276q-97 0 -237 -131z" />
    <glyph glyph-name="c" unicode="c" horiz-adv-x="930" 
d="M733 887q-20 51 -129 51q-132 0 -232 -155.5t-100 -391.5q0 -142 63.5 -224.5t172.5 -82.5q170 0 315 199l58 -43q-80 -124 -199.5 -196.5t-237.5 -72.5q-178 0 -277 105t-99 289q0 262 155.5 453.5t399.5 191.5q136 0 213 -58t77 -155q0 -75 -34 -124.5t-95 -49.5
q-53 0 -80.5 27t-27.5 61q0 33 57 176z" />
    <glyph glyph-name="d" unicode="d" horiz-adv-x="1178" 
d="M930 334q-25 -109 -25 -139q0 -57 24.5 -78t80.5 -21q54 0 108 19l-14 -64q-141 -67 -242 -67q-157 0 -157 153h-7q-176 -166 -317 -166q-145 0 -228 103.5t-83 285.5q0 257 168.5 453.5t398.5 196.5q140 0 250 -64l78 340q10 44 10 76q0 84 -117 94q-36 3 -80 8l15 62
l403 22l10 -14zM846 774q7 31 -41.5 97.5t-153.5 66.5q-150 0 -262.5 -173.5t-112.5 -406.5q0 -148 44 -211t137 -63q117 0 264 147z" />
    <glyph glyph-name="e" unicode="e" horiz-adv-x="967" 
d="M268 408q0 -324 230 -324q178 0 327 199l58 -43q-82 -125 -203.5 -197t-247.5 -72q-175 0 -268.5 99t-93.5 282q0 264 164 461t409 197q135 0 209 -55t74 -154q0 -172 -170 -263t-488 -130zM274 477q276 34 371.5 122t95.5 226q0 113 -116 113q-119 0 -221 -129
t-130 -332z" />
    <glyph glyph-name="f" unicode="f" horiz-adv-x="674" 
d="M754 1466q-138 -6 -217 -383l-23 -106h252l-23 -90h-247l-177 -828q-46 -215 -195 -359t-314 -144q-170 0 -170 118q0 47 27 78t73 31q74 0 129 -95q14 -26 29 -50q147 11 227 385l182 864h-194l20 90h195l14 67q48 228 192.5 366t307.5 138q87 0 128.5 -33.5t41.5 -82.5
q0 -47 -27.5 -78t-73.5 -31q-72 0 -127 95q-15 25 -30 48z" />
    <glyph glyph-name="g" unicode="g" horiz-adv-x="1174" 
d="M909 190q-70 -330 -217 -482t-411 -152q-271 0 -271 145q0 45 28 75.5t75 30.5q88 0 161 -184h29q150 0 255.5 131t150.5 381l-7 2q-184 -157 -329 -157q-143 0 -223 101t-80 284q0 255 172.5 450t400.5 195q139 0 240 -64l184 47l10 -14zM844 774q9 43 -33 103.5
t-152 60.5q-150 0 -266.5 -173t-116.5 -403q0 -272 183 -272q123 0 270 143z" />
    <glyph glyph-name="h" unicode="h" horiz-adv-x="1153" 
d="M1079 51q-166 -67 -241 -67q-160 0 -160 143q0 51 16 111l99 372q24 90 24 135q0 146 -127 146q-135 0 -280 -158l-168 -733h-187l297 1286q13 56 13 74q0 47 -23.5 71t-140.5 33l12 62l373 22l10 -14l-162 -692h4q133 104 209 136t160 32q96 0 150.5 -55t54.5 -146
q0 -72 -25 -156l-84 -321q-24 -92 -24 -137q0 -57 24.5 -78t81.5 -21q48 0 109 21z" />
    <glyph glyph-name="i" unicode="i" horiz-adv-x="608" 
d="M494 1245q-50 0 -87.5 39.5t-37.5 93.5q0 55 37 96.5t88 41.5q54 0 91.5 -38t37.5 -92q0 -56 -37.5 -98.5t-91.5 -42.5zM537 45q-160 -65 -242 -65q-76 0 -118 38.5t-42 104.5q0 42 17 110l106 426q23 92 23 144q0 59 -20.5 75.5t-74.5 16.5q-32 0 -112 -18l14 63
q155 70 238 70q155 0 155 -146q0 -50 -14 -110l-109 -424q-24 -93 -24 -140q0 -98 108 -98q57 0 109 17z" />
    <glyph glyph-name="j" unicode="j" horiz-adv-x="596" 
d="M502 1245q-50 0 -87.5 39.5t-37.5 93.5q0 55 37 96.5t88 41.5q55 0 92 -38.5t37 -91.5q0 -56 -37.5 -98.5t-91.5 -42.5zM-86 -362q66 4 119 87t85 210t105.5 465.5t73.5 402.5q0 52 -17.5 72t-76.5 20q-53 0 -123 -23l14 66q173 72 248 72q156 0 156 -146
q0 -26 -50.5 -276.5t-94.5 -444t-98.5 -290.5t-129 -165.5t-151 -100t-148.5 -31.5q-170 0 -170 118q0 44 27 76.5t73 32.5q72 0 128 -95q15 -26 30 -50z" />
    <glyph glyph-name="k" unicode="k" horiz-adv-x="1081" 
d="M815 811q-116 -67 -240 -186q151 -384 200 -459.5t138 -75.5q55 0 131 23l-14 -66q-152 -63 -254 -63q-86 0 -141.5 67.5t-190.5 433.5l-116 -100l-86 -385h-187l297 1286q13 56 13 74q0 47 -23.5 71t-140.5 33l12 62l373 22l10 -14l-246 -1042h4q172 184 320 321.5
t193 162.5t91 25q113 0 113 -106q0 -47 -36 -83t-85 -36q-55 0 -135 35z" />
    <glyph glyph-name="l" unicode="l" horiz-adv-x="584" 
d="M322 330q-25 -108 -25 -140q0 -98 106 -98q67 0 119 17l-14 -64q-156 -65 -248 -65q-78 0 -121 40t-43 103q0 34 19 110l241 1053q13 57 13 74q0 47 -23.5 71t-140.5 33l14 62l371 22l10 -14z" />
    <glyph glyph-name="m" unicode="m" horiz-adv-x="1800" 
d="M1729 49q-160 -65 -242 -65q-160 0 -160 143q0 51 16 111l99 372q24 90 24 135q0 146 -120 146q-133 0 -279 -150l-172 -741h-186l155 668q15 65 15 84q0 139 -127 139q-139 0 -287 -158l-168 -733h-186l147 647q25 110 25 144q0 58 -20 77t-75 19q-39 0 -108 -23l14 66
q150 67 242 67q142 0 147 -161h6q159 124 227.5 149t147.5 25q86 0 143 -49t64 -134h4q138 114 215 148.5t170 34.5q94 0 147.5 -55t53.5 -146q0 -72 -25 -156l-84 -321q-24 -92 -24 -137q0 -57 24.5 -78t79.5 -21q63 0 111 17z" />
    <glyph glyph-name="n" unicode="n" horiz-adv-x="1208" 
d="M1135 51q-171 -67 -242 -67q-160 0 -160 143q0 53 17 111l98 372q24 91 24 135q0 146 -127 146q-139 0 -280 -158l-168 -733h-186l147 647q25 110 25 144q0 56 -20 75t-75 19q-42 0 -108 -21l14 66q150 67 242 67q142 0 147 -161h6q145 114 217 144t156 30
q96 0 150.5 -55t54.5 -146q0 -72 -25 -156l-84 -321q-24 -92 -24 -137q0 -57 24.5 -78t81.5 -21q49 0 109 21z" />
    <glyph glyph-name="o" unicode="o" horiz-adv-x="1100" 
d="M440 -31q-165 0 -268.5 107.5t-103.5 288.5q0 268 167 456.5t418 188.5q176 0 277.5 -107.5t101.5 -286.5q0 -262 -166 -454.5t-426 -192.5zM633 938q-169 0 -266 -182.5t-97 -423.5q0 -291 199 -291q161 0 260.5 179.5t99.5 432.5q0 285 -196 285z" />
    <glyph glyph-name="p" unicode="p" horiz-adv-x="1184" 
d="M305 47l-57 -262q-12 -55 -12 -82q0 -72 176 -84l-15 -63h-551l15 63q118 5 148 34t40 75l209 919q23 101 23 144q0 62 -22 78t-73 16q-35 0 -108 -23l14 66q158 69 242 69q131 0 151 -133h9q159 146 299 146q150 0 235.5 -102.5t85.5 -280.5q0 -267 -171.5 -460.5
t-397.5 -193.5q-139 0 -240 74zM471 766l-129 -567q11 -62 65 -109t130 -47q154 0 262 168.5t108 411.5q0 276 -198 276q-98 0 -238 -133z" />
    <glyph glyph-name="q" unicode="q" horiz-adv-x="1137" 
d="M809 -213q-14 -62 -14 -84q0 -72 166 -84l-15 -63h-551l15 63q128 4 158 33.5t40 75.5l97 411h-9q-177 -168 -315 -168q-145 0 -228 103.5t-83 285.5q0 253 175.5 451.5t401.5 198.5q136 0 242 -64l178 47l12 -14zM846 764q9 39 -29 106.5t-153 67.5q-146 0 -267 -177.5
t-121 -402.5q0 -150 45 -212t136 -62q116 0 268 152z" />
    <glyph glyph-name="r" unicode="r" horiz-adv-x="944" 
d="M760 905q-134 0 -299 -188l-162 -717h-186l145 647q25 112 25 144q0 56 -20 75t-75 19q-42 0 -108 -21l14 66q150 67 242 67q147 0 147 -174h6l95 80q123 107 215 107q155 0 155 -164q0 -72 -35.5 -122t-97.5 -50q-106 0 -106 86q0 49 45 145z" />
    <glyph glyph-name="s" unicode="s" horiz-adv-x="883" 
d="M592 924l-18 7q-18 7 -56 7q-92 0 -145.5 -49t-53.5 -127q0 -61 36.5 -98t158.5 -82q153 -57 206.5 -120t53.5 -149q0 -148 -117 -245t-295 -97q-143 0 -244.5 52t-101.5 139q0 41 29 74.5t72 33.5q91 0 128 -120q10 -32 21 -62q46 -45 119 -45q217 0 217 199
q0 61 -44.5 103t-162.5 81q-245 84 -245 268q0 129 113.5 222.5t281.5 93.5q132 0 214.5 -39.5t82.5 -116.5q0 -41 -29 -75t-72 -34q-90 0 -127 118q-10 32 -22 61z" />
    <glyph glyph-name="t" unicode="t" horiz-adv-x="711" 
d="M752 887h-279l-127 -551q-20 -87 -20 -135q0 -56 27 -81.5t100 -25.5t145 25l-16 -74q-161 -65 -279 -65q-182 0 -182 149q0 42 10 88l156 670h-178l20 90h182l70 293h180l-67 -293h278z" />
    <glyph glyph-name="u" unicode="u" horiz-adv-x="1178" 
d="M1108 51q-161 -67 -242 -67q-73 0 -116 42t-43 113h-7q-188 -164 -358 -164q-97 0 -150 55t-53 146q0 62 23 156l78 315q22 89 22 144q0 59 -20 76.5t-72 17.5q-38 0 -111 -23l17 66q152 69 231 69q156 0 156 -143q0 -53 -17 -111l-88 -370q-22 -92 -22 -133
q0 -146 121 -146q134 0 266 135l174 752l174 12l12 -14l-147 -643q-27 -118 -27 -141q0 -57 25 -78t82 -21q52 0 106 19z" />
    <glyph glyph-name="v" unicode="v" horiz-adv-x="1102" 
d="M59 860l15 66q157 71 235 71q158 0 158 -143q0 -51 -16 -111l-97 -372q-20 -77 -20 -119q0 -166 170 -166q141 0 269 161t128 365q0 90 -53 151t-53 130q0 51 34.5 84t83.5 33q125 0 125 -187q0 -330 -179.5 -592t-430.5 -262q-129 0 -208 72t-79 197q0 45 13 90l88 319
q24 87 24 144q0 55 -19.5 74.5t-76.5 19.5q-36 0 -111 -25z" />
    <glyph glyph-name="w" unicode="w" horiz-adv-x="1683" 
d="M737 166q-192 -195 -340 -195q-123 0 -189.5 68.5t-66.5 193.5q0 50 15 99l84 315q22 83 22 144q0 59 -20 76.5t-72 17.5q-38 0 -111 -23l17 66q152 69 231 69q156 0 156 -143q0 -53 -17 -111l-92 -368q-20 -80 -20 -135q0 -152 131 -152q139 0 258 135l176 758l174 12
l12 -14l-141 -608q-22 -95 -22 -129q0 -156 170 -156q142 0 266.5 160.5t124.5 365.5q0 88 -53 151q-54 63 -54 130q0 51 35 84t84 33q127 0 127 -187q0 -331 -177 -592.5t-427 -261.5q-98 0 -176.5 53.5t-104.5 143.5z" />
    <glyph glyph-name="x" unicode="x" horiz-adv-x="1026" 
d="M807 813q-116 -104 -217 -289q81 -336 129 -384t121 -48q59 0 131 21l-19 -66q-151 -63 -249 -63q-103 0 -145 63.5t-101 321.5q-150 -235 -228.5 -311t-162.5 -76q-49 0 -79 26.5t-30 71.5q0 53 35.5 86t99.5 33q31 0 64 -12t61 -21q123 115 217 285q-88 354 -126 393
t-103 39q-48 0 -123 -25l18 68q180 71 224 71q93 0 140 -59.5t92 -281.5q4 -23 11 -54q22 32 42 64q125 202 200 268.5t154 66.5q45 0 74.5 -27.5t29.5 -74.5q0 -49 -37 -81t-96 -32q-35 0 -127 27z" />
    <glyph glyph-name="y" unicode="y" horiz-adv-x="1147" 
d="M913 197q-72 -327 -226.5 -484t-405.5 -157q-263 0 -263 141q0 45 27 76.5t74 31.5q91 0 162 -182h24q141 0 251 132.5t161 389.5h-6q-191 -165 -365 -165q-94 0 -150.5 54t-56.5 146q0 62 23 156l78 311q22 88 22 144q0 59 -20 76.5t-72 17.5q-38 0 -111 -23l17 66
q152 69 231 69q158 0 158 -143q0 -51 -16 -111l-91 -364q-24 -96 -24 -135q0 -146 129 -146q140 0 272 135l166 748l172 12l12 -14z" />
    <glyph glyph-name="z" unicode="z" horiz-adv-x="909" 
d="M922 920l-715 -840l90 -2q294 -7 332.5 28t136.5 242h59l-67 -348h-785l17 70l702 829h-131q-202 0 -251.5 -34t-112.5 -189h-62l60 303h739z" />
    <glyph glyph-name="braceleft" unicode="{" horiz-adv-x="881" 
d="M1026 1460q-159 -6 -221 -61.5t-86 -161.5l-51 -223q-36 -156 -125.5 -252t-311.5 -137l-8 -31q152 -30 212.5 -90t60.5 -168q0 -63 -41 -231q-41 -169 -41 -216q0 -69 45.5 -104.5t173.5 -42.5l-21 -76q-195 0 -284.5 58t-89.5 186q0 70 48 238t48 223q0 164 -262 178
l30 125q185 12 274 82.5t117 299.5q22 182 64.5 270.5t155 149t331.5 60.5z" />
    <glyph glyph-name="bar" unicode="|" horiz-adv-x="768" 
d="M348 -424v1948h127v-1948h-127z" />
    <glyph glyph-name="braceright" unicode="}" horiz-adv-x="881" 
d="M809 530q-213 -20 -289.5 -98t-101.5 -283q-22 -181 -68 -273.5t-158.5 -151t-326.5 -58.5l18 78q158 6 221.5 61t88.5 160l51 225q39 170 131 261t305 129l6 30q-155 30 -212.5 91t-57.5 167q0 68 40 232t40 215q0 70 -46.5 105t-170.5 42l18 74q200 0 288.5 -58.5
t88.5 -183.5q0 -70 -48 -238t-48 -222q0 -164 260 -179z" />
    <glyph glyph-name="asciitilde" unicode="~" horiz-adv-x="1317" 
d="M1212 715q-46 -123 -141 -209t-201 -86q-105 0 -241 68q-137 67 -201 67q-53 0 -95 -33t-100 -141l-77 31q49 126 142 209.5t198 83.5q116 0 244 -68t198 -68q55 0 98 34.5t99 141.5z" />
    <glyph glyph-name="Adieresis" unicode="&#xc4;" horiz-adv-x="1374" 
d="M1303 0h-580l14 66q199 19 199 75l-45 353h-500q-178 -294 -178 -351q0 -64 186 -77l-14 -66h-545l15 66q79 6 137 35.5t100.5 86.5t309.5 490l470 762h80l189 -1229q21 -133 176 -145zM786 1130l-340 -555h428zM1136 1608q-49 0 -83.5 35.5t-34.5 87.5q0 51 34.5 86.5
t83.5 35.5q50 0 83.5 -35.5t33.5 -86.5q0 -52 -33.5 -87.5t-83.5 -35.5zM686 1608q-49 0 -84 35.5t-35 87.5q0 51 35 86.5t84 35.5t84 -35.5t35 -86.5q0 -52 -35 -87.5t-84 -35.5z" />
    <glyph glyph-name="Aring" unicode="&#xc5;" horiz-adv-x="1374" 
d="M1303 0h-580l14 66q199 19 199 75l-45 353h-500q-178 -294 -178 -351q0 -64 186 -77l-14 -66h-545l15 66q79 6 137 35.5t100.5 86.5t309.5 490l470 762h80l189 -1229q21 -133 176 -145zM786 1130l-340 -555h428zM882 1423q-105 0 -164 49.5t-59 132.5q0 112 86 187.5
t213 75.5q101 0 162 -52t61 -135q0 -107 -84 -182.5t-215 -75.5zM947 1808q-71 0 -117.5 -59t-46.5 -142q0 -124 109 -124q74 0 118 58.5t44 139.5q0 127 -107 127z" />
    <glyph glyph-name="Ccedilla" unicode="&#xc7;" horiz-adv-x="1315" 
d="M1319 913h-82v39q0 418 -322 418q-239 0 -408 -239t-169 -576q0 -219 106 -349t279 -130q291 0 471 319l72 -37q-224 -391 -635 -391q-230 0 -380.5 156t-150.5 409q0 371 241 645.5t574 274.5q230 0 375 -100l58 67h79zM413 -444l15 71q174 0 222 26t48 73q0 67 -153 67
l45 223h77l-24 -114q93 0 150 -33.5t57 -93.5q0 -219 -437 -219z" />
    <glyph glyph-name="Eacute" unicode="&#xc9;" horiz-adv-x="1337" 
d="M1309 1077h-74q-7 105 -40.5 169t-76 82t-203.5 18h-227l-131 -572h160q113 0 172.5 48t114.5 186h73l-127 -555h-73q0 108 -5.5 149.5t-41 67.5t-132.5 26h-159l-101 -432q-12 -51 -12 -96q0 -54 38.5 -72t174.5 -18q153 0 215.5 10.5t100.5 35.5t116.5 123.5
t120.5 170.5h72l-123 -418h-1178l14 66q135 10 175.5 32.5t56.5 89.5l237 1031q5 22 5 36q0 84 -177 99l17 65h1098zM713 1507l-26 39q91 77 282 262q57 60 123 60q37 0 60.5 -20.5t23.5 -51.5q0 -78 -100 -122t-363 -167z" />
    <glyph glyph-name="Ntilde" unicode="&#xd1;" horiz-adv-x="1571" 
d="M1743 1354q-150 -21 -202 -64t-101 -260l-242 -1044h-88l-584 1198l-178 -774q-26 -113 -26 -191q0 -49 14 -79t89 -51.5t97 -22.5l-14 -66h-584l17 66q126 20 188.5 56t118.5 277l160 688q12 52 12 101q0 139 -207 166l16 65h408l539 -1110l163 709q27 117 27 188
q0 52 -14.5 77t-76.5 45.5t-110 25.5l17 65h577zM1403 1842q-28 -101 -98.5 -172.5t-155.5 -71.5q-82 0 -174 51q-93 51 -138 51q-41 0 -66.5 -21.5t-74.5 -113.5l-57 25q36 105 103 174t147 69q76 0 170 -51t129 -51q50 0 82 17t71 116z" />
    <glyph glyph-name="Odieresis" unicode="&#xd6;" horiz-adv-x="1495" 
d="M651 -35q-248 0 -399.5 159.5t-151.5 416.5q0 372 249 641.5t577 269.5q246 0 398.5 -158.5t152.5 -421.5q0 -372 -251.5 -639.5t-574.5 -267.5zM907 1368q-254 0 -412.5 -270t-158.5 -604q0 -213 86.5 -329t247.5 -116q249 0 410 266.5t161 616.5q0 207 -87 321.5
t-247 114.5zM1181 1608q-49 0 -83.5 35.5t-34.5 87.5q0 51 34.5 86.5t83.5 35.5q50 0 83.5 -35.5t33.5 -86.5q0 -52 -33.5 -87.5t-83.5 -35.5zM731 1608q-49 0 -84 35.5t-35 87.5q0 51 35 86.5t84 35.5t84 -35.5t35 -86.5q0 -52 -35 -87.5t-84 -35.5z" />
    <glyph glyph-name="Udieresis" unicode="&#xdc;" horiz-adv-x="1548" 
d="M1720 1354q-115 -10 -182 -49t-121 -273l-97 -430q-51 -227 -88 -310.5t-117 -159.5t-198 -121.5t-258 -45.5q-209 0 -327.5 89.5t-118.5 238.5q0 47 8 82l197 844q4 17 4 32q0 78 -133 99q-16 2 -27 4l17 65h589l-16 -65q-110 -9 -156.5 -32.5t-62.5 -92.5l-182 -791
q-15 -65 -15 -119q0 -245 285 -245q103 0 187.5 33t146.5 95t89 125t71 247.5t86 379t42 267.5q0 59 -42.5 88.5t-159.5 44.5l16 65h580zM1269 1608q-49 0 -83.5 35.5t-34.5 87.5q0 51 34.5 86.5t83.5 35.5q50 0 83.5 -35.5t33.5 -86.5q0 -52 -33.5 -87.5t-83.5 -35.5z
M819 1608q-49 0 -84 35.5t-35 87.5q0 51 35 86.5t84 35.5t84 -35.5t35 -86.5q0 -52 -35 -87.5t-84 -35.5z" />
    <glyph glyph-name="aacute" unicode="&#xe1;" horiz-adv-x="1174" 
d="M1098 51q-159 -67 -242 -67q-71 0 -114.5 42t-45.5 105h-8q-177 -160 -307 -160q-145 0 -228 103.5t-83 285.5q0 252 173.5 451t399.5 199q137 0 238 -64l184 47l10 -14l-151 -645q-25 -107 -25 -141q0 -57 24.5 -77t80.5 -20q54 0 108 19zM840 764q9 40 -28 107t-153 67
q-146 0 -264.5 -177.5t-118.5 -402.5q0 -148 44 -211t137 -63q113 0 256 141zM524 1110l-35 33q130 172 219 307q57 88 137 88q35 0 56.5 -22t21.5 -50q0 -54 -39.5 -88.5t-244.5 -182.5q-50 -36 -115 -85z" />
    <glyph glyph-name="agrave" unicode="&#xe0;" horiz-adv-x="1174" 
d="M1098 51q-159 -67 -242 -67q-71 0 -114.5 42t-45.5 105h-8q-177 -160 -307 -160q-145 0 -228 103.5t-83 285.5q0 252 173.5 451t399.5 199q137 0 238 -64l184 47l10 -14l-151 -645q-25 -107 -25 -141q0 -57 24.5 -77t80.5 -20q54 0 108 19zM840 764q9 40 -28 107t-153 67
q-146 0 -264.5 -177.5t-118.5 -402.5q0 -148 44 -211t137 -63q113 0 256 141zM855 1110l-181 149q-111 88 -139.5 120t-28.5 71q0 34 24 61t65 27q59 0 94 -59l205 -336z" />
    <glyph glyph-name="acircumflex" unicode="&#xe2;" horiz-adv-x="1174" 
d="M1098 51q-159 -67 -242 -67q-71 0 -114.5 42t-45.5 105h-8q-177 -160 -307 -160q-145 0 -228 103.5t-83 285.5q0 252 173.5 451t399.5 199q137 0 238 -64l184 47l10 -14l-151 -645q-25 -107 -25 -141q0 -57 24.5 -77t80.5 -20q54 0 108 19zM840 764q9 40 -28 107t-153 67
q-146 0 -264.5 -177.5t-118.5 -402.5q0 -148 44 -211t137 -63q113 0 256 141zM952 1118l-226 273l-329 -273l-48 33l304 346q25 29 41 37t57 8q53 0 78 -41l172 -350z" />
    <glyph glyph-name="adieresis" unicode="&#xe4;" horiz-adv-x="1174" 
d="M1098 51q-159 -67 -242 -67q-71 0 -114.5 42t-45.5 105h-8q-177 -160 -307 -160q-145 0 -228 103.5t-83 285.5q0 252 173.5 451t399.5 199q137 0 238 -64l184 47l10 -14l-151 -645q-25 -107 -25 -141q0 -57 24.5 -77t80.5 -20q54 0 108 19zM840 764q9 40 -28 107t-153 67
q-146 0 -264.5 -177.5t-118.5 -402.5q0 -148 44 -211t137 -63q113 0 256 141zM927 1241q-51 0 -85 36t-34 87q0 50 33.5 86.5t85.5 36.5q49 0 82.5 -36.5t33.5 -86.5q0 -51 -33.5 -87t-82.5 -36zM497 1241q-51 0 -85 36t-34 87q0 50 33.5 86.5t85.5 36.5q49 0 82.5 -36.5
t33.5 -86.5q0 -51 -33.5 -87t-82.5 -36z" />
    <glyph glyph-name="atilde" unicode="&#xe3;" horiz-adv-x="1174" 
d="M1098 51q-159 -67 -242 -67q-71 0 -114.5 42t-45.5 105h-8q-177 -160 -307 -160q-145 0 -228 103.5t-83 285.5q0 252 173.5 451t399.5 199q137 0 238 -64l184 47l10 -14l-151 -645q-25 -107 -25 -141q0 -57 24.5 -77t80.5 -20q54 0 108 19zM840 764q9 40 -28 107t-153 67
q-146 0 -264.5 -177.5t-118.5 -402.5q0 -148 44 -211t137 -63q113 0 256 141zM1089 1473q-28 -101 -98.5 -172.5t-155.5 -71.5q-82 0 -174 51q-93 51 -138 51q-41 0 -66.5 -21.5t-74.5 -113.5l-57 25q36 105 103 174t147 69q76 0 170 -51t129 -51q50 0 82 17t71 116z" />
    <glyph glyph-name="aring" unicode="&#xe5;" horiz-adv-x="1174" 
d="M1098 51q-159 -67 -242 -67q-71 0 -114.5 42t-45.5 105h-8q-177 -160 -307 -160q-145 0 -228 103.5t-83 285.5q0 252 173.5 451t399.5 199q137 0 238 -64l184 47l10 -14l-151 -645q-25 -107 -25 -141q0 -57 24.5 -77t80.5 -20q54 0 108 19zM840 764q9 40 -28 107t-153 67
q-146 0 -264.5 -177.5t-118.5 -402.5q0 -148 44 -211t137 -63q113 0 256 141zM674 1114q-105 0 -164 49.5t-59 132.5q0 112 86 187.5t213 75.5q101 0 162 -52t61 -135q0 -107 -84 -182.5t-215 -75.5zM739 1499q-71 0 -117.5 -59t-46.5 -142q0 -124 109 -124q74 0 118 58.5
t44 139.5q0 127 -107 127z" />
    <glyph glyph-name="ccedilla" unicode="&#xe7;" horiz-adv-x="930" 
d="M733 887q-20 51 -129 51q-132 0 -232 -155.5t-100 -391.5q0 -142 63.5 -224.5t172.5 -82.5q170 0 315 199l58 -43q-80 -124 -199.5 -196.5t-237.5 -72.5q-178 0 -277 105t-99 289q0 262 155.5 453.5t399.5 191.5q136 0 213 -58t77 -155q0 -75 -34 -124.5t-95 -49.5
q-53 0 -80.5 27t-27.5 61q0 33 57 176zM233 -444l15 71q174 0 222 26t48 73q0 67 -153 67l45 223h77l-24 -114q93 0 150 -33.5t57 -93.5q0 -219 -437 -219z" />
    <glyph glyph-name="eacute" unicode="&#xe9;" horiz-adv-x="967" 
d="M268 408q0 -324 230 -324q178 0 327 199l58 -43q-82 -125 -203.5 -197t-247.5 -72q-175 0 -268.5 99t-93.5 282q0 264 164 461t409 197q135 0 209 -55t74 -154q0 -172 -170 -263t-488 -130zM274 477q276 34 371.5 122t95.5 226q0 113 -116 113q-119 0 -221 -129
t-130 -332zM504 1110l-35 33q130 172 219 307q57 88 137 88q35 0 56.5 -22t21.5 -50q0 -54 -39.5 -88.5t-244.5 -182.5q-50 -36 -115 -85z" />
    <glyph glyph-name="egrave" unicode="&#xe8;" horiz-adv-x="967" 
d="M268 408q0 -324 230 -324q178 0 327 199l58 -43q-82 -125 -203.5 -197t-247.5 -72q-175 0 -268.5 99t-93.5 282q0 264 164 461t409 197q135 0 209 -55t74 -154q0 -172 -170 -263t-488 -130zM274 477q276 34 371.5 122t95.5 226q0 113 -116 113q-119 0 -221 -129
t-130 -332zM782 1110l-181 149q-111 88 -139.5 120t-28.5 71q0 34 24 61t65 27q59 0 94 -59l205 -336z" />
    <glyph glyph-name="ecircumflex" unicode="&#xea;" horiz-adv-x="967" 
d="M268 408q0 -324 230 -324q178 0 327 199l58 -43q-82 -125 -203.5 -197t-247.5 -72q-175 0 -268.5 99t-93.5 282q0 264 164 461t409 197q135 0 209 -55t74 -154q0 -172 -170 -263t-488 -130zM274 477q276 34 371.5 122t95.5 226q0 113 -116 113q-119 0 -221 -129
t-130 -332zM915 1118l-226 273l-329 -273l-48 33l304 346q25 29 41 37t57 8q53 0 78 -41l172 -350z" />
    <glyph glyph-name="edieresis" unicode="&#xeb;" horiz-adv-x="967" 
d="M268 408q0 -324 230 -324q178 0 327 199l58 -43q-82 -125 -203.5 -197t-247.5 -72q-175 0 -268.5 99t-93.5 282q0 264 164 461t409 197q135 0 209 -55t74 -154q0 -172 -170 -263t-488 -130zM274 477q276 34 371.5 122t95.5 226q0 113 -116 113q-119 0 -221 -129
t-130 -332zM880 1241q-51 0 -85 36t-34 87q0 50 33.5 86.5t85.5 36.5q49 0 82.5 -36.5t33.5 -86.5q0 -51 -33.5 -87t-82.5 -36zM450 1241q-51 0 -85 36t-34 87q0 50 33.5 86.5t85.5 36.5q49 0 82.5 -36.5t33.5 -86.5q0 -51 -33.5 -87t-82.5 -36z" />
    <glyph glyph-name="iacute" unicode="&#xed;" horiz-adv-x="608" 
d="M537 45q-160 -65 -242 -65q-76 0 -118 38.5t-42 104.5q0 42 17 110l106 426q23 92 23 144q0 59 -20.5 75.5t-74.5 16.5q-32 0 -112 -18l14 63q155 70 238 70q155 0 155 -146q0 -50 -14 -110l-109 -424q-24 -93 -24 -140q0 -98 108 -98q57 0 109 17zM265 1110l-35 33
q130 172 219 307q57 88 137 88q35 0 56.5 -22t21.5 -50q0 -54 -39.5 -88.5t-244.5 -182.5q-50 -36 -115 -85z" />
    <glyph glyph-name="igrave" unicode="&#xec;" horiz-adv-x="608" 
d="M537 45q-160 -65 -242 -65q-76 0 -118 38.5t-42 104.5q0 42 17 110l106 426q23 92 23 144q0 59 -20.5 75.5t-74.5 16.5q-32 0 -112 -18l14 63q155 70 238 70q155 0 155 -146q0 -50 -14 -110l-109 -424q-24 -93 -24 -140q0 -98 108 -98q57 0 109 17zM552 1110l-181 149
q-111 88 -139.5 120t-28.5 71q0 34 24 61t65 27q59 0 94 -59l205 -336z" />
    <glyph glyph-name="icircumflex" unicode="&#xee;" horiz-adv-x="608" 
d="M588 1120l-193 271l-293 -271l-45 31l265 342q38 49 98 49q57 0 76 -45l143 -346zM537 45q-160 -65 -242 -65q-76 0 -118 38.5t-42 104.5q0 42 17 110l106 426q23 92 23 144q0 59 -20.5 75.5t-74.5 16.5q-32 0 -112 -18l14 63q155 70 238 70q155 0 155 -146
q0 -50 -14 -110l-109 -424q-24 -93 -24 -140q0 -98 108 -98q57 0 109 17z" />
    <glyph glyph-name="idieresis" unicode="&#xef;" horiz-adv-x="608" 
d="M590 1241q-49 0 -82 35.5t-33 87.5q0 51 32.5 87t82.5 36q49 0 82 -36.5t33 -86.5t-33.5 -86.5t-81.5 -36.5zM240 1241q-49 0 -82 35.5t-33 87.5q0 51 32.5 87t82.5 36q48 0 81 -36t33 -87q0 -52 -33 -87.5t-81 -35.5zM537 45q-160 -65 -242 -65q-76 0 -118 38.5
t-42 104.5q0 42 17 110l106 426q23 92 23 144q0 59 -20.5 75.5t-74.5 16.5q-32 0 -112 -18l14 63q155 70 238 70q155 0 155 -146q0 -50 -14 -110l-109 -424q-24 -93 -24 -140q0 -98 108 -98q57 0 109 17z" />
    <glyph glyph-name="ntilde" unicode="&#xf1;" horiz-adv-x="1208" 
d="M1135 51q-171 -67 -242 -67q-160 0 -160 143q0 53 17 111l98 372q24 91 24 135q0 146 -127 146q-139 0 -280 -158l-168 -733h-186l147 647q25 110 25 144q0 56 -20 75t-75 19q-42 0 -108 -21l14 66q150 67 242 67q142 0 147 -161h6q145 114 217 144t156 30
q96 0 150.5 -55t54.5 -146q0 -72 -25 -156l-84 -321q-24 -92 -24 -137q0 -57 24.5 -78t81.5 -21q49 0 109 21zM1098 1473q-28 -101 -98.5 -172.5t-155.5 -71.5q-82 0 -174 51q-93 51 -138 51q-41 0 -66.5 -21.5t-74.5 -113.5l-57 25q36 105 103 174t147 69q76 0 170 -51
t129 -51q50 0 82 17t71 116z" />
    <glyph glyph-name="oacute" unicode="&#xf3;" horiz-adv-x="1100" 
d="M440 -31q-165 0 -268.5 107.5t-103.5 288.5q0 268 167 456.5t418 188.5q176 0 277.5 -107.5t101.5 -286.5q0 -262 -166 -454.5t-426 -192.5zM633 938q-169 0 -266 -182.5t-97 -423.5q0 -291 199 -291q161 0 260.5 179.5t99.5 432.5q0 285 -196 285zM506 1110l-35 33
q130 172 219 307q57 88 137 88q35 0 56.5 -22t21.5 -50q0 -54 -39.5 -88.5t-244.5 -182.5q-50 -36 -115 -85z" />
    <glyph glyph-name="ograve" unicode="&#xf2;" horiz-adv-x="1100" 
d="M440 -31q-165 0 -268.5 107.5t-103.5 288.5q0 268 167 456.5t418 188.5q176 0 277.5 -107.5t101.5 -286.5q0 -262 -166 -454.5t-426 -192.5zM633 938q-169 0 -266 -182.5t-97 -423.5q0 -291 199 -291q161 0 260.5 179.5t99.5 432.5q0 285 -196 285zM827 1110l-181 149
q-111 88 -139.5 120t-28.5 71q0 34 24 61t65 27q59 0 94 -59l205 -336z" />
    <glyph glyph-name="ocircumflex" unicode="&#xf4;" horiz-adv-x="1100" 
d="M440 -31q-165 0 -268.5 107.5t-103.5 288.5q0 268 167 456.5t418 188.5q176 0 277.5 -107.5t101.5 -286.5q0 -262 -166 -454.5t-426 -192.5zM633 938q-169 0 -266 -182.5t-97 -423.5q0 -291 199 -291q161 0 260.5 179.5t99.5 432.5q0 285 -196 285zM939 1118l-226 273
l-329 -273l-48 33l304 346q25 29 41 37t57 8q53 0 78 -41l172 -350z" />
    <glyph glyph-name="odieresis" unicode="&#xf6;" horiz-adv-x="1100" 
d="M440 -31q-165 0 -268.5 107.5t-103.5 288.5q0 268 167 456.5t418 188.5q176 0 277.5 -107.5t101.5 -286.5q0 -262 -166 -454.5t-426 -192.5zM633 938q-169 0 -266 -182.5t-97 -423.5q0 -291 199 -291q161 0 260.5 179.5t99.5 432.5q0 285 -196 285zM917 1241
q-51 0 -85 36t-34 87q0 50 33.5 86.5t85.5 36.5q49 0 82.5 -36.5t33.5 -86.5q0 -51 -33.5 -87t-82.5 -36zM487 1241q-51 0 -85 36t-34 87q0 50 33.5 86.5t85.5 36.5q49 0 82.5 -36.5t33.5 -86.5q0 -51 -33.5 -87t-82.5 -36z" />
    <glyph glyph-name="otilde" unicode="&#xf5;" horiz-adv-x="1100" 
d="M440 -31q-165 0 -268.5 107.5t-103.5 288.5q0 268 167 456.5t418 188.5q176 0 277.5 -107.5t101.5 -286.5q0 -262 -166 -454.5t-426 -192.5zM633 938q-169 0 -266 -182.5t-97 -423.5q0 -291 199 -291q161 0 260.5 179.5t99.5 432.5q0 285 -196 285zM1066 1473
q-28 -101 -98.5 -172.5t-155.5 -71.5q-82 0 -174 51q-93 51 -138 51q-41 0 -66.5 -21.5t-74.5 -113.5l-57 25q36 105 103 174t147 69q76 0 170 -51t129 -51q50 0 82 17t71 116z" />
    <glyph glyph-name="uacute" unicode="&#xfa;" horiz-adv-x="1178" 
d="M1108 51q-161 -67 -242 -67q-73 0 -116 42t-43 113h-7q-188 -164 -358 -164q-97 0 -150 55t-53 146q0 62 23 156l78 315q22 89 22 144q0 59 -20 76.5t-72 17.5q-38 0 -111 -23l17 66q152 69 231 69q156 0 156 -143q0 -53 -17 -111l-88 -370q-22 -92 -22 -133
q0 -146 121 -146q134 0 266 135l174 752l174 12l12 -14l-147 -643q-27 -118 -27 -141q0 -57 25 -78t82 -21q52 0 106 19zM563 1110l-35 33q130 172 219 307q57 88 137 88q35 0 56.5 -22t21.5 -50q0 -54 -39.5 -88.5t-244.5 -182.5q-50 -36 -115 -85z" />
    <glyph glyph-name="ugrave" unicode="&#xf9;" horiz-adv-x="1178" 
d="M1108 51q-161 -67 -242 -67q-73 0 -116 42t-43 113h-7q-188 -164 -358 -164q-97 0 -150 55t-53 146q0 62 23 156l78 315q22 89 22 144q0 59 -20 76.5t-72 17.5q-38 0 -111 -23l17 66q152 69 231 69q156 0 156 -143q0 -53 -17 -111l-88 -370q-22 -92 -22 -133
q0 -146 121 -146q134 0 266 135l174 752l174 12l12 -14l-147 -643q-27 -118 -27 -141q0 -57 25 -78t82 -21q52 0 106 19zM812 1110l-181 149q-111 88 -139.5 120t-28.5 71q0 34 24 61t65 27q59 0 94 -59l205 -336z" />
    <glyph glyph-name="ucircumflex" unicode="&#xfb;" horiz-adv-x="1178" 
d="M1108 51q-161 -67 -242 -67q-73 0 -116 42t-43 113h-7q-188 -164 -358 -164q-97 0 -150 55t-53 146q0 62 23 156l78 315q22 89 22 144q0 59 -20 76.5t-72 17.5q-38 0 -111 -23l17 66q152 69 231 69q156 0 156 -143q0 -53 -17 -111l-88 -370q-22 -92 -22 -133
q0 -146 121 -146q134 0 266 135l174 752l174 12l12 -14l-147 -643q-27 -118 -27 -141q0 -57 25 -78t82 -21q52 0 106 19zM948 1118l-226 273l-329 -273l-48 33l304 346q25 29 41 37t57 8q53 0 78 -41l172 -350z" />
    <glyph glyph-name="udieresis" unicode="&#xfc;" horiz-adv-x="1178" 
d="M1108 51q-161 -67 -242 -67q-73 0 -116 42t-43 113h-7q-188 -164 -358 -164q-97 0 -150 55t-53 146q0 62 23 156l78 315q22 89 22 144q0 59 -20 76.5t-72 17.5q-38 0 -111 -23l17 66q152 69 231 69q156 0 156 -143q0 -53 -17 -111l-88 -370q-22 -92 -22 -133
q0 -146 121 -146q134 0 266 135l174 752l174 12l12 -14l-147 -643q-27 -118 -27 -141q0 -57 25 -78t82 -21q52 0 106 19zM913 1241q-51 0 -85 36t-34 87q0 50 33.5 86.5t85.5 36.5q49 0 82.5 -36.5t33.5 -86.5q0 -51 -33.5 -87t-82.5 -36zM483 1241q-51 0 -85 36t-34 87
q0 50 33.5 86.5t85.5 36.5q49 0 82.5 -36.5t33.5 -86.5q0 -51 -33.5 -87t-82.5 -36z" />
    <glyph glyph-name="dagger" unicode="&#x2020;" horiz-adv-x="967" 
d="M627 1047l-79 -488q-42 -262 -50 -281.5t-25 -30.5t-41 -11q-70 0 -70 71q0 21 58 211l155 526q-74 -6 -236 -41q-25 -6 -40 -6q-74 0 -74 70q0 72 74 72q16 0 40 -6q154 -38 245 -48q6 35 16 182q9 126 23 156.5t61 30.5q74 0 74 -68q0 -25 -39 -107q-57 -118 -82 -192
q82 8 236 46q24 6 38 6q76 0 76 -72q0 -70 -76 -70q-15 0 -43 7q-171 38 -241 43z" />
    <glyph glyph-name="degree" unicode="&#xb0;" horiz-adv-x="858" 
d="M504 803q-143 0 -234.5 93t-91.5 232q0 141 92.5 232.5t233.5 91.5q144 0 234.5 -93t90.5 -231q0 -139 -91.5 -232t-233.5 -93zM504 1378q-83 0 -129.5 -67.5t-46.5 -180.5q0 -251 180 -251q74 0 124 65t50 176q0 127 -49 192.5t-129 65.5z" />
    <glyph glyph-name="cent" unicode="&#xa2;" horiz-adv-x="1137" 
d="M877 877q-31 53 -129 65l-197 -852q93 0 137.5 7t105 46.5t142.5 143.5l61 -41q-183 -266 -471 -266l-63 -279h-92l67 285q-155 20 -241 121t-86 262q0 250 155.5 440t409.5 205l59 262h92l-63 -262q133 -12 205.5 -71.5t72.5 -141.5q0 -65 -32.5 -112.5t-85.5 -47.5
q-107 0 -107 84q0 40 60 152zM659 944q-145 -23 -245.5 -180t-100.5 -367q0 -227 154 -291z" />
    <glyph glyph-name="sterling" unicode="&#xa3;" horiz-adv-x="1274" 
d="M1085 1292q-5 37 -47.5 62.5t-99.5 25.5q-93 0 -168 -59.5t-103 -142t-74 -379.5q-8 -48 -15 -84h397l-21 -92h-391q-51 -288 -325 -437l-2 -14h866l-39 -172h-1049l33 147q248 75 318 476h-172l20 92h168q16 272 90 423.5t203.5 234.5t283.5 83q138 0 223 -71t85 -177
q0 -76 -36 -125t-97 -49q-109 0 -109 88q0 50 45 135q10 20 16 35z" />
    <glyph glyph-name="section" unicode="&#xa7;" horiz-adv-x="1024" 
d="M767 1372q-42 10 -80 10q-102 0 -177 -61.5t-75 -142.5q0 -53 45 -90t222 -123q227 -115 227 -283q0 -113 -89 -215t-237 -154q166 -87 166 -227q0 -143 -135.5 -243.5t-333.5 -100.5q-127 0 -196.5 42t-69.5 111q0 45 32.5 82t88.5 37q82 0 114 -186q37 -14 82 -14
q104 0 181 63t77 154q0 52 -38.5 93.5t-196.5 117.5q-248 116 -248 299q0 241 313 364q-163 98 -163 217q0 139 129.5 235.5t332.5 96.5q131 0 199 -41t68 -110q0 -49 -32 -85t-85 -36q-85 0 -121 190zM513 864q-227 -86 -227 -272q0 -72 51.5 -123.5t204.5 -124.5
q223 110 223 283q0 64 -50.5 116t-201.5 121z" />
    <glyph glyph-name="bullet" unicode="&#x2022;" horiz-adv-x="805" 
d="M412 336q-110 0 -187.5 77.5t-77.5 184.5q0 108 77.5 186t187.5 78q109 0 186.5 -78t77.5 -186q0 -107 -78 -184.5t-186 -77.5z" />
    <glyph glyph-name="paragraph" unicode="&#xb6;" horiz-adv-x="1024" 
d="M1135 1346h-111l-360 -1561h-103l361 1561h-160l-361 -1561h-102l211 915q-140 0 -227.5 80t-87.5 215q0 178 130.5 301t331.5 123h496z" />
    <glyph glyph-name="germandbls" unicode="&#xdf;" horiz-adv-x="1110" 
d="M782 938l-2 -8q122 -31 192 -119.5t70 -214.5q0 -245 -170.5 -425.5t-384.5 -180.5q-74 0 -122 10l18 82q54 -12 92 -12q155 0 259 171.5t104 395.5q0 121 -58.5 187.5t-163.5 66.5h-18l18 82h37q115 0 209 92.5t94 251.5q0 158 -141 158q-238 0 -323 -414l-213 -1002
q-45 -210 -193.5 -356.5t-314.5 -146.5q-172 0 -172 118q0 45 27 77t75 32q72 0 128 -95q15 -26 30 -50q147 13 225 385l211 983q63 294 221.5 419t327.5 125q127 0 206.5 -61t79.5 -172q0 -152 -104 -255.5t-244 -123.5z" />
    <glyph glyph-name="registered" unicode="&#xae;" horiz-adv-x="1929" 
d="M993 -281q-365 0 -626 262t-261 623q0 359 261 620t626 261q363 0 623 -261t260 -620q0 -362 -260 -623.5t-623 -261.5zM993 1397q-326 0 -556 -232t-230 -561q0 -333 229.5 -566t556.5 -233t556 232.5t229 566.5q0 329 -229.5 561t-555.5 232zM1282 145
q-141 197 -307 404h-107v-262q0 -44 25 -59t117 -25v-58h-439v58q90 10 113 26t23 58v643q0 48 -32 63t-104 25v57h492q132 0 218.5 -57.5t86.5 -163.5q0 -198 -235 -264l183 -225q74 -96 117.5 -124t135.5 -38v-58h-287zM868 1004v-379h88q104 0 165 57t61 152
q0 170 -197 170h-117z" />
    <glyph glyph-name="copyright" unicode="&#xa9;" horiz-adv-x="1929" 
d="M993 -281q-365 0 -626 262t-261 623q0 359 261 620t626 261q363 0 623 -261t260 -620q0 -362 -260 -623.5t-623 -261.5zM993 1397q-326 0 -556 -232t-230 -561q0 -333 229.5 -566t556.5 -233t556 232.5t229 566.5q0 329 -229.5 561t-555.5 232zM1403 403
q-124 -292 -393 -292q-221 0 -356.5 131.5t-135.5 349.5q0 213 148 356.5t372 143.5q123 0 219 -64l46 66h59l4 -363h-53q-54 166 -127.5 227.5t-186.5 61.5q-119 0 -196.5 -111.5t-77.5 -306.5q0 -179 90.5 -287t235.5 -108q198 0 292 221z" />
    <glyph glyph-name="trademark" unicode="&#x2122;" horiz-adv-x="1929" 
d="M1665 733v51q113 0 113 52v450h-15l-243 -530h-33l-238 540h-14v-364q0 -60 8.5 -91t51.5 -44t67 -13v-51h-315v49q88 11 106 35.5t18 110.5v348q0 85 -118 92v51h278l211 -473l176 387q13 28 25 86h268v-51q-78 -7 -91 -15t-13 -34v-483q0 -52 104 -52v-51h-346z
M883 1221q-17 50 -45.5 90.5t-48.5 46.5t-84 6h-50v-524q0 -56 113 -56v-51h-352v51q56 0 83 10t27 40v530h-49q-76 0 -94 -10.5t-43 -48t-41 -84.5h-47v198h680v-198h-49z" />
    <glyph glyph-name="acute" unicode="&#xb4;" horiz-adv-x="1024" 
d="M504 1110l-35 33q130 172 219 307q57 88 137 88q35 0 56.5 -22t21.5 -50q0 -54 -39.5 -88.5t-244.5 -182.5q-50 -36 -115 -85z" />
    <glyph glyph-name="dieresis" unicode="&#xa8;" horiz-adv-x="1024" 
d="M928 1241q-51 0 -85 36t-34 87q0 50 33.5 86.5t85.5 36.5q49 0 82.5 -36.5t33.5 -86.5q0 -51 -33.5 -87t-82.5 -36zM498 1241q-51 0 -85 36t-34 87q0 50 33.5 86.5t85.5 36.5q49 0 82.5 -36.5t33.5 -86.5q0 -51 -33.5 -87t-82.5 -36z" />
    <glyph glyph-name="glyph143" 
 />
    <glyph glyph-name="AE" unicode="&#xc6;" horiz-adv-x="1989" 
d="M1960 1077h-76q-7 105 -40 170t-76.5 82t-200.5 17h-219l-131 -572h149q118 0 181 56t106 178h76l-130 -555h-73q4 28 4 59q0 100 -32.5 142t-149.5 42h-150l-98 -432q-15 -66 -15 -96q0 -57 37 -73.5t166 -16.5q151 0 214 10t100 34t117 124t122 172h74l-123 -418h-1169
l16 66q150 11 183 38.5t46 83.5l97 416h-476q-311 -384 -311 -454q0 -74 150 -84l-15 -66h-536l14 66q119 19 177.5 62.5t226 250t753.5 952.5q-29 16 -168 23l17 65h1241zM1065 1335l-510 -647h428l150 647h-68z" />
    <glyph glyph-name="Oslash" unicode="&#xd8;" horiz-adv-x="1524" 
d="M1370 1235q107 -153 107 -363q0 -372 -251.5 -639.5t-574.5 -267.5q-247 0 -405 168l-170 -166l-49 51l176 172q-103 147 -103 351q0 372 249 641.5t577 269.5q248 0 397 -162l139 137l56 -51zM1202 1171q-80 199 -295 199q-252 0 -412.5 -269.5t-160.5 -606.5
q0 -89 12 -162zM1229 1098l-858 -842q81 -207 299 -207q248 0 410.5 264t162.5 619q0 103 -14 166z" />
    <glyph glyph-name="glyph146" 
 />
    <glyph glyph-name="plusminus" unicode="&#xb1;" horiz-adv-x="1317" 
d="M174 0v125h447v401h-447v125h447v453h127v-453h446v-125h-446v-401h446v-125h-1020z" />
    <glyph glyph-name="glyph148" 
 />
    <glyph glyph-name="glyph149" 
 />
    <glyph glyph-name="yen" unicode="&#xa5;" horiz-adv-x="1260" 
d="M1464 1354q-82 -15 -114 -39q-21 -12 -35 -19q-80 -44 -570 -651l-20 -88h399l-20 -90h-399l-62 -264q-4 -17 -4 -39q0 -58 55.5 -74t120.5 -24l-14 -66h-606l16 66q149 8 182.5 38.5t46.5 88.5l64 274h-387l22 90h387l15 70q-151 552 -204.5 635t-160.5 92l14 65h562
l-17 -65q-22 -2 -53 -3q-127 -7 -127 -51q0 -42 168 -552q416 507 416 542q0 54 -158 64l16 65h484z" />
    <glyph glyph-name="uni00B5" unicode="&#xb5;" horiz-adv-x="1161" 
d="M1092 51q-165 -67 -242 -67q-73 0 -116.5 42t-43.5 113h-6q-31 -24 -64 -52q-129 -107 -282 -107q-120 0 -172 90h-6l-13 -68l-14 -110l1 -127q0 -137 -45.5 -173t-88.5 -36q-70 0 -70 73q0 43 82 246q52 128 82 260l195 846l176 12l12 -12l-143 -627q-19 -83 -19 -123
q0 -137 125 -137q130 0 267 135l174 752l176 12l10 -12l-149 -645q-25 -108 -25 -143q0 -56 24.5 -76.5t79.5 -20.5q54 0 109 19z" />
    <glyph glyph-name="glyph152" 
 />
    <glyph glyph-name="glyph153" 
 />
    <glyph glyph-name="glyph154" 
 />
    <glyph glyph-name="glyph155" 
 />
    <glyph glyph-name="glyph156" 
 />
    <glyph glyph-name="ordfeminine" unicode="&#xaa;" horiz-adv-x="1024" 
d="M1004 678q-132 -55 -201 -55q-128 0 -139 116h-7q-134 -127 -251 -127q-119 0 -187.5 83.5t-68.5 232.5q0 202 147 363t338 161q108 0 194 -49l148 39l16 -12l-133 -519q-20 -78 -20 -114q0 -48 20 -63t68 -15q30 0 90 18zM784 1253q7 28 -17 83t-118 55
q-122 0 -219.5 -143t-97.5 -322q0 -131 36 -173t103 -42q96 0 203 114z" />
    <glyph glyph-name="ordmasculine" unicode="&#xba;" horiz-adv-x="1024" 
d="M504 606q-140 0 -230 90.5t-90 237.5q0 212 144 365t350 153q146 0 233.5 -86.5t87.5 -232.5q0 -211 -142.5 -369t-352.5 -158zM662 1384q-137 0 -216 -150t-79 -335q0 -104 41.5 -163.5t117.5 -59.5q124 0 207.5 150t83.5 339q0 219 -155 219z" />
    <glyph glyph-name="glyph159" 
 />
    <glyph glyph-name="ae" unicode="&#xe6;" horiz-adv-x="1565" 
d="M866 428q0 -172 54 -258t178 -86q179 0 325 199l58 -43q-81 -123 -202 -196t-247 -73q-244 0 -327 197h-7q-178 -195 -415 -195q-108 0 -173 55t-65 148q0 167 145.5 264.5t520.5 151.5q37 148 37 186q0 69 -41 114.5t-119 45.5q-87 0 -174 -51v-30q0 -73 -6.5 -104
t-43 -60t-96.5 -29q-78 0 -78 84q0 99 137 180.5t279 81.5q243 0 301 -125q157 125 334 125q137 0 211 -55.5t74 -153.5q0 -320 -660 -373zM872 500q469 20 469 325q0 113 -118 113q-115 0 -219.5 -127.5t-131.5 -310.5zM686 510q-207 -20 -321.5 -98t-114.5 -203
q0 -123 129 -123q179 0 303 158q-8 45 -8 108q0 74 12 158z" />
    <glyph glyph-name="oslash" unicode="&#xf8;" horiz-adv-x="1100" 
d="M977 838q55 -94 55 -222q0 -262 -166 -454.5t-426 -192.5q-172 0 -280 123l-137 -127l-48 45l148 135q-55 88 -55 220q0 268 167 456.5t418 188.5q181 0 285 -119l131 119l45 -45zM819 782q-41 156 -186 156q-86 0 -161 -54t-129 -173.5t-64.5 -213.5t-10.5 -223z
M831 709l-550 -506q36 -162 188 -162q70 0 134 38t118 122.5t80 192t28.5 183t1.5 132.5z" />
    <glyph glyph-name="questiondown" unicode="&#xbf;" horiz-adv-x="981" 
d="M737 1180q-57 0 -97 41t-40 96q0 56 40 95.5t97 39.5q55 0 96 -38.5t41 -96.5q0 -57 -40.5 -97t-96.5 -40zM602 844l51 211h92l-79 -379q-424 -42 -424 -397q0 -109 57 -167.5t154 -58.5q73 0 137 41v69q0 171 151 171q82 0 82 -88q0 -98 -112.5 -182t-280.5 -84
q-175 0 -274 93t-99 240q0 213 146.5 355.5t398.5 175.5z" />
    <glyph glyph-name="exclamdown" unicode="&#xa1;" horiz-adv-x="678" 
d="M510 1184q-58 0 -97.5 39.5t-39.5 97.5q0 56 39 94.5t98 38.5q58 0 96.5 -39t38.5 -94q0 -57 -39 -97t-96 -40zM494 1004q-40 -257 -74 -557q-22 -186 -34.5 -272t-34.5 -121t-57.5 -54.5t-78.5 -19.5q-100 0 -100 100q0 51 62.5 226t238.5 698h78z" />
    <glyph glyph-name="logicalnot" unicode="&#xac;" horiz-adv-x="1317" 
d="M1057 76v450h-887v125h1018v-575h-131z" />
    <glyph glyph-name="glyph165" 
 />
    <glyph glyph-name="florin" unicode="&#x192;" horiz-adv-x="1063" 
d="M854 1239q-165 -26 -242 -401l-24 -121h264l-21 -92h-256l-60 -311q-34 -173 -82 -299.5t-121.5 -213.5t-162.5 -128.5t-184 -41.5q-90 0 -140 37.5t-50 98.5q0 40 29.5 72t76.5 32q89 0 156 -172q84 3 159 146t189 780h-215l20 92h205q56 283 197 436.5t338 153.5
q91 0 139.5 -38.5t48.5 -99.5q0 -42 -28.5 -74t-77.5 -32q-96 0 -158 176z" />
    <glyph glyph-name="glyph167" 
 />
    <glyph glyph-name="glyph168" 
 />
    <glyph glyph-name="guillemotleft" unicode="&#xab;" horiz-adv-x="1190" 
d="M762 522l190 -368l-57 -33l-303 332q-27 30 -27 57q0 49 46 83l472 345l39 -49zM373 522l190 -368l-57 -33l-303 332q-27 30 -27 57q0 49 46 83l472 345l39 -49z" />
    <glyph glyph-name="guillemotright" unicode="&#xbb;" horiz-adv-x="1190" 
d="M543 119l-39 49l360 367l-190 368l57 33l303 -332q27 -30 27 -57q0 -49 -45 -82zM154 119l-39 49l360 367l-190 368l57 33l303 -332q27 -30 27 -57q0 -49 -45 -82z" />
    <glyph glyph-name="ellipsis" unicode="&#x2026;" horiz-adv-x="1653" 
d="M1366 -20q-55 0 -93 38.5t-38 90.5t38.5 91.5t92.5 39.5t92.5 -39.5t38.5 -91.5t-38 -90.5t-93 -38.5zM815 -20q-55 0 -93 38.5t-38 90.5t38.5 91.5t92.5 39.5t92.5 -39.5t38.5 -91.5t-38 -90.5t-93 -38.5zM264 -20q-54 0 -92.5 38t-38.5 91t39 92t92 39q54 0 92.5 -39.5
t38.5 -91.5t-38 -90.5t-93 -38.5z" />
    <glyph glyph-name="Agrave" unicode="&#xc0;" horiz-adv-x="1374" 
d="M1303 0h-580l14 66q199 19 199 75l-45 353h-500q-178 -294 -178 -351q0 -64 186 -77l-14 -66h-545l15 66q79 6 137 35.5t100.5 86.5t309.5 490l470 762h80l189 -1229q21 -133 176 -145zM786 1130l-340 -555h428zM1073 1546l-35 -39q-112 60 -199 103q-101 50 -157.5 81
t-56.5 87q0 39 27.5 64.5t68.5 25.5q28 0 60.5 -24t291.5 -298z" />
    <glyph glyph-name="Atilde" unicode="&#xc3;" horiz-adv-x="1374" 
d="M1303 0h-580l14 66q199 19 199 75l-45 353h-500q-178 -294 -178 -351q0 -64 186 -77l-14 -66h-545l15 66q79 6 137 35.5t100.5 86.5t309.5 490l470 762h80l189 -1229q21 -133 176 -145zM786 1130l-340 -555h428zM1299 1842q-28 -101 -98.5 -172.5t-155.5 -71.5
q-82 0 -174 51q-93 51 -138 51q-41 0 -66.5 -21.5t-74.5 -113.5l-57 25q36 105 103 174t147 69q76 0 170 -51t129 -51q50 0 82 17t71 116z" />
    <glyph glyph-name="Otilde" unicode="&#xd5;" horiz-adv-x="1495" 
d="M651 -35q-248 0 -399.5 159.5t-151.5 416.5q0 372 249 641.5t577 269.5q246 0 398.5 -158.5t152.5 -421.5q0 -372 -251.5 -639.5t-574.5 -267.5zM907 1368q-254 0 -412.5 -270t-158.5 -604q0 -213 86.5 -329t247.5 -116q249 0 410 266.5t161 616.5q0 207 -87 321.5
t-247 114.5zM1344 1842q-28 -101 -98.5 -172.5t-155.5 -71.5q-82 0 -174 51q-93 51 -138 51q-41 0 -66.5 -21.5t-74.5 -113.5l-57 25q36 105 103 174t147 69q76 0 170 -51t129 -51q50 0 82 17t71 116z" />
    <glyph glyph-name="OE" unicode="&#x152;" horiz-adv-x="2044" 
d="M2013 1077h-74q-7 105 -40 170t-76.5 82t-200.5 17h-219l-131 -572h149q119 0 181.5 56t105.5 178h76l-129 -555h-74q0 110 -5 150.5t-40.5 66.5t-132.5 26h-150l-100 -432q-12 -52 -12 -96q0 -56 36.5 -73t165.5 -17q149 0 212 10t100.5 33t115 119t125.5 178h72
l-123 -418h-1155q-242 0 -416 137.5t-174 390.5q0 387 282.5 639t672.5 252h1038zM1188 1335q-103 6 -154 6q-288 0 -493 -234.5t-205 -584.5q0 -201 112.5 -322.5t309.5 -121.5q73 0 141 4z" />
    <glyph glyph-name="oe" unicode="&#x153;" horiz-adv-x="1690" 
d="M991 408q0 -324 230 -324q178 0 327 199l58 -43q-82 -125 -203.5 -197t-247.5 -72q-216 0 -313 168q-172 -170 -402 -170q-165 0 -268.5 107.5t-103.5 288.5q0 268 167 456.5t418 188.5q214 0 324 -179q172 179 389 179q135 0 209 -55t74 -154q0 -172 -170 -263
t-488 -130zM997 477q272 34 369.5 121t97.5 227q0 113 -116 113q-119 0 -221 -129t-130 -332zM633 938q-169 0 -266 -182.5t-97 -423.5q0 -291 199 -291q161 0 260.5 179.5t99.5 432.5q0 285 -196 285z" />
    <glyph glyph-name="endash" unicode="&#x2013;" horiz-adv-x="1317" 
d="M1217 500h-1113l29 121h1112z" />
    <glyph glyph-name="emdash" unicode="&#x2014;" horiz-adv-x="1755" 
d="M1655 500h-1551l29 121h1550z" />
    <glyph glyph-name="quotedblleft" unicode="&#x201c;" horiz-adv-x="791" 
d="M922 1464q-217 -106 -252 -243h43q118 0 118 -101q0 -53 -39.5 -94t-99.5 -41q-133 0 -133 137q0 240 332 406zM551 1464q-217 -106 -252 -243h43q55 0 87 -28t32 -73q0 -52 -38.5 -93.5t-98.5 -41.5q-134 0 -134 137q0 238 330 406z" />
    <glyph glyph-name="quotedblright" unicode="&#x201d;" horiz-adv-x="791" 
d="M571 987l-28 64q219 108 250 243h-43q-117 0 -117 101q0 52 38.5 93.5t98.5 41.5q133 0 133 -139q0 -242 -332 -404zM203 987l-31 64q218 107 252 243h-43q-119 0 -119 101q0 52 38.5 93.5t98.5 41.5q133 0 133 -139q0 -241 -329 -404z" />
    <glyph glyph-name="quoteleft" unicode="&#x2018;" horiz-adv-x="399" 
d="M541 1464q-219 -108 -250 -243h43q54 0 85.5 -28t31.5 -73q0 -52 -39.5 -93.5t-98.5 -41.5q-133 0 -133 137q0 240 332 406z" />
    <glyph glyph-name="quoteright" unicode="&#x2019;" horiz-adv-x="399" 
d="M193 987l-31 64q218 107 252 243h-43q-119 0 -119 101q0 52 38.5 93.5t98.5 41.5q133 0 133 -139q0 -241 -329 -404z" />
    <glyph glyph-name="divide" unicode="&#xf7;" horiz-adv-x="1317" 
d="M684 838q-54 0 -91.5 37.5t-37.5 91.5q0 52 37.5 89.5t91.5 37.5t91.5 -37.5t37.5 -89.5q0 -54 -37.5 -91.5t-91.5 -37.5zM170 498v125h1028v-125h-1028zM684 27q-55 0 -92 37.5t-37 89.5q0 53 38.5 91t90.5 38t90.5 -38t38.5 -91q0 -52 -37 -89.5t-92 -37.5z" />
    <glyph glyph-name="glyph184" 
 />
    <glyph glyph-name="ydieresis" unicode="&#xff;" horiz-adv-x="1147" 
d="M913 197q-72 -327 -226.5 -484t-405.5 -157q-263 0 -263 141q0 45 27 76.5t74 31.5q91 0 162 -182h24q141 0 251 132.5t161 389.5h-6q-191 -165 -365 -165q-94 0 -150.5 54t-56.5 146q0 62 23 156l78 311q22 88 22 144q0 59 -20 76.5t-72 17.5q-38 0 -111 -23l17 66
q152 69 231 69q158 0 158 -143q0 -51 -16 -111l-91 -364q-24 -96 -24 -135q0 -146 129 -146q140 0 272 135l166 748l172 12l12 -14zM919 1241q-51 0 -85 36t-34 87q0 50 33.5 86.5t85.5 36.5q49 0 82.5 -36.5t33.5 -86.5q0 -51 -33.5 -87t-82.5 -36zM489 1241q-51 0 -85 36
t-34 87q0 50 33.5 86.5t85.5 36.5q49 0 82.5 -36.5t33.5 -86.5q0 -51 -33.5 -87t-82.5 -36z" />
    <glyph glyph-name="Ydieresis" unicode="&#x178;" horiz-adv-x="1260" 
d="M1501 1354q-49 -6 -105.5 -32.5t-123 -90t-264.5 -308.5t-234.5 -300t-56.5 -144l-64 -276q-4 -17 -4 -35q0 -65 74 -81.5t125 -20.5l-14 -66h-664l14 66q145 10 190.5 32t63.5 95l72 311q8 35 8 49q0 47 -49 208l-104 344q-55 182 -109 213.5t-113 35.5l17 65h581
l-16 -65q-129 -5 -163 -18.5t-34 -37.5q0 -42 183 -610q458 554 458 600q0 54 -172 66l17 65h504zM1155 1608q-49 0 -83.5 35.5t-34.5 87.5q0 51 34.5 86.5t83.5 35.5q50 0 83.5 -35.5t33.5 -86.5q0 -52 -33.5 -87.5t-83.5 -35.5zM705 1608q-49 0 -84 35.5t-35 87.5
q0 51 35 86.5t84 35.5t84 -35.5t35 -86.5q0 -52 -35 -87.5t-84 -35.5z" />
    <glyph glyph-name="fraction" unicode="&#x2044;" horiz-adv-x="295" 
d="M-264 0h-135l1044 1419h137z" />
    <glyph glyph-name="fraction" unicode="&#x2215;" horiz-adv-x="295" 
d="M-264 0h-135l1044 1419h137z" />
    <glyph glyph-name="Euro" unicode="&#x20ac;" horiz-adv-x="1315" 
d="M1427 1419l-108 -506h-82v39q0 418 -317 418q-170 0 -307 -133t-203 -340h430l-60 -96h-399q-27 -104 -31 -174h326l-60 -97h-270q7 -221 105 -337.5t272 -116.5q140 0 264.5 83t206.5 236l72 -37q-223 -391 -635 -391q-234 0 -377 157.5t-143 405.5h-115l57 97h62
q16 118 32 174h-122l59 96h98q116 261 313.5 408t424.5 147q226 0 370 -100l58 67h79z" />
    <glyph glyph-name="guilsinglleft" unicode="&#x2039;" horiz-adv-x="850" 
d="M377 522l190 -368l-57 -33l-303 332q-27 30 -27 57q0 49 46 83l472 345l39 -49z" />
    <glyph glyph-name="guilsinglright" unicode="&#x203a;" horiz-adv-x="850" 
d="M158 119l-39 49l360 367l-190 368l57 33l303 -332q27 -30 27 -57q0 -49 -45 -82z" />
    <glyph glyph-name="daggerdbl" unicode="&#x2021;" horiz-adv-x="967" 
d="M627 1047q-5 -28 -6 -52q-8 -120 -13 -147l-8 -33q-6 -24 -35 -97q-28 -69 -37 -100q59 5 237 45q25 5 40 5q74 0 74 -70q0 -72 -74 -72q-15 0 -39 6q-155 39 -246 48q-8 -52 -15 -182q-7 -125 -20.5 -157t-62.5 -32q-74 0 -74 70q0 24 39 108q55 117 80 191
q-90 -10 -176 -31q-84 -21 -98 -21q-76 0 -76 72q0 70 76 70q14 0 43 -6q168 -39 241 -44q7 44 9 100q2 58 10 97l8 33q10 41 34 98q27 63 37 98q-74 -6 -236 -41q-25 -6 -40 -6q-74 0 -74 70q0 72 74 72q16 0 40 -6q154 -38 245 -48q6 35 16 182q9 126 23 156.5t61 30.5
q74 0 74 -68q0 -25 -39 -107q-57 -118 -82 -192q82 8 236 46q24 6 38 6q76 0 76 -72q0 -70 -76 -70q-15 0 -43 7q-171 38 -241 43z" />
    <glyph glyph-name="uni2219" unicode="&#x2219;" horiz-adv-x="571" 
d="M297 424q-57 0 -97 38.5t-40 96.5q0 56 39 96.5t98 40.5q58 0 96.5 -41t38.5 -96q0 -57 -39.5 -96t-95.5 -39z" />
    <glyph glyph-name="quotesinglbase" unicode="&#x201a;" horiz-adv-x="399" 
d="M-58 -304l-31 64q218 107 252 243h-43q-119 0 -119 101q0 52 38.5 93.5t98.5 41.5q133 0 133 -139q0 -241 -329 -404z" />
    <glyph glyph-name="quotedblbase" unicode="&#x201e;" horiz-adv-x="791" 
d="M320 -304l-28 64q219 108 250 243h-43q-117 0 -117 101q0 52 38.5 93.5t98.5 41.5q133 0 133 -139q0 -242 -332 -404zM-48 -304l-31 64q218 107 252 243h-43q-119 0 -119 101q0 52 38.5 93.5t98.5 41.5q133 0 133 -139q0 -241 -329 -404z" />
    <glyph glyph-name="perthousand" unicode="&#x2030;" horiz-adv-x="2515" 
d="M465 713q-134 0 -206.5 74t-72.5 204q0 185 118 323t302 138q131 0 205 -75t74 -206q0 -194 -120 -326t-300 -132zM594 1386q-107 0 -174.5 -120.5t-67.5 -298.5q0 -187 127 -187q103 0 172.5 124.5t69.5 291.5q0 190 -127 190zM217 0h-143l1456 1423h145zM1970 -31
q-132 0 -205 74.5t-73 204.5q0 187 118.5 324t300.5 137q131 0 205 -75t74 -206q0 -194 -119 -326.5t-301 -132.5zM2097 641q-105 0 -172 -122t-67 -298q0 -184 127 -184q101 0 170 123t69 293q0 188 -127 188zM1141 -31q-133 0 -207 74t-74 205q0 186 120 323.5t302 137.5
q132 0 204.5 -75.5t72.5 -205.5q0 -193 -118.5 -326t-299.5 -133zM1268 641q-107 0 -174.5 -122.5t-67.5 -297.5q0 -184 129 -184q101 0 170.5 124.5t69.5 291.5q0 188 -127 188z" />
    <glyph glyph-name="Acircumflex" unicode="&#xc2;" horiz-adv-x="1374" 
d="M1303 0h-580l14 66q199 19 199 75l-45 353h-500q-178 -294 -178 -351q0 -64 186 -77l-14 -66h-545l15 66q79 6 137 35.5t100.5 86.5t309.5 490l470 762h80l189 -1229q21 -133 176 -145zM786 1130l-340 -555h428zM1212 1538l-49 -31l-236 211l-319 -211l-47 31l291 285
q46 45 100 45q57 0 80 -41z" />
    <glyph glyph-name="Ecircumflex" unicode="&#xca;" horiz-adv-x="1337" 
d="M1309 1077h-74q-7 105 -40.5 169t-76 82t-203.5 18h-227l-131 -572h160q113 0 172.5 48t114.5 186h73l-127 -555h-73q0 108 -5.5 149.5t-41 67.5t-132.5 26h-159l-101 -432q-12 -51 -12 -96q0 -54 38.5 -72t174.5 -18q153 0 215.5 10.5t100.5 35.5t116.5 123.5
t120.5 170.5h72l-123 -418h-1178l14 66q135 10 175.5 32.5t56.5 89.5l237 1031q5 22 5 36q0 84 -177 99l17 65h1098zM1210 1538l-49 -31l-236 211l-319 -211l-47 31l291 285q46 45 100 45q57 0 80 -41z" />
    <glyph glyph-name="Aacute" unicode="&#xc1;" horiz-adv-x="1374" 
d="M1303 0h-580l14 66q199 19 199 75l-45 353h-500q-178 -294 -178 -351q0 -64 186 -77l-14 -66h-545l15 66q79 6 137 35.5t100.5 86.5t309.5 490l470 762h80l189 -1229q21 -133 176 -145zM786 1130l-340 -555h428zM774 1507l-26 39q91 77 282 262q57 60 123 60
q37 0 60.5 -20.5t23.5 -51.5q0 -78 -100 -122t-363 -167z" />
    <glyph glyph-name="Edieresis" unicode="&#xcb;" horiz-adv-x="1337" 
d="M1309 1077h-74q-7 105 -40.5 169t-76 82t-203.5 18h-227l-131 -572h160q113 0 172.5 48t114.5 186h73l-127 -555h-73q0 108 -5.5 149.5t-41 67.5t-132.5 26h-159l-101 -432q-12 -51 -12 -96q0 -54 38.5 -72t174.5 -18q153 0 215.5 10.5t100.5 35.5t116.5 123.5
t120.5 170.5h72l-123 -418h-1178l14 66q135 10 175.5 32.5t56.5 89.5l237 1031q5 22 5 36q0 84 -177 99l17 65h1098zM1108 1608q-49 0 -83.5 35.5t-34.5 87.5q0 51 34.5 86.5t83.5 35.5q50 0 83.5 -35.5t33.5 -86.5q0 -52 -33.5 -87.5t-83.5 -35.5zM658 1608q-49 0 -84 35.5
t-35 87.5q0 51 35 86.5t84 35.5t84 -35.5t35 -86.5q0 -52 -35 -87.5t-84 -35.5z" />
    <glyph glyph-name="Egrave" unicode="&#xc8;" horiz-adv-x="1337" 
d="M1309 1077h-74q-7 105 -40.5 169t-76 82t-203.5 18h-227l-131 -572h160q113 0 172.5 48t114.5 186h73l-127 -555h-73q0 108 -5.5 149.5t-41 67.5t-132.5 26h-159l-101 -432q-12 -51 -12 -96q0 -54 38.5 -72t174.5 -18q153 0 215.5 10.5t100.5 35.5t116.5 123.5
t120.5 170.5h72l-123 -418h-1178l14 66q135 10 175.5 32.5t56.5 89.5l237 1031q5 22 5 36q0 84 -177 99l17 65h1098zM1032 1546l-35 -39q-112 60 -199 103q-101 50 -157.5 81t-56.5 87q0 39 27.5 64.5t68.5 25.5q28 0 60.5 -24t291.5 -298z" />
    <glyph glyph-name="Iacute" unicode="&#xcd;" horiz-adv-x="799" 
d="M907 1354q-137 -10 -181.5 -35.5t-59.5 -87.5l-240 -1038q-4 -17 -4 -31q0 -83 188 -96l-14 -66h-639l14 66q156 6 192.5 37t47.5 79l240 1039q4 17 4 34q0 47 -51 66.5t-136 32.5l15 65h639zM453 1507l-26 39q91 77 282 262q57 60 123 60q37 0 60.5 -20.5t23.5 -51.5
q0 -78 -100 -122t-363 -167z" />
    <glyph glyph-name="Icircumflex" unicode="&#xce;" horiz-adv-x="799" 
d="M907 1354q-137 -10 -181.5 -35.5t-59.5 -87.5l-240 -1038q-4 -17 -4 -31q0 -83 188 -96l-14 -66h-639l14 66q156 6 192.5 37t47.5 79l240 1039q4 17 4 34q0 47 -51 66.5t-136 32.5l15 65h639zM947 1538l-49 -31l-236 211l-319 -211l-47 31l291 285q46 45 100 45
q57 0 80 -41z" />
    <glyph glyph-name="Idieresis" unicode="&#xcf;" horiz-adv-x="799" 
d="M907 1354q-137 -10 -181.5 -35.5t-59.5 -87.5l-240 -1038q-4 -17 -4 -31q0 -83 188 -96l-14 -66h-639l14 66q156 6 192.5 37t47.5 79l240 1039q4 17 4 34q0 47 -51 66.5t-136 32.5l15 65h639zM881 1608q-49 0 -83.5 35.5t-34.5 87.5q0 51 34.5 86.5t83.5 35.5
q50 0 83.5 -35.5t33.5 -86.5q0 -52 -33.5 -87.5t-83.5 -35.5zM431 1608q-49 0 -84 35.5t-35 87.5q0 51 35 86.5t84 35.5t84 -35.5t35 -86.5q0 -52 -35 -87.5t-84 -35.5z" />
    <glyph glyph-name="Igrave" unicode="&#xcc;" horiz-adv-x="799" 
d="M907 1354q-137 -10 -181.5 -35.5t-59.5 -87.5l-240 -1038q-4 -17 -4 -31q0 -83 188 -96l-14 -66h-639l14 66q156 6 192.5 37t47.5 79l240 1039q4 17 4 34q0 47 -51 66.5t-136 32.5l15 65h639zM843 1546l-35 -39q-112 60 -199 103q-101 50 -157.5 81t-56.5 87
q0 39 27.5 64.5t68.5 25.5q28 0 60.5 -24t291.5 -298z" />
    <glyph glyph-name="Oacute" unicode="&#xd3;" horiz-adv-x="1495" 
d="M651 -35q-248 0 -399.5 159.5t-151.5 416.5q0 372 249 641.5t577 269.5q246 0 398.5 -158.5t152.5 -421.5q0 -372 -251.5 -639.5t-574.5 -267.5zM907 1368q-254 0 -412.5 -270t-158.5 -604q0 -213 86.5 -329t247.5 -116q249 0 410 266.5t161 616.5q0 207 -87 321.5
t-247 114.5zM733 1507l-26 39q91 77 282 262q57 60 123 60q37 0 60.5 -20.5t23.5 -51.5q0 -78 -100 -122t-363 -167z" />
    <glyph glyph-name="Ocircumflex" unicode="&#xd4;" horiz-adv-x="1495" 
d="M651 -35q-248 0 -399.5 159.5t-151.5 416.5q0 372 249 641.5t577 269.5q246 0 398.5 -158.5t152.5 -421.5q0 -372 -251.5 -639.5t-574.5 -267.5zM907 1368q-254 0 -412.5 -270t-158.5 -604q0 -213 86.5 -329t247.5 -116q249 0 410 266.5t161 616.5q0 207 -87 321.5
t-247 114.5zM1249 1538l-49 -31l-236 211l-319 -211l-47 31l291 285q46 45 100 45q57 0 80 -41z" />
    <glyph glyph-name="Ograve" unicode="&#xd2;" horiz-adv-x="1495" 
d="M651 -35q-248 0 -399.5 159.5t-151.5 416.5q0 372 249 641.5t577 269.5q246 0 398.5 -158.5t152.5 -421.5q0 -372 -251.5 -639.5t-574.5 -267.5zM907 1368q-254 0 -412.5 -270t-158.5 -604q0 -213 86.5 -329t247.5 -116q249 0 410 266.5t161 616.5q0 207 -87 321.5
t-247 114.5zM1143 1546l-35 -39q-112 60 -199 103q-101 50 -157.5 81t-56.5 87q0 39 27.5 64.5t68.5 25.5q28 0 60.5 -24t291.5 -298z" />
    <glyph glyph-name="Uacute" unicode="&#xda;" horiz-adv-x="1548" 
d="M1720 1354q-115 -10 -182 -49t-121 -273l-97 -430q-51 -227 -88 -310.5t-117 -159.5t-198 -121.5t-258 -45.5q-209 0 -327.5 89.5t-118.5 238.5q0 47 8 82l197 844q4 17 4 32q0 78 -133 99q-16 2 -27 4l17 65h589l-16 -65q-110 -9 -156.5 -32.5t-62.5 -92.5l-182 -791
q-15 -65 -15 -119q0 -245 285 -245q103 0 187.5 33t146.5 95t89 125t71 247.5t86 379t42 267.5q0 59 -42.5 88.5t-159.5 44.5l16 65h580zM833 1507l-26 39q91 77 282 262q57 60 123 60q37 0 60.5 -20.5t23.5 -51.5q0 -78 -100 -122t-363 -167z" />
    <glyph glyph-name="Ucircumflex" unicode="&#xdb;" horiz-adv-x="1548" 
d="M1720 1354q-115 -10 -182 -49t-121 -273l-97 -430q-51 -227 -88 -310.5t-117 -159.5t-198 -121.5t-258 -45.5q-209 0 -327.5 89.5t-118.5 238.5q0 47 8 82l197 844q4 17 4 32q0 78 -133 99q-16 2 -27 4l17 65h589l-16 -65q-110 -9 -156.5 -32.5t-62.5 -92.5l-182 -791
q-15 -65 -15 -119q0 -245 285 -245q103 0 187.5 33t146.5 95t89 125t71 247.5t86 379t42 267.5q0 59 -42.5 88.5t-159.5 44.5l16 65h580zM1339 1538l-49 -31l-236 211l-319 -211l-47 31l291 285q46 45 100 45q57 0 80 -41z" />
    <glyph glyph-name="Ugrave" unicode="&#xd9;" horiz-adv-x="1548" 
d="M1720 1354q-115 -10 -182 -49t-121 -273l-97 -430q-51 -227 -88 -310.5t-117 -159.5t-198 -121.5t-258 -45.5q-209 0 -327.5 89.5t-118.5 238.5q0 47 8 82l197 844q4 17 4 32q0 78 -133 99q-16 2 -27 4l17 65h589l-16 -65q-110 -9 -156.5 -32.5t-62.5 -92.5l-182 -791
q-15 -65 -15 -119q0 -245 285 -245q103 0 187.5 33t146.5 95t89 125t71 247.5t86 379t42 267.5q0 59 -42.5 88.5t-159.5 44.5l16 65h580zM1182 1546l-35 -39q-112 60 -199 103q-101 50 -157.5 81t-56.5 87q0 39 27.5 64.5t68.5 25.5q28 0 60.5 -24t291.5 -298z" />
    <glyph glyph-name="dotlessi" unicode="&#x131;" horiz-adv-x="608" 
d="M537 45q-160 -65 -242 -65q-76 0 -118 38.5t-42 104.5q0 42 17 110l106 426q23 92 23 144q0 59 -20.5 75.5t-74.5 16.5q-32 0 -112 -18l14 63q155 70 238 70q155 0 155 -146q0 -50 -14 -110l-109 -424q-24 -93 -24 -140q0 -98 108 -98q57 0 109 17z" />
    <glyph glyph-name="circumflex" unicode="&#x2c6;" horiz-adv-x="1024" 
d="M961 1118l-226 273l-329 -273l-48 33l304 346q25 29 41 37t57 8q53 0 78 -41l172 -350z" />
    <glyph glyph-name="tilde" unicode="&#x2dc;" horiz-adv-x="1024" 
d="M1096 1473q-28 -101 -98.5 -172.5t-155.5 -71.5q-82 0 -174 51q-93 51 -138 51q-41 0 -66.5 -21.5t-74.5 -113.5l-57 25q36 105 103 174t147 69q76 0 170 -51t129 -51q50 0 82 17t71 116z" />
    <glyph glyph-name="glyph216" 
 />
    <glyph glyph-name="glyph217" 
 />
    <glyph glyph-name="dotaccent" unicode="&#x2d9;" horiz-adv-x="1024" 
d="M711 1247q-52 0 -89.5 39t-37.5 92q0 55 37 95t90 40q54 0 91.5 -37t37.5 -90q0 -56 -37 -97.5t-92 -41.5z" />
    <glyph glyph-name="ring" unicode="&#x2da;" horiz-adv-x="1174" 
d="M674 1114q-105 0 -164 49.5t-59 132.5q0 112 86 187.5t213 75.5q101 0 162 -52t61 -135q0 -107 -84 -182.5t-215 -75.5zM739 1499q-71 0 -117.5 -59t-46.5 -142q0 -124 109 -124q74 0 118 58.5t44 139.5q0 127 -107 127z" />
    <glyph glyph-name="cedilla" unicode="&#xb8;" horiz-adv-x="1024" 
d="M233 -444l15 71q174 0 222 26t48 73q0 67 -153 67l45 223h77l-24 -114q93 0 150 -33.5t57 -93.5q0 -219 -437 -219z" />
    <glyph glyph-name="glyph221" 
 />
    <glyph glyph-name="glyph222" 
 />
    <glyph glyph-name="caron" unicode="&#x2c7;" horiz-adv-x="1024" 
d="M733 1163q-25 -28 -40.5 -36.5t-55.5 -8.5q-62 0 -78 41l-172 350l49 33l223 -272l330 272l47 -33z" />
    <glyph glyph-name="glyph224" 
 />
    <glyph glyph-name="glyph225" 
 />
    <glyph glyph-name="Scaron" unicode="&#x160;" horiz-adv-x="1149" 
d="M1098 948h-80q-9 242 -83.5 331t-223.5 89q-118 0 -198.5 -80t-80.5 -194q0 -107 52 -158.5t205 -107.5q243 -91 309.5 -180.5t66.5 -188.5q0 -209 -165 -348.5t-406 -139.5q-214 0 -365 101l-57 -72h-80l96 485h82q24 -432 358 -432q151 0 240.5 83.5t89.5 223.5
q0 100 -51 158t-175 104q-160 57 -235 97.5t-123.5 116t-48.5 174.5q0 183 152 311.5t358 128.5q191 0 330 -98l53 67h80zM1139 1837l-289 -285q-35 -35 -51.5 -40t-48.5 -5q-51 0 -80 41l-180 289l49 33l233 -213l322 213z" />
    <glyph glyph-name="scaron" unicode="&#x161;" horiz-adv-x="883" 
d="M592 924l-18 7q-18 7 -56 7q-92 0 -145.5 -49t-53.5 -127q0 -61 36.5 -98t158.5 -82q153 -57 206.5 -120t53.5 -149q0 -148 -117 -245t-295 -97q-143 0 -244.5 52t-101.5 139q0 41 29 74.5t72 33.5q91 0 128 -120q10 -32 21 -62q46 -45 119 -45q217 0 217 199
q0 61 -44.5 103t-162.5 81q-245 84 -245 268q0 129 113.5 222.5t281.5 93.5q132 0 214.5 -39.5t82.5 -116.5q0 -41 -29 -75t-72 -34q-90 0 -127 118q-10 32 -22 61zM640 1163q-25 -28 -40.5 -36.5t-55.5 -8.5q-62 0 -78 41l-172 350l49 33l223 -272l330 272l47 -33z" />
    <glyph glyph-name="Zcaron" unicode="&#x17d;" horiz-adv-x="1233" 
d="M1378 1384l-1171 -1308h321q89 0 167 9.5t122 27.5t138 116t173 213h70l-149 -442h-1139l8 35l1174 1308h-314q-159 0 -222.5 -33t-147.5 -116t-148 -176h-70l136 401h1060zM1190 1837l-289 -285q-35 -35 -51.5 -40t-48.5 -5q-51 0 -80 41l-180 289l49 33l233 -213
l322 213z" />
    <glyph glyph-name="zcaron" unicode="&#x17e;" horiz-adv-x="909" 
d="M922 920l-715 -840l90 -2q294 -7 332.5 28t136.5 242h59l-67 -348h-785l17 70l702 829h-131q-202 0 -251.5 -34t-112.5 -189h-62l60 303h739zM619 1163q-25 -28 -40.5 -36.5t-55.5 -8.5q-62 0 -78 41l-172 350l49 33l223 -272l330 272l47 -33z" />
    <glyph glyph-name="brokenbar" unicode="&#xa6;" horiz-adv-x="768" 
d="M348 723v801h127v-801h-127zM348 -424v809h127v-809h-127z" />
    <glyph glyph-name="Eth" unicode="&#xd0;" horiz-adv-x="1534" 
d="M-29 0l15 66q87 0 145 20t76 98l121 518h-187l23 95h184l94 407q9 39 9 51q0 48 -42.5 69t-117.5 30l14 65h602q254 0 431.5 -141.5t177.5 -405.5q0 -384 -270.5 -628t-655.5 -244h-619zM686 1339l-125 -542h303l-20 -95h-303l-109 -464q-6 -26 -6 -52q0 -62 53.5 -85
t161.5 -23q283 0 461 232.5t178 559.5q0 218 -117.5 345.5t-320.5 127.5q-87 0 -156 -4z" />
    <glyph glyph-name="eth" unicode="&#xf0;" horiz-adv-x="1118" 
d="M903 1343q170 -235 170 -512q0 -359 -171 -610.5t-449 -251.5q-165 0 -275 109.5t-110 292.5q0 257 163.5 433.5t395.5 176.5q84 0 153.5 -41t96.5 -96l8 2l2 26q14 185 -101 410l-262 -139l-41 74l262 137q-48 83 -133 145l60 57q98 -57 180 -147l225 119l43 -76z
M633 907q-173 0 -267 -178t-94 -412q0 -276 203 -276q154 0 260.5 190.5t106.5 415.5q0 120 -55.5 190t-153.5 70z" />
    <glyph glyph-name="Yacute" unicode="&#xdd;" horiz-adv-x="1260" 
d="M1501 1354q-49 -6 -105.5 -32.5t-123 -90t-264.5 -308.5t-234.5 -300t-56.5 -144l-64 -276q-4 -17 -4 -35q0 -65 74 -81.5t125 -20.5l-14 -66h-664l14 66q145 10 190.5 32t63.5 95l72 311q8 35 8 49q0 47 -49 208l-104 344q-55 182 -109 213.5t-113 35.5l17 65h581
l-16 -65q-129 -5 -163 -18.5t-34 -37.5q0 -42 183 -610q458 554 458 600q0 54 -172 66l17 65h504zM729 1507l-26 39q91 77 282 262q57 60 123 60q37 0 60.5 -20.5t23.5 -51.5q0 -78 -100 -122t-363 -167z" />
    <glyph glyph-name="yacute" unicode="&#xfd;" horiz-adv-x="1147" 
d="M913 197q-72 -327 -226.5 -484t-405.5 -157q-263 0 -263 141q0 45 27 76.5t74 31.5q91 0 162 -182h24q141 0 251 132.5t161 389.5h-6q-191 -165 -365 -165q-94 0 -150.5 54t-56.5 146q0 62 23 156l78 311q22 88 22 144q0 59 -20 76.5t-72 17.5q-38 0 -111 -23l17 66
q152 69 231 69q158 0 158 -143q0 -51 -16 -111l-91 -364q-24 -96 -24 -135q0 -146 129 -146q140 0 272 135l166 748l172 12l12 -14zM547 1110l-35 33q130 172 219 307q57 88 137 88q35 0 56.5 -22t21.5 -50q0 -54 -39.5 -88.5t-244.5 -182.5q-50 -36 -115 -85z" />
    <glyph glyph-name="Thorn" unicode="&#xde;" horiz-adv-x="1257" 
d="M451 324l-31 -136q-4 -18 -4 -36q0 -42 27.5 -60.5t152.5 -25.5l-16 -66h-607l17 66q136 8 171 39t46 83l237 1033q7 31 7 36q0 73 -166 97l14 65h598l-16 -65q-121 -9 -162.5 -34t-56.5 -89l-23 -98h240q165 0 267.5 -81.5t102.5 -220.5q0 -225 -180.5 -366t-431.5 -141
h-186zM621 1055l-150 -649h123q193 0 301.5 118t108.5 299q0 110 -65 171t-185 61h-133z" />
    <glyph glyph-name="thorn" unicode="&#xfe;" horiz-adv-x="1133" 
d="M254 47l-57 -262q-15 -69 -15 -82q0 -72 176 -84l-14 -63h-551l14 63q119 5 149 33.5t42 75.5l352 1558q12 53 12 74q0 46 -23 70.5t-140 33.5l14 62l371 22l10 -14l-154 -666h6q149 142 295 142q151 0 236.5 -104t85.5 -279q0 -267 -171.5 -460.5t-397.5 -193.5
q-139 0 -240 74zM420 768l-129 -569q11 -63 64 -109.5t128 -46.5q156 0 264.5 169.5t108.5 410.5q0 276 -201 276q-98 0 -235 -131z" />
    <glyph glyph-name="glyph237" 
 />
    <glyph glyph-name="multiply" unicode="&#xd7;" horiz-adv-x="1317" 
d="M1044 111l-362 362l-360 -364l-89 90l365 360l-365 363l89 88l360 -363l362 363l89 -88l-365 -363l365 -360z" />
    <glyph glyph-name="uni00B9" unicode="&#xb9;" horiz-adv-x="1024" 
d="M823 1446q-50 -184 -61 -238l-131 -565q-10 -43 15 -60.5t159 -27.5l-17 -66h-565l17 66q156 7 184.5 28.5t36.5 53.5l145 635h-207l19 74h61q150 0 271 100h73z" />
    <glyph glyph-name="uni00B2" unicode="&#xb2;" horiz-adv-x="1024" 
d="M299 629h625l-31 -140h-754l27 111q79 102 266 207q242 135 305.5 230.5t63.5 197.5q0 71 -42 109t-110 38q-102 0 -164 -65q4 -26 4 -64q0 -135 -131 -135q-71 0 -71 76q0 89 117.5 173.5t277.5 84.5q138 0 221.5 -61.5t83.5 -165.5q0 -252 -342 -402
q-247 -113 -346 -194z" />
    <glyph glyph-name="uni00B3" unicode="&#xb3;" horiz-adv-x="1024" 
d="M713 995l-2 -8q217 -30 217 -190q0 -147 -138 -244.5t-344 -97.5q-131 0 -212.5 52.5t-81.5 125.5q0 47 30 85t76 38q96 0 96 -72q0 -37 -43 -102q55 -60 154 -60q111 0 191.5 79.5t80.5 205.5q0 129 -178 129h-108l22 88h76q108 0 169.5 64.5t61.5 175.5q0 120 -135 120
q-84 0 -156 -61q5 -23 5 -47q0 -131 -127 -131q-72 0 -72 67q0 85 113 162.5t282 77.5q139 0 210 -55t71 -144q0 -83 -66.5 -153.5t-191.5 -104.5z" />
    <glyph glyph-name="onehalf" unicode="&#xbd;" horiz-adv-x="2150" 
d="M736 1446q-50 -184 -61 -238l-131 -565q-10 -43 15 -60.5t159 -27.5l-17 -66h-565l17 66q156 7 184.5 28.5t36.5 53.5l145 635h-207l19 74h61q150 0 271 100h73zM1354 141h625l-31 -140h-754l27 111q79 102 266 207q242 135 305.5 230.5t63.5 197.5q0 71 -42 109t-110 38
q-102 0 -164 -65q4 -26 4 -64q0 -135 -131 -135q-71 0 -71 76q0 89 117.5 173.5t277.5 84.5q138 0 221.5 -61.5t83.5 -165.5q0 -252 -342 -402q-247 -113 -346 -194zM594 0h-135l1044 1419h137z" />
    <glyph glyph-name="onequarter" unicode="&#xbc;" horiz-adv-x="2150" 
d="M736 1446q-50 -184 -61 -238l-131 -565q-10 -43 15 -60.5t159 -27.5l-17 -66h-565l17 66q156 7 184.5 28.5t36.5 53.5l145 635h-207l19 74h61q150 0 271 100h73zM1947 321l-24 -104h-160l-53 -236h-166l53 236h-495l28 122l688 623h117l-147 -641h159zM1724 769
l-491 -448h389zM604 0h-135l1044 1419h137z" />
    <glyph glyph-name="threequarters" unicode="&#xbe;" horiz-adv-x="2150" 
d="M713 995l-2 -8q217 -30 217 -190q0 -147 -138 -244.5t-344 -97.5q-131 0 -212.5 52.5t-81.5 125.5q0 47 30 85t76 38q96 0 96 -72q0 -37 -43 -102q55 -60 154 -60q111 0 191.5 79.5t80.5 205.5q0 129 -178 129h-108l22 88h76q108 0 169.5 64.5t61.5 175.5q0 120 -135 120
q-84 0 -156 -61q5 -23 5 -47q0 -131 -127 -131q-72 0 -72 67q0 85 113 162.5t282 77.5q139 0 210 -55t71 -144q0 -83 -66.5 -153.5t-191.5 -104.5zM2037 321l-24 -104h-160l-53 -236h-166l53 236h-495l28 122l688 623h117l-147 -641h159zM1814 769l-491 -448h389zM756 0
h-135l1044 1419h137z" />
    <glyph glyph-name="glyph245" 
 />
    <glyph glyph-name="glyph246" 
 />
    <glyph glyph-name="glyph247" 
 />
    <glyph glyph-name="glyph248" 
 />
    <glyph glyph-name="glyph249" 
 />
    <glyph glyph-name="glyph250" 
 />
    <glyph glyph-name="glyph251" 
 />
    <glyph glyph-name="glyph252" 
 />
    <glyph glyph-name="glyph253" 
 />
    <glyph glyph-name="glyph254" 
 />
    <glyph glyph-name="glyph255" 
 />
    <glyph glyph-name="macron" unicode="&#xaf;" horiz-adv-x="1221" 
d="M1538 1606h-1325l23 96h1327z" />
    <glyph glyph-name="periodcentered" unicode="&#xb7;" horiz-adv-x="571" 
d="M297 424q-57 0 -97 38.5t-40 96.5q0 56 39 96.5t98 40.5q58 0 96.5 -41t38.5 -96q0 -57 -39.5 -96t-95.5 -39z" />
    <glyph glyph-name="glyph258" 
 />
    <glyph glyph-name="glyph259" 
 />
    <glyph glyph-name="glyph260" 
 />
    <glyph glyph-name="glyph261" 
 />
    <glyph glyph-name="glyph262" 
 />
    <glyph glyph-name="glyph263" 
 />
    <glyph glyph-name="glyph264" 
 />
    <glyph glyph-name="glyph265" 
 />
    <glyph glyph-name="glyph266" 
 />
    <glyph glyph-name="glyph267" 
 />
    <glyph glyph-name="glyph268" 
 />
    <glyph glyph-name="glyph269" 
 />
    <glyph glyph-name="glyph270" 
 />
    <glyph glyph-name="glyph271" 
 />
    <glyph glyph-name="glyph272" 
 />
    <glyph glyph-name="glyph273" 
 />
    <glyph glyph-name="glyph274" 
 />
    <glyph glyph-name="glyph275" 
 />
    <glyph glyph-name="glyph276" 
 />
    <glyph glyph-name="glyph277" 
 />
    <glyph glyph-name="glyph278" 
 />
    <glyph glyph-name="glyph279" 
 />
    <glyph glyph-name="glyph280" 
 />
    <glyph glyph-name="glyph281" 
 />
    <glyph glyph-name="glyph282" 
 />
    <glyph glyph-name="glyph283" 
 />
    <glyph glyph-name="glyph284" 
 />
    <glyph glyph-name="glyph285" 
 />
    <glyph glyph-name="glyph286" 
 />
    <glyph glyph-name="glyph287" 
 />
    <glyph glyph-name="glyph288" 
 />
    <glyph glyph-name="glyph289" 
 />
    <glyph glyph-name="glyph290" 
 />
    <glyph glyph-name="glyph291" 
 />
    <glyph glyph-name="glyph292" 
 />
    <glyph glyph-name="glyph293" 
 />
    <glyph glyph-name="glyph294" 
 />
    <glyph glyph-name="glyph295" 
 />
    <glyph glyph-name="glyph296" 
 />
    <glyph glyph-name="glyph297" 
 />
    <glyph glyph-name="glyph298" 
 />
    <glyph glyph-name="glyph299" 
 />
    <glyph glyph-name="glyph300" 
 />
    <glyph glyph-name="glyph301" 
 />
    <glyph glyph-name="glyph302" 
 />
    <glyph glyph-name="glyph303" 
 />
    <glyph glyph-name="glyph304" 
 />
    <glyph glyph-name="glyph305" 
 />
    <glyph glyph-name="glyph306" 
 />
    <glyph glyph-name="glyph307" 
 />
    <glyph glyph-name="glyph308" 
 />
    <glyph glyph-name="glyph309" 
 />
    <glyph glyph-name="glyph310" 
 />
    <glyph glyph-name="glyph311" 
 />
    <glyph glyph-name="glyph312" 
 />
    <glyph glyph-name="glyph313" 
 />
    <glyph glyph-name="glyph314" 
 />
    <glyph glyph-name="glyph315" 
 />
    <glyph glyph-name="glyph316" 
 />
    <glyph glyph-name="glyph317" 
 />
    <glyph glyph-name="glyph318" 
 />
    <glyph glyph-name="glyph319" 
 />
    <glyph glyph-name="glyph320" 
 />
    <glyph glyph-name="glyph321" 
 />
    <glyph glyph-name="glyph322" 
 />
    <glyph glyph-name="glyph323" 
 />
    <glyph glyph-name="glyph324" 
 />
    <glyph glyph-name="glyph325" 
 />
    <glyph glyph-name="glyph326" 
 />
    <glyph glyph-name="glyph327" 
 />
    <glyph glyph-name="glyph328" 
 />
    <glyph glyph-name="glyph329" 
 />
    <glyph glyph-name="glyph330" 
 />
    <glyph glyph-name="glyph331" 
 />
    <glyph glyph-name="glyph332" 
 />
    <glyph glyph-name="glyph333" 
 />
    <glyph glyph-name="glyph334" 
 />
    <glyph glyph-name="glyph335" 
 />
    <glyph glyph-name="glyph336" 
 />
    <glyph glyph-name="glyph337" 
 />
    <glyph glyph-name="glyph338" 
 />
    <glyph glyph-name="glyph339" 
 />
    <glyph glyph-name="glyph340" 
 />
    <glyph glyph-name="glyph341" 
 />
    <glyph glyph-name="glyph342" 
 />
    <glyph glyph-name="glyph343" 
 />
    <glyph glyph-name="glyph344" 
 />
    <glyph glyph-name="glyph345" 
 />
    <glyph glyph-name="glyph346" 
 />
    <glyph glyph-name="glyph347" 
 />
    <glyph glyph-name="glyph348" 
 />
    <glyph glyph-name="glyph349" 
 />
    <glyph glyph-name="glyph350" 
 />
    <glyph glyph-name="glyph351" 
 />
    <glyph glyph-name="glyph352" 
 />
    <glyph glyph-name="glyph353" 
 />
    <glyph glyph-name="glyph354" 
 />
    <glyph glyph-name="glyph355" 
 />
    <glyph glyph-name="glyph356" 
 />
    <glyph glyph-name="glyph357" 
 />
    <glyph glyph-name="glyph358" 
 />
    <glyph glyph-name="glyph359" 
 />
    <glyph glyph-name="glyph360" 
 />
    <glyph glyph-name="glyph361" 
 />
    <glyph glyph-name="glyph362" 
 />
    <glyph glyph-name="glyph363" 
 />
    <glyph glyph-name="glyph364" 
 />
    <glyph glyph-name="glyph365" 
 />
    <glyph glyph-name="glyph366" 
 />
    <glyph glyph-name="glyph367" 
 />
    <glyph glyph-name="glyph368" 
 />
    <glyph glyph-name="glyph369" 
 />
    <glyph glyph-name="glyph370" 
 />
    <glyph glyph-name="glyph371" 
 />
    <glyph glyph-name="glyph372" 
 />
    <glyph glyph-name="glyph373" 
 />
    <glyph glyph-name="glyph374" 
 />
    <glyph glyph-name="glyph375" 
 />
    <glyph glyph-name="glyph376" 
 />
    <glyph glyph-name="glyph377" 
 />
    <glyph glyph-name="glyph378" 
 />
    <glyph glyph-name="glyph379" 
 />
    <glyph glyph-name="glyph380" 
 />
    <glyph glyph-name="glyph381" 
 />
    <glyph glyph-name="glyph382" 
 />
    <glyph glyph-name="glyph383" 
 />
    <glyph glyph-name="glyph384" 
 />
    <glyph glyph-name="glyph385" 
 />
    <glyph glyph-name="glyph386" 
 />
    <glyph glyph-name="glyph387" 
 />
    <glyph glyph-name="glyph388" 
 />
    <glyph glyph-name="glyph389" 
 />
    <glyph glyph-name="glyph390" 
 />
    <glyph glyph-name="glyph391" 
 />
    <glyph glyph-name="glyph392" 
 />
    <glyph glyph-name="glyph393" 
 />
    <glyph glyph-name="glyph394" 
 />
    <glyph glyph-name="glyph395" 
 />
    <glyph glyph-name="glyph396" 
 />
    <glyph glyph-name="glyph397" 
 />
    <glyph glyph-name="glyph398" 
 />
    <glyph glyph-name="glyph399" 
 />
    <glyph glyph-name="glyph400" 
 />
    <glyph glyph-name="glyph401" 
 />
    <glyph glyph-name="glyph402" 
 />
    <glyph glyph-name="glyph403" 
 />
    <glyph glyph-name="glyph404" 
 />
    <glyph glyph-name="glyph405" 
 />
    <glyph glyph-name="glyph406" 
 />
    <glyph glyph-name="glyph407" 
 />
    <glyph glyph-name="glyph408" 
 />
    <glyph glyph-name="glyph409" 
 />
    <glyph glyph-name="glyph410" 
 />
    <glyph glyph-name="glyph411" 
 />
    <glyph glyph-name="glyph412" 
 />
    <glyph glyph-name="glyph413" 
 />
    <glyph glyph-name="glyph414" 
 />
    <glyph glyph-name="glyph415" 
 />
    <glyph glyph-name="glyph416" 
 />
    <glyph glyph-name="glyph417" 
 />
    <glyph glyph-name="glyph418" 
 />
    <glyph glyph-name="glyph419" 
 />
    <glyph glyph-name="glyph420" 
 />
    <glyph glyph-name="glyph421" 
 />
    <glyph glyph-name="glyph422" 
 />
    <glyph glyph-name="glyph423" 
 />
    <glyph glyph-name="glyph424" 
 />
    <glyph glyph-name="glyph425" 
 />
    <glyph glyph-name="glyph426" 
 />
    <glyph glyph-name="glyph427" 
 />
    <glyph glyph-name="glyph428" 
 />
    <glyph glyph-name="glyph429" 
 />
    <glyph glyph-name="glyph430" 
 />
    <glyph glyph-name="glyph431" 
 />
    <glyph glyph-name="glyph432" 
 />
    <glyph glyph-name="glyph433" 
 />
    <glyph glyph-name="glyph434" 
 />
    <glyph glyph-name="glyph435" 
 />
    <glyph glyph-name="glyph436" 
 />
    <glyph glyph-name="glyph437" 
 />
    <glyph glyph-name="glyph438" 
 />
    <glyph glyph-name="glyph439" 
 />
    <glyph glyph-name="glyph440" 
 />
    <glyph glyph-name="glyph441" 
 />
    <glyph glyph-name="glyph442" 
 />
    <glyph glyph-name="glyph443" 
 />
    <glyph glyph-name="glyph444" 
 />
    <glyph glyph-name="glyph445" 
 />
    <glyph glyph-name="glyph446" 
 />
    <glyph glyph-name="glyph447" 
 />
    <glyph glyph-name="glyph448" 
 />
    <glyph glyph-name="glyph449" 
 />
    <glyph glyph-name="glyph450" 
 />
    <glyph glyph-name="glyph451" 
 />
    <glyph glyph-name="glyph452" 
 />
    <glyph glyph-name="glyph453" 
 />
    <glyph glyph-name="glyph454" 
 />
    <glyph glyph-name="glyph455" 
 />
    <glyph glyph-name="glyph456" 
 />
    <glyph glyph-name="glyph457" 
 />
    <glyph glyph-name="glyph458" 
 />
    <glyph glyph-name="glyph459" 
 />
    <glyph glyph-name="glyph460" 
 />
    <glyph glyph-name="glyph461" 
 />
    <glyph glyph-name="glyph462" 
 />
    <glyph glyph-name="glyph463" 
 />
    <glyph glyph-name="glyph464" 
 />
    <glyph glyph-name="glyph465" 
 />
    <glyph glyph-name="glyph466" 
 />
    <glyph glyph-name="glyph467" 
 />
    <glyph glyph-name="glyph468" 
 />
    <glyph glyph-name="glyph469" 
 />
    <glyph glyph-name="glyph470" 
 />
    <glyph glyph-name="glyph471" 
 />
    <glyph glyph-name="glyph472" 
 />
    <glyph glyph-name="glyph473" 
 />
    <glyph glyph-name="glyph474" 
 />
    <glyph glyph-name="glyph475" 
 />
    <glyph glyph-name="glyph476" 
 />
    <glyph glyph-name="glyph477" 
 />
    <glyph glyph-name="glyph478" 
 />
    <glyph glyph-name="glyph479" 
 />
    <glyph glyph-name="glyph480" 
 />
    <glyph glyph-name="glyph481" 
 />
    <glyph glyph-name="glyph482" 
 />
    <glyph glyph-name="glyph483" 
 />
    <glyph glyph-name="glyph484" 
 />
    <glyph glyph-name="glyph485" 
 />
    <glyph glyph-name="glyph486" 
 />
    <glyph glyph-name="glyph487" 
 />
    <glyph glyph-name="glyph488" 
 />
    <glyph glyph-name="glyph489" 
 />
    <glyph glyph-name="glyph490" 
 />
    <glyph glyph-name="glyph491" 
 />
    <glyph glyph-name="glyph492" 
 />
    <glyph glyph-name="glyph493" 
 />
    <glyph glyph-name="glyph494" 
 />
    <glyph glyph-name="glyph495" 
 />
    <glyph glyph-name="glyph496" 
 />
    <glyph glyph-name="glyph497" 
 />
    <glyph glyph-name="glyph498" 
 />
    <glyph glyph-name="glyph499" 
 />
    <glyph glyph-name="glyph500" 
 />
    <glyph glyph-name="glyph501" 
 />
    <glyph glyph-name="glyph502" 
 />
    <glyph glyph-name="glyph503" 
 />
    <glyph glyph-name="glyph504" 
 />
    <glyph glyph-name="glyph505" 
 />
    <glyph glyph-name="glyph506" 
 />
    <glyph glyph-name="glyph507" 
 />
    <glyph glyph-name="glyph508" 
 />
    <glyph glyph-name="glyph509" 
 />
    <glyph glyph-name="glyph510" 
 />
    <glyph glyph-name="glyph511" 
 />
    <glyph glyph-name="glyph512" 
 />
    <glyph glyph-name="glyph513" 
 />
    <glyph glyph-name="glyph514" 
 />
    <glyph glyph-name="glyph515" 
 />
    <glyph glyph-name="glyph516" 
 />
    <glyph glyph-name="glyph517" 
 />
    <glyph glyph-name="glyph518" 
 />
    <glyph glyph-name="glyph519" 
 />
    <glyph glyph-name="glyph520" 
 />
    <glyph glyph-name="glyph521" 
 />
    <glyph glyph-name="glyph522" 
 />
    <glyph glyph-name="glyph523" 
 />
    <glyph glyph-name="glyph524" 
 />
    <glyph glyph-name="glyph525" 
 />
    <glyph glyph-name="glyph526" 
 />
    <glyph glyph-name="glyph527" 
 />
    <glyph glyph-name="glyph528" 
 />
    <glyph glyph-name="glyph529" 
 />
    <glyph glyph-name="glyph530" 
 />
    <glyph glyph-name="glyph531" 
 />
    <glyph glyph-name="glyph532" 
 />
    <glyph glyph-name="glyph533" 
 />
    <glyph glyph-name="glyph534" 
 />
    <glyph glyph-name="glyph535" 
 />
    <glyph glyph-name="glyph536" 
 />
    <glyph glyph-name="glyph537" 
 />
    <glyph glyph-name="glyph538" 
 />
    <glyph glyph-name="glyph539" 
 />
    <glyph glyph-name="glyph540" 
 />
    <glyph glyph-name="glyph541" 
 />
    <glyph glyph-name="glyph542" 
 />
    <glyph glyph-name="glyph543" 
 />
    <glyph glyph-name="glyph544" 
 />
    <glyph glyph-name="glyph545" 
 />
    <glyph glyph-name="glyph546" 
 />
    <glyph glyph-name="glyph547" 
 />
    <glyph glyph-name="glyph548" 
 />
    <glyph glyph-name="glyph549" 
 />
    <glyph glyph-name="glyph550" 
 />
    <glyph glyph-name="glyph551" 
 />
    <glyph glyph-name="glyph552" 
 />
    <glyph glyph-name="glyph553" 
 />
    <glyph glyph-name="glyph554" 
 />
    <glyph glyph-name="glyph555" 
 />
    <glyph glyph-name="glyph556" 
 />
    <glyph glyph-name="glyph557" 
 />
    <glyph glyph-name="glyph558" 
 />
    <glyph glyph-name="glyph559" 
 />
    <glyph glyph-name="glyph560" 
 />
    <glyph glyph-name="glyph561" 
 />
    <glyph glyph-name="glyph562" 
 />
    <glyph glyph-name="glyph563" 
 />
    <glyph glyph-name="glyph564" 
 />
    <glyph glyph-name="glyph565" 
 />
    <glyph glyph-name="glyph566" 
 />
    <glyph glyph-name="glyph567" 
 />
    <glyph glyph-name="glyph568" 
 />
    <glyph glyph-name="afii61352" unicode="&#x2116;" horiz-adv-x="2501" 
d="M1092 465q89 520 198.5 747.5t282.5 227.5q59 0 93 -33.5t34 -87.5q0 -58 -40 -97.5t-95 -39.5q-61 0 -135 86q-93 -115 -170.5 -434.5t-100.5 -620.5l-16 -227h-88l-465 1190h-6q-80 -614 -203 -905t-315 -291q-127 0 -127 122q0 57 40.5 96.5t92.5 39.5q56 0 137 -84
q105 132 187.5 466t82.5 551q0 110 -51.5 141t-146.5 42l16 65h399l387 -954h9zM1972 516q-133 0 -221 89t-88 229q0 203 138 349t339 146q144 0 227.5 -84t83.5 -221q0 -200 -138 -354t-341 -154zM2122 1262q-130 0 -205.5 -143t-75.5 -320q0 -215 154 -215q116 0 196 143
t80 328q0 207 -149 207zM2251 186h-688l22 101h690z" />
    <glyph glyph-name="glyph570" 
 />
    <glyph glyph-name="uni2074" unicode="&#x2074;" horiz-adv-x="1024" 
d="M958 809l-24 -104h-160l-53 -236h-166l53 236h-495l28 122l688 623h117l-147 -641h159zM735 1257l-491 -448h389z" />
    <glyph glyph-name="uni2075" unicode="&#x2075;" horiz-adv-x="1024" 
d="M293 569q53 -47 143 -47q109 0 193 89t84 220q0 70 -47.5 116t-124.5 46q-131 0 -222 -86l-63 23l160 489h561l-27 -137h-481l-86 -254q102 57 215 57q135 0 217 -63.5t82 -169.5q0 -170 -139.5 -283.5t-335.5 -113.5q-125 0 -207 50t-82 120q0 45 31 82.5t80 37.5
q88 0 88 -69q0 -41 -39 -107z" />
    <glyph glyph-name="uni2077" unicode="&#x2077;" horiz-adv-x="1024" 
d="M1065 1419l-12 -57l-697 -893h-129l647 817h-270q-118 0 -162 -14t-90 -142h-63l57 289h719z" />
    <glyph glyph-name="uni2078" unicode="&#x2078;" horiz-adv-x="1024" 
d="M754 981q172 -78 172 -203q0 -131 -133.5 -226t-317.5 -95q-151 0 -238 63.5t-87 161.5q0 189 258 285q-134 78 -134 184q0 117 120 208t286 91q131 0 210 -57.5t79 -149.5q0 -170 -215 -262zM688 1014q121 71 121 225q0 59 -42 99t-114 40q-84 0 -144 -51t-60 -131
q0 -70 62 -108.5t177 -73.5zM469 934q-150 -72 -150 -242q0 -71 52.5 -116.5t136.5 -45.5q102 0 174 56.5t72 140.5q0 56 -33.5 89.5t-132.5 71.5z" />
    <glyph glyph-name="uni0308" unicode="&#x308;" horiz-adv-x="1024" 
d="M954 1608q-49 0 -83.5 35.5t-34.5 87.5q0 51 34.5 86.5t83.5 35.5q50 0 83.5 -35.5t33.5 -86.5q0 -52 -33.5 -87.5t-83.5 -35.5zM504 1608q-49 0 -84 35.5t-35 87.5q0 51 35 86.5t84 35.5t84 -35.5t35 -86.5q0 -52 -35 -87.5t-84 -35.5z" />
    <glyph glyph-name="acutecomb" unicode="&#x301;" horiz-adv-x="1024" 
d="M475 1507l-26 39q91 77 282 262q57 60 123 60q37 0 60.5 -20.5t23.5 -51.5q0 -78 -100 -122t-363 -167z" />
    <glyph glyph-name="gravecomb" unicode="&#x300;" horiz-adv-x="1024" 
d="M944 1546l-35 -39q-112 60 -199 103q-101 50 -157.5 81t-56.5 87q0 39 27.5 64.5t68.5 25.5q28 0 60.5 -24t291.5 -298z" />
    <glyph glyph-name="uni0302" unicode="&#x302;" horiz-adv-x="1024" 
d="M1024 1538l-49 -31l-236 211l-319 -211l-47 31l291 285q46 45 100 45q57 0 80 -41z" />
    <glyph glyph-name="uni030C" unicode="&#x30c;" horiz-adv-x="1024" 
d="M1067 1837l-289 -285q-35 -35 -51.5 -40t-48.5 -5q-51 0 -80 41l-180 289l49 33l233 -213l322 213z" />
    <glyph glyph-name="glyph580" 
 />
    <glyph glyph-name="glyph581" 
 />
    <glyph glyph-name="glyph582" 
 />
    <glyph glyph-name="glyph583" 
 />
    <glyph glyph-name="currency" unicode="&#xa4;" horiz-adv-x="1169" 
d="M944 141l-188 185q-68 -43 -146 -43q-75 0 -143 43l-191 -187l-83 90l184 187q-43 68 -43 143q0 77 43 143l-184 191l88 86l186 -186q68 43 143 43q73 0 146 -41l184 184l90 -86l-186 -191q43 -66 43 -143q0 -75 -43 -143l186 -189zM610 725q-69 0 -115 -48.5t-46 -117.5
q0 -68 47.5 -117t113.5 -49q68 0 115 49t47 117q0 69 -48 117.5t-114 48.5z" />
    <glyph glyph-name="glyph585" 
 />
    <glyph glyph-name="glyph586" 
 />
    <glyph glyph-name="glyph587" 
 />
    <glyph glyph-name="glyph588" 
 />
    <glyph glyph-name="glyph589" 
 />
    <glyph glyph-name="glyph590" 
 />
    <glyph glyph-name="glyph591" 
 />
    <glyph glyph-name="glyph592" 
 />
    <glyph glyph-name="glyph593" 
 />
    <glyph glyph-name="glyph594" 
 />
    <glyph glyph-name="iacute.locl" horiz-adv-x="608" 
d="M537 45q-160 -65 -242 -65q-76 0 -118 38.5t-42 104.5q0 42 17 110l106 426q23 92 23 144q0 59 -20.5 75.5t-74.5 16.5q-32 0 -112 -18l14 63q155 70 238 70q155 0 155 -146q0 -50 -14 -110l-109 -424q-24 -93 -24 -140q0 -98 108 -98q57 0 109 17zM493 1507l-26 39
q91 77 282 262q57 60 123 60q37 0 60.5 -20.5t23.5 -51.5q0 -78 -100 -122t-363 -167zM464 1166q-52 0 -89.5 39t-37.5 92q0 55 37 95t90 40q54 0 91.5 -37t37.5 -90q0 -56 -37 -97.5t-92 -41.5z" />
    <glyph glyph-name="glyph596" 
 />
    <glyph glyph-name="glyph597" 
 />
    <glyph glyph-name="uni2070" unicode="&#x2070;" horiz-adv-x="1024" 
d="M479 461q-138 0 -220.5 93t-82.5 257q0 245 140.5 443t365.5 198q301 0 301 -356q0 -264 -137.5 -449.5t-366.5 -185.5zM801 1174q0 204 -123 204q-115 0 -217.5 -209.5t-102.5 -414.5q0 -224 134 -224q115 0 212 208.5t97 435.5z" />
    <glyph glyph-name="uni2076" unicode="&#x2076;" horiz-adv-x="1024" 
d="M963 1454v-65l-64 -17q-347 -92 -479 -393q131 96 266 96q118 0 185 -67.5t67 -182.5q0 -155 -116 -259.5t-287 -104.5q-158 0 -248 87.5t-90 229.5q0 244 190 429.5t576 246.5zM395 897q-18 -69 -18 -152q0 -215 166 -215q91 0 152 84.5t61 202.5q0 168 -152 168
q-91 0 -209 -88z" />
    <glyph glyph-name="uni2079" unicode="&#x2079;" horiz-adv-x="1024" 
d="M197 457v67l63 15q347 83 477 387q-110 -90 -258 -90q-115 0 -186.5 64.5t-71.5 178.5q0 161 116.5 266t289.5 105q158 0 247 -90t89 -236q0 -241 -186.5 -435t-579.5 -232zM762 1008q20 65 20 157q0 215 -153 215q-93 0 -159.5 -84.5t-66.5 -201.5q0 -168 160 -168
q98 0 199 82z" />
    <glyph glyph-name="uni2080" unicode="&#x2080;" horiz-adv-x="1024" 
d="M408 -27q-138 0 -220.5 93t-82.5 257q0 245 140.5 443t365.5 198q301 0 301 -356q0 -264 -137.5 -449.5t-366.5 -185.5zM730 686q0 204 -123 204q-115 0 -217.5 -209.5t-102.5 -414.5q0 -224 134 -224q115 0 212 208.5t97 435.5z" />
    <glyph glyph-name="uni2081" unicode="&#x2081;" horiz-adv-x="1024" 
d="M752 958q-50 -184 -61 -238l-131 -565q-10 -43 15 -60.5t159 -27.5l-17 -66h-565l17 66q156 7 184.5 28.5t36.5 53.5l145 635h-207l19 74h61q150 0 271 100h73z" />
    <glyph glyph-name="uni2082" unicode="&#x2082;" horiz-adv-x="1024" 
d="M228 141h625l-31 -140h-754l27 111q79 102 266 207q242 135 305.5 230.5t63.5 197.5q0 71 -42 109t-110 38q-102 0 -164 -65q4 -26 4 -64q0 -135 -131 -135q-71 0 -71 76q0 89 117.5 173.5t277.5 84.5q138 0 221.5 -61.5t83.5 -165.5q0 -252 -342 -402
q-247 -113 -346 -194z" />
    <glyph glyph-name="uni2083" unicode="&#x2083;" horiz-adv-x="1024" 
d="M642 507l-2 -8q217 -30 217 -190q0 -147 -138 -244.5t-344 -97.5q-131 0 -212.5 52.5t-81.5 125.5q0 47 30 85t76 38q96 0 96 -72q0 -37 -43 -102q55 -60 154 -60q111 0 191.5 79.5t80.5 205.5q0 129 -178 129h-108l22 88h76q108 0 169.5 64.5t61.5 175.5q0 120 -135 120
q-84 0 -156 -61q5 -23 5 -47q0 -131 -127 -131q-72 0 -72 67q0 85 113 162.5t282 77.5q139 0 210 -55t71 -144q0 -83 -66.5 -153.5t-191.5 -104.5z" />
    <glyph glyph-name="uni2084" unicode="&#x2084;" horiz-adv-x="1024" 
d="M887 321l-24 -104h-160l-53 -236h-166l53 236h-495l28 122l688 623h117l-147 -641h159zM664 769l-491 -448h389z" />
    <glyph glyph-name="uni2085" unicode="&#x2085;" horiz-adv-x="1024" 
d="M222 81q53 -47 143 -47q109 0 193 89t84 220q0 70 -47.5 116t-124.5 46q-131 0 -222 -86l-63 23l160 489h561l-27 -137h-481l-86 -254q102 57 215 57q135 0 217 -63.5t82 -169.5q0 -170 -139.5 -283.5t-335.5 -113.5q-125 0 -207 50t-82 120q0 45 31 82.5t80 37.5
q88 0 88 -69q0 -41 -39 -107z" />
    <glyph glyph-name="uni2086" unicode="&#x2086;" horiz-adv-x="1024" 
d="M892 966v-65l-64 -17q-347 -92 -479 -393q131 96 266 96q118 0 185 -67.5t67 -182.5q0 -155 -116 -259.5t-287 -104.5q-158 0 -248 87.5t-90 229.5q0 244 190 429.5t576 246.5zM324 409q-18 -69 -18 -152q0 -215 166 -215q91 0 152 84.5t61 202.5q0 168 -152 168
q-91 0 -209 -88z" />
    <glyph glyph-name="uni2087" unicode="&#x2087;" horiz-adv-x="1024" 
d="M994 931l-12 -57l-697 -893h-129l647 817h-270q-118 0 -162 -14t-90 -142h-63l57 289h719z" />
    <glyph glyph-name="uni2088" unicode="&#x2088;" horiz-adv-x="1024" 
d="M683 493q172 -78 172 -203q0 -131 -133.5 -226t-317.5 -95q-151 0 -238 63.5t-87 161.5q0 189 258 285q-134 78 -134 184q0 117 120 208t286 91q131 0 210 -57.5t79 -149.5q0 -170 -215 -262zM617 526q121 71 121 225q0 59 -42 99t-114 40q-84 0 -144 -51t-60 -131
q0 -70 62 -108.5t177 -73.5zM398 446q-150 -72 -150 -242q0 -71 52.5 -116.5t136.5 -45.5q102 0 174 56.5t72 140.5q0 56 -33.5 89.5t-132.5 71.5z" />
    <glyph glyph-name="uni2089" unicode="&#x2089;" horiz-adv-x="1024" 
d="M126 -31v67l63 15q347 83 477 387q-110 -90 -258 -90q-115 0 -186.5 64.5t-71.5 178.5q0 161 116.5 266t289.5 105q158 0 247 -90t89 -236q0 -241 -186.5 -435t-579.5 -232zM691 520q20 65 20 157q0 215 -153 215q-93 0 -159.5 -84.5t-66.5 -201.5q0 -168 160 -168
q98 0 199 82z" />
    <glyph glyph-name="zero.oldstyle.lnum" horiz-adv-x="1153" 
d="M471 -33q-192 0 -295.5 122.5t-103.5 346.5q0 377 187 693.5t495 316.5q177 0 279 -125t102 -342q0 -361 -169.5 -686.5t-494.5 -325.5zM922 1063q0 307 -174 307q-210 0 -336.5 -372t-126.5 -631q0 -181 46.5 -252.5t145.5 -71.5q206 0 325.5 387.5t119.5 632.5z" />
    <glyph glyph-name="one.oldstyle.lnum" horiz-adv-x="881" 
d="M-50 0l14 66q195 8 238 31t57 85l258 1086h-283l19 78h100q205 0 336 100h82q-34 -125 -59 -231l-238 -1012q-6 -26 -6 -41q0 -46 41 -68t213 -31l-17 -63h-755z" />
    <glyph glyph-name="two.oldstyle.lnum" horiz-adv-x="1153" 
d="M942 0h-944l33 135q3 14 102 137.5t361 309.5q238 166 310.5 292t72.5 267q0 105 -56.5 166t-146.5 61q-154 0 -223 -90q4 -44 4 -94q0 -172 -148 -172q-98 0 -98 86q0 134 151.5 241t331.5 107q187 0 293.5 -90.5t106.5 -247.5q0 -159 -96 -290t-406 -302
q-314 -174 -420 -342h813z" />
    <glyph glyph-name="three.oldstyle.lnum" horiz-adv-x="1153" 
d="M725 772l-6 -16q140 -16 218.5 -88t78.5 -185q0 -219 -185.5 -365.5t-447.5 -146.5q-162 0 -266 72.5t-104 175.5q0 69 38.5 117.5t98.5 48.5q106 0 106 -86q0 -49 -42 -129q-10 -19 -17 -35q63 -86 221 -86q152 0 268.5 125t116.5 326q0 190 -237 190h-136l27 111h88
q150 0 243 104t93 273q0 186 -184 186q-127 0 -213 -86q0 -127 -6.5 -164.5t-44 -71.5t-107.5 -34q-88 0 -88 88q0 123 147 234.5t361 111.5q170 0 259 -78t89 -203q0 -134 -96 -238t-273 -151z" />
    <glyph glyph-name="four.oldstyle.lnum" horiz-adv-x="1153" 
d="M1073 436h-209l-102 -436h-193l103 436h-643l41 160l880 844h146l-203 -877h211zM166 563h534l154 660z" />
    <glyph glyph-name="five.oldstyle.lnum" horiz-adv-x="1153" 
d="M1118 1243h-635l-137 -426q152 94 295 94q159 0 268 -90t109 -248q0 -245 -190 -418.5t-439 -173.5q-158 0 -263.5 69t-105.5 171q0 63 38.5 111.5t97.5 48.5q108 0 108 -86q0 -48 -40 -124q-10 -19 -17 -36q56 -76 205 -76q153 0 273 145t120 351q0 109 -64.5 178.5
t-171.5 69.5q-177 0 -303 -131l-65 26l237 721h723z" />
    <glyph glyph-name="six.oldstyle.lnum" horiz-adv-x="1153" 
d="M1054 1456v-94l-90 -10q-42 -5 -171.5 -66.5t-251 -194.5t-187.5 -321q182 139 383 139q144 0 241 -102.5t97 -257.5q0 -237 -169 -408.5t-405 -171.5q-192 0 -303 121t-111 336q0 376 270.5 672t696.5 358zM337 672q-43 -132 -43 -285q0 -342 226 -342q140 0 241 140
t101 335q0 130 -62 204.5t-168 74.5q-158 0 -295 -127z" />
    <glyph glyph-name="seven.oldstyle.lnum" horiz-adv-x="1108" 
d="M1254 1354l-1040 -1372h-131l981 1273h-471q-153 0 -200 -10.5t-87.5 -57t-83.5 -159.5h-65l90 391h1022z" />
    <glyph glyph-name="eight.oldstyle.lnum" horiz-adv-x="1153" 
d="M812 745q248 -119 248 -317q0 -187 -173.5 -325t-426.5 -138q-196 0 -311 93t-115 239q0 293 391 434q-194 124 -194 297q0 169 161 298.5t379 129.5q169 0 272 -85t103 -220q0 -261 -334 -406zM749 780q97 58 151 163.5t54 219.5q0 101 -56.5 160t-154.5 59
q-135 0 -224.5 -86t-89.5 -213q0 -101 76.5 -168.5t243.5 -134.5zM489 696q-256 -127 -256 -393q0 -119 72.5 -190.5t191.5 -71.5q160 0 261.5 94t101.5 234q0 97 -78 166.5t-293 160.5z" />
    <glyph glyph-name="nine.oldstyle.lnum" horiz-adv-x="1153" 
d="M141 -41v97l94 10q54 6 200.5 77t250.5 195t164 291q-176 -131 -383 -131q-144 0 -239 102t-95 258q0 228 169.5 403t403.5 175q190 0 302 -120t112 -320q0 -389 -272 -685.5t-707 -351.5zM870 727q43 125 43 308q0 150 -61.5 238.5t-161.5 88.5q-154 0 -249 -155.5
t-95 -331.5q0 -120 62 -193t165 -73q170 0 297 118z" />
    <glyph glyph-name="zero" unicode="0" horiz-adv-x="1153" 
d="M471 -33q-192 0 -295.5 122.5t-103.5 346.5q0 377 187 693.5t495 316.5q177 0 279 -125t102 -342q0 -361 -169.5 -686.5t-494.5 -325.5zM922 1063q0 307 -174 307q-210 0 -336.5 -372t-126.5 -631q0 -181 46.5 -252.5t145.5 -71.5q206 0 325.5 387.5t119.5 632.5z" />
    <glyph glyph-name="one" unicode="1" horiz-adv-x="1153" 
d="M74 0l14 66q195 8 238 31t57 85l258 1086h-283l19 78h100q205 0 336 100h82q-34 -125 -59 -231l-238 -1012q-6 -26 -6 -41q0 -46 41 -68t213 -31l-17 -63h-755z" />
    <glyph glyph-name="two" unicode="2" horiz-adv-x="1153" 
d="M942 0h-944l33 135q3 14 102 137.5t361 309.5q238 166 310.5 292t72.5 267q0 105 -56.5 166t-146.5 61q-154 0 -223 -90q4 -44 4 -94q0 -172 -148 -172q-98 0 -98 86q0 134 151.5 241t331.5 107q187 0 293.5 -90.5t106.5 -247.5q0 -159 -96 -290t-406 -302
q-314 -174 -420 -342h813z" />
    <glyph glyph-name="three" unicode="3" horiz-adv-x="1153" 
d="M725 772l-6 -16q140 -16 218.5 -88t78.5 -185q0 -219 -185.5 -365.5t-447.5 -146.5q-162 0 -266 72.5t-104 175.5q0 69 38.5 117.5t98.5 48.5q106 0 106 -86q0 -49 -42 -129q-10 -19 -17 -35q63 -86 221 -86q152 0 268.5 125t116.5 326q0 190 -237 190h-136l27 111h88
q150 0 243 104t93 273q0 186 -184 186q-127 0 -213 -86q0 -127 -6.5 -164.5t-44 -71.5t-107.5 -34q-88 0 -88 88q0 123 147 234.5t361 111.5q170 0 259 -78t89 -203q0 -134 -96 -238t-273 -151z" />
    <glyph glyph-name="four" unicode="4" horiz-adv-x="1153" 
d="M1073 436h-209l-102 -436h-193l103 436h-643l41 160l880 844h146l-203 -877h211zM166 563h534l154 660z" />
    <glyph glyph-name="five" unicode="5" horiz-adv-x="1153" 
d="M1118 1243h-635l-137 -426q152 94 295 94q159 0 268 -90t109 -248q0 -245 -190 -418.5t-439 -173.5q-158 0 -263.5 69t-105.5 171q0 63 38.5 111.5t97.5 48.5q108 0 108 -86q0 -48 -40 -124q-10 -19 -17 -36q56 -76 205 -76q153 0 273 145t120 351q0 109 -64.5 178.5
t-171.5 69.5q-177 0 -303 -131l-65 26l237 721h723z" />
    <glyph glyph-name="six" unicode="6" horiz-adv-x="1153" 
d="M1054 1456v-94l-90 -10q-42 -5 -171.5 -66.5t-251 -194.5t-187.5 -321q182 139 383 139q144 0 241 -102.5t97 -257.5q0 -237 -169 -408.5t-405 -171.5q-192 0 -303 121t-111 336q0 376 270.5 672t696.5 358zM337 672q-43 -132 -43 -285q0 -342 226 -342q140 0 241 140
t101 335q0 130 -62 204.5t-168 74.5q-158 0 -295 -127z" />
    <glyph glyph-name="seven" unicode="7" horiz-adv-x="1153" 
d="M1294 1354l-1040 -1372h-131l981 1273h-471q-153 0 -200 -10.5t-87.5 -57t-83.5 -159.5h-65l90 391h1022z" />
    <glyph glyph-name="eight" unicode="8" horiz-adv-x="1153" 
d="M812 745q248 -119 248 -317q0 -187 -173.5 -325t-426.5 -138q-196 0 -311 93t-115 239q0 293 391 434q-194 124 -194 297q0 169 161 298.5t379 129.5q169 0 272 -85t103 -220q0 -261 -334 -406zM749 780q97 58 151 163.5t54 219.5q0 101 -56.5 160t-154.5 59
q-135 0 -224.5 -86t-89.5 -213q0 -101 76.5 -168.5t243.5 -134.5zM489 696q-256 -127 -256 -393q0 -119 72.5 -190.5t191.5 -71.5q160 0 261.5 94t101.5 234q0 97 -78 166.5t-293 160.5z" />
    <glyph glyph-name="nine" unicode="9" horiz-adv-x="1153" 
d="M141 -41v97l94 10q54 6 200.5 77t250.5 195t164 291q-176 -131 -383 -131q-144 0 -239 102t-95 258q0 228 169.5 403t403.5 175q190 0 302 -120t112 -320q0 -389 -272 -685.5t-707 -351.5zM870 727q43 125 43 308q0 150 -61.5 238.5t-161.5 88.5q-154 0 -249 -155.5
t-95 -331.5q0 -120 62 -193t165 -73q170 0 297 118z" />
    <glyph glyph-name="dollar.aalt" horiz-adv-x="1153" 
d="M947 1130q-36 84 -170 93l-111 -484q201 -71 277.5 -148.5t76.5 -182.5q0 -173 -147.5 -295.5t-382.5 -130.5l-61 -281h-93l68 279q-165 8 -265 82.5t-100 187.5q0 72 38.5 122t95.5 50q104 0 104 -88q0 -51 -76 -158q42 -109 217 -121l121 523l-68 27q-156 58 -213 128
t-57 166q0 168 147 282.5t357 114.5l51 228h92l-55 -228q154 -15 239 -84.5t85 -158.5q0 -60 -32 -104t-83 -44q-109 0 -109 84q0 29 39 110zM689 1221q-142 0 -222.5 -66.5t-80.5 -179.5q0 -68 34.5 -114t161.5 -97zM623 555l-117 -502q154 0 239 76.5t85 202.5
q0 93 -60 145t-121 69q-15 4 -26 9z" />
    <glyph glyph-name="cent.aalt" horiz-adv-x="1153" 
d="M885 877q-31 53 -129 65l-197 -852q93 0 137.5 7t105 46.5t142.5 143.5l61 -41q-183 -266 -471 -266l-63 -279h-92l67 285q-155 20 -241 121t-86 262q0 250 155.5 440t409.5 205l59 262h92l-63 -262q133 -12 205.5 -71.5t72.5 -141.5q0 -65 -32.5 -112.5t-85.5 -47.5
q-107 0 -107 84q0 40 60 152zM667 944q-145 -23 -245.5 -180t-100.5 -367q0 -227 154 -291z" />
    <glyph glyph-name="sterling.aalt" horiz-adv-x="1153" 
d="M1010 1292q-5 37 -47.5 62.5t-99.5 25.5q-93 0 -168 -59.5t-103 -142t-74 -379.5q-8 -48 -15 -84h397l-21 -92h-391q-51 -288 -325 -437l-2 -14h866l-39 -172h-1049l33 147q248 75 318 476h-172l20 92h168q16 272 90 423.5t203.5 234.5t283.5 83q138 0 223 -71t85 -177
q0 -76 -36 -125t-97 -49q-109 0 -109 88q0 50 45 135q10 20 16 35z" />
    <glyph glyph-name="currency.aalt" horiz-adv-x="1153" 
d="M916 141l-188 185q-68 -43 -146 -43q-75 0 -143 43l-191 -187l-83 90l184 187q-43 68 -43 143q0 77 43 143l-184 191l88 86l186 -186q68 43 143 43q73 0 146 -41l184 184l90 -86l-186 -191q43 -66 43 -143q0 -75 -43 -143l186 -189zM582 725q-69 0 -115 -48.5t-46 -117.5
q0 -68 47.5 -117t113.5 -49q68 0 115 49t47 117q0 69 -48 117.5t-114 48.5z" />
    <glyph glyph-name="yen.aalt" horiz-adv-x="1153" 
d="M1410 1354q-82 -15 -114 -39q-21 -12 -35 -19q-80 -44 -570 -651l-20 -88h399l-20 -90h-399l-62 -264q-4 -17 -4 -39q0 -58 55.5 -74t120.5 -24l-14 -66h-606l16 66q149 8 182.5 38.5t46.5 88.5l64 274h-387l22 90h387l15 70q-151 552 -204.5 635t-160.5 92l14 65h562
l-17 -65q-22 -2 -53 -3q-127 -7 -127 -51q0 -42 168 -552q416 507 416 542q0 54 -158 64l16 65h484z" />
    <glyph glyph-name="glyph640" 
 />
    <glyph glyph-name="glyph641" 
 />
    <glyph glyph-name="Euro.aalt" horiz-adv-x="1153" 
d="M1081 346q-114 -197 -236.5 -287t-285.5 -90q-192 0 -298.5 122.5t-106.5 342.5q0 59 4 96h-133l55 97h86q14 87 41 174h-121l55 96h97q98 256 273.5 402.5t377.5 146.5q139 0 258 -100l49 73h66l-107 -499h-65v57q0 207 -49.5 301t-163.5 94q-127 0 -241.5 -123
t-191.5 -352h336l-51 -96h-313q-29 -85 -41 -174h258l-49 -97h-219q-5 -47 -5 -96q0 -174 69 -269t192 -95q216 0 397 313z" />
    <glyph glyph-name="A.aalt" horiz-adv-x="1100" 
d="M1024 0h-485l10 63q160 10 160 48q0 26 -18 119q-7 32 -12 61q-6 33 -13 67h-406q-123 -197 -123 -241q0 -40 150 -54l-13 -63h-444l10 63q130 6 191.5 90t444.5 698l145 228h81l189 -909q11 -54 40 -77.5t105 -29.5zM569 854l-266 -420h348z" />
    <glyph glyph-name="B.aalt" horiz-adv-x="1098" 
d="M715 571v-6q274 -33 274 -229q0 -158 -133 -247t-346 -89h-555l10 63q115 8 142 30.5t36 66.5l170 721q9 38 9 51q0 53 -144 69l15 64h509q324 0 324 -209q0 -222 -311 -285zM526 991l-90 -393h101q131 0 203.5 68t72.5 180q0 149 -188 149q-55 0 -99 -4zM420 524
l-78 -331q-8 -34 -8 -58q0 -65 151 -65q134 0 210.5 76t76.5 192q0 188 -227 188h-71q-31 0 -54 -2z" />
    <glyph glyph-name="C.aalt" horiz-adv-x="1053" 
d="M1024 684h-68q-11 332 -247 332q-183 0 -309 -175t-126 -425q0 -350 285 -350q229 0 383 243l62 -41q-183 -299 -521 -299q-190 0 -306 119.5t-116 327.5q0 293 193.5 483.5t476.5 190.5q146 0 270 -76l39 51h72z" />
    <glyph glyph-name="D.aalt" horiz-adv-x="1262" 
d="M-47 0l12 63q116 8 141 28.5t35 60.5l174 737q7 30 7 39q0 56 -144 73l15 64h485q228 0 374 -110.5t146 -317.5q0 -286 -197 -461.5t-522 -175.5h-526zM526 991l-184 -798q-8 -35 -8 -54q0 -42 36 -55.5t119 -13.5q212 0 352 161.5t140 403.5q0 171 -92 265.5t-246 94.5
q-61 0 -117 -4z" />
    <glyph glyph-name="E.aalt" horiz-adv-x="1069" 
d="M1026 799h-63q-15 86 -46.5 129.5t-71.5 55t-151 11.5h-166l-94 -413h109q91 0 141.5 39t93.5 135h68l-94 -416h-66v16q0 92 -36 128t-122 36h-108l-72 -305q-14 -59 -14 -80q0 -38 43.5 -50.5t138.5 -12.5q173 0 241.5 45t160.5 207h71l-92 -324h-942l12 63
q114 8 139.5 31.5t36.5 67.5l170 723q9 38 9 47q0 56 -144 69l15 64h892z" />
    <glyph glyph-name="F.aalt" horiz-adv-x="981" 
d="M1022 788h-61q-14 82 -45 130t-67 62.5t-151 14.5h-172l-94 -417h111q90 0 140.5 40t92.5 134h68l-96 -424h-64v30q0 85 -35.5 121.5t-120.5 36.5h-110l-82 -342q-6 -25 -6 -45q0 -30 25 -45.5t139 -20.5l-15 -63h-526l12 63q110 9 138 32t38 65l172 723q6 25 6 47
q0 24 -22.5 41t-120.5 30l14 64h893z" />
    <glyph glyph-name="G.aalt" horiz-adv-x="1198" 
d="M1186 416l-51 -6q-91 -10 -107 -97l-16 -80q-29 -143 -29 -165q-212 -93 -432 -93q-216 0 -353 120t-137 331q0 295 200 478t495 183q168 0 313 -73l41 51h68l-78 -373h-70q-25 322 -291 322q-195 0 -330 -173t-135 -438q0 -166 86 -259t230 -93q119 0 203 62
q7 18 30 120l11 50q8 36 8 55q0 41 -43.5 56.5t-134.5 21.5l12 63h522z" />
    <glyph glyph-name="H.aalt" horiz-adv-x="1366" 
d="M1397 1001q-105 -8 -134 -32.5t-38 -61.5l-174 -743q-4 -17 -4 -35q0 -56 127 -66l-15 -63h-491l12 63q111 6 139 28.5t37 60.5l86 362h-524l-82 -352q-6 -26 -6 -41q0 -47 133 -58l-14 -63h-494l12 63q116 5 141.5 31.5t34.5 65.5l174 739q5 21 5 33q0 54 -132 69l15 64
h491l-14 -64q-100 -8 -131 -30t-41 -64l-74 -315h525l65 282q8 35 8 56q0 57 -129 71l15 64h491z" />
    <glyph glyph-name="I.aalt" horiz-adv-x="649" 
d="M698 1001q-122 -10 -150.5 -32.5t-37.5 -59.5l-174 -735q-6 -25 -6 -39q0 -62 153 -72l-12 -63h-528l14 63q161 0 182 89l176 737q7 29 7 39q0 49 -127 69q-16 2 -27 4l14 64h533z" />
    <glyph glyph-name="J.aalt" horiz-adv-x="866" 
d="M932 1001q-107 -8 -139.5 -32.5t-42.5 -67.5l-146 -614q-76 -320 -422 -320q-121 0 -190.5 61t-69.5 165q0 74 42 130t106 56q94 0 94 -88q0 -76 -88 -144q-23 -18 -41 -38q37 -68 141 -68q92 0 151.5 71.5t98.5 233.5l119 500q12 50 12 84q0 58 -154 71l15 64h530z" />
    <glyph glyph-name="K.aalt" horiz-adv-x="1161" 
d="M1231 1001q-63 -5 -123.5 -40.5t-284.5 -215.5q-93 -75 -200 -157q109 -158 183 -272q104 -162 149.5 -205t129.5 -48l-16 -63h-301q-122 243 -319 520h-29l-78 -334q-12 -51 -12 -63q0 -25 22.5 -38t110.5 -22l-14 -63h-494l12 63q116 7 141 32.5t35 64.5l172 729
q7 30 7 39q0 57 -127 73l14 64h487l-14 -64q-95 -7 -128 -28t-44 -66l-84 -356h23q146 95 314.5 235.5t168.5 176.5q0 31 -107 38l15 64h407z" />
    <glyph glyph-name="L.aalt" horiz-adv-x="1014" 
d="M856 0h-901l12 63q115 6 140.5 30.5t35.5 66.5l172 731q7 30 7 39q0 55 -132 71l15 64h502l-17 -64q-108 -7 -139 -29t-41 -67l-164 -696q-14 -59 -14 -78q0 -55 162 -55q92 0 154 13.5t127 86.5t108 139h75z" />
    <glyph glyph-name="M.aalt" horiz-adv-x="1559" 
d="M1587 1001q-109 -10 -136 -33.5t-36 -60.5l-172 -739q-6 -26 -6 -37q0 -55 135 -68l-14 -63h-508l12 63q121 7 152.5 26t42.5 71l178 780h-4l-592 -924h-64l-167 883h-9l-135 -582q-18 -78 -18 -137q0 -110 155 -117l-12 -63h-469l14 63q123 12 166 70t72 176l119 504
q14 59 14 92q0 47 -30 69t-125 27l12 64h407l146 -782l418 651q47 73 65 131h404z" />
    <glyph glyph-name="N.aalt" horiz-adv-x="1282" 
d="M1364 1001q-133 -5 -175 -79.5t-67 -186.5l-172 -745h-88l-471 899l-127 -567q-18 -80 -18 -144q0 -60 38 -84.5t128 -30.5l-15 -63h-469l15 63q112 13 156 61t79 189l111 482q12 52 12 88q0 104 -172 118l14 64h351l430 -819l114 491q23 99 23 154q0 54 -35.5 79.5
t-128.5 30.5l16 64h465z" />
    <glyph glyph-name="O.aalt" horiz-adv-x="1217" 
d="M530 -33q-219 0 -344 120t-125 335q0 281 191.5 474.5t456.5 193.5q198 0 322 -130t124 -337q0 -292 -170 -474t-455 -182zM692 1014q-170 0 -294 -188.5t-124 -426.5q0 -165 67.5 -259.5t195.5 -94.5q171 0 288 184t117 437q0 166 -64.5 257t-185.5 91z" />
    <glyph glyph-name="P.aalt" horiz-adv-x="1012" 
d="M406 465l-68 -283q-8 -33 -8 -55q0 -64 164 -64l-15 -63h-526l12 63q102 7 134 29.5t42 67.5l170 712q8 34 8 62q0 50 -143 67l14 64h502q342 0 342 -234q0 -168 -136.5 -267t-352.5 -99h-139zM526 995l-104 -460h88q146 0 226.5 85t80.5 205q0 170 -201 170h-90z" />
    <glyph glyph-name="Q.aalt" horiz-adv-x="1217" 
d="M676 -18l-2 -20q-7 -74 33.5 -124.5t138.5 -50.5q77 0 147 25l-12 -70q-113 -43 -240 -43q-270 0 -270 235v15q0 8 2 20q-202 21 -307 139t-105 314q0 281 191.5 474.5t456.5 193.5q198 0 322 -130t124 -337q0 -246 -126 -420.5t-353 -220.5zM692 1014
q-170 0 -294 -188.5t-124 -426.5q0 -165 67.5 -259.5t195.5 -94.5q171 0 288 184t117 437q0 166 -64.5 257t-185.5 91z" />
    <glyph glyph-name="R.aalt" horiz-adv-x="1169" 
d="M1079 0h-309q-91 189 -260 483h-98l-74 -307q-6 -25 -6 -45q0 -26 18 -41t119 -27l-14 -63h-500l12 63q106 10 136 27t40 66l170 725q9 38 9 49q0 59 -144 71l15 64h536q142 0 228.5 -55t86.5 -154q0 -263 -354 -348q194 -332 242.5 -384.5t154.5 -60.5zM528 995
l-100 -442h100q140 0 223 80t83 211q0 151 -193 151h-113z" />
    <glyph glyph-name="S.aalt" horiz-adv-x="920" 
d="M842 711h-64q-15 309 -239 309q-98 0 -159 -56t-61 -149q0 -73 45.5 -112.5t160.5 -80.5q197 -69 245.5 -136.5t48.5 -153.5q0 -163 -119.5 -262t-318.5 -99q-179 0 -295 86l-31 -57h-65l53 365h66q28 -318 290 -318q108 0 172 61t64 148q0 71 -41 106t-189 90
q-164 61 -217 131.5t-53 159.5q0 146 122 245t290 99q146 0 268 -73l43 51h64z" />
    <glyph glyph-name="T.aalt" horiz-adv-x="1026" 
d="M1073 766h-61q-4 90 -38 151t-74.5 69.5t-135.5 8.5h-49l-187 -813q-8 -35 -8 -53q0 -66 170 -66l-12 -63h-561l14 63q125 5 157.5 27t41.5 64l196 841h-49q-118 0 -153.5 -13t-94.5 -74t-102 -142h-66l70 299h1008z" />
    <glyph glyph-name="U.aalt" horiz-adv-x="1278" 
d="M1360 1001q-122 -11 -165 -64.5t-116 -366.5q-68 -289 -108.5 -378t-146 -156t-289.5 -67q-193 0 -290.5 73t-97.5 187q0 53 13 103l131 557q6 26 6 45q0 53 -131 67l14 64h492l-15 -64q-89 -7 -125.5 -29t-50.5 -83l-123 -535q-16 -70 -16 -112q0 -81 62 -130t178 -49
t195.5 48t113.5 120t89.5 312.5t55.5 343.5q0 64 -45 86t-119 28l15 64h487z" />
    <glyph glyph-name="V.aalt" horiz-adv-x="1092" 
d="M1239 1001q-106 -8 -173 -82t-626 -935h-84q-141 896 -162.5 952t-127.5 65l12 64h483l-12 -64q-162 -13 -162 -55q0 -39 111 -729q256 386 348 539t92 188q0 46 -150 57l13 64h450z" />
    <glyph glyph-name="W.aalt" horiz-adv-x="1604" 
d="M1726 1004q-96 -9 -150.5 -68t-541.5 -952h-76l-112 823l-473 -823h-76q-56 884 -72.5 945t-126.5 75l13 61h460l-12 -61q-158 -10 -158 -50v-41l39 -659l459 795h80l111 -809q348 621 348 702q0 48 -142 62l11 61h432z" />
    <glyph glyph-name="X.aalt" horiz-adv-x="1163" 
d="M1253 1001q-85 -4 -165 -52.5t-422 -387.5q200 -413 240.5 -453t142.5 -45l-11 -63h-526l10 63q146 6 146 48q0 39 -146 346q-27 -28 -63 -63q-266 -259 -266 -296q0 -35 135 -35l-11 -63h-438l10 63q89 7 166 61.5t432 405.5q-175 360 -212.5 410t-145.5 61l14 64h506
l-14 -64q-146 -9 -146 -43q0 -39 142 -323q303 278 303 336q0 23 -135 30l14 64h451z" />
    <glyph glyph-name="Y.aalt" horiz-adv-x="1032" 
d="M1184 1004q-79 -13 -140.5 -59t-221 -224.5t-198.5 -231.5t-57 -124l-41 -183q-8 -36 -8 -55q0 -27 29.5 -41t142.5 -23l-14 -63h-557l12 63q127 8 157 31t40 64l51 219q6 26 6 37q0 34 -45 161l-91 248q-45 121 -77.5 146t-103.5 35l14 61h493l-16 -64
q-156 -10 -156 -42q0 -9 7 -28l139 -415q360 418 360 449q0 26 -145 36l16 64h420z" />
    <glyph glyph-name="Z.aalt" horiz-adv-x="987" 
d="M1061 1028l-887 -958h225q182 0 270 52.5t197 219.5h68l-117 -342h-909l8 37l870 958h-211q-111 0 -164.5 -23t-120.5 -85.5t-114 -132.5h-65l108 311h850z" />
    <glyph glyph-name="aacute.aalt" horiz-adv-x="1100" 
d="M1024 0h-485l10 63q160 10 160 48q0 26 -18 119q-7 32 -12 61q-6 33 -13 67h-406q-123 -197 -123 -241q0 -40 150 -54l-13 -63h-444l10 63q130 6 191.5 90t444.5 698l145 228h81l189 -909q11 -54 40 -77.5t105 -29.5zM569 854l-266 -420h348zM559 1182l-26 39
q91 77 282 262q57 60 123 60q37 0 60.5 -20.5t23.5 -51.5q0 -78 -100 -122t-363 -167z" />
    <glyph glyph-name="glyph670" 
 />
    <glyph glyph-name="acircumflex.aalt" horiz-adv-x="1100" 
d="M1024 0h-485l10 63q160 10 160 48q0 26 -18 119q-7 32 -12 61q-6 33 -13 67h-406q-123 -197 -123 -241q0 -40 150 -54l-13 -63h-444l10 63q130 6 191.5 90t444.5 698l145 228h81l189 -909q11 -54 40 -77.5t105 -29.5zM569 854l-266 -420h348zM992 1213l-49 -31l-236 211
l-319 -211l-47 31l291 285q46 45 100 45q57 0 80 -41z" />
    <glyph glyph-name="Adieresis.aalt" horiz-adv-x="1100" 
d="M1024 0h-485l10 63q160 10 160 48q0 26 -18 119q-7 32 -12 61q-6 33 -13 67h-406q-123 -197 -123 -241q0 -40 150 -54l-13 -63h-444l10 63q130 6 191.5 90t444.5 698l145 228h81l189 -909q11 -54 40 -77.5t105 -29.5zM569 854l-266 -420h348zM904 1241q-51 0 -85 36
t-34 87q0 50 33.5 86.5t85.5 36.5q49 0 82.5 -36.5t33.5 -86.5q0 -51 -33.5 -87t-82.5 -36zM474 1241q-51 0 -85 36t-34 87q0 50 33.5 86.5t85.5 36.5q49 0 82.5 -36.5t33.5 -86.5q0 -51 -33.5 -87t-82.5 -36z" />
    <glyph glyph-name="agrave.aalt" horiz-adv-x="1100" 
d="M1024 0h-485l10 63q160 10 160 48q0 26 -18 119q-7 32 -12 61q-6 33 -13 67h-406q-123 -197 -123 -241q0 -40 150 -54l-13 -63h-444l10 63q130 6 191.5 90t444.5 698l145 228h81l189 -909q11 -54 40 -77.5t105 -29.5zM569 854l-266 -420h348zM847 1221l-35 -39
q-112 60 -199 103q-101 50 -157.5 81t-56.5 87q0 39 27.5 64.5t68.5 25.5q28 0 60.5 -24t291.5 -298z" />
    <glyph glyph-name="glyph674" 
 />
    <glyph glyph-name="glyph675" 
 />
    <glyph glyph-name="Aring.aalt" horiz-adv-x="1100" 
d="M1024 0h-485l10 63q160 10 160 48q0 26 -18 119q-7 32 -12 61q-6 33 -13 67h-406q-123 -197 -123 -241q0 -40 150 -54l-13 -63h-444l10 63q130 6 191.5 90t444.5 698l145 228h81l189 -909q11 -54 40 -77.5t105 -29.5zM569 854l-266 -420h348zM648 1023q-105 0 -164 49.5
t-59 132.5q0 112 86 187.5t213 75.5q101 0 162 -52t61 -135q0 -107 -84 -182.5t-215 -75.5zM713 1408q-71 0 -117.5 -59t-46.5 -142q0 -124 109 -124q74 0 118 58.5t44 139.5q0 127 -107 127z" />
    <glyph glyph-name="glyph677" 
 />
    <glyph glyph-name="atilde.aalt" horiz-adv-x="1100" 
d="M1024 0h-485l10 63q160 10 160 48q0 26 -18 119q-7 32 -12 61q-6 33 -13 67h-406q-123 -197 -123 -241q0 -40 150 -54l-13 -63h-444l10 63q130 6 191.5 90t444.5 698l145 228h81l189 -909q11 -54 40 -77.5t105 -29.5zM569 854l-266 -420h348zM1093 1473
q-28 -101 -98.5 -172.5t-155.5 -71.5q-82 0 -174 51q-93 51 -138 51q-41 0 -66.5 -21.5t-74.5 -113.5l-57 25q36 105 103 174t147 69q76 0 170 -51t129 -51q50 0 82 17t71 116z" />
    <glyph glyph-name="AE.aalt" horiz-adv-x="1573" 
d="M1530 799h-64q-14 81 -43 125t-68 57.5t-157 13.5h-147l-95 -413h91q91 0 141.5 39t93.5 135h68l-95 -416h-65v16q0 92 -36 128t-122 36h-90l-72 -305q-14 -59 -14 -80q0 -38 31.5 -50.5t132.5 -12.5q186 0 257 58.5t144 193.5h72l-92 -324h-924l12 63q114 8 140 32
t37 67l65 280h-369q-35 -44 -81 -99q-144 -174 -144 -222q0 -49 146 -58l-11 -63h-446l12 59q37 6 91.5 29.5t125.5 107.5l284 342l366 451q-22 7 -140 12l10 64h1014zM426 518h322l114 479h-45z" />
    <glyph glyph-name="glyph680" 
 />
    <glyph glyph-name="glyph681" 
 />
    <glyph glyph-name="glyph682" 
 />
    <glyph glyph-name="Ccedilla.aalt" horiz-adv-x="1053" 
d="M1024 684h-68q-11 332 -247 332q-183 0 -309 -175t-126 -425q0 -350 285 -350q229 0 383 243l62 -41q-183 -299 -521 -299q-190 0 -306 119.5t-116 327.5q0 293 193.5 483.5t476.5 190.5q146 0 270 -76l39 51h72zM241 -444l15 71q174 0 222 26t48 73q0 67 -153 67l45 223
h77l-24 -114q93 0 150 -33.5t57 -93.5q0 -219 -437 -219z" />
    <glyph glyph-name="glyph684" 
 />
    <glyph glyph-name="glyph685" 
 />
    <glyph glyph-name="glyph686" 
 />
    <glyph glyph-name="glyph687" 
 />
    <glyph glyph-name="Eacute.aalt" horiz-adv-x="1069" 
d="M1026 799h-63q-15 86 -46.5 129.5t-71.5 55t-151 11.5h-166l-94 -413h109q91 0 141.5 39t93.5 135h68l-94 -416h-66v16q0 92 -36 128t-122 36h-108l-72 -305q-14 -59 -14 -80q0 -38 43.5 -50.5t138.5 -12.5q173 0 241.5 45t160.5 207h71l-92 -324h-942l12 63
q114 8 139.5 31.5t36.5 67.5l170 723q9 38 9 47q0 56 -144 69l15 64h892zM553 1182l-26 39q91 77 282 262q57 60 123 60q37 0 60.5 -20.5t23.5 -51.5q0 -78 -100 -122t-363 -167z" />
    <glyph glyph-name="glyph689" 
 />
    <glyph glyph-name="glyph690" 
 />
    <glyph glyph-name="ecircumflex.aalt" horiz-adv-x="1069" 
d="M1026 799h-63q-15 86 -46.5 129.5t-71.5 55t-151 11.5h-166l-94 -413h109q91 0 141.5 39t93.5 135h68l-94 -416h-66v16q0 92 -36 128t-122 36h-108l-72 -305q-14 -59 -14 -80q0 -38 43.5 -50.5t138.5 -12.5q173 0 241.5 45t160.5 207h71l-92 -324h-942l12 63
q114 8 139.5 31.5t36.5 67.5l170 723q9 38 9 47q0 56 -144 69l15 64h892zM992 1213l-49 -31l-236 211l-319 -211l-47 31l291 285q46 45 100 45q57 0 80 -41z" />
    <glyph glyph-name="edieresis.aalt" horiz-adv-x="1069" 
d="M1026 799h-63q-15 86 -46.5 129.5t-71.5 55t-151 11.5h-166l-94 -413h109q91 0 141.5 39t93.5 135h68l-94 -416h-66v16q0 92 -36 128t-122 36h-108l-72 -305q-14 -59 -14 -80q0 -38 43.5 -50.5t138.5 -12.5q173 0 241.5 45t160.5 207h71l-92 -324h-942l12 63
q114 8 139.5 31.5t36.5 67.5l170 723q9 38 9 47q0 56 -144 69l15 64h892zM898 1241q-51 0 -85 36t-34 87q0 50 33.5 86.5t85.5 36.5q49 0 82.5 -36.5t33.5 -86.5q0 -51 -33.5 -87t-82.5 -36zM468 1241q-51 0 -85 36t-34 87q0 50 33.5 86.5t85.5 36.5q49 0 82.5 -36.5
t33.5 -86.5q0 -51 -33.5 -87t-82.5 -36z" />
    <glyph glyph-name="glyph693" 
 />
    <glyph glyph-name="egrave.aalt" horiz-adv-x="1069" 
d="M1026 799h-63q-15 86 -46.5 129.5t-71.5 55t-151 11.5h-166l-94 -413h109q91 0 141.5 39t93.5 135h68l-94 -416h-66v16q0 92 -36 128t-122 36h-108l-72 -305q-14 -59 -14 -80q0 -38 43.5 -50.5t138.5 -12.5q173 0 241.5 45t160.5 207h71l-92 -324h-942l12 63
q114 8 139.5 31.5t36.5 67.5l170 723q9 38 9 47q0 56 -144 69l15 64h892zM814 1221l-35 -39q-112 60 -199 103q-101 50 -157.5 81t-56.5 87q0 39 27.5 64.5t68.5 25.5q28 0 60.5 -24t291.5 -298z" />
    <glyph glyph-name="glyph695" 
 />
    <glyph glyph-name="glyph696" 
 />
    <glyph glyph-name="glyph697" 
 />
    <glyph glyph-name="Eth.aalt" horiz-adv-x="1262" 
d="M-47 0l12 63q116 8 141 28.5t35 60.5l86 364h-143l18 74h144l69 299q7 30 7 39q0 56 -144 73l15 64h485q228 0 374 -110.5t146 -317.5q0 -286 -197 -461.5t-522 -175.5h-526zM526 991l-92 -401h248l-16 -74h-250l-74 -323q-8 -35 -8 -54q0 -42 36 -55.5t119 -13.5
q212 0 352 161.5t140 403.5q0 171 -92 265.5t-246 94.5q-61 0 -117 -4z" />
    <glyph glyph-name="glyph699" 
 />
    <glyph glyph-name="glyph700" 
 />
    <glyph glyph-name="glyph701" 
 />
    <glyph glyph-name="glyph702" 
 />
    <glyph glyph-name="glyph703" 
 />
    <glyph glyph-name="glyph704" 
 />
    <glyph glyph-name="Iacute.aalt" horiz-adv-x="649" 
d="M698 1001q-122 -10 -150.5 -32.5t-37.5 -59.5l-174 -735q-6 -25 -6 -39q0 -62 153 -72l-12 -63h-528l14 63q161 0 182 89l176 737q7 29 7 39q0 49 -127 69q-16 2 -27 4l14 64h533zM322 1182l-26 39q91 77 282 262q57 60 123 60q37 0 60.5 -20.5t23.5 -51.5
q0 -78 -100 -122t-363 -167z" />
    <glyph glyph-name="glyph706" 
 />
    <glyph glyph-name="icircumflex.aalt" horiz-adv-x="649" 
d="M698 1001q-122 -10 -150.5 -32.5t-37.5 -59.5l-174 -735q-6 -25 -6 -39q0 -62 153 -72l-12 -63h-528l14 63q161 0 182 89l176 737q7 29 7 39q0 49 -127 69q-16 2 -27 4l14 64h533zM796 1213l-49 -31l-236 211l-319 -211l-47 31l291 285q46 45 100 45q57 0 80 -41z" />
    <glyph glyph-name="idieresis.aalt" horiz-adv-x="649" 
d="M698 1001q-122 -10 -150.5 -32.5t-37.5 -59.5l-174 -735q-6 -25 -6 -39q0 -62 153 -72l-12 -63h-528l14 63q161 0 182 89l176 737q7 29 7 39q0 49 -127 69q-16 2 -27 4l14 64h533zM712 1241q-51 0 -85 36t-34 87q0 50 33.5 86.5t85.5 36.5q49 0 82.5 -36.5t33.5 -86.5
q0 -51 -33.5 -87t-82.5 -36zM282 1241q-51 0 -85 36t-34 87q0 50 33.5 86.5t85.5 36.5q49 0 82.5 -36.5t33.5 -86.5q0 -51 -33.5 -87t-82.5 -36z" />
    <glyph glyph-name="i.locl.sc" horiz-adv-x="649" 
d="M698 1001q-122 -10 -150.5 -32.5t-37.5 -59.5l-174 -735q-6 -25 -6 -39q0 -62 153 -72l-12 -63h-528l14 63q161 0 182 89l176 737q7 29 7 39q0 49 -127 69q-16 2 -27 4l14 64h533zM495 1247q-52 0 -89.5 39t-37.5 92q0 55 37 95t90 40q54 0 91.5 -37t37.5 -90
q0 -56 -37 -97.5t-92 -41.5z" />
    <glyph glyph-name="igrave.aalt" horiz-adv-x="649" 
d="M698 1001q-122 -10 -150.5 -32.5t-37.5 -59.5l-174 -735q-6 -25 -6 -39q0 -62 153 -72l-12 -63h-528l14 63q161 0 182 89l176 737q7 29 7 39q0 49 -127 69q-16 2 -27 4l14 64h533zM636 1221l-35 -39q-112 60 -199 103q-101 50 -157.5 81t-56.5 87q0 39 27.5 64.5
t68.5 25.5q28 0 60.5 -24t291.5 -298z" />
    <glyph glyph-name="glyph711" 
 />
    <glyph glyph-name="glyph712" 
 />
    <glyph glyph-name="glyph713" 
 />
    <glyph glyph-name="glyph714" 
 />
    <glyph glyph-name="glyph715" 
 />
    <glyph glyph-name="glyph716" 
 />
    <glyph glyph-name="glyph717" 
 />
    <glyph glyph-name="glyph718" 
 />
    <glyph glyph-name="glyph719" 
 />
    <glyph glyph-name="glyph720" 
 />
    <glyph glyph-name="glyph721" 
 />
    <glyph glyph-name="glyph722" 
 />
    <glyph glyph-name="glyph723" 
 />
    <glyph glyph-name="glyph724" 
 />
    <glyph glyph-name="Ntilde.aalt" horiz-adv-x="1282" 
d="M1364 1001q-133 -5 -175 -79.5t-67 -186.5l-172 -745h-88l-471 899l-127 -567q-18 -80 -18 -144q0 -60 38 -84.5t128 -30.5l-15 -63h-469l15 63q112 13 156 61t79 189l111 482q12 52 12 88q0 104 -172 118l14 64h351l430 -819l114 491q23 99 23 154q0 54 -35.5 79.5
t-128.5 30.5l16 64h465zM1196 1473q-28 -101 -98.5 -172.5t-155.5 -71.5q-82 0 -174 51q-93 51 -138 51q-41 0 -66.5 -21.5t-74.5 -113.5l-57 25q36 105 103 174t147 69q76 0 170 -51t129 -51q50 0 82 17t71 116z" />
    <glyph glyph-name="oacute.aalt" horiz-adv-x="1217" 
d="M530 -33q-219 0 -344 120t-125 335q0 281 191.5 474.5t456.5 193.5q198 0 322 -130t124 -337q0 -292 -170 -474t-455 -182zM692 1014q-170 0 -294 -188.5t-124 -426.5q0 -165 67.5 -259.5t195.5 -94.5q171 0 288 184t117 437q0 166 -64.5 257t-185.5 91zM620 1182l-26 39
q91 77 282 262q57 60 123 60q37 0 60.5 -20.5t23.5 -51.5q0 -78 -100 -122t-363 -167z" />
    <glyph glyph-name="glyph727" 
 />
    <glyph glyph-name="ocircumflex.aalt" horiz-adv-x="1217" 
d="M530 -33q-219 0 -344 120t-125 335q0 281 191.5 474.5t456.5 193.5q198 0 322 -130t124 -337q0 -292 -170 -474t-455 -182zM692 1014q-170 0 -294 -188.5t-124 -426.5q0 -165 67.5 -259.5t195.5 -94.5q171 0 288 184t117 437q0 166 -64.5 257t-185.5 91zM1063 1213
l-49 -31l-236 211l-319 -211l-47 31l291 285q46 45 100 45q57 0 80 -41z" />
    <glyph glyph-name="Odieresis.aalt" horiz-adv-x="1217" 
d="M530 -33q-219 0 -344 120t-125 335q0 281 191.5 474.5t456.5 193.5q198 0 322 -130t124 -337q0 -292 -170 -474t-455 -182zM692 1014q-170 0 -294 -188.5t-124 -426.5q0 -165 67.5 -259.5t195.5 -94.5q171 0 288 184t117 437q0 166 -64.5 257t-185.5 91zM961 1241
q-51 0 -85 36t-34 87q0 50 33.5 86.5t85.5 36.5q49 0 82.5 -36.5t33.5 -86.5q0 -51 -33.5 -87t-82.5 -36zM531 1241q-51 0 -85 36t-34 87q0 50 33.5 86.5t85.5 36.5q49 0 82.5 -36.5t33.5 -86.5q0 -51 -33.5 -87t-82.5 -36z" />
    <glyph glyph-name="ograve.aalt" horiz-adv-x="1217" 
d="M530 -33q-219 0 -344 120t-125 335q0 281 191.5 474.5t456.5 193.5q198 0 322 -130t124 -337q0 -292 -170 -474t-455 -182zM692 1014q-170 0 -294 -188.5t-124 -426.5q0 -165 67.5 -259.5t195.5 -94.5q171 0 288 184t117 437q0 166 -64.5 257t-185.5 91zM894 1221
l-35 -39q-112 60 -199 103q-101 50 -157.5 81t-56.5 87q0 39 27.5 64.5t68.5 25.5q28 0 60.5 -24t291.5 -298z" />
    <glyph glyph-name="glyph731" 
 />
    <glyph glyph-name="glyph732" 
 />
    <glyph glyph-name="Oslash.aalt" horiz-adv-x="1217" 
d="M186 86l-163 -152l-56 58l170 155q-76 107 -76 275q0 281 191.5 474.5t456.5 193.5q192 0 319 -127l162 147l55 -55l-168 -154q78 -121 78 -278q0 -292 -170 -474t-455 -182q-219 0 -344 119zM281 279l634 579q-62 156 -223 156q-170 0 -296 -188t-126 -427
q0 -56 11 -120zM938 774l-631 -579q68 -150 230 -150q172 0 290.5 185.5t118.5 435.5q0 69 -8 108z" />
    <glyph glyph-name="glyph734" 
 />
    <glyph glyph-name="otilde.aalt" horiz-adv-x="1217" 
d="M530 -33q-219 0 -344 120t-125 335q0 281 191.5 474.5t456.5 193.5q198 0 322 -130t124 -337q0 -292 -170 -474t-455 -182zM692 1014q-170 0 -294 -188.5t-124 -426.5q0 -165 67.5 -259.5t195.5 -94.5q171 0 288 184t117 437q0 166 -64.5 257t-185.5 91zM1133 1473
q-28 -101 -98.5 -172.5t-155.5 -71.5q-82 0 -174 51q-93 51 -138 51q-41 0 -66.5 -21.5t-74.5 -113.5l-57 25q36 105 103 174t147 69q76 0 170 -51t129 -51q50 0 82 17t71 116z" />
    <glyph glyph-name="OE.aalt" horiz-adv-x="1587" 
d="M1544 799h-63q-15 85 -46 128.5t-70.5 55.5t-152.5 12h-147l-94 -413h90q86 0 137 35.5t98 138.5h68l-94 -416h-66v16q0 96 -37 130t-120 34h-91l-71 -305q-15 -64 -15 -80q0 -35 36 -49t128 -14q172 0 240 44t162 208h71l-92 -324h-870q-223 0 -353.5 112.5
t-130.5 297.5q0 305 198 480t497 175h848zM664 86l206 893q-46 10 -114 10q-217 0 -349.5 -164.5t-132.5 -423.5q0 -323 314 -323q37 0 76 8z" />
    <glyph glyph-name="Thorn.aalt" horiz-adv-x="1012" 
d="M496 848h153q334 0 334 -242q0 -169 -136.5 -267.5t-352.5 -98.5h-140l-18 -78q-6 -26 -6 -39q0 -26 27 -40t118 -20l-14 -63h-506l12 63q114 6 140.5 31.5t35.5 65.5l174 739q5 21 5 29q0 59 -132 73l15 64h495l-14 -64q-157 -8 -176 -92zM479 778l-108 -469h88
q146 0 226.5 84.5t80.5 206.5q0 178 -201 178h-86z" />
    <glyph glyph-name="glyph738" 
 />
    <glyph glyph-name="glyph739" 
 />
    <glyph glyph-name="glyph740" 
 />
    <glyph glyph-name="glyph741" 
 />
    <glyph glyph-name="Scaron.aalt" horiz-adv-x="920" 
d="M842 711h-64q-15 309 -239 309q-98 0 -159 -56t-61 -149q0 -73 45.5 -112.5t160.5 -80.5q197 -69 245.5 -136.5t48.5 -153.5q0 -163 -119.5 -262t-318.5 -99q-179 0 -295 86l-31 -57h-65l53 365h66q28 -318 290 -318q108 0 172 61t64 148q0 71 -41 106t-189 90
q-164 61 -217 131.5t-53 159.5q0 146 122 245t290 99q146 0 268 -73l43 51h64zM949 1512l-289 -285q-35 -35 -51.5 -40t-48.5 -5q-51 0 -80 41l-180 289l49 33l233 -213l322 213z" />
    <glyph glyph-name="glyph743" 
 />
    <glyph glyph-name="glyph744" 
 />
    <glyph glyph-name="glyph745" 
 />
    <glyph glyph-name="glyph746" 
 />
    <glyph glyph-name="glyph747" 
 />
    <glyph glyph-name="glyph748" 
 />
    <glyph glyph-name="glyph749" 
 />
    <glyph glyph-name="uacute.aalt" horiz-adv-x="1278" 
d="M1360 1001q-122 -11 -165 -64.5t-116 -366.5q-68 -289 -108.5 -378t-146 -156t-289.5 -67q-193 0 -290.5 73t-97.5 187q0 53 13 103l131 557q6 26 6 45q0 53 -131 67l14 64h492l-15 -64q-89 -7 -125.5 -29t-50.5 -83l-123 -535q-16 -70 -16 -112q0 -81 62 -130t178 -49
t195.5 48t113.5 120t89.5 312.5t55.5 343.5q0 64 -45 86t-119 28l15 64h487zM676 1182l-26 39q91 77 282 262q57 60 123 60q37 0 60.5 -20.5t23.5 -51.5q0 -78 -100 -122t-363 -167z" />
    <glyph glyph-name="glyph751" 
 />
    <glyph glyph-name="ucircumflex.aalt" horiz-adv-x="1278" 
d="M1360 1001q-122 -11 -165 -64.5t-116 -366.5q-68 -289 -108.5 -378t-146 -156t-289.5 -67q-193 0 -290.5 73t-97.5 187q0 53 13 103l131 557q6 26 6 45q0 53 -131 67l14 64h492l-15 -64q-89 -7 -125.5 -29t-50.5 -83l-123 -535q-16 -70 -16 -112q0 -81 62 -130t178 -49
t195.5 48t113.5 120t89.5 312.5t55.5 343.5q0 64 -45 86t-119 28l15 64h487zM1112 1213l-49 -31l-236 211l-319 -211l-47 31l291 285q46 45 100 45q57 0 80 -41z" />
    <glyph glyph-name="Udieresis.aalt" horiz-adv-x="1278" 
d="M1360 1001q-122 -11 -165 -64.5t-116 -366.5q-68 -289 -108.5 -378t-146 -156t-289.5 -67q-193 0 -290.5 73t-97.5 187q0 53 13 103l131 557q6 26 6 45q0 53 -131 67l14 64h492l-15 -64q-89 -7 -125.5 -29t-50.5 -83l-123 -535q-16 -70 -16 -112q0 -81 62 -130t178 -49
t195.5 48t113.5 120t89.5 312.5t55.5 343.5q0 64 -45 86t-119 28l15 64h487zM1012 1241q-51 0 -85 36t-34 87q0 50 33.5 86.5t85.5 36.5q49 0 82.5 -36.5t33.5 -86.5q0 -51 -33.5 -87t-82.5 -36zM582 1241q-51 0 -85 36t-34 87q0 50 33.5 86.5t85.5 36.5q49 0 82.5 -36.5
t33.5 -86.5q0 -51 -33.5 -87t-82.5 -36z" />
    <glyph glyph-name="ugrave.aalt" horiz-adv-x="1278" 
d="M1360 1001q-122 -11 -165 -64.5t-116 -366.5q-68 -289 -108.5 -378t-146 -156t-289.5 -67q-193 0 -290.5 73t-97.5 187q0 53 13 103l131 557q6 26 6 45q0 53 -131 67l14 64h492l-15 -64q-89 -7 -125.5 -29t-50.5 -83l-123 -535q-16 -70 -16 -112q0 -81 62 -130t178 -49
t195.5 48t113.5 120t89.5 312.5t55.5 343.5q0 64 -45 86t-119 28l15 64h487zM922 1221l-35 -39q-112 60 -199 103q-101 50 -157.5 81t-56.5 87q0 39 27.5 64.5t68.5 25.5q28 0 60.5 -24t291.5 -298z" />
    <glyph glyph-name="glyph755" 
 />
    <glyph glyph-name="glyph756" 
 />
    <glyph glyph-name="glyph757" 
 />
    <glyph glyph-name="glyph758" 
 />
    <glyph glyph-name="glyph759" 
 />
    <glyph glyph-name="glyph760" 
 />
    <glyph glyph-name="glyph761" 
 />
    <glyph glyph-name="glyph762" 
 />
    <glyph glyph-name="glyph763" 
 />
    <glyph glyph-name="Yacute.aalt" horiz-adv-x="1032" 
d="M1184 1004q-79 -13 -140.5 -59t-221 -224.5t-198.5 -231.5t-57 -124l-41 -183q-8 -36 -8 -55q0 -27 29.5 -41t142.5 -23l-14 -63h-557l12 63q127 8 157 31t40 64l51 219q6 26 6 37q0 34 -45 161l-91 248q-45 121 -77.5 146t-103.5 35l14 61h493l-16 -64
q-156 -10 -156 -42q0 -9 7 -28l139 -415q360 418 360 449q0 26 -145 36l16 64h420zM553 1182l-26 39q91 77 282 262q57 60 123 60q37 0 60.5 -20.5t23.5 -51.5q0 -78 -100 -122t-363 -167z" />
    <glyph glyph-name="glyph765" 
 />
    <glyph glyph-name="ydieresis.aalt" horiz-adv-x="1032" 
d="M1184 1004q-79 -13 -140.5 -59t-221 -224.5t-198.5 -231.5t-57 -124l-41 -183q-8 -36 -8 -55q0 -27 29.5 -41t142.5 -23l-14 -63h-557l12 63q127 8 157 31t40 64l51 219q6 26 6 37q0 34 -45 161l-91 248q-45 121 -77.5 146t-103.5 35l14 61h493l-16 -64
q-156 -10 -156 -42q0 -9 7 -28l139 -415q360 418 360 449q0 26 -145 36l16 64h420zM904 1241q-51 0 -85 36t-34 87q0 50 33.5 86.5t85.5 36.5q49 0 82.5 -36.5t33.5 -86.5q0 -51 -33.5 -87t-82.5 -36zM474 1241q-51 0 -85 36t-34 87q0 50 33.5 86.5t85.5 36.5
q49 0 82.5 -36.5t33.5 -86.5q0 -51 -33.5 -87t-82.5 -36z" />
    <glyph glyph-name="glyph767" 
 />
    <glyph glyph-name="glyph768" 
 />
    <glyph glyph-name="Zcaron.aalt" horiz-adv-x="987" 
d="M1061 1028l-887 -958h225q182 0 270 52.5t197 219.5h68l-117 -342h-909l8 37l870 958h-211q-111 0 -164.5 -23t-120.5 -85.5t-114 -132.5h-65l108 311h850zM1021 1512l-289 -285q-35 -35 -51.5 -40t-48.5 -5q-51 0 -80 41l-180 289l49 33l233 -213l322 213z" />
    <glyph glyph-name="glyph770" 
 />
    <glyph glyph-name="glyph771" 
 />
    <glyph glyph-name="glyph772" 
 />
    <glyph glyph-name="glyph773" 
 />
    <glyph glyph-name="glyph774" 
 />
    <glyph glyph-name="glyph775" 
 />
    <glyph glyph-name="glyph776" 
 />
    <glyph glyph-name="glyph777" 
 />
    <glyph glyph-name="glyph778" 
 />
    <glyph glyph-name="glyph779" 
 />
    <glyph glyph-name="glyph780" 
 />
    <glyph glyph-name="glyph781" 
 />
    <glyph glyph-name="glyph782" 
 />
    <glyph glyph-name="glyph783" 
 />
    <glyph glyph-name="glyph784" 
 />
    <glyph glyph-name="glyph785" 
 />
    <glyph glyph-name="glyph786" 
 />
    <glyph glyph-name="glyph787" 
 />
    <glyph glyph-name="glyph788" 
 />
    <glyph glyph-name="glyph789" 
 />
    <glyph glyph-name="glyph790" 
 />
    <glyph glyph-name="glyph791" 
 />
    <glyph glyph-name="glyph792" 
 />
    <glyph glyph-name="glyph793" 
 />
    <glyph glyph-name="glyph794" 
 />
    <glyph glyph-name="glyph795" 
 />
    <glyph glyph-name="glyph796" 
 />
    <glyph glyph-name="glyph797" 
 />
    <glyph glyph-name="glyph798" 
 />
    <glyph glyph-name="glyph799" 
 />
    <glyph glyph-name="glyph800" 
 />
    <glyph glyph-name="glyph801" 
 />
    <glyph glyph-name="glyph802" 
 />
    <glyph glyph-name="glyph803" 
 />
    <glyph glyph-name="glyph804" 
 />
    <glyph glyph-name="glyph805" 
 />
    <glyph glyph-name="glyph806" 
 />
    <glyph glyph-name="glyph807" 
 />
    <glyph glyph-name="glyph808" 
 />
    <glyph glyph-name="glyph809" 
 />
    <glyph glyph-name="glyph810" 
 />
    <glyph glyph-name="glyph811" 
 />
    <glyph glyph-name="glyph812" 
 />
    <glyph glyph-name="glyph813" 
 />
    <glyph glyph-name="glyph814" 
 />
    <glyph glyph-name="glyph815" 
 />
    <glyph glyph-name="glyph816" 
 />
    <glyph glyph-name="glyph817" 
 />
    <glyph glyph-name="glyph818" 
 />
    <glyph glyph-name="glyph819" 
 />
    <glyph glyph-name="glyph820" 
 />
    <glyph glyph-name="glyph821" 
 />
    <glyph glyph-name="glyph822" 
 />
    <glyph glyph-name="glyph823" 
 />
    <glyph glyph-name="glyph824" 
 />
    <glyph glyph-name="glyph825" 
 />
    <glyph glyph-name="glyph826" 
 />
    <glyph glyph-name="glyph827" 
 />
    <glyph glyph-name="glyph828" 
 />
    <glyph glyph-name="glyph829" 
 />
    <glyph glyph-name="glyph830" 
 />
    <glyph glyph-name="glyph831" 
 />
    <glyph glyph-name="glyph832" 
 />
    <glyph glyph-name="glyph833" 
 />
    <glyph glyph-name="glyph834" 
 />
    <glyph glyph-name="glyph835" 
 />
    <glyph glyph-name="glyph836" 
 />
    <glyph glyph-name="glyph837" 
 />
    <glyph glyph-name="glyph838" 
 />
    <glyph glyph-name="glyph839" 
 />
    <glyph glyph-name="glyph840" 
 />
    <glyph glyph-name="glyph841" 
 />
    <glyph glyph-name="glyph842" 
 />
    <glyph glyph-name="glyph843" 
 />
    <glyph glyph-name="glyph844" 
 />
    <glyph glyph-name="glyph845" 
 />
    <glyph glyph-name="glyph846" 
 />
    <glyph glyph-name="glyph847" 
 />
    <glyph glyph-name="glyph848" 
 />
    <glyph glyph-name="glyph849" 
 />
    <glyph glyph-name="glyph850" 
 />
    <glyph glyph-name="germandbls.aalt" horiz-adv-x="1155" 
d="M641 598q108 0 174 68t66 180q0 168 -176 168q-109 0 -172 -69t-95 -226l-162 -719h-346l11 63q121 10 144.5 32.5t37.5 80.5l135 574q42 178 147 259t306 81q170 0 271 -62.5t101 -171.5q0 -220 -311 -287v-4q275 -35 275 -231q0 -156 -117 -256.5t-307 -100.5
q-116 0 -215 31l32 225h62q23 -180 141 -180q87 0 136.5 73.5t49.5 205.5q0 190 -200 190h-29l14 76h27z" />
    <glyph glyph-name="glyph852" 
 />
    <glyph glyph-name="glyph853" 
 />
    <glyph glyph-name="glyph854" 
 />
    <glyph glyph-name="i.locl" horiz-adv-x="608" 
d="M494 1245q-50 0 -87.5 39.5t-37.5 93.5q0 55 37 96.5t88 41.5q54 0 91.5 -38t37.5 -92q0 -56 -37.5 -98.5t-91.5 -42.5zM537 45q-160 -65 -242 -65q-76 0 -118 38.5t-42 104.5q0 42 17 110l106 426q23 92 23 144q0 59 -20.5 75.5t-74.5 16.5q-32 0 -112 -18l14 63
q155 70 238 70q155 0 155 -146q0 -50 -14 -110l-109 -424q-24 -93 -24 -140q0 -98 108 -98q57 0 109 17z" />
    <glyph glyph-name="glyph856" 
 />
    </font>
</defs>
</svg>
